<svg width="355" height="415" viewBox="0 0 355 415" fill="none" xmlns="http://www.w3.org/2000/svg">
<mask id="mask0_1014_8" style="mask-type:alpha" maskUnits="userSpaceOnUse" x="0" y="0" width="355" height="410">
<path d="M0 12C0 5.37258 5.37258 0 12 0H343C349.627 0 355 5.37258 355 12V397.401C355 405.857 346.48 411.802 338.459 409.124C308.658 399.174 242.943 380.079 177.5 380.079C112.057 380.079 46.3416 399.174 16.541 409.124C8.52042 411.802 0 405.857 0 397.401V12Z" fill="#D9D9D9"/>
</mask>
<g mask="url(#mask0_1014_8)">
<rect width="355" height="415" rx="12" fill="#3F3D56" fill-opacity="0.15"/>
<path d="M402.5 195.86C402.5 316.599 302 414.5 178 414.5C53.9996 414.5 -46.5 316.599 -46.5 195.86C-46.5 75.1204 53.9996 -22.7805 178 -22.7805C302 -22.7805 402.5 75.1204 402.5 195.86Z" stroke="#3F3D56" stroke-opacity="0.15"/>
<path d="M358.5 195.354C358.5 292.334 277.7 370.976 178 370.976C78.2996 370.976 -2.5 292.334 -2.5 195.354C-2.5 98.3731 78.2996 19.7317 178 19.7317C277.7 19.7317 358.5 98.3731 358.5 195.354Z" stroke="#3F3D56" stroke-opacity="0.15"/>
</g>
</svg>
