<svg width="355" height="835" viewBox="0 0 355 835" fill="none" xmlns="http://www.w3.org/2000/svg">
<path d="M198.075 298.401C199.953 295.116 202.939 293.762 205.974 291.823C207.112 291.095 208.016 290.195 208.159 288.788C208.368 286.701 207.431 284.521 207.079 282.484C206.715 280.373 206.715 278.262 207.627 276.278C208.482 274.425 209.975 272.944 211.489 271.606C212.925 270.338 214.467 269.11 215.367 267.38C216.337 265.519 216.599 263.158 216.852 261.1C217.339 257.128 217.364 253.004 218.75 249.204C219.933 245.96 222.072 244.303 224.146 241.701C227.64 237.32 228.115 232.456 230.332 227.555C232.275 223.267 236.231 220.322 240.69 219.037C243.153 218.326 245.804 218.039 248.352 218.362C253.683 219.037 259.026 219.573 264.372 220.068C269.4 220.535 274.407 220.306 278.834 222.977C282.81 225.378 285.866 229.244 286.631 233.887C287.294 237.937 286.316 241.951 287.633 245.931C288.701 249.151 290.927 251.732 291.692 255.087C292.841 260.168 291.663 264.77 290.955 269.781C290.669 271.835 290.309 274.183 290.759 276.233C291.475 279.452 294.167 281.78 295.288 284.865C297.407 290.682 293.033 293.546 292.178 298.778C291.949 300.173 292.588 301.277 293.496 302.275C298.024 307.238 302.946 314.368 298.045 321.024C296.327 323.36 293.7 324.906 290.939 325.798C287.588 326.887 283.952 327.157 280.478 327.619C272.624 328.662 264.667 328.633 256.78 327.954C248.982 327.283 241.242 325.999 233.576 324.424C222.915 322.231 187.77 316.414 198.075 298.401Z" fill="#5B3650"/>
<path d="M227.398 262.708C227.472 259.035 227.545 255.279 228.11 251.683C228.834 247.044 229.713 242.389 231.276 237.95C234.332 229.277 240.796 221.836 250.25 220.351C255.355 219.549 260.719 220.703 265.587 222.233C269.78 223.546 273.486 225.869 276.289 229.277C281.01 235.013 282.503 242.646 280.339 249.683C279.058 253.851 277.086 257.807 274.542 261.35C271.932 264.979 268.585 267.851 265.489 271.033C262.515 274.089 261.365 276.994 260.06 281.13C257.286 289.925 257.176 301.944 256.427 312.405C256.19 315.678 252.418 316.054 249.755 316.406C246.139 316.889 242.387 316.598 238.885 315.584C236.725 314.954 232.025 312.941 233.436 309.819C234.897 306.596 235.519 302.918 236.423 299.498C237.216 296.483 238.01 293.468 238.804 290.453C239.573 287.528 239.879 284.472 240.227 281.461C236.046 280.487 232.634 280.095 229.902 276.405C227.5 273.161 227.259 268.783 227.353 264.897C227.369 264.173 227.386 263.445 227.398 262.708Z" fill="#FA825E"/>
<path d="M254.58 247.535C254.555 248.795 254.191 249.813 253.352 249.797C252.514 249.781 251.52 248.742 251.544 247.477C251.565 246.213 252.645 245.596 253.483 245.612C254.322 245.624 254.604 246.271 254.58 247.535Z" fill="#5B3650"/>
<path d="M238.255 244.945C238.23 246.205 237.862 247.224 237.023 247.208C236.185 247.191 235.191 246.152 235.215 244.888C235.24 243.628 236.316 243.006 237.154 243.019C237.997 243.035 238.275 243.681 238.255 244.945Z" fill="#5B3650"/>
<path d="M248.536 257.554C248.675 257.435 248.712 257.234 248.626 257.075C248.54 256.911 248.356 256.829 248.18 256.874C244.424 257.799 241.524 258.249 239.389 257.594C239.221 257.545 239.037 257.582 238.898 257.693C238.763 257.807 238.693 257.983 238.714 258.159C239.127 261.78 241.164 264.083 248.536 257.554Z" fill="white"/>
<path d="M245.401 255.48C245.679 255.48 245.908 255.259 245.912 254.981C245.92 254.698 245.695 254.465 245.413 254.457L240.913 254.355L244.198 244.802C244.292 244.532 244.149 244.242 243.883 244.152C243.625 244.07 243.326 244.201 243.232 244.467L239.718 254.686C239.665 254.837 239.69 255.009 239.784 255.14C239.878 255.275 240.029 255.357 240.193 255.361L245.388 255.48C245.392 255.48 245.396 255.48 245.401 255.48Z" fill="#DB5148"/>
<path d="M241.415 281.465C242.576 281.465 244.581 281.305 246.577 280.589C246.843 280.491 246.978 280.197 246.884 279.931C246.786 279.665 246.491 279.53 246.23 279.624C243.407 280.643 240.785 280.43 240.756 280.418C240.441 280.414 240.224 280.598 240.195 280.876C240.171 281.158 240.375 281.408 240.654 281.436C240.825 281.453 241.087 281.465 241.415 281.465Z" fill="#DB5148"/>
<path d="M228.331 238.665C228.543 238.318 228.817 238.027 229.112 237.757C229.108 237.745 229.096 237.737 229.091 237.724C229.034 237.54 228.989 237.377 228.956 237.205C228.74 236.649 228.911 235.949 229.063 235.397C229.235 234.783 229.529 234.182 229.799 233.609C230.323 232.5 230.924 231.437 231.632 230.434C232.012 229.903 232.426 229.395 232.847 228.904C233.24 228.446 233.69 228.094 234.136 227.694C234.369 227.481 234.639 227.313 234.896 227.129C235.751 225.812 236.786 224.593 238.136 224.016C238.316 223.852 238.492 223.705 238.636 223.582C240.219 222.232 242.203 221.496 244.212 221.078C247.484 220.399 250.831 220.092 254.173 220.154C263.234 220.318 273.588 222.78 279.046 230.627C281.905 234.742 282.752 239.827 282.331 244.749C281.615 253.25 276.444 259.472 271.167 265.854C269.6 267.744 267.734 269.822 266.02 272.301C264.789 274.08 263.341 276.646 262.355 278.576C261.872 279.517 260.17 279.341 260.383 278.11C261.32 272.694 262.985 267.674 265.632 262.781C266.638 260.92 267.963 259.218 268.839 257.291C269.232 256.424 269.579 255.475 269.596 254.514C269.62 253.27 266.573 252.857 265.685 252.947C264.351 253.074 263.619 253.691 263.083 252.46C262.735 251.666 263.079 250.738 263.349 249.944C263.292 249.535 263.226 249.142 262.891 248.774C262.04 247.837 260.657 247.424 259.737 246.524C257.474 244.315 257.037 241.427 255.658 238.731C255.482 238.387 255.265 238.072 255.036 237.782C254.013 236.829 252.892 235.974 251.821 235.069C251.133 234.583 250.462 234.079 249.882 233.478C248.503 232.058 247.615 229.898 247.57 227.833C247.329 227.808 247.092 227.775 246.85 227.755C246.011 229.498 245.058 231.073 243.164 231.985C241.16 232.95 238.586 232.627 236.795 234.022C236.017 234.628 235.506 235.491 234.925 236.268C234.299 237.099 233.616 237.761 232.749 238.334C232.106 238.759 231.333 239.091 230.793 239.651C230.335 240.134 230.229 240.866 229.738 241.296C229.562 241.926 228.776 241.877 228.47 241.39C227.611 240.809 227.856 239.438 228.331 238.665Z" fill="#5B3650"/>
<path d="M262.436 257.995C263.116 255.475 265.554 252.645 267.141 251.577C269.289 250.133 272.341 249.56 274.558 251.209C278.96 254.49 270.905 260.323 268.156 261.747C267.133 262.275 265.922 262.536 264.813 262.217C262.387 261.522 261.937 259.845 262.436 257.995Z" fill="#FA825E"/>
<path d="M282.404 313.698C276.607 313.318 244.866 312.094 244.866 312.094C244.866 312.094 215.44 307.447 206.775 305.475C204.865 312.675 203.048 327.423 203.048 327.423L280.441 329.988L282.404 313.698Z" fill="#FFEDD9"/>
<path d="M353.063 414.171C352.269 421.039 347.777 426.329 340.455 427.344C333.25 428.338 329.029 425.981 324.88 420.798C320.004 414.703 317.063 410.526 312.624 404.107C303.878 391.466 285.747 365.03 277.52 352.05C275.29 348.536 273.138 344.49 274.771 340.256C277.143 334.111 282.343 329.701 288.987 329.386C294.227 329.137 298.977 331.616 302.777 335.048C307.122 338.971 311.299 343.635 315.259 348.016C323.968 357.654 341.35 381.893 347.012 393.585C347.487 394.571 348.027 395.635 348.591 396.76C351.611 402.741 353.742 408.247 353.063 414.171Z" fill="#FA825E"/>
<path d="M269.946 412.223C279.094 409.352 288.49 406.238 297.887 403.8C307.427 401.325 313.936 398.768 323.64 397.169C328.758 396.326 334.329 397.108 339.435 397.684C343.91 398.188 348.3 400.032 351.18 404.074C354.678 408.988 355.578 417.358 351.9 422.41C348.181 427.519 339.484 428.771 333.781 430.416C318.199 434.904 301.688 437.698 285.52 438.855C279.691 439.273 274.438 438.455 270.908 432.453C267.328 426.358 264.252 414.015 269.946 412.223Z" fill="#FA825E"/>
<path d="M311.894 401.342C311.919 401.342 311.947 401.342 311.972 401.338L330.258 398.523C330.54 398.478 330.729 398.22 330.688 397.942C330.643 397.664 330.381 397.48 330.103 397.513L311.816 400.327C311.538 400.368 311.346 400.63 311.387 400.908C311.428 401.162 311.644 401.342 311.894 401.342Z" fill="#DB5148"/>
<path d="M258.513 822.515C258.607 808.246 256.554 785.954 256.554 785.954C256.554 785.954 275.327 785.39 280.023 786.134C284.564 786.858 296.906 787.341 296.939 787.946C297.123 791.424 296.506 794.942 296.121 798.395C296.006 798.395 292.93 819.025 293.834 821.987C282.298 822.912 270.217 823.19 258.509 823.263C258.509 823.014 258.509 822.768 258.513 822.515Z" fill="#FA825E"/>
<path d="M293.834 821.988C293.867 822.09 293.904 822.176 293.945 822.233C294.468 822.969 295.107 823.485 295.823 823.873C296.984 824.503 298.334 824.794 299.672 825.133C301.967 825.714 304.397 826.209 306.467 827.408C308.533 828.603 310.047 830.82 310.022 833.213C310.01 834.624 310.002 835.119 304.561 834.976C297.512 834.788 267.706 835.079 259.769 834.224C259.18 834.158 258.812 833.786 258.759 833.189C258.562 830.857 258.493 827.334 258.509 823.264C270.217 823.19 282.298 822.912 293.834 821.988Z" fill="#FFCBB4"/>
<path d="M265.712 798.64C283.061 797.143 307.685 796.145 310.021 795.744C314.152 795.032 312.148 728.146 312.001 723.687C310.642 682.556 308.777 641.442 306.596 600.349C304.756 565.638 302.358 530.959 299.916 496.288C297.936 468.204 296.893 434.597 272.854 415.222C262.361 406.762 249.683 402.815 235.32 404.283C223.526 405.494 211.642 406.202 203.112 413.533C195.908 419.722 193.715 428.35 194.877 436.957C203.018 497.311 214.366 557.161 224.987 617.11C235.533 676.674 241.993 738.921 249.953 798.833C250.105 799.692 256.798 799.41 265.712 798.64Z" fill="#FF5778"/>
<path d="M187.215 822.515C187.121 808.246 189.175 785.954 189.175 785.954C189.175 785.954 170.406 785.39 165.705 786.134C161.164 786.858 148.822 787.341 148.789 787.946C148.605 791.424 149.223 794.942 149.607 798.395C149.722 798.395 152.798 819.025 151.894 821.987C163.431 822.912 175.515 823.19 187.219 823.263C187.219 823.014 187.215 822.768 187.215 822.515Z" fill="#FA825E"/>
<path d="M151.895 821.988C151.862 822.09 151.83 822.176 151.785 822.233C151.261 822.969 150.619 823.485 149.907 823.873C148.745 824.503 147.395 824.794 146.053 825.133C143.762 825.714 141.332 826.209 139.262 827.408C137.196 828.603 135.683 830.82 135.707 833.213C135.724 834.624 135.732 835.119 141.173 834.976C148.217 834.788 178.024 835.079 185.96 834.224C186.549 834.158 186.918 833.786 186.971 833.189C187.167 830.857 187.237 827.334 187.22 823.264C175.516 823.19 163.432 822.912 151.895 821.988Z" fill="#FFCBB4"/>
<path d="M127.483 619.957C126.072 633.633 129.635 781.013 130.118 798.048C129.889 799.524 195.479 800.674 196.354 797.937C197.843 793.257 196.902 786.982 197.09 782.166C198.931 734.524 202.928 677.672 205.039 633.302C206.094 611.145 229.425 562.627 235.557 545.744C249.36 507.735 256.732 489.191 263.187 454.978C264.795 446.444 260.054 427.094 253.181 420.537C245.044 412.768 233.217 411.438 221.501 409.614C207.232 407.392 205.293 402.774 194.366 410.669C169.35 428.759 159.343 470.88 152.176 498.105C143.479 531.131 133.067 567 129.41 601.568C128.76 607.697 128.121 613.829 127.483 619.957Z" fill="#FF5778"/>
<path d="M219.817 577.89C219.834 577.89 219.85 577.886 219.866 577.886C220.145 577.861 220.353 577.612 220.325 577.33L212.449 496.603C212.421 496.321 212.216 496.153 211.889 496.141C211.611 496.17 211.406 496.419 211.431 496.701L219.306 577.428C219.335 577.694 219.555 577.89 219.817 577.89Z" fill="#E03A5D"/>
<path d="M109.063 349.952C103.143 346.384 98.6392 339.843 100.754 332.761C102.837 325.79 108.294 323.189 114.737 321.565C122.301 319.658 129.947 318.079 137.63 316.7C152.758 313.992 184.336 308.469 199.562 306.371C203.682 305.802 208.26 305.524 211.434 308.768C216.041 313.477 217.89 320.039 215.419 326.212C213.472 331.08 209.25 334.373 204.545 336.411C199.174 338.73 193.193 340.6 187.564 342.383C175.181 346.302 145.914 352.058 132.929 352.357C131.833 352.378 130.643 352.427 129.387 352.476C122.69 352.742 114.168 353.032 109.063 349.952Z" fill="#FA825E"/>
<path d="M291.041 345.55C289.605 352.864 288.002 357.291 286.414 362.809C285.891 364.552 285.4 366.405 284.917 368.479C282.372 379.337 280.638 394.048 278.596 403.715C278.032 406.275 277.512 408.779 276.976 411.258C276.813 412.089 276.567 416.11 275.508 416.274C248.774 420.602 223.553 419.039 198.537 410.436C197.514 410.092 197.878 406.104 197.842 405.261C197.686 402.729 197.527 400.172 197.379 397.558C196.815 387.694 191.779 373.802 190.92 362.683C190.723 360.105 190.691 357.888 190.809 355.765V355.744C191.083 350.537 192.274 345.889 193.845 338.178C194.957 332.708 199.016 327.312 200.276 321.769C201.257 317.457 203.872 309.517 212.43 308.854C213.211 308.793 213.997 308.727 214.798 308.707C218.673 308.445 222.559 308.31 226.474 308.318L226.658 308.314C240.166 308.334 253.838 309.758 267.158 311.98C270.501 312.52 273.818 313.121 277.091 313.755C280.266 314.365 283.698 314.79 286.594 316.345C287.281 316.725 287.948 317.142 288.566 317.662C291.495 320.12 292.722 324.498 293.042 328.908C293.434 334.578 292.113 340.076 291.041 345.55Z" fill="#FFEDD9"/>
<path d="M267.909 328.654C268.339 325.688 269.333 322.845 270.99 320.517C272.933 317.797 275.662 315.694 278.767 314.458C280.243 313.869 281.581 313.387 283.177 313.861C285.116 314.438 286.92 315.281 288.695 316.307C292.835 318.692 296.472 321.937 299.818 325.373C302.891 328.523 305.771 331.874 308.43 335.384C310.107 337.593 311.862 339.757 313.323 342.117C314.452 343.938 316.104 345.897 313.854 347.538C306.716 352.75 298.857 359.753 289.886 366.806C289.014 367.493 288.237 368.778 287.186 368.25C286.163 367.73 285.349 366.033 284.69 365.12C283.712 363.762 282.735 362.4 281.757 361.042C278.938 357.127 276.12 353.204 273.563 349.117C270.822 344.727 268.425 340.215 267.831 335.093C267.586 332.982 267.598 330.789 267.909 328.654Z" fill="#FFEDD9"/>
<path d="M219.361 330.417C221.022 327.844 222.184 324.964 222.499 322.01C222.875 318.558 222.245 315.027 220.76 311.889C220.048 310.4 219.377 309.083 217.872 308.326C216.039 307.402 214.133 306.776 212.124 306.309C207.444 305.221 202.568 305.144 197.773 305.418C193.376 305.667 188.994 306.203 184.666 307.021C181.941 307.533 179.188 307.954 176.521 308.731C174.459 309.329 171.923 309.668 172.5 312.511C174.336 321.532 175.515 332.438 177.482 344.163C177.675 345.3 177.396 346.834 178.53 347.166C179.642 347.493 181.381 346.765 182.481 346.527C184.122 346.176 185.758 345.824 187.395 345.472C192.111 344.457 196.836 343.439 201.467 342.109C206.45 340.677 211.253 338.91 215.115 335.404C216.706 333.96 218.162 332.266 219.361 330.417Z" fill="#FFEDD9"/>
<path d="M260.724 312.903C260.728 311.905 260.045 302.938 259.517 302.099C258.985 301.261 258.306 300.438 257.361 300.749C257.361 300.749 257.132 302.795 256.248 303.605C255.336 304.443 253.655 304.734 252.517 305.192C248.193 306.918 241.054 308.817 237.307 303.699C236.702 302.872 235.969 300.811 236.362 299.747C236.505 299.346 236.73 298.377 236.73 298.377C236.432 297.91 235.274 297.62 234.497 298.033C233.715 298.446 230.668 304.55 229.191 309.156C229.023 313.893 229.764 317.706 233.629 320.443C237.491 323.184 244.949 322.084 249.592 321.044C254.24 320.005 259.852 316.262 260.421 315.444C260.99 314.622 260.72 313.902 260.724 312.903Z" fill="#FFEDD9"/>
<path d="M246.074 323.299C249.473 323.299 255.949 322.55 260.969 317.523C261.169 317.322 261.169 316.999 260.969 316.798C260.764 316.598 260.441 316.598 260.245 316.798C254.513 322.546 246.736 322.391 244.495 322.215C244.29 322.198 244.131 322.031 244.118 321.818L243.431 309.022C243.419 308.747 243.194 308.539 242.924 308.539C242.916 308.539 242.903 308.539 242.895 308.539C242.613 308.555 242.396 308.797 242.412 309.075L243.096 321.871C243.136 322.603 243.693 323.176 244.413 323.233C244.814 323.266 245.378 323.299 246.074 323.299Z" fill="#FFCBB4"/>
<path d="M234.777 320.452C235.191 320.452 235.583 320.239 235.812 319.867L241.262 310.094C241.401 309.844 241.311 309.533 241.065 309.398C240.812 309.259 240.505 309.349 240.37 309.595L234.933 319.351C234.892 319.413 234.794 319.446 234.724 319.421C233.755 319.045 231.161 316.533 230.748 309.476C230.736 309.194 230.502 308.916 230.208 308.997C229.926 309.014 229.713 309.255 229.729 309.537C230.155 316.86 232.941 319.826 234.356 320.374C234.495 320.427 234.638 320.452 234.777 320.452Z" fill="#FFCBB4"/>
<path d="M285.344 366.168C285.042 367.649 285.083 367.808 284.915 368.479C283.426 374.886 282.608 381.734 281.56 388.239C281.057 391.376 280.783 394.6 280.178 397.734C279.511 401.145 278.66 404.688 278.398 408.153C278.132 409.507 276.41 417.325 274.79 417.591C247.389 422.034 220.106 419.702 194.473 410.89C193.434 410.526 193.806 406.431 193.769 405.588C193.225 396.527 193.417 388.643 191.171 379.84C189.371 372.754 187.768 364.282 188.181 356.91C188.209 356.542 188.238 356.178 188.287 355.789V355.769C189.359 344.351 197.406 333.833 202.753 324.17C205.559 319.073 210.174 306.146 210.435 305.962L225.703 308.314C224.75 314.123 225.363 319.347 230.432 323.05C233.582 325.361 237.211 325.901 240.942 326.433C244.533 326.907 248.522 326.515 251.868 325.087C256.618 323.029 260.427 319.298 263.446 315.179C264.203 314.152 264.747 312.789 265.401 311.693C268.744 312.233 272.356 312.155 275.694 312.196C280.186 312.254 283.675 313.321 286.302 315.056C285.901 315.743 284.248 317.723 283.892 318.37C277.547 330.397 273.677 343.594 276.664 357.168C279.016 367.866 283.962 364.662 284.113 364.56L285.344 366.168Z" fill="#FFBF56"/>
<path d="M278.494 403.92C274.251 402.983 269.404 406.628 267.538 410.833C267.117 411.782 266.274 414.577 266.732 415.652C267.027 416.34 267.26 417.69 268.242 417.604C267.996 418.524 267.943 419.477 268.074 420.418C268.201 421.339 268.512 422.419 269.125 423.139C269.26 423.298 269.416 423.397 269.571 423.495C269.26 424.28 269.125 425.127 269.224 426.003C269.375 427.43 269.944 428.784 270.59 430.061C269.931 430.973 269.428 431.971 269.191 433.076C268.864 434.606 268.974 436.909 270.733 437.531C271.543 437.817 272.41 437.543 273.061 437.032C273.936 436.344 274.145 435.346 274.779 434.491C275.597 433.387 277.045 433.898 278.142 434.27C279.434 434.712 280.699 435.244 281.934 435.825C284.225 436.909 286.43 438.161 288.623 439.429C297.979 444.841 298.314 408.293 278.494 403.92Z" fill="#FA825E"/>
<path d="M271.611 429.774C271.783 429.774 271.946 429.688 272.045 429.537C274.282 425.962 278.414 425.516 282.497 425.614C282.501 425.614 282.505 425.614 282.509 425.614C282.787 425.614 283.012 425.393 283.02 425.115C283.025 424.828 282.8 424.599 282.517 424.591C278.312 424.542 273.689 424.98 271.177 428.993C271.03 429.234 271.104 429.549 271.341 429.697C271.427 429.75 271.517 429.774 271.611 429.774Z" fill="#DB5148"/>
<path d="M270.21 423.323C270.374 423.323 270.533 423.245 270.632 423.098C272.346 420.569 276.694 417.91 280.83 417.91C280.92 417.91 281.039 417.927 281.092 417.914C281.366 417.914 281.595 417.694 281.603 417.415C281.608 417.133 281.387 416.9 281.104 416.892C281.01 416.888 280.916 416.888 280.826 416.888C276.298 416.888 271.687 419.719 269.785 422.521C269.625 422.758 269.687 423.077 269.92 423.233C270.01 423.294 270.108 423.323 270.21 423.323Z" fill="#DB5148"/>
<path d="M268.666 417.391C268.83 417.391 268.985 417.313 269.088 417.174C270.736 414.809 274.979 411.442 279.789 411.737C280.096 411.819 280.317 411.541 280.334 411.262C280.354 410.98 280.141 410.739 279.859 410.718C274.929 410.362 270.389 413.529 268.249 416.585C268.085 416.818 268.143 417.137 268.372 417.301C268.462 417.362 268.564 417.391 268.666 417.391Z" fill="#DB5148"/>
<path d="M293.376 420.569C293.405 420.569 293.438 420.565 293.47 420.557C293.749 420.508 293.929 420.238 293.875 419.96C292.554 413.091 290.001 411.52 289.895 411.459C289.654 411.316 289.339 411.398 289.195 411.639C289.052 411.884 289.134 412.191 289.371 412.338C289.437 412.379 291.666 413.881 292.873 420.152C292.918 420.398 293.135 420.569 293.376 420.569Z" fill="#DB5148"/>
<path d="M111.884 249.274C122.066 254.355 124.656 272.805 126.182 283.777C127.835 295.686 127.912 308.036 130.101 319.802C135.808 350.516 102.585 361.546 99.7586 335.589C98.5804 324.76 97.6681 313.903 96.7804 303.045C95.3772 285.843 96.0031 269.07 84.9862 254.605C83.943 253.234 104.414 245.547 111.884 249.274Z" fill="#FA825E"/>
<path d="M105.041 267.012C104.46 266.12 103.54 265.711 102.595 265.22C102.063 264.946 101.11 264.651 100.766 264.488C100.385 264.308 99.5795 263.985 98.9905 263.784C98.1436 263.502 97.35 263.289 96.5687 263.097C96.5932 263.019 96.6341 262.95 96.6505 262.864C96.7405 262.365 96.6423 261.931 96.4132 261.571C97.6733 260.826 98.2132 258.425 95.3537 258.306C90.3995 258.098 72.379 261.199 70.0186 264.038C69.3231 264.868 69.8222 266.083 70.714 266.611C74.9686 269.115 91.6228 268.828 94.2491 271.659C95.6196 275.1 98.6304 272.007 99.4977 272.285C100.439 272.588 101.347 272.261 101.985 271.684C102.468 271.663 102.951 271.655 103.433 271.606C104.554 271.496 104.967 270.166 104.395 269.409C104.611 269.241 104.812 269.045 104.996 268.804C105.385 268.284 105.389 267.552 105.041 267.012Z" fill="#FA825E"/>
<path d="M244.872 315.358C245.751 313.444 245.727 311.595 245.628 309.533C245.547 307.831 245.518 306.088 246.185 304.489C246.811 302.987 247.882 301.703 248.901 300.451C249.997 299.101 251.114 297.726 251.683 296.057C252.329 294.159 252.272 292.118 252.419 290.146C252.571 288.129 252.918 286.121 253.982 284.366C254.947 282.774 256.269 281.42 257.521 280.054C260.793 276.499 261.939 271.696 263.588 267.253C263.813 266.648 264.77 266.885 264.573 267.527C264.537 267.646 264.504 267.76 264.463 267.879C265.838 266.443 268.083 266.693 269.83 267.756C272.477 269.368 274.543 271.962 276.351 274.429C278.02 276.707 279.538 279.084 280.769 281.633C283.334 286.939 285.707 292.408 287.851 297.898C289.315 301.654 292.122 309.132 288.272 312.417C288.649 312.613 288.665 313.301 288.17 313.431C286.194 313.963 284.255 314.806 282.34 315.526C280.438 316.234 278.421 316.5 276.523 317.191C273.492 318.292 271.614 321.163 269.159 323.094C268.047 323.97 266.778 324.694 265.379 324.984C263.645 325.344 261.89 325.074 260.155 324.878C258.085 324.645 256.281 324.817 254.281 325.385C252.722 325.827 251.09 326.126 249.47 325.909C246.528 325.512 243.121 322.861 243.337 319.637C243.444 318.099 244.237 316.729 244.872 315.358Z" fill="#5B3650"/>
<path d="M191.776 163.912H9.23515C7.8156 155.031 6.22017 145.282 6.49835 137.64C6.67426 132.875 7.61105 129.77 9.03061 127.393C20.9189 107.515 39.7371 105.817 54.6035 100.839C70.0386 95.6758 85.6578 93.0085 101.334 93.0944C116.957 93.1844 132.605 95.8926 147.991 101.055C155.114 103.44 197.434 115.386 194.836 137.461C193.797 146.272 192.795 155.092 191.776 163.912Z" fill="#BA3918"/>
<path d="M15.2016 135.321C15.1648 135.305 15.1279 135.288 15.087 135.268H15.0829C15.4798 135.444 15.5207 135.46 15.2016 135.321Z" fill="#FF6188"/>
<path d="M0.107574 129.815C0.23848 129.193 0.50853 128.637 0.974899 128.211C3.07764 126.301 6.66125 128.138 8.30171 129.774C9.70491 131.177 10.8627 132.867 12.5236 133.947C18.2918 137.706 20.0672 126.919 27.0423 128.911C30.3232 129.852 32.336 135.972 35.3633 135.436C40.031 134.609 42.2441 126.469 47.9755 130.24C49.3746 131.161 50.287 132.67 51.6165 133.689C55.597 136.749 57.3929 131.374 60.3588 129.934C62.6252 128.833 63.7829 129.201 65.7997 130.682C68.692 132.809 71.0156 138.467 75.4829 136.618C79.5289 134.937 82.4417 127.07 87.7108 129.549C90.959 131.079 93.528 139.682 97.983 136.197C99.3371 135.145 100.159 133.57 101.162 132.179C103.51 128.935 107.785 127.013 111.377 129.214C113.929 130.776 114.457 134.02 116.994 135.481C121.121 137.862 122.254 132.494 124.349 130.388C126.345 128.375 129.021 126.231 131.831 128.199C134.421 130.015 136.078 137.387 139.944 136.876C145.773 136.103 144.031 125.748 151.959 128.432C156.95 130.126 163.287 141.196 168.081 132.601C170.499 128.273 173.984 125.793 178.591 128.858C181.487 130.788 182.481 139.175 187.558 135.931C190.409 134.11 190.716 129.41 194.398 128.51C195.76 128.183 198.669 128.829 199.626 129.929C201.107 131.648 200.256 132.92 199.716 135.325C198.497 140.787 197.286 146.252 196.092 151.718C193.76 162.383 191.473 173.052 189.239 183.729C184.825 204.822 180.612 225.948 176.611 247.122C176.136 249.618 171.415 253.336 169.202 254.686C151.247 265.65 125.814 265.601 105.347 265.384C88.3939 265.2 71.4615 263.261 54.9137 259.575C40.71 256.413 26.2854 254.38 23.1354 237.963C16.549 203.623 9.96266 169.223 0.864441 135.477C0.463516 133.988 -0.276978 131.615 0.107574 129.815Z" fill="#FF9441"/>
<path d="M24.9973 148.101C29.5587 163.912 33.0932 179.981 36.6973 196.034L41.811 218.784C43.5373 226.47 46.1965 234.583 45.9183 242.515C45.8324 244.917 42.3715 246.16 41.1606 243.804C37.7242 237.136 36.6401 229.342 35.016 222.077C33.2201 214.046 31.4283 206.016 29.6324 197.985C26.0364 181.896 22.3709 165.827 19.7363 149.549C19.1882 146.157 24.0032 144.652 24.9973 148.101Z" fill="#EB702A"/>
<path d="M160.168 236.538C160.614 233.159 161.162 229.792 161.677 226.421C162.704 219.7 163.866 212.987 165.024 206.29C167.315 193.002 169.544 179.707 171.982 166.448C172.645 162.836 173.357 159.22 174.282 155.665C175.263 151.909 176.065 148.006 177.567 144.435C178.172 143.003 180.238 143.122 180.344 144.807C180.557 148.08 180.185 151.43 179.902 154.699C179.612 158.058 179.281 161.416 178.794 164.759C177.824 171.496 176.691 178.214 175.578 184.927C173.373 198.235 171.152 211.543 168.877 224.838C168.256 228.467 167.564 232.091 166.881 235.708C166.521 237.626 166.104 239.537 165.703 241.451C165.31 243.333 164.991 245.313 163.878 246.925C162.766 248.533 160.172 248.406 159.603 246.365C158.74 243.284 159.759 239.647 160.168 236.538Z" fill="#EB702A"/>
<path d="M97.8865 239.705C98.3488 236.248 98.4879 232.881 98.537 229.396C98.627 222.58 98.7251 215.773 98.9869 208.961C99.5146 195.224 99.9647 181.487 100.488 167.745C100.779 160.054 100.64 151.86 102.82 144.423C103.282 142.84 105.847 142.66 106.212 144.423C107.607 151.157 107.026 158.148 106.821 164.976C106.621 171.791 106.281 178.603 105.974 185.41C105.352 199.151 104.833 212.901 103.921 226.626C103.663 230.521 103.147 234.501 103.471 238.4C103.782 242.143 104.056 246.577 102.992 250.214C102.264 252.697 98.2465 252.98 97.6737 250.214C96.9742 246.847 97.4283 243.084 97.8865 239.705Z" fill="#EB702A"/>
<path d="M129.314 246.414C129.47 244.712 129.768 243.035 130.038 241.349C130.574 238.003 131.131 234.652 131.671 231.302C132.759 224.523 133.671 217.716 134.559 210.905C136.318 197.388 137.279 183.839 138.003 170.232C138.396 162.852 139.026 155.554 141.477 148.534C142.344 146.043 146.116 147.021 145.461 149.635C143.894 155.922 143.363 162.472 143.06 168.932C142.741 175.727 142.499 182.518 142.033 189.304C141.092 202.98 139.685 216.591 137.566 230.132C136.989 233.814 136.4 237.496 135.659 241.149C135.283 243.026 134.943 244.925 134.432 246.766C133.888 248.733 133.119 250.382 132.252 252.198C131.532 253.7 129.384 252.845 129.31 251.401C129.228 249.691 129.155 248.136 129.314 246.414Z" fill="#EB702A"/>
<path d="M56.9187 148.784C57.6796 147.589 59.2055 147.422 60.2486 148.354C62.4659 150.343 62.5396 154.507 62.9364 157.273C63.3905 160.48 63.8487 163.687 64.3069 166.899C65.2192 173.313 66.111 179.736 67.011 186.155C68.8192 199.078 71.0528 211.952 72.7219 224.892C73.1964 228.561 73.6178 232.235 74.0678 235.904C74.2805 237.627 74.5546 239.337 74.6651 241.071C74.7878 243.027 74.256 244.99 74.3746 246.921C74.5383 249.535 70.3287 250.124 69.7805 247.543C69.4492 246.001 68.5942 244.524 68.1483 242.99C67.7023 241.448 67.5469 239.803 67.3137 238.22C66.8473 235.017 66.3318 231.826 65.8491 228.622C64.8755 222.118 64.0982 215.597 63.3578 209.06C61.8973 196.181 60.0278 183.352 58.3423 170.507C57.8555 166.833 57.3768 163.164 56.8941 159.49C56.665 157.776 56.4155 156.058 56.2846 154.331C56.1373 152.449 55.855 150.449 56.9187 148.784Z" fill="#EB702A"/>
<path d="M6.88426 101.435C12.5134 92.9834 25.273 81.8438 45.7686 73.486C126.523 44.604 184.979 83.787 194.511 103.788C206.55 126.026 185.363 128.501 158.314 119.734C146.884 115.103 128.262 123.719 108.032 122.949C87.8233 121.681 71.3 119.235 51.8886 121.137C18.5148 124.41 9.51884 133.32 3.23108 118.167C1.71744 113.843 2.30241 108.283 6.88426 101.435Z" fill="#FF5778"/>
<path d="M25.9142 61.918C38.0192 53.3761 54.2847 49.8128 68.1489 47.3133C92.5799 42.9196 118.316 42.8869 142.457 49.0437C153.101 51.756 165.558 55.5483 173.801 63.2597C185.452 74.162 185.309 94.9726 148.229 81.3007C138.869 77.848 122.186 75.6921 105.11 75.3812C88.0513 74.8043 70.2639 77.1689 58.0116 79.8566C47.4324 82.3807 37.2705 86.124 26.8959 89.319C20.4568 91.299 11.0313 94.4122 10.8636 84.0662C10.8186 81.3744 11.6982 78.7357 12.95 76.3507C16.1041 70.3615 20.6082 65.6612 25.9142 61.918Z" fill="#FF5778"/>
<path d="M7.99489 70.1894C8.04398 69.9521 8.10123 69.7108 8.17485 69.4694C10.5476 61.3898 21.184 55.9734 28.3145 52.9666C42.7677 46.8711 58.567 45.6561 74.0103 44.3551C86.8394 43.2792 99.6235 41.2543 112.526 41.2461C125.736 41.2379 138.389 44.2652 151.03 47.8734C161.388 50.8311 170.998 56.4112 178.681 63.963C184.257 69.449 188.65 82.6053 177.707 85.6858C170.163 87.8131 169.284 80.0363 164.097 77.1235C158.684 74.088 155.109 78.8172 151.587 82.1308C148.604 84.9413 145.614 87.4081 141.617 88.7704C137.477 90.1817 132.924 88.8441 128.583 89.6336C122.357 90.7668 120.594 96.8745 115.832 99.8977C111 102.958 104.079 102.405 99.7012 98.7727C91.4948 91.9695 78.723 84.8677 67.7429 88.1813C54.8483 92.08 56.0429 108.894 45.0506 114.163C40.0596 116.556 35.3182 114.453 32.8227 109.728C29.8404 104.083 31.8695 99.0059 32.9454 93.254C33.6736 89.3635 33.8291 85.1336 31.935 81.6563C28.5886 75.4994 22.9841 77.2667 17.67 78.9235C12.0491 80.6744 6.80852 76.1049 7.99489 70.1894Z" fill="#A4250E"/>
<path d="M106.21 90.1198C106.999 90.0052 108.112 89.7557 109 89.3957C108.423 89.6288 109.949 88.6838 109.9 88.827C110.071 88.6674 110.235 88.4997 110.39 88.3156C110.444 88.2133 110.775 87.7388 110.828 87.6529C111.184 87.0556 111.483 86.4256 111.773 85.7915C112.272 84.6993 112.816 83.1161 113.7 81.6516C114.657 80.0602 115.954 78.6446 117.619 77.7774C121.354 75.8301 126.071 76.816 130.096 76.906C133.946 76.996 138.929 77.1474 141.764 74.0547C143.429 72.2342 146.162 74.5538 145.073 76.6115C142.643 81.2097 137.501 82.6824 132.625 82.9033C130.236 83.0138 127.842 82.8829 125.453 82.8174C124.431 82.7888 123.4 82.7601 122.377 82.8133C121.645 82.8501 120.978 83.0383 120.614 83.2101C120.466 83.2919 120.323 83.3861 120.184 83.4802C120.147 83.5129 120.131 83.5293 120.049 83.6029C119.98 83.6643 119.575 84.1511 119.509 84.2043C119.084 84.8179 118.748 85.4888 118.437 86.1638C118.36 86.3397 118.004 87.2643 117.742 87.9802C117.398 88.8966 117.046 89.817 116.621 90.7006C114.592 94.8979 110.603 96.8493 106.21 95.3806C103.927 94.6156 103.329 90.537 106.21 90.1198Z" fill="#BA3413"/>
<path d="M41.3494 102.683C41.288 102.732 41.2266 102.782 41.2307 102.79C41.2225 102.769 41.5007 102.557 41.5498 102.516C41.6521 102.266 41.7749 102.025 41.8976 101.787C42.0694 101.464 42.3189 101.174 42.5603 100.896C42.9653 100.298 43.3171 99.6888 43.6607 99.0547C44.4134 97.6719 45.1949 96.3547 45.8576 94.9188C45.9149 94.7879 45.9762 94.657 46.0335 94.5261C46.0376 94.522 46.0376 94.522 46.0376 94.5179C46.1685 94.1702 46.2953 93.8224 46.4262 93.4747C46.5039 93.2701 46.5858 93.0656 46.6758 92.861C46.639 92.767 46.8025 92.4397 46.8312 92.3415C46.9334 91.9692 47.0317 91.5929 47.1217 91.2165C47.2035 90.881 47.273 90.5456 47.3384 90.2101C47.3712 90.0342 47.404 89.8542 47.4326 89.6742C47.4326 89.7028 47.4326 89.7192 47.4326 89.7478C47.4326 89.7151 47.4366 89.6824 47.4366 89.6496C47.4407 89.6414 47.4407 89.6333 47.4407 89.6252C47.4612 89.5106 47.4653 89.3633 47.4612 89.2733C47.498 88.7783 47.5512 88.2792 47.5512 87.7801C47.543 86.1888 48.7703 84.8551 50.3167 84.6505C51.728 84.4583 53.5812 85.3624 53.8144 86.9333C54.0762 88.676 54.1662 90.386 54.0067 92.1451C53.9453 92.812 53.8554 93.4787 53.7572 94.1415C53.749 94.1906 53.7408 94.2397 53.7285 94.2929C53.6631 94.6692 53.6549 95.0825 53.5935 95.4506C53.4462 96.3261 53.2417 97.2015 52.9921 98.0483C52.3785 100.155 51.3394 102.454 49.8667 104.103C49.3472 104.68 48.7826 105.203 48.1771 105.69C47.1339 106.521 46.189 107.003 45.064 107.134C44.5199 107.306 43.9921 107.478 43.4235 107.564C42.0858 107.764 40.8258 107.339 40.2694 106.013C39.7294 104.737 40.253 103.457 41.3494 102.683Z" fill="#BA3413"/>
<path d="M47.4314 89.674C47.4396 89.1789 47.4559 89.1503 47.46 89.273C47.4518 89.3999 47.4395 89.5226 47.4354 89.6494C47.4354 89.6576 47.4314 89.6658 47.4314 89.674Z" fill="#BA3413"/>
<path d="M139.5 53.8007C139.877 52.4425 141.431 51.4606 142.822 51.9147C145.8 52.8924 148.693 53.3588 151.495 54.1565C154.698 55.0647 157.877 55.977 160.953 57.2534C164.295 58.6361 167.347 60.1989 170.002 62.6903C170.579 63.2303 171.127 63.7948 171.634 64.4002C171.974 64.793 172.387 65.2307 172.645 65.6726C173.091 66.4948 173.189 66.7525 172.935 66.4375C172.8 66.2657 172.837 66.3434 173.054 66.6666C173.884 68.2621 174.748 69.8699 174.723 71.7231C174.699 73.9035 172.142 74.7953 170.595 73.433C169.536 72.4962 168.783 71.2525 167.724 70.3116C166.779 69.6734 165.94 68.7898 165.31 68.3071C164.688 67.8203 163.252 66.9408 162.307 66.3149C160.204 64.9321 157.635 63.6475 155.533 62.7475C151.245 60.9188 146.042 59.0288 141.386 57.1225C140.04 56.5743 139.083 55.3266 139.5 53.8007Z" fill="#BA3413"/>
<path d="M40.0497 60.0313C40.5488 50.3521 42.087 45.578 45.6584 41.483C55.9102 29.7338 67.8598 15.8739 77.9357 4.86108C80.0426 2.56607 83.3072 -0.0563736 86.6576 0.000900269C90.3231 0.0581741 93.9845 2.69282 97.2286 4.17373C102.13 6.41147 106.92 8.85785 111.592 11.5415C116.607 14.4256 122.854 16.8638 126.822 21.0816C130.84 25.3525 133.041 27.7825 135.417 33.7962C136.641 36.8849 129.089 45.9176 125.174 49.8122C121.021 53.9399 116.722 57.9367 112.741 62.2363C108.094 67.2558 104.375 73.0609 99.634 77.9986C97.2572 80.4736 94.6022 82.8464 91.5586 84.4746C87.664 86.5569 86.4081 84.4664 82.759 82.83C74.0453 78.9191 65.4257 74.7995 56.9289 70.4427C52.5925 68.2131 39.9515 61.9663 40.0497 60.0313Z" fill="#931910"/>
<path d="M97.7558 50.3275C98.5618 48.5479 99.6827 47.2429 101.176 45.9992C102.645 44.7719 104.203 43.651 105.59 42.3338C107.108 40.8938 108.392 39.2002 109.701 37.572C111.223 35.6779 119.426 26.3546 121.013 24.5178C122.428 22.8814 125.341 25.3196 123.926 26.9928C122.428 28.7601 114.32 38.026 112.888 39.8465C111.51 41.5933 110.156 43.4465 108.56 45.0052C107.263 46.2693 105.782 47.3288 104.367 48.4579C103 49.542 101.507 50.6874 100.37 52.017C99.3432 53.2156 97.1095 51.7552 97.7558 50.3275Z" fill="#A4250E"/>
<path d="M50.1345 43.8432C53.849 44.1869 61.5031 48.7401 64.6368 50.5237C68.4863 52.7124 72.1927 55.081 75.9932 57.3474C77.5068 58.2474 79.0533 59.1188 80.6651 59.8265C82.0397 60.4279 83.8151 61.2788 85.3615 61.1029C86.6747 60.9597 87.6319 59.9206 88.4705 58.996C89.5996 57.7483 90.7533 56.6929 92.0911 55.662C93.5433 54.5492 96.047 56.2347 94.7297 57.9038C92.6106 60.5915 91.281 63.8725 87.8733 65.2756C84.1874 66.7893 80.256 64.9975 76.9505 63.3488C72.9578 61.3525 69.1491 58.8488 65.455 56.3574C61.7363 53.8456 53.7918 48.6501 49.5331 47.116C47.8149 46.4941 48.1831 43.6673 50.1345 43.8432Z" fill="#A4250E"/>
<path d="M83.5591 69.7472C83.7432 69.3749 83.9477 69.0231 84.2709 68.7327C85.0236 68.0372 86.2959 68.2499 86.9177 68.9985C87.1591 69.2849 87.2818 69.6163 87.4414 69.9477C87.4291 69.9313 87.4169 69.915 87.4046 69.8986C87.7687 70.5409 87.9077 71.2814 88.0714 72.0423C88.1941 72.6273 88.3619 73.2041 88.5337 73.7768C88.7505 74.4477 88.9837 75.1227 89.2169 75.7895C89.4255 76.3868 89.5155 76.7631 89.5278 77.3972C89.5319 77.5772 89.5278 77.7614 89.5155 77.9454C89.495 78.3177 89.4664 78.69 89.4337 79.0623C89.36 79.8027 88.8446 80.4204 88.141 80.6413C87.4578 80.854 86.6314 80.6454 86.1814 80.0604C85.6578 79.3895 84.9541 78.7432 84.6596 77.9373C84.3896 77.2091 84.14 76.4726 83.9068 75.7322C83.3464 73.9772 82.4545 71.4368 83.5591 69.7472Z" fill="#A4250E"/>
</svg>
