<svg width="78" height="100" viewBox="0 0 78 100" fill="none" xmlns="http://www.w3.org/2000/svg">
<path d="M7.75321 81.7322C7.75208 81.6213 7.74701 81.511 7.74192 81.3996C7.77189 81.4579 7.80072 81.5156 7.83183 81.5733C7.80355 81.6264 7.78036 81.679 7.75321 81.7322ZM69.8109 83.6234C69.9964 80.5445 70.0264 77.0404 68.4191 74.4163C66.4714 71.2357 63.0142 69.1562 59.6838 67.692C43.1908 60.4406 15.4978 63.3701 8.42565 73.5041C7.63898 74.6312 7.16787 75.7623 6.97672 76.8821C6.93261 76.9126 6.90434 76.9652 6.91961 77.0303C6.92697 77.0619 6.92978 77.0953 6.93544 77.1275C6.57462 79.8246 6.85458 82.4974 6.87833 85.1967C6.95298 93.5605 22.7209 100.881 43.3395 99.9139C49.4893 99.6249 54.7188 98.5322 58.8615 96.9238C62.0291 95.6932 65.2351 93.9819 67.4623 91.3487C69.3308 89.1391 69.6424 86.4075 69.8109 83.6234" fill="#FF9441"/>
<path d="M58.7366 89.8127C72.8487 84.332 73.2553 73.7133 59.5589 67.692C43.066 60.4405 15.3724 63.3701 8.30028 73.5041C1.29545 83.5419 18.8805 93.9434 43.2141 92.8021C49.3639 92.5137 54.594 91.4211 58.7366 89.8127" fill="#FFAF48"/>
<path d="M67.7003 84.5537C67.7066 84.5236 67.7077 84.5123 67.7003 84.5537Z" fill="#87B63F"/>
<path d="M77.2075 75.8047C76.9914 74.1691 75.5617 72.8062 73.9924 72.2763C72.462 71.7594 70.9339 71.9867 69.3866 72.1411C69.3673 71.5982 69.0795 71.0649 68.7198 70.6724C68.0004 69.8868 66.8953 69.483 65.844 69.487C63.6361 69.4949 61.4373 70.5333 59.705 71.8284C59.196 72.209 58.7996 72.6507 58.3771 73.1042C58.3681 73.1144 58.3579 73.1257 58.3488 73.1359C58.0288 73.4803 55.8621 73.6319 55.2904 73.8745C53.9585 74.4384 52.6459 75.0542 51.3236 75.6441C50.455 76.0315 49.8651 75.2363 49.0519 75.0135C48.2437 74.7918 47.3959 74.7534 46.5629 74.7862C45.0014 74.8478 43.4552 75.2222 42.034 75.8709C41.5296 76.1016 38.8523 78.1992 38.6877 78.1568C38.3105 78.0595 37.9282 77.9809 37.5425 77.9317C36.5448 77.8056 35.442 77.7671 34.4857 78.1359C33.7262 78.4283 32.9915 79.0707 32.8841 79.8761C32.9011 79.7488 29.0361 80.7119 28.6962 80.8454C27.5945 81.278 26.5607 81.787 26.4403 83.1359C26.2525 85.2301 28.3659 86.6021 29.9766 87.0076C30.2458 87.0749 34.3217 87.5884 34.3364 87.5392C33.6758 89.8228 35.3182 91.5693 37.4248 92.184C38.6837 92.5516 40.0229 92.5556 41.3237 92.4973C42.1081 92.4622 44.4557 91.5534 45.006 91.774C48.4337 93.146 52.6368 93.7901 56.2818 92.6149C57.2862 92.2909 58.2765 91.8226 59.0207 91.0569C59.5942 90.4681 59.9793 89.6532 59.9719 88.8326C62 88.6974 63.7379 88.1545 65.6715 87.5946C66.659 87.309 67.6577 86.9324 68.3918 86.2135C69.6399 84.9931 69.4912 83.5006 68.1825 82.4623C68.0146 82.3288 67.837 82.2067 67.6588 82.0902C70.003 82.4465 73.0434 81.2905 74.9391 79.9648C75.9616 79.25 76.8325 78.2433 77.1357 77.0331C77.2414 76.6129 77.2601 76.2006 77.2075 75.8047" fill="#87B63F"/>
<path d="M10.7153 73.591C10.6985 73.6156 10.6929 73.6257 10.7153 73.591Z" fill="#87B63F"/>
<path d="M0.219784 78.1614C-0.304476 79.7246 0.160419 81.4704 1.07208 82.5104C1.96111 83.5239 3.15779 83.8604 4.33865 84.2698C4.12657 84.7703 4.11186 85.3568 4.208 85.8415C4.40085 86.8108 5.02974 87.5703 5.79039 87.9408C7.38579 88.7178 9.40423 88.5561 11.1919 87.9951C11.7173 87.8299 12.1873 87.5692 12.6804 87.3074C12.6912 87.3011 12.703 87.2949 12.7138 87.2893C13.0876 87.0896 14.7141 87.7219 15.2271 87.7049C16.4226 87.6659 17.6255 87.5732 18.8245 87.507C19.6123 87.4635 19.7073 88.3955 20.2005 88.8875C20.6919 89.3756 21.2869 89.7121 21.9016 89.9784C23.0536 90.4772 24.325 90.6871 25.6195 90.6022C26.0793 90.5723 28.8833 89.6176 28.9845 89.7143C29.2158 89.9371 29.4596 90.1447 29.7174 90.3262C30.3837 90.7956 31.1635 91.2221 32.0062 91.2271C32.6758 91.2311 33.4732 90.9087 33.8855 90.2148C33.8205 90.3245 37.009 90.8234 37.3093 90.8228C38.2843 90.8211 39.2412 90.7261 39.8893 89.5441C40.8954 87.7078 39.9419 85.7097 38.9483 84.7686C38.782 84.6114 36.0555 82.6965 36.0244 82.7366C37.4507 80.8958 36.992 78.7252 35.7286 77.4183C34.9725 76.6367 34.0082 76.1571 33.0457 75.7476C32.4654 75.5005 30.3938 75.492 30.089 75.0967C28.1871 72.6309 25.4227 70.552 22.3049 70.3246C21.4458 70.2619 20.5364 70.3354 19.6813 70.7663C19.0224 71.0977 18.406 71.7017 18.0701 72.4499C16.551 71.8516 15.0715 71.7277 13.4439 71.549C12.6126 71.458 11.736 71.445 10.9074 71.8369C9.4998 72.502 8.9863 73.9113 9.49868 75.3201C9.56429 75.5005 9.64176 75.6747 9.7215 75.8438C8.1787 74.6872 5.50481 74.6567 3.58648 75.1872C2.55097 75.4739 1.50415 76.0785 0.782511 77.0705C0.53141 77.4154 0.347031 77.783 0.219784 78.1614" fill="#87B63F"/>
<path d="M54.8393 87.2739C54.8342 86.2735 54.8992 85.3946 54.2975 84.4898C53.5968 83.4356 52.4668 82.7128 51.3425 82.1823C51.2424 82.1354 51.1418 82.0896 51.0405 82.0449C44.7387 79.2743 34.1573 80.3935 31.4557 84.2658C30.9739 84.9552 30.8625 85.7815 30.8223 86.6123C30.7776 87.5262 30.8269 89.0741 31.3144 89.8766C31.7379 90.5739 32.3759 91.1259 33.0483 91.5743C34.9841 92.8655 37.3617 93.4768 39.6397 93.7981C41.3454 94.0379 43.0754 94.1012 44.7958 94.0209C47.1451 93.9106 49.1431 93.4932 50.7261 92.8785C51.9165 92.4159 53.1149 91.7774 53.9649 90.8018C54.6295 90.0383 54.8766 89.22 54.8449 88.2263C54.841 88.1013 54.8393 87.3955 54.8393 87.2739Z" fill="#F12D27"/>
<path d="M50.6889 90.4971C56.0808 88.4029 56.2358 84.3457 51.0028 82.045C44.7015 79.2744 34.1202 80.3936 31.418 84.2659C28.7413 88.1009 35.4605 92.0755 44.7581 91.6395C47.1079 91.5292 49.106 91.1118 50.6889 90.4971" fill="#F94737"/>
<path d="M47.7756 87.6387C47.2774 87.2547 46.463 87.0755 45.8743 86.8402C45.1181 86.5388 44.3569 86.2503 43.5912 85.9766C42.3243 85.523 41.044 85.1079 39.7523 84.7318C38.3457 84.3229 36.9149 84.3812 35.4739 84.2607C34.6556 84.1923 33.4905 84.1595 32.8079 84.7024C32.157 85.2199 32.1513 86.3442 32.468 87.033C32.8594 87.8847 33.6732 88.4667 34.5159 88.8767C35.2822 89.25 36.2351 89.785 37.0659 89.9563C37.9991 90.1486 38.9842 90.0768 39.9208 90.2985C42.3368 90.8714 45.6373 91.6168 47.7954 89.9156C47.9928 89.7607 48.176 89.5808 48.2931 89.3591C48.6075 88.7664 48.2688 88.0182 47.7756 87.6387Z" fill="#F12D27"/>
<path d="M53.2443 84.7099C52.7325 83.9718 51.9413 83.3328 51.3633 83.0025C49.6944 82.049 47.7518 81.6559 45.8493 81.5609C44.8765 81.5129 43.9004 81.5434 42.9316 81.6373C42.1772 81.7108 40.9822 81.6831 40.4071 82.2565C39.4388 83.2236 42.4441 84.159 42.9876 84.4181C43.5882 84.7042 44.1741 85.0113 44.7408 85.3484C45.2504 85.6515 45.8566 85.8172 46.4092 86.0423C47.3225 86.4139 48.2217 86.8301 49.0576 87.3566C49.6825 87.7497 50.0321 88.3463 50.8283 88.3435C51.8786 88.3401 53.4988 87.5416 53.7284 86.3975C53.841 85.8364 53.6165 85.2466 53.2443 84.7099" fill="#F12D27"/>
<path d="M45.5022 88.9921C45.3399 88.7993 44.9599 88.892 44.7501 89.0577C44.5029 89.2529 44.3559 89.6533 44.5069 89.9462C44.5629 90.0548 44.6522 90.1509 44.771 90.1883C45.1098 90.2957 45.3281 89.9168 45.44 89.6612C45.4955 89.5362 45.5899 89.3275 45.5763 89.1867C45.5684 89.1024 45.5412 89.0391 45.5022 88.9921" fill="#F94737"/>
<path d="M43.042 88.5674C42.9696 88.5674 42.895 88.577 42.8243 88.5945C42.6071 88.6494 42.4131 88.7699 42.2225 88.8881C42.0704 88.9831 41.916 89.0798 41.8001 89.2166C41.6248 89.4219 41.5546 89.7217 41.8261 89.8744C42.2565 90.1164 42.7971 89.7584 43.1116 89.4779C43.4249 89.1985 43.7529 88.5651 43.042 88.5674" fill="#F94737"/>
<path d="M47.4072 88.6878C47.3286 88.5775 47.2166 88.4689 47.0769 88.4452C46.9265 88.4197 46.7987 88.4655 46.6833 88.5622C46.6035 88.629 46.5419 88.7183 46.4899 88.8071C46.3881 88.9807 46.3179 89.1725 46.2535 89.3625C46.2472 89.3806 46.2444 89.3998 46.2444 89.4185C46.2354 89.4298 46.2252 89.4405 46.2161 89.4524C46.1698 89.5174 46.1782 89.6187 46.2161 89.6848C46.2602 89.7589 46.3326 89.7929 46.4158 89.7991C46.5114 89.8064 46.6126 89.7844 46.7036 89.7567C46.8156 89.7222 46.9264 89.6741 47.0282 89.6153C47.2245 89.5022 47.4388 89.3235 47.4852 89.0899C47.5124 88.9508 47.4903 88.8054 47.4072 88.6878" fill="#F94737"/>
<path d="M39.9474 88.3949C39.6788 88.3751 39.4051 88.4599 39.1625 88.5663C38.9674 88.6517 38.3758 88.9514 38.5324 89.2483C38.5879 89.354 38.7044 89.4106 38.8175 89.4479C39.262 89.5938 39.7665 89.5175 40.1607 89.2721C40.6855 88.9457 40.6018 88.4447 39.9474 88.3949" fill="#F94737"/>
<path d="M29.7338 82.8621C29.8549 81.8691 30.0302 81.0055 29.5472 80.0316C28.9851 78.8977 27.9546 78.0386 26.9061 77.3707C26.8128 77.3113 26.7189 77.2537 26.6239 77.1965C20.7208 73.6545 10.0834 73.4328 6.91527 76.9335C6.35086 77.5573 6.13596 78.3627 5.99118 79.1816C5.83226 80.0825 5.68576 81.6247 6.06864 82.4821C6.40118 83.2275 6.9639 83.8552 7.57526 84.3852C9.33353 85.9093 11.6149 86.8147 13.8341 87.4204C15.4963 87.874 17.2048 88.1539 18.9212 88.2908C21.2654 88.4769 23.3008 88.3146 24.9482 87.904C26.1867 87.5952 27.4564 87.1128 28.4224 86.252C29.1785 85.5779 29.5263 84.798 29.6202 83.8077C29.6315 83.6828 29.7191 82.9832 29.7338 82.8621" fill="#F12D27"/>
<path d="M25.2112 85.5366C30.8237 84.1385 31.4882 80.1334 26.5866 77.1914C20.6841 73.65 10.0462 73.4283 6.87798 76.929C3.73977 80.3969 9.90479 85.1854 19.1837 85.9234C21.5284 86.11 23.5633 85.9472 25.2112 85.5366Z" fill="#F94737"/>
<path d="M22.6805 82.3345C22.2348 81.8912 21.4487 81.6106 20.8945 81.303C20.1825 80.9088 19.4642 80.5271 18.7386 80.1583C17.5385 79.5492 16.3209 78.9764 15.0863 78.4408C13.7432 77.8583 12.3163 77.7361 10.9024 77.4347C10.0988 77.2639 8.94678 77.0846 8.20196 77.537C7.4905 77.9686 7.34345 79.0832 7.5708 79.8066C7.85188 80.7001 8.58541 81.381 9.37038 81.8934C10.0835 82.36 10.9618 83.0109 11.7638 83.2852C12.6652 83.5935 13.6521 83.6461 14.5525 83.9842C16.8774 84.8569 20.0586 86.0123 22.4141 84.5962C22.6284 84.4672 22.8332 84.3117 22.9779 84.1064C23.3631 83.5578 23.1216 82.7734 22.6805 82.3345" fill="#F12D27"/>
<path d="M28.4743 80.1176C28.0597 79.3207 27.3556 78.5872 26.8235 78.1868C25.288 77.0308 23.4104 76.3963 21.535 76.0626C20.5765 75.8924 19.6037 75.7997 18.631 75.7714C17.8731 75.7488 16.6906 75.5712 16.0487 76.0677C14.9663 76.9047 17.8296 78.2111 18.3369 78.5369C18.8962 78.896 19.4391 79.2744 19.9589 79.6804C20.4266 80.0452 21.0063 80.2861 21.526 80.5791C22.3851 81.0626 23.2255 81.5886 23.9884 82.2158C24.559 82.6852 24.8299 83.3203 25.62 83.4181C26.6628 83.547 28.3713 82.9589 28.7423 81.8527C28.925 81.3103 28.7769 80.6973 28.4743 80.1176" fill="#F12D27"/>
<path d="M10.7283 80.4089C10.7616 80.1595 10.4382 79.9412 10.174 79.8971C9.86356 79.8456 9.46879 80.0063 9.35342 80.315C9.31101 80.4293 9.29914 80.5599 9.35174 80.6736C9.50104 80.9965 9.92689 80.9026 10.1921 80.8139C10.3216 80.7709 10.5394 80.6996 10.6344 80.595C10.6915 80.5328 10.7209 80.47 10.7283 80.4089" fill="#F94737"/>
<path d="M10.0213 78.8022C10.0547 78.5528 9.73122 78.3339 9.46711 78.2898C9.15662 78.2384 8.76186 78.399 8.64649 78.7083C8.60407 78.822 8.59219 78.9532 8.64422 79.0663C8.79353 79.3892 9.21995 79.2959 9.48519 79.2066C9.61414 79.1636 9.83246 79.0929 9.92747 78.9883C9.98402 78.9255 10.0134 78.8627 10.0213 78.8022" fill="#F94737"/>
<path d="M12.7068 81.1786C12.6423 81.1447 12.5722 81.1181 12.5021 81.1006C12.2843 81.0463 12.0559 81.0615 11.8325 81.0768C11.6538 81.0887 11.4722 81.1017 11.3054 81.1673C11.0543 81.2663 10.8513 81.4976 11.0187 81.76C11.2845 82.1762 11.9303 82.114 12.3398 82.0151C12.7481 81.9155 13.3351 81.5106 12.7068 81.1786Z" fill="#F94737"/>
<path d="M22.1829 83.3294C22.1196 83.2095 22.0218 83.0879 21.8866 83.0466C21.7401 83.0025 21.6072 83.0325 21.4805 83.1133C21.394 83.1693 21.321 83.2502 21.2583 83.3316C21.1355 83.4917 21.0417 83.6732 20.954 83.8536C20.9449 83.8706 20.9404 83.8887 20.9376 83.9074C20.9274 83.9175 20.9161 83.9266 20.9059 83.9373C20.8516 83.9961 20.8465 84.0979 20.8765 84.1681C20.9104 84.2473 20.9783 84.2897 21.0598 84.3066C21.1536 84.3259 21.2566 84.3168 21.3505 84.301C21.4664 84.2806 21.5823 84.2467 21.6903 84.2014C21.899 84.1143 22.1337 83.9633 22.2095 83.7377C22.2548 83.6031 22.2508 83.4566 22.1829 83.3294" fill="#F94737"/>
<path d="M14.8194 82.0993C14.5553 82.0456 14.2731 82.0953 14.0186 82.1706C13.8145 82.2305 13.1901 82.4533 13.3077 82.7678C13.3496 82.8792 13.4587 82.9504 13.5662 83.0019C13.9881 83.2021 14.4988 83.1897 14.9212 82.9963C15.4823 82.7384 15.4625 82.2311 14.8194 82.0993Z" fill="#F94737"/>
<path d="M71.5272 76.9817C71.413 75.9874 71.3819 75.1063 70.6851 74.2727C69.8736 73.3017 68.6712 72.7067 67.4955 72.3018C67.3914 72.2661 67.2856 72.2316 67.1805 72.1983C60.6134 70.1329 50.2187 72.4013 47.9554 76.5451C47.5521 77.2831 47.5312 78.1167 47.5815 78.9469C47.6375 79.8603 47.8553 81.3935 48.4276 82.1377C48.9247 82.7853 49.6192 83.2637 50.3374 83.6364C52.4022 84.7081 54.8324 85.0559 57.1313 85.1261C58.8534 85.1787 60.58 85.0525 62.2812 84.7845C64.6044 84.4186 66.5454 83.7851 68.0514 83.0013C69.1842 82.412 70.3051 81.6457 71.0437 80.5836C71.6217 79.7517 71.7778 78.9119 71.6375 77.9272C71.6194 77.8034 71.5414 77.1021 71.5272 76.9817" fill="#F12D27"/>
<path d="M67.7541 80.6384C72.8853 77.9674 72.5963 73.9175 67.1433 72.2022C60.5768 70.1369 50.181 72.4053 47.9182 76.549C45.6764 80.6537 52.7898 83.8705 61.9833 82.4216C64.3077 82.0551 66.2481 81.4217 67.7541 80.6384Z" fill="#F94737"/>
<path d="M64.5454 78.1151C64.0087 77.7882 63.1791 77.6994 62.5683 77.5297C61.7839 77.312 60.9955 77.1084 60.2043 76.9201C58.8956 76.6079 57.5773 76.3353 56.2528 76.1028C54.8101 75.8495 53.394 76.0638 51.9485 76.1012C51.1273 76.1226 49.9651 76.2177 49.347 76.8313C48.756 77.4172 48.8736 78.5353 49.2633 79.1856C49.7457 79.9893 50.6178 80.479 51.5 80.7946C52.3025 81.0813 53.3081 81.5095 54.153 81.5886C55.1014 81.678 56.073 81.4987 57.0282 81.6175C59.4923 81.9229 62.8544 82.3029 64.814 80.3767C64.9933 80.2008 65.1556 80.0023 65.2484 79.7687C65.495 79.1455 65.077 78.4386 64.5454 78.1151" fill="#F12D27"/>
<path d="M69.6613 74.6063C69.072 73.9282 68.2158 73.3797 67.605 73.1144C65.8422 72.3492 63.8684 72.1705 61.9665 72.2848C60.9944 72.3425 60.0273 72.4793 59.0749 72.679C58.3329 72.8339 57.1419 72.9374 56.6329 73.5703C55.7766 74.6369 58.8656 75.2386 59.4346 75.4365C60.0623 75.6554 60.6788 75.8963 61.2788 76.1701C61.8184 76.4161 62.4388 76.5145 63.0128 76.6779C63.9606 76.9477 64.9012 77.2627 65.7891 77.6948C66.4536 78.0171 66.8653 78.5719 67.657 78.4826C68.7005 78.3644 70.224 77.3933 70.327 76.2311C70.3779 75.6611 70.09 75.0995 69.6613 74.6063" fill="#F12D27"/>
<path d="M62.4337 79.7087C62.251 79.535 61.8839 79.6685 61.6934 79.8563C61.4688 80.0768 61.3665 80.4908 61.5492 80.7657C61.6165 80.8675 61.7154 80.9534 61.8376 80.9777C62.1865 81.0473 62.3613 80.6469 62.4461 80.3805C62.4868 80.251 62.5575 80.0327 62.5287 79.8942C62.5117 79.8116 62.4778 79.7511 62.4337 79.7087Z" fill="#F94737"/>
<path d="M59.942 79.5554C59.8696 79.5634 59.7966 79.5809 59.7288 79.6063C59.5184 79.6844 59.3386 79.8252 59.1621 79.9643C59.0213 80.0752 58.8788 80.1883 58.7781 80.3365C58.6265 80.5599 58.5892 80.8653 58.8759 80.9874C59.3295 81.1814 59.8283 80.7663 60.1105 80.453C60.3916 80.1408 60.6478 79.4751 59.942 79.5554" fill="#F94737"/>
<path d="M64.2941 79.1986C64.2042 79.0974 64.0803 79.0018 63.939 78.9934C63.7868 78.9843 63.6647 79.0442 63.5601 79.1528C63.4888 79.2269 63.4373 79.3231 63.3949 79.4169C63.3129 79.6008 63.2643 79.7993 63.2207 79.9955C63.2168 80.0142 63.2162 80.0328 63.2179 80.0515C63.21 80.0639 63.2015 80.0752 63.1941 80.0882C63.1551 80.1584 63.1738 80.2579 63.2196 80.3196C63.2711 80.3886 63.3463 80.414 63.43 80.4112C63.5255 80.4078 63.624 80.375 63.7111 80.3377C63.8191 80.2913 63.9237 80.2308 64.0187 80.1612C64.2008 80.0283 64.3942 79.827 64.4152 79.5894C64.4276 79.4486 64.3897 79.3067 64.2941 79.1986Z" fill="#F94737"/>
<path d="M56.8465 79.7223C56.5779 79.7314 56.3149 79.8462 56.0847 79.9785C55.8998 80.0848 55.345 80.4468 55.5333 80.725C55.5995 80.824 55.7222 80.8676 55.8387 80.8924C56.2957 80.9886 56.79 80.8574 57.1547 80.5701C57.6405 80.1889 57.502 79.6997 56.8465 79.7223" fill="#F94737"/>
<path d="M7.7156 70.2013C7.71446 70.0904 7.70994 69.9796 7.70485 69.8687C7.73426 69.927 7.7631 69.9847 7.79477 70.0424C7.76592 70.0955 7.74274 70.1481 7.7156 70.2013V70.2013ZM69.7739 72.0925C69.9594 69.0131 69.9894 65.5095 68.3821 62.8848C66.4338 59.7048 62.9772 57.6253 59.6467 56.1611C43.1532 48.9102 15.4607 51.8392 8.38859 61.9732C7.60135 63.0997 7.13026 64.2314 6.9391 65.3506C6.89556 65.3817 6.86671 65.4343 6.88255 65.4993C6.88934 65.531 6.89218 65.5644 6.8984 65.5961C6.53702 68.2937 6.81696 70.9665 6.84071 73.6658C6.91537 82.0296 22.6839 89.3495 43.3019 88.3824C49.4516 88.094 54.6812 87.0019 58.8238 85.3929C61.992 84.1629 65.1981 82.451 67.4246 79.8172C69.2932 77.6082 69.6059 74.8766 69.7739 72.0925" fill="#A4250E"/>
<path d="M58.8236 78.2818C72.9362 72.8011 73.3422 62.1825 59.6464 56.1611C43.1529 48.9103 15.4605 51.8392 8.38833 61.9732C1.38237 72.0111 18.968 82.4126 43.3017 81.2713C49.4514 80.9829 54.681 79.8902 58.8236 78.2818Z" fill="#BA3413"/>
<path d="M17.6219 78.6257C17.0049 79.3078 18.6054 80.1493 19.102 79.5622C19.745 78.8016 18.1066 78.0901 17.6219 78.6257Z" fill="#BA3413"/>
<path d="M16.7715 76.6237C16.1115 77.2645 17.6543 78.2078 18.1876 77.6541C18.8787 76.937 17.2901 76.1204 16.7715 76.6237Z" fill="#BA3413"/>
<path d="M21.5285 82.0139C21.9939 82.8068 23.2766 81.5315 22.8649 80.8823C22.3321 80.0407 21.1626 81.3907 21.5285 82.0139Z" fill="#BA3413"/>
<path d="M37.3902 82.7925C36.8213 83.5153 38.4766 84.2449 38.9313 83.6245C39.5206 82.8214 37.837 82.2247 37.3902 82.7925Z" fill="#BA3413"/>
<path d="M52.4405 83.4967C52.8319 82.6642 51.055 82.3266 50.7518 83.0335C50.3594 83.9485 52.1329 84.151 52.4405 83.4967Z" fill="#BA3413"/>
<path d="M57.8636 80.1459C58.6666 79.698 57.4207 78.387 56.7619 78.784C55.909 79.2981 57.2324 80.4976 57.8636 80.1459Z" fill="#BA3413"/>
<path d="M60.0338 80.4163C59.1357 80.6136 59.9523 82.2277 60.6971 82.0371C61.662 81.79 60.7396 80.2607 60.0338 80.4163Z" fill="#BA3413"/>
<path d="M65.2752 75.3128C64.9721 76.1815 66.7745 76.3331 67.003 75.5984C67.2988 74.6477 65.5133 74.6308 65.2752 75.3128Z" fill="#BA3413"/>
<path d="M67.5623 74.4062C68.4729 74.2755 67.7784 72.6055 67.0217 72.7401C66.041 72.9148 66.8469 74.5085 67.5623 74.4062Z" fill="#BA3413"/>
<path d="M35.9882 86.4811C35.6245 87.326 37.4117 87.6048 37.6916 86.8889C38.0547 85.9614 36.2738 85.8177 35.9882 86.4811Z" fill="#BA3413"/>
<path d="M8.84977 71.5966C8.57265 72.4737 10.3784 72.5721 10.5854 71.8318C10.8529 70.8727 9.0675 70.9077 8.84977 71.5966Z" fill="#BA3413"/>
<path d="M8.84858 75.7483C8.56638 76.6232 10.3722 76.7323 10.5831 75.9931C10.8563 75.0351 9.07028 75.06 8.84858 75.7483Z" fill="#BA3413"/>
<path d="M29.8255 83.5419C28.9806 83.1788 28.7023 84.9654 29.4183 85.2459C30.3458 85.6078 30.4895 83.8281 29.8255 83.5419Z" fill="#BA3413"/>
<path d="M71.7513 66.7493C71.7009 65.2653 69.8759 63.0523 68.8981 61.9489C67.9429 60.8716 66.8344 59.9435 65.7107 59.0494C64.5162 58.0998 63.3178 57.1893 61.9504 56.4988C59.1849 55.1019 56.1134 54.4798 53.0481 54.1987C46.1576 53.5676 39.3399 55.1811 32.477 55.4684C28.4102 55.6386 24.1652 55.7025 20.0469 56.1052C16.0129 56.4994 11.8912 56.8822 8.60032 59.4091C6.28499 61.1866 4.34631 63.6292 2.88438 66.1447C2.56145 66.7001 2.21365 67.4115 2.41894 68.067C2.74639 69.1138 4.29822 69.1455 5.15672 69.3564C7.60496 69.9587 9.91974 71.0627 12.2679 71.9642C14.6341 72.8724 17.5715 75.5825 20.0034 76.2996C24.776 77.7073 29.0725 77.0337 33.6664 78.9786C37.9849 80.8065 42.175 82.2452 45.8934 85.2816C46.3272 85.6356 46.7814 85.958 47.2666 86.2379C47.6647 86.4681 48.1873 86.329 48.4231 85.9348C52.1421 79.7093 58.4559 73.6512 64.7572 70.0894C69.7029 67.2939 71.8434 69.4758 71.7513 66.7493" fill="#FFCA52"/>
<path d="M62.3 70.5821C60.6214 73.3431 57.1948 74.2112 54.2947 74.5584C53.0211 74.7106 51.7136 74.8197 50.4287 74.8248C49.1454 74.8305 47.6598 74.4204 46.4438 73.8713C45.7279 73.5484 44.7087 72.6254 44.301 71.6628C45.0238 69.516 49.1494 68.998 50.9687 68.6479C53.0155 68.2543 55.1125 68.0835 57.1959 68.178C58.6782 68.2453 60.1673 68.4324 61.4828 69.1281C62.0155 69.4097 62.3565 69.7242 62.5483 70.055C62.49 70.2314 62.4052 70.4079 62.3 70.5821V70.5821ZM63.7286 69.5279C63.629 68.7163 63.3813 67.945 62.792 67.3262C61.6932 66.1725 59.9541 65.7037 58.4187 65.5555C56.0977 65.3321 53.7529 65.4141 51.4523 65.7914C49.2789 66.1476 47.0224 66.6629 45.0826 67.7391C44.3485 68.1463 43.6133 68.6406 43.1122 69.3266C42.3798 70.3293 42.4743 71.6979 42.8023 72.8346C43.6585 75.8015 46.7085 77.2023 49.5057 77.3777C50.9161 77.4659 52.3357 77.4257 53.7331 77.247C55.5123 77.0197 57.2712 76.7952 58.9921 76.2601C60.514 75.7868 62.0568 75.0125 62.9651 73.6524C63.5391 72.7917 63.8434 71.7635 63.8162 70.7184C63.8089 70.4435 63.7619 69.7977 63.7286 69.5279" fill="#FFD7C0"/>
<path d="M62.2999 70.582C60.6214 73.343 57.4001 74.0239 54.4999 74.3706C53.2263 74.5227 51.9188 74.6319 50.6339 74.637C49.3507 74.6426 47.6597 74.4203 46.4438 73.8712C45.4258 73.412 43.7897 71.7408 44.1776 70.4661C44.8467 68.2712 49.0142 67.5456 50.8499 67.1927C52.8966 66.7985 54.9937 66.6283 57.0771 66.7222C58.5589 66.7895 60.0649 67.1791 61.3804 67.8753C62.8276 68.6405 62.8711 69.6426 62.2999 70.582V70.582ZM62.8044 67.325C61.7061 66.1719 59.9676 65.7025 58.4311 65.5543C56.1106 65.3309 53.7659 65.4129 51.4653 65.7901C49.2919 66.1464 47.0359 66.6617 45.0955 67.7379C43.5979 68.5687 42.1926 69.7772 42.7129 71.5808C43.5691 74.5476 46.5886 75.5769 49.3857 75.7516C50.7968 75.8399 52.2157 75.7997 53.6137 75.621C55.3924 75.3936 57.1512 75.1691 58.8722 74.6341C60.394 74.1608 61.9369 73.3871 62.8451 72.0264C63.8676 70.4938 64.1238 68.7095 62.8044 67.325" fill="#FFF0DE"/>
<path d="M32.2481 71.1345C30.0917 73.5403 26.5633 73.7643 23.6491 73.5726C22.3692 73.4889 21.0645 73.356 19.7994 73.1247C18.5377 72.8945 17.1527 72.2192 16.0578 71.4563C15.4136 71.0067 14.5817 69.9124 14.3566 68.8916C15.4622 66.9144 19.6122 67.1621 21.4655 67.1525C23.5495 67.1412 25.6426 67.3589 27.6729 67.834C29.1173 68.1722 30.547 68.6297 31.7126 69.5549C32.1843 69.9299 32.4625 70.3015 32.5897 70.6623C32.4998 70.8252 32.3839 70.9829 32.2481 71.1345V71.1345ZM33.8464 70.3608C33.8979 69.5448 33.796 68.7406 33.33 68.024C32.4619 66.6888 30.8388 65.9083 29.3559 65.4808C27.1158 64.8343 24.7954 64.4848 22.4648 64.4328C20.2637 64.3842 17.9512 64.4764 15.8457 65.1782C15.0494 65.4434 14.2367 65.7941 13.618 66.3766C12.7137 67.2277 12.5553 68.5907 12.669 69.7681C12.9654 72.8419 15.706 74.7794 18.424 75.4649C19.7949 75.811 21.1969 76.0321 22.6039 76.113C24.3944 76.2159 26.1646 76.3183 27.954 76.1085C29.5369 75.923 31.1957 75.4451 32.3381 74.275C33.0614 73.5341 33.5489 72.5795 33.714 71.5462C33.757 71.2753 33.83 70.6317 33.8464 70.3608" fill="#FFD7C0"/>
<path d="M32.248 71.1345C30.0916 73.5403 26.7996 73.6184 23.8853 73.4261C22.6055 73.3424 21.3008 73.2089 20.0362 72.9782C18.7739 72.748 17.1525 72.2192 16.0576 71.4563C15.1414 70.8172 13.8401 68.874 14.456 67.6926C15.5164 65.6578 19.7467 65.7098 21.6152 65.7002C23.6998 65.6889 25.7923 65.906 27.8232 66.3817C29.2676 66.7193 30.6764 67.3793 31.8414 68.3045C33.1235 69.3225 32.9821 70.3156 32.248 71.1345ZM33.3429 68.0257C32.4748 66.6899 30.8517 65.91 29.3688 65.4819C27.1281 64.836 24.8088 64.4859 22.4782 64.4345C20.276 64.3853 17.9635 64.4775 15.8591 65.1793C14.2343 65.7211 12.631 66.6509 12.8114 68.5194C13.1078 71.5931 15.8868 73.1591 18.6043 73.8446C19.9751 74.1907 21.3777 74.4118 22.7848 74.4927C24.5753 74.5956 26.3454 74.698 28.1354 74.4882C29.7178 74.3021 31.3765 73.8248 32.5189 72.6541C33.8061 71.3358 34.3852 69.629 33.3429 68.0257" fill="#FFF0DE"/>
<path d="M69.7028 60.5458C69.666 64.7094 66.0341 68.8215 58.8613 71.6079C54.7181 73.2163 49.4896 74.3072 43.3393 74.5957C22.9758 75.5509 7.33797 68.4228 6.88327 60.1896C6.87761 60.1528 6.8776 60.116 6.88042 60.077C6.87477 59.9724 6.87195 59.8649 6.87195 59.7575C6.8629 57.536 7.36058 55.2637 8.42606 53.0026C15.4976 37.9982 43.1923 33.6627 59.6836 44.3967C66.1528 48.6106 69.4766 54.3396 69.6943 60.0714C69.6943 60.0855 69.6943 60.1025 69.6971 60.116C69.6999 60.2602 69.7028 60.4016 69.7028 60.5458" fill="#FF9441"/>
<path d="M25.2433 50.5255C25.7778 51.2743 26.9422 49.891 26.4751 49.2802C25.8699 48.4895 24.8242 49.9373 25.2433 50.5255Z" fill="#FFAF48"/>
<path d="M26.7707 48.1389C26.2289 48.8826 27.9091 49.5505 28.3412 48.9143C28.8999 48.0903 27.1965 47.5558 26.7707 48.1389Z" fill="#FFAF48"/>
<path d="M22.3409 57.1238C21.5939 56.5865 20.9373 58.2718 21.5763 58.6994C22.4043 59.253 22.928 57.5457 22.3409 57.1238Z" fill="#FFAF48"/>
<path d="M35.3643 52.3997C35.7421 53.2384 37.1542 52.1085 36.8149 51.4185C36.3755 50.525 35.068 51.7409 35.3643 52.3997Z" fill="#FFAF48"/>
<path d="M36.102 59.0828C37.0074 58.9221 36.2587 57.2758 35.5065 57.4353C34.532 57.6423 35.3906 59.2089 36.102 59.0828Z" fill="#FFAF48"/>
<path d="M52.8804 51.3388C53.7356 51.6776 53.9612 49.8825 53.2367 49.6246C52.2991 49.2898 52.2086 51.0736 52.8804 51.3388Z" fill="#FFAF48"/>
<path d="M37.7713 45.4684C37.8691 46.3829 39.5629 45.7501 39.4555 44.9883C39.3163 44.002 37.6949 44.7502 37.7713 45.4684Z" fill="#FFAF48"/>
<path d="M45.5112 59.4684C45.8398 60.3281 47.3158 59.2812 47.0161 58.5732C46.6298 57.6553 45.2533 58.7937 45.5112 59.4684Z" fill="#FFAF48"/>
<path d="M45.858 55.5488C46.6741 55.1252 45.4678 53.7775 44.7982 54.1547C43.9295 54.6422 45.2161 55.8813 45.858 55.5488Z" fill="#FFAF48"/>
<path d="M53.5736 63.5607C52.6823 63.7869 53.5487 65.3744 54.2873 65.1601C55.2436 64.8835 54.2743 63.3837 53.5736 63.5607Z" fill="#FFAF48"/>
<path d="M42.1282 50.1618C42.7774 50.8127 43.6998 49.2569 43.1382 48.7315C42.4115 48.0506 41.6181 49.6505 42.1282 50.1618Z" fill="#FFAF48"/>
<path d="M17.0004 54.7366C17.3075 55.6035 18.8085 54.594 18.5268 53.8786C18.1632 52.9517 16.7595 54.0551 17.0004 54.7366Z" fill="#FFAF48"/>
<path d="M21.6688 48.2984C20.7515 48.2277 21.0671 50.0086 21.8351 50.042C22.8304 50.0838 22.3899 48.3533 21.6688 48.2984Z" fill="#FFAF48"/>
<path d="M19.7796 93.7988C20.6506 93.5024 19.6603 91.989 18.9415 92.2611C18.0095 92.6134 19.0953 94.0312 19.7796 93.7988Z" fill="#FFAF48"/>
<path d="M25.4962 96.2096C26.405 96.3532 26.2326 94.5525 25.4697 94.4587C24.4811 94.3371 24.7825 96.0976 25.4962 96.2096Z" fill="#FFAF48"/>
<path d="M31.9496 63.1252C32.0746 62.9805 32.2041 62.8402 32.2856 62.6762C32.3353 62.5761 32.367 62.4669 32.3681 62.342C32.3704 61.8731 22.0435 47.6508 19.071 43.8996C17.0848 41.3925 15.8373 38.9211 18.4987 35.9571C19.9442 34.347 22.1306 33.7718 24.0722 33.0253C28.1565 31.4553 37.5757 28.5835 39.6292 27.9235C40.2648 27.7188 41.246 28.6587 41.9382 28.8131C41.5361 28.7238 48.4222 32.7844 43.7424 35.6223C39.2118 38.3691 32.4179 39.7208 25.8163 41.5102C29.7468 48.2769 35.6505 58.5059 36.4016 59.5623C36.7528 60.0566 37.048 60.4938 37.2205 60.7907C37.2584 60.8557 37.2471 60.936 37.1905 60.9852C36.3648 61.7091 32.9608 64.0454 32.177 64.6268C31.5747 65.0736 31.5328 65.0193 31.4197 64.862C31.2772 64.6635 31.2155 64.4113 31.2727 64.1732C31.3722 63.7541 31.6787 63.4386 31.9496 63.1252" fill="#FFCBB4"/>
<path d="M18.2705 35.3502C19.9914 34.0387 22.1366 33.1961 24.1086 32.5333C29.2019 30.8197 30.0955 30.3842 35.9924 28.4851C38.0459 27.824 41.6026 27.5463 42.2942 27.7013C42.5595 27.7601 48.5882 32.6843 43.7426 35.6223C39.212 38.3691 33.1149 39.5449 26.5139 41.3343C27.87 43.6688 29.4637 46.2624 30.9901 48.7576C30.618 49.0245 30.2493 49.296 29.8828 49.5697C28.3813 50.6906 26.8408 51.8805 25.1379 52.6966C22.8129 49.4153 20.294 45.9095 18.8587 44.0987C16.8725 41.5916 14.97 37.8647 18.2705 35.3502" fill="#5B3650"/>
<path d="M26.2015 56.1017C26.4339 56.445 26.6149 56.8188 26.9666 56.7374C27.2042 56.6819 27.3959 56.484 27.5854 56.3449C27.811 56.1797 28.0349 56.014 28.2589 55.8466C28.7153 55.5062 29.1694 55.1618 29.6219 54.8145C30.5183 54.1291 31.4079 53.4346 32.2997 52.7429C32.4637 52.6151 32.8325 52.4692 32.7861 52.1881C32.7341 51.8692 32.4377 51.5151 32.2856 51.229C32.1742 51.0197 32.0368 50.6023 31.866 50.4423C31.6426 50.2325 31.1929 50.8025 31.0561 50.9241C29.4895 52.3114 27.6572 53.3599 25.934 54.5306C25.8118 54.6138 25.6857 54.7008 25.6184 54.8417C25.611 54.8564 25.6048 54.8716 25.5992 54.8863C25.4612 55.2868 25.9803 55.7754 26.2015 56.1017" fill="#5B3650"/>
<path d="M26.368 54.2852C26.3465 54.2852 26.3256 54.2745 26.3137 54.2553C26.2956 54.2253 26.3052 54.1863 26.3352 54.1682C28.029 53.1434 29.6651 51.9852 31.1972 50.7257C31.2243 50.7037 31.2633 50.707 31.2865 50.7342C31.3086 50.7613 31.3046 50.8015 31.2775 50.8236C29.7409 52.087 28.0997 53.2486 26.4002 54.2762C26.3906 54.283 26.3787 54.2852 26.368 54.2852" fill="#24142C"/>
<path d="M32.4004 19.7447C32.1284 20.2803 31.8914 20.8373 31.5877 21.3559C30.9011 22.5277 30.2462 23.5293 29.4958 24.661C28.8239 25.6733 28.1678 26.831 27.3212 27.711C26.3762 28.6933 25.3435 29.7571 24.2062 30.5206C23.0158 31.3203 21.6856 31.8926 20.5856 32.828C19.9618 33.3579 19.4098 33.9891 19.0473 34.7277C18.8731 35.084 18.7515 35.464 18.6916 35.8565C18.6503 36.1268 18.6056 36.6833 19.0253 36.6697C19.1401 36.6658 19.2108 36.5962 19.2696 36.5131C19.2419 36.7286 19.2277 36.9452 19.2357 37.1629C19.2453 37.4129 19.2605 38.1503 19.6982 38.0446C19.8843 37.9993 19.9301 37.8025 19.9822 37.6442C19.998 37.5944 20.0144 37.5446 20.0308 37.4949C20.0133 37.5475 20.3051 37.6232 20.3481 37.6142C20.4567 37.591 20.5896 37.4581 20.6433 37.3654C20.7078 37.2551 20.7705 37.1431 20.8322 37.0311C20.8486 37.0006 20.8621 36.9695 20.8785 36.9395C20.9572 37.0232 21.0652 37.0741 21.189 37.0583C21.4023 37.0306 21.5391 36.84 21.6664 36.6861C22.3241 35.8921 23.1458 35.412 24.0134 34.8674C26.4192 33.3568 28.7424 32.3094 30.6851 30.1756C32.0424 28.6843 33.1169 26.8666 34.2435 24.8301C35.0392 23.3908 36.0583 21.9526 36.3875 20.3266C36.5532 19.5055 32.7963 18.9637 32.4004 19.7447" fill="#FFCBB4"/>
<path d="M20.6112 35.374C20.5422 35.374 20.4743 35.3525 20.4121 35.3096C20.2837 35.2213 20.2017 35.0585 20.2096 34.9041C20.2266 34.5438 20.3527 34.1027 20.5382 33.7526C20.5546 33.7204 20.5959 33.7085 20.6259 33.7249C20.6581 33.7419 20.6706 33.7815 20.653 33.8131C20.4766 34.1479 20.3561 34.5681 20.3403 34.9103C20.3346 35.0194 20.3946 35.1393 20.4856 35.2021C20.5331 35.2343 20.6078 35.2654 20.7 35.2242C20.7848 35.1868 21.3679 34.6694 21.7163 34.3606C21.9148 34.1841 22.0844 34.0337 22.1625 33.9692C22.3881 33.7826 22.3915 33.5394 22.3581 33.4246C22.3474 33.3901 22.3678 33.3539 22.4022 33.3437C22.4373 33.3341 22.473 33.3539 22.4831 33.3884C22.5403 33.583 22.4888 33.8686 22.2456 34.0693C22.1681 34.1338 21.9996 34.2831 21.8028 34.4579C21.2486 34.9493 20.8487 35.3011 20.7531 35.3435C20.7062 35.3639 20.6587 35.374 20.6112 35.374" fill="#D97779"/>
<path d="M19.3256 36.4304C19.3194 36.4304 19.3131 36.4299 19.3069 36.4276C19.2724 36.4174 19.2526 36.3812 19.2628 36.3467C19.3595 36.0199 19.7718 35.2688 20.1451 34.7395C20.1654 34.7101 20.2056 34.7038 20.2355 34.7242C20.2649 34.7446 20.2717 34.7853 20.2508 34.8147C19.8911 35.3259 19.4794 36.0736 19.3878 36.3841C19.3793 36.4123 19.3533 36.4304 19.3256 36.4304" fill="#D97779"/>
<path d="M20.0051 37.4422C20.0028 37.4422 20.0005 37.4422 19.9977 37.4422C19.9626 37.4382 19.9366 37.406 19.9406 37.3704C20 36.8093 20.2873 36.008 20.4852 35.7184C20.5056 35.689 20.5457 35.6811 20.5762 35.7014C20.6051 35.7218 20.613 35.7625 20.5926 35.7919C20.4241 36.0385 20.13 36.8156 20.0695 37.3839C20.0661 37.4173 20.0379 37.4422 20.0051 37.4422" fill="#D97779"/>
<path d="M20.9201 36.8546C20.9127 36.8546 20.9059 36.8534 20.8986 36.8512C20.8641 36.8387 20.8465 36.8014 20.859 36.7675C21.0009 36.3676 21.1282 36.142 21.2628 35.9027C21.295 35.8462 21.3284 35.7879 21.3618 35.7263C21.3793 35.6941 21.4189 35.6822 21.4506 35.7003C21.4822 35.7178 21.4941 35.7574 21.4766 35.7891C21.4421 35.8513 21.4087 35.9101 21.377 35.9672C21.2385 36.211 21.1191 36.4219 20.9811 36.811C20.9721 36.8382 20.9472 36.8546 20.9201 36.8546" fill="#D97779"/>
<path d="M37.1947 16.3956C37.0086 16.0257 36.7536 15.6966 36.434 15.4641C36.0597 15.1927 35.873 14.9291 35.4121 14.9037C35.1921 14.8912 34.7323 14.9941 34.5446 15.1265C34.3149 15.2877 34.1159 15.4771 33.9281 15.6892C33.4904 16.1835 33.1561 16.7683 32.8677 17.366C32.6036 17.914 32.3734 18.4796 32.1783 19.0565C32.0556 19.4201 31.921 19.7803 31.8328 20.1536C31.7649 20.4426 31.6337 20.7717 32.0013 20.8882C33.1652 21.2575 34.5033 21.8304 35.989 22.3621C36.1332 22.4135 36.2921 22.5481 36.4063 22.4322C36.5177 22.3191 36.55 22.0612 36.5958 21.9124C36.6648 21.6913 36.7332 21.4702 36.8016 21.2491C36.999 20.6117 37.1964 19.9743 37.3519 19.3262C37.5193 18.63 37.6352 17.9333 37.4882 17.236C37.4271 16.9487 37.3293 16.6619 37.1947 16.3956" fill="#52C8F0"/>
<path d="M25.7193 69.2693C25.9704 68.8678 26.4098 68.6862 26.8102 68.4906C26.9816 68.4069 27.1558 68.3288 27.2949 68.2106C27.3809 68.1376 27.4527 68.05 27.503 67.9358C27.7971 67.2628 26.3617 62.1638 26.0756 60.8008C25.0073 55.716 24.194 50.7223 22.9792 45.6703C22.524 43.7774 22.3537 42.2431 23.5849 40.5419C24.6719 39.0398 26.3329 38.0654 28.0058 37.2674C33.4158 34.6868 37.3797 32.8409 42.551 29.7932C42.7218 29.6925 43.6991 28.8018 43.8948 28.9409C46.2469 30.6098 47.4447 33.1791 47.5985 35.2818C47.8632 38.8996 46.9685 42.0451 43.3812 43.0382C43.3597 43.0445 38.8518 44.1993 31.1836 46.324C31.7706 57.3177 32.555 68.2643 32.5737 68.417C32.5844 68.4996 32.5454 68.5601 32.4668 68.5856C31.4171 68.9272 27.3763 69.7348 26.4285 69.9604C25.687 70.1374 25.6814 70.0662 25.6378 69.8699C25.5926 69.6658 25.609 69.4463 25.7193 69.2693" fill="#FFCBB4"/>
<path d="M31.8922 54.7609C31.3001 54.917 30.7012 55.0442 30.0971 55.1432C28.3592 55.4265 26.5993 55.4848 24.841 55.4593C24.1391 51.6968 23.3853 47.8092 22.8418 45.5487C22.3865 43.6559 22.2163 42.1221 23.4475 40.4204C24.5344 38.9189 26.1955 37.9439 27.8684 37.1459C33.2784 34.5653 37.0483 32.0741 42.219 29.0258C42.3898 28.9251 43.9072 27.8449 44.1034 27.9841C46.4555 29.653 47.6732 33.1678 47.8264 35.27C48.0911 38.8878 47.1472 42.3116 43.5605 43.3047C43.5384 43.3109 39.031 44.4657 31.3628 46.5905C31.5127 49.4018 31.7033 52.1764 31.8922 54.7609" fill="#5B3650"/>
<path d="M32.3411 64.0488C32.3072 64.0488 32.2778 64.0223 32.2761 63.9872L31.8186 55.4684C31.8169 55.4322 31.8446 55.4017 31.8808 55.3994C31.917 55.4005 31.9475 55.4254 31.9492 55.461L32.4062 63.9804C32.4079 64.016 32.3807 64.0471 32.3445 64.0488C32.3434 64.0488 32.3423 64.0488 32.3411 64.0488Z" fill="#D97779"/>
<path d="M24.2053 51.7431C24.1725 51.7431 24.1425 51.7199 24.1357 51.6865C23.6341 49.2898 23.2009 47.3449 22.7733 45.5651C22.3446 43.7859 22.0958 42.1679 23.3898 40.3791C24.535 38.7972 26.2809 37.8245 27.8378 37.0819L34.5519 33.6434C34.5847 33.6265 34.6288 33.6395 34.6469 33.6745C34.665 33.709 34.6509 33.7514 34.6164 33.7695L27.9006 37.2086C26.3578 37.9444 24.63 38.9058 23.5046 40.4616C22.2457 42.2018 22.4906 43.7876 22.9102 45.5317C23.3389 47.3132 23.7721 49.2598 24.2743 51.6577C24.2822 51.6962 24.2573 51.7335 24.2194 51.7414C24.2144 51.7425 24.2098 51.7431 24.2053 51.7431" fill="#24142C"/>
<path d="M33.3983 22.4932C33.633 24.0168 34.4728 25.8791 34.6538 27.233C34.7019 27.5921 34.7499 27.945 34.798 28.2929C34.8116 28.406 34.8065 28.9596 34.9479 28.9992C38.4859 29.9205 41.9793 29.8752 45.6197 28.9992C45.7639 28.9625 45.7554 28.406 45.769 28.2929C45.8171 27.945 45.8651 27.5921 45.9132 27.233C46.0947 25.8791 46.1818 23.833 46.4165 22.3122C46.606 21.0912 46.8633 20.4301 47.0211 19.0875C47.1116 18.3189 47.2388 17.5503 47.1229 16.7699C47.033 16.1681 46.8181 15.5772 46.3883 15.2695C45.9189 14.933 45.3143 14.9132 44.7663 14.8482C44.6305 14.8312 44.492 14.8171 44.3534 14.8029C41.6886 14.5201 38.9214 14.5179 36.256 14.8001C36.1038 14.8142 35.9506 14.8312 35.8007 14.8482C35.2527 14.9132 35.1565 14.933 34.6877 15.2695C34.2579 15.5772 34.043 16.1681 33.9525 16.7699C33.8371 17.5503 33.642 18.3189 33.5459 19.0875C33.3536 20.6082 33.2066 21.275 33.3983 22.4932" fill="#52C8F0"/>
<path d="M39.1717 3.5073C39.3216 3.46149 39.3686 3.32124 39.5365 3.29692C39.6672 3.27769 39.8001 3.30993 39.9251 3.25394C40.0025 3.21887 40.0811 3.15723 40.1247 3.08371C40.1541 3.03338 40.153 2.96833 40.1852 2.92422C40.2531 2.83373 40.3905 2.84109 40.4646 2.75852C40.5596 2.65107 40.5833 2.4944 40.6727 2.38073C40.7875 2.23425 40.9792 2.1121 41.0183 1.91925C41.0618 1.70547 40.8735 1.49905 40.8271 1.29715C40.7813 1.09695 40.8661 0.906359 40.8022 0.718033C40.7428 0.542714 40.6569 0.370227 40.4951 0.26956C40.2768 0.133829 40.0913 0.220358 39.8657 0.199433C39.6689 0.181336 39.5094 0.0167628 39.3114 0.00205863C39.0462 -0.018301 38.7917 0.1129 38.6271 0.364001C38.5293 0.513871 38.2533 0.440912 38.1108 0.557979C37.9321 0.705586 37.7064 0.908061 37.7347 1.16142C37.7443 1.24852 37.828 1.54543 37.7432 1.61386C37.7053 1.64496 37.6669 1.67719 37.6357 1.71791C37.5583 1.81971 37.5317 1.95318 37.5928 2.07024C37.6448 2.16808 37.7426 2.20428 37.7913 2.29873C37.8275 2.37055 37.8184 2.46047 37.8263 2.53738C37.8433 2.69517 38.315 2.79866 38.4405 2.88972C38.7035 3.08144 38.5236 3.26015 38.7934 3.44169C38.9065 3.51804 39.04 3.54745 39.1717 3.5073" fill="#AB493C"/>
<path d="M37.2662 8.24715C37.2261 7.74043 37.1848 7.22295 37.2131 6.72019C37.2493 6.07207 37.3069 5.42 37.4608 4.78829C37.7622 3.55314 38.55 2.44072 39.8298 2.10705C40.5215 1.92664 41.2748 2.0126 41.9659 2.15625C42.5609 2.2801 43.1027 2.54874 43.5347 2.97912C44.2626 3.70301 44.5719 4.73343 44.3712 5.73105C44.2518 6.32204 44.0347 6.89324 43.7327 7.41524C43.4239 7.94968 43.0025 8.3908 42.6202 8.87095C42.2532 9.33187 42.1344 9.74755 42.0111 10.334C41.7504 11.5822 41.8997 13.237 41.9393 14.6859C41.9518 15.14 41.4383 15.2429 41.0763 15.3283C40.5848 15.4437 40.0651 15.455 39.5697 15.3634C39.2643 15.3063 38.5902 15.0942 38.7417 14.6452C38.8984 14.182 38.9335 13.6673 39.0104 13.1844C39.0788 12.7591 39.1467 12.3332 39.2151 11.9079C39.2807 11.4945 39.2807 11.0698 39.2875 10.6507C38.6993 10.5744 38.2248 10.567 37.7984 10.0965C37.4235 9.68308 37.3301 9.08473 37.29 8.54859C37.2826 8.44906 37.2747 8.34782 37.2662 8.24715" fill="#FFCBB4"/>
<path d="M40.7984 5.78699C40.8125 5.96118 40.7758 6.10652 40.6604 6.11557C40.545 6.12519 40.394 5.99512 40.3799 5.82149C40.3658 5.64731 40.506 5.5472 40.6214 5.53759C40.7373 5.52854 40.7848 5.61337 40.7984 5.78699" fill="#5B3650"/>
<path d="M38.5163 5.65459C38.531 5.82878 38.4943 5.97356 38.3789 5.98261C38.263 5.99222 38.112 5.86214 38.0978 5.68851C38.0843 5.51433 38.2239 5.41422 38.3399 5.40518C38.4553 5.39556 38.5028 5.48097 38.5163 5.65459" fill="#5B3650"/>
<path d="M39.1097 7.80261C38.9666 7.80261 38.8168 7.7715 38.6754 7.69741C38.6437 7.68045 38.6313 7.64144 38.6482 7.6092C38.6652 7.57753 38.7042 7.56564 38.7365 7.58204C39.0916 7.76867 39.457 7.62617 39.5989 7.52324C39.6289 7.50231 39.669 7.50966 39.69 7.53851C39.7114 7.56735 39.7047 7.60863 39.6753 7.62955C39.5361 7.72909 39.3309 7.80261 39.1097 7.80261Z" fill="#D97779"/>
<path d="M38.9205 7.05606C38.9019 7.05606 38.8838 7.04757 38.8708 7.03286C38.8578 7.01703 38.8521 6.9961 38.8572 6.97574L39.1999 5.5223C39.2084 5.48723 39.2435 5.46575 39.2785 5.47367C39.3136 5.48215 39.3351 5.51664 39.3272 5.55171L39.0042 6.91919L39.632 6.87113C39.6693 6.8666 39.6993 6.89488 39.7021 6.93108C39.705 6.96671 39.6778 6.99838 39.6416 7.0012L38.9257 7.05549C38.924 7.05606 38.9222 7.05606 38.9205 7.05606" fill="#D97779"/>
<path d="M39.3464 10.636C39.3102 10.636 39.2814 10.6066 39.2814 10.5709C39.2814 10.5353 39.3102 10.5059 39.3464 10.5059C39.3498 10.5059 39.7151 10.5008 40.0907 10.3215C40.1257 10.3063 40.1619 10.3198 40.1783 10.3521C40.1936 10.3843 40.18 10.4233 40.1472 10.4386C39.8079 10.6009 39.4539 10.636 39.3464 10.636" fill="#D97779"/>
<path d="M42.0216 7.11943C42.081 6.7637 42.3779 6.34067 42.5815 6.17214C42.8569 5.94366 43.2692 5.82264 43.5972 6.02001C44.247 6.41024 43.2189 7.32359 42.8597 7.55659C42.7268 7.64312 42.5634 7.69571 42.4067 7.66744C42.064 7.60523 41.9786 7.38014 42.0216 7.11943" fill="#FFCBB4"/>
<path d="M41.5205 3.81828C41.5945 3.95232 41.6992 4.06938 41.8326 4.15308C41.8954 4.19267 41.9644 4.22094 42.0334 4.24696C42.0374 4.24865 42.0419 4.25035 42.0458 4.25205C42.0419 4.2956 42.0368 4.33915 42.0311 4.381C41.9633 4.31822 41.8784 4.26788 41.7896 4.23225C41.6941 4.19379 41.5012 4.15647 41.478 4.03375C41.465 3.96814 41.5029 3.88615 41.5205 3.81828ZM41.9446 5.13261C41.9491 5.08623 41.978 5.04098 42.0119 4.9963C42.0255 5.02062 42.0424 5.04325 42.0639 5.06361C42.1103 5.10659 42.1443 5.11677 42.146 5.1852C42.1471 5.23553 42.1341 5.287 42.1233 5.33846C42.0277 5.2853 41.9361 5.2197 41.9446 5.13261V5.13261ZM37.2393 4.41154C37.2602 4.49128 37.336 4.52408 37.4118 4.51334C37.6437 4.4811 37.8501 4.38156 37.8857 4.12707C37.9061 3.98003 37.858 3.74079 38.0508 3.69498C38.1498 3.6718 38.2533 3.68086 38.3534 3.66219C38.4563 3.64296 38.5525 3.59432 38.6345 3.53042C38.6514 3.51741 38.6639 3.49987 38.6791 3.48574C38.6939 3.49083 38.708 3.49479 38.7233 3.49366C38.8025 3.48744 38.8794 3.46708 38.9472 3.4241C38.9998 3.3896 39.0439 3.34606 39.0813 3.29629C39.2034 3.29007 39.3222 3.24199 39.4155 3.16281C39.4279 3.1679 39.4398 3.17299 39.4517 3.17808C39.6293 3.25726 39.8221 3.37263 40.0234 3.34492C40.1286 3.33021 40.2248 3.28328 40.3288 3.26688C40.3978 3.25613 40.4651 3.25896 40.5324 3.26461C40.5856 3.37433 40.5822 3.50779 40.6088 3.62656C40.6405 3.76625 40.7157 3.90934 40.848 3.97607C40.9164 4.01057 41.0001 3.99869 41.0426 3.92913C41.0799 3.86748 41.0635 3.76908 40.9951 3.73515C40.986 3.73063 40.9775 3.7261 40.9691 3.72101C40.9566 3.71196 40.9532 3.70969 40.96 3.71478C40.9662 3.71987 40.9639 3.71705 40.9521 3.70687C40.9453 3.69952 40.9385 3.69273 40.9328 3.68481C40.9459 3.70234 40.9215 3.66502 40.921 3.66502C40.9148 3.65315 40.9091 3.6407 40.9034 3.62825C40.9023 3.62373 40.8938 3.59998 40.8938 3.60054C40.8899 3.5864 40.8865 3.57113 40.8831 3.55643C40.8752 3.52306 40.8701 3.48913 40.8656 3.45519C40.865 3.44784 40.8639 3.44106 40.8627 3.43428C40.9708 3.50045 41.1602 3.5259 41.2337 3.63618C41.2812 3.708 41.232 3.79962 41.2151 3.87484C41.1975 3.94949 41.1862 4.02809 41.2037 4.10444C41.2388 4.25374 41.3587 4.35441 41.4916 4.41662C41.6013 4.46865 41.8083 4.49919 41.8745 4.61399C41.9344 4.71749 41.7744 4.84587 41.7263 4.92787C41.6505 5.05738 41.6381 5.20499 41.7139 5.33789C41.8044 5.49511 41.9723 5.56185 42.1177 5.65347C42.1007 5.74792 42.086 5.84236 42.0645 5.93568C42.0368 6.05444 41.9842 6.20488 42.0464 6.32195C42.1352 6.48596 42.2291 6.3932 42.4112 6.35984C42.5328 6.33778 42.9569 6.3604 42.9671 6.53176C42.9762 6.66467 42.9394 6.79926 42.8947 6.92312C42.7963 7.19854 42.6323 7.44794 42.5147 7.71544C42.2053 8.42011 42.0323 9.13043 41.9638 9.88656C41.9486 10.0585 42.1855 10.0641 42.2409 9.92898C42.3552 9.65186 42.5254 9.28201 42.6753 9.02299C42.798 8.80865 42.9304 8.61522 43.0582 8.43368C43.104 8.39636 43.4931 8.04628 43.5445 8.00613C43.7295 7.94279 43.8771 7.78614 43.9557 7.60969C44.0343 7.43494 44.0162 7.24378 44.0999 7.07016C44.1808 6.90333 44.3058 6.75232 44.4505 6.63808C44.6366 6.4916 44.6592 6.31742 44.6213 6.09403C44.5433 5.63425 44.8951 5.23837 44.8091 4.78084C44.7746 4.59534 44.6649 4.44321 44.5501 4.29786C44.3165 4.00152 44.4579 3.54003 44.0869 3.3076C43.911 3.19731 43.7855 3.10004 43.6673 2.92642C43.5745 2.79012 43.4902 2.63516 43.3681 2.52997C43.2176 2.3999 43.0423 2.29866 42.8551 2.2325C42.7268 2.18612 42.5978 2.16859 42.4643 2.1454C42.3778 2.1307 42.1544 2.1273 42.0939 2.07244C41.9129 1.90504 41.7127 1.74895 41.4548 1.75065C41.2739 1.75178 41.1212 1.83548 40.9611 1.90618C40.9187 1.90222 40.8757 1.89712 40.8333 1.88977C40.6569 1.85754 40.4866 1.79024 40.3057 1.78289C40.0574 1.77384 39.8719 1.92427 39.6129 1.90618C39.3714 1.88977 39.1276 1.82473 38.9331 2.01362C38.8483 2.09563 38.8053 2.20818 38.803 2.32016C38.7057 2.3637 38.6107 2.41347 38.5242 2.47568C38.5123 2.47003 38.5004 2.46324 38.4869 2.46268C38.4682 2.45815 38.4496 2.4587 38.4309 2.46436C38.3495 2.47454 38.2674 2.49208 38.1956 2.53393C38.1628 2.55203 38.1317 2.57578 38.1063 2.60293C38.0712 2.63969 38.0486 2.67758 38.0299 2.72395C38.0248 2.73639 38.0214 2.74826 38.0192 2.76127C38.0152 2.78389 38.0112 2.80709 38.0124 2.82971C38.0146 2.87383 38.0243 2.91511 38.044 2.9547C38.0237 2.98241 38.0067 3.01238 37.996 3.04744C37.9818 3.09438 37.9824 3.14528 37.9948 3.19222C37.9818 3.19392 37.9677 3.19505 37.9547 3.19732C37.9292 3.20128 37.9066 3.20919 37.8823 3.21993C37.819 3.24991 37.776 3.32287 37.7783 3.39243C37.7788 3.43428 37.7913 3.47161 37.8082 3.50837C37.6719 3.61469 37.6171 3.79339 37.6125 3.96305C37.6103 4.03431 37.6255 4.13555 37.5577 4.18306C37.4989 4.22378 37.4101 4.23056 37.3416 4.23961C37.2653 4.25036 37.2223 4.34424 37.2393 4.41154" fill="#AB493C"/>
<path d="M43.4691 2.88865C43.5059 3.06962 43.6665 3.14031 43.6767 3.34052C43.6851 3.49661 43.6325 3.64931 43.6851 3.80314C43.7174 3.89759 43.7813 3.99656 43.8633 4.0565C43.9198 4.09609 43.9968 4.10175 44.0454 4.1453C44.1438 4.23409 44.1195 4.39583 44.2094 4.4914C44.3253 4.61526 44.5069 4.65994 44.6313 4.77757C44.7913 4.92857 44.9141 5.16779 45.1369 5.23509C45.3835 5.30974 45.647 5.11012 45.8891 5.07788C46.13 5.04508 46.3449 5.1661 46.5739 5.11124C46.786 5.06034 46.9987 4.97833 47.135 4.79849C47.3188 4.55644 47.2373 4.32909 47.2865 4.06555C47.3295 3.83594 47.5399 3.66628 47.5795 3.43497C47.6315 3.12449 47.5054 2.81118 47.2277 2.59005C47.0626 2.45828 47.178 2.14157 47.0552 1.96173C46.9008 1.73438 46.687 1.44652 46.3867 1.45274C46.2832 1.455 45.9247 1.52117 45.8529 1.41372C45.8201 1.36508 45.7873 1.31701 45.7426 1.27573C45.6306 1.17336 45.4768 1.12755 45.3326 1.1875C45.2115 1.23727 45.1578 1.34868 45.0413 1.39505C44.9531 1.43068 44.8479 1.40919 44.7563 1.41089C44.5691 1.41371 44.3966 1.95664 44.275 2.0952C44.0216 2.38419 43.8305 2.15287 43.5873 2.45035C43.4849 2.57534 43.4357 2.72916 43.4691 2.88865" fill="#AB493C"/>
<path d="M43.5977 16.8423C43.726 16.439 43.9319 16.0618 44.2192 15.7689C44.5557 15.4256 44.9878 15.1818 45.4532 15.0653C45.6749 15.0099 45.8745 14.9664 46.0877 15.0602C46.3473 15.1751 46.582 15.3238 46.8077 15.4963C47.3353 15.9001 47.7719 16.4142 48.1638 16.9497C48.5235 17.4412 48.851 17.9564 49.1439 18.4897C49.3289 18.8262 49.5257 19.157 49.6773 19.5099C49.7943 19.7825 49.9809 20.0828 49.6269 20.2712C48.5015 20.8678 47.2335 21.7003 45.8089 22.5203C45.6704 22.6001 45.5313 22.7646 45.3955 22.6725C45.2632 22.5825 45.188 22.3331 45.1167 22.1946C45.0104 21.9887 44.9041 21.7829 44.7983 21.577C44.4923 20.9849 44.1858 20.3911 43.9206 19.7797C43.6361 19.1226 43.4031 18.4541 43.4376 17.7341C43.4523 17.4372 43.5049 17.1324 43.5977 16.8423" fill="#52C8F0"/>
<path d="M52.1484 26.4859C52.1071 26.3174 52.0675 26.1567 52.0347 26.0097C51.6376 24.2582 50.9924 22.5627 50.1214 20.9922C49.725 20.279 49.3076 19.5195 48.8461 18.8561C48.4412 18.2748 47.8791 17.7929 47.1659 17.6623C46.2616 17.4977 45.4229 17.9281 44.9117 18.6814C44.5593 19.2005 44.7228 19.813 44.9128 20.356C45.6152 22.3608 46.2921 24.3758 47.0749 26.3519C47.4719 27.3546 47.896 28.3471 48.362 29.3198C48.759 30.1478 49.2612 30.8157 50.2634 30.9068C51.2808 30.9989 52.0426 30.2089 52.3644 29.3091C52.6409 28.5326 52.3672 27.3862 52.1484 26.4859Z" fill="#FFCBB4"/>
<path d="M30.1341 23.1288C30.0408 23.8329 30.6386 24.0546 30.9943 24.4912C31.5531 25.175 32.6944 25.0341 33.5121 25.3944C34.0013 25.6104 33.8385 26.2105 33.7853 26.7149C33.7304 27.242 33.5263 27.9037 33.3091 28.3878C33.1643 28.7096 32.1226 28.9262 32.5055 29.6733C32.5654 29.7904 32.9794 30.2298 33.4358 30.3661C33.5919 30.413 34.0658 30.5041 34.2298 30.5052C35.0148 30.5097 35.6318 30.8615 36.3619 31.0849C37.0542 31.297 37.7758 31.414 38.4997 31.4316C39.5482 31.4565 40.5933 31.1765 41.6407 31.3179C42.4551 31.4276 43.3238 31.651 44.1218 31.3366C44.5295 31.1759 45.3303 30.6042 45.742 30.4538C46.134 30.3107 46.5185 30.3616 46.9257 30.404C46.997 30.4656 47.1271 30.4611 47.1559 30.3435C47.2798 29.8334 46.9314 29.3951 46.7872 28.929C46.626 28.4093 45.8252 27.2279 45.7556 26.6901C45.7205 26.4248 45.4926 25.7196 45.8043 25.5997C46.3641 25.3842 46.9608 25.292 47.5088 25.0805C48.0019 24.8905 48.2932 24.4726 48.6964 24.1621C49.0719 23.8731 49.5397 23.7339 49.9848 23.5886C50.8738 23.2979 51.5801 22.7013 52.3029 22.1222C52.4646 21.9926 52.5608 21.7823 52.3911 21.6132C52.2379 21.4593 51.9817 21.4412 51.8002 21.3276C51.2041 20.952 50.979 20.106 50.6266 19.5246C50.2698 18.9353 49.8388 18.3573 49.3615 17.8862C48.9515 17.4819 48.3141 16.9191 47.7034 16.3638C47.4093 16.0963 47.6044 16.6132 47.4251 16.9667C47.0914 17.6261 33.2989 17.1799 33.4663 16.8682C33.5517 16.7076 33.308 16.5651 33.222 16.7257C32.9234 17.2817 32.6282 17.8314 32.3302 18.3867C32.1022 18.8098 31.4869 19.653 31.3167 20.102C31.1448 20.5533 30.9994 21.7246 30.7534 22.0769C30.4774 22.4694 30.1432 23.0604 30.1341 23.1288" fill="#52C8F0"/>
<path d="M50.984 26.8174C50.7329 26.7851 50.4727 26.797 50.2205 26.8406C49.5944 26.9474 49.0091 27.2087 48.4351 27.47C47.8475 27.7381 47.2553 27.9909 46.6525 28.2228C45.4609 28.6808 44.2478 29.0767 43.0505 29.519C41.868 29.9556 40.6617 30.4222 39.5803 31.0776C39.068 31.3881 38.5855 31.767 38.2457 32.2664C37.9335 32.7245 37.7106 33.3517 37.9431 33.8912C37.9945 34.0128 38.1829 34.3335 38.3231 34.3838C38.4136 34.4166 38.5595 34.5116 38.637 34.4121C38.7015 34.515 38.7863 34.6026 38.8858 34.6722C38.9826 34.7401 39.1109 34.8046 39.2314 34.8096C39.258 34.8108 39.2812 34.8051 39.3038 34.7989C39.3502 34.8962 39.418 34.9821 39.5079 35.0489C39.655 35.158 39.8303 35.2225 40.0062 35.2728C40.0339 35.4136 40.0843 35.5471 40.1668 35.6653C40.2811 35.8288 40.5067 36.0182 40.7171 35.9074C40.8144 35.8565 40.8641 35.7518 40.8726 35.6461C40.8845 35.5047 40.8087 35.3984 40.7838 35.2649C40.7516 35.0924 40.9252 35.0014 41.0547 34.9312C41.2085 34.8487 41.3675 34.7763 41.5292 34.7118C41.8295 34.5908 42.1377 34.4929 42.446 34.3979C43.7642 33.9924 45.0616 33.5326 46.3499 33.0389C46.9907 32.7935 47.6292 32.5435 48.2665 32.2918C48.8813 32.0504 49.4955 31.8032 50.0814 31.4978C51.2407 30.8949 52.2604 29.9692 52.4595 28.6147C52.5511 27.9965 52.3577 27.2692 51.7565 26.9706C51.5631 26.8739 51.2662 26.8095 50.984 26.8174" fill="#FFCBB4"/>
<path d="M40.0192 35.1733C39.9898 35.1733 39.9627 35.153 39.9559 35.1224C39.8105 34.4596 40.1504 33.8522 40.548 33.669C40.5797 33.6537 40.6187 33.6678 40.634 33.7006C40.6498 33.734 40.6351 33.7725 40.6023 33.7872C40.2494 33.9501 39.9564 34.5139 40.0831 35.0947C40.0905 35.1298 40.0684 35.1643 40.0334 35.1722C40.0288 35.1733 40.0238 35.1733 40.0192 35.1733Z" fill="#D97779"/>
<path d="M39.2939 34.7452C39.264 34.7452 39.238 34.7248 39.2306 34.6949C39.1311 34.265 39.2742 33.5688 39.6859 33.1475C39.7108 33.1226 39.7526 33.1215 39.7775 33.1469C39.8035 33.1718 39.8041 33.2131 39.7786 33.2391C39.4037 33.6231 39.2679 34.278 39.3578 34.6654C39.3658 34.7005 39.3437 34.7356 39.3092 34.7435C39.3041 34.7446 39.299 34.7452 39.2939 34.7452" fill="#D97779"/>
<path d="M38.6048 34.3747C38.5754 34.3747 38.5483 34.3543 38.5415 34.3238C38.4403 33.8589 38.5409 33.1616 38.9996 32.7284C39.0262 32.7041 39.0675 32.7052 39.0918 32.7312C39.1167 32.7572 39.115 32.7985 39.089 32.8234C38.6388 33.2487 38.5913 33.9369 38.6688 34.2961C38.6761 34.3311 38.6541 34.3656 38.619 34.3735C38.6145 34.3741 38.6094 34.3747 38.6048 34.3747Z" fill="#D97779"/>
<path d="M36.2556 14.8001C36.3602 14.9754 36.479 15.1451 36.5949 15.3261C36.8602 15.7384 37.1181 16.1625 37.5077 16.4707C38.2282 17.0414 39.2202 17.2252 40.1222 17.1827C41.0316 17.1403 42.0016 16.9113 42.7532 16.3768C43.101 16.1286 43.4205 15.8515 43.7118 15.5376C43.7451 15.5042 43.7796 15.4674 43.813 15.4301C43.8413 15.4047 43.8758 15.3854 43.904 15.36C43.994 15.278 44.0646 15.1875 44.1297 15.0942C44.2117 15.0009 44.288 14.9019 44.3531 14.8029C41.6882 14.5202 38.921 14.5179 36.2556 14.8001" fill="#FFCBB4"/>
<path d="M47.6417 27.8857C47.6168 27.8857 47.5931 27.871 47.5818 27.8466C47.5676 27.8138 47.5824 27.7754 47.6152 27.7607L48.757 27.254C48.7898 27.2393 48.8283 27.254 48.843 27.2873C48.8571 27.3201 48.8424 27.3586 48.8096 27.3733L47.6683 27.88C47.6593 27.884 47.6508 27.8857 47.6417 27.8857" fill="#D97779"/>
<path d="M33.9751 25.2699C33.9435 25.2699 33.9152 25.249 33.9067 25.2173C33.2201 22.6424 33.2976 22.0786 34.7313 19.1818C34.7494 19.1474 34.7923 19.1338 34.8263 19.1502C34.8608 19.1671 34.8755 19.2096 34.858 19.2452C33.396 22.1979 33.3932 22.7425 34.0436 25.1811C34.0538 25.219 34.0311 25.2575 33.9932 25.2677C33.987 25.2694 33.9814 25.2699 33.9751 25.2699" fill="#2C81DB"/>
<path d="M24.4814 55.6171C24.508 56.0311 24.4752 56.4456 24.819 56.5525C25.0526 56.6255 25.3179 56.5514 25.5514 56.5276C25.8297 56.4988 26.1068 56.4694 26.3845 56.4388C26.9506 56.3761 27.5167 56.3088 28.0828 56.2392C29.202 56.1006 30.3212 55.9525 31.4404 55.8077C31.6474 55.7811 32.0388 55.8416 32.1417 55.5758C32.2577 55.2744 32.1813 54.8191 32.1949 54.495C32.2051 54.2581 32.2978 53.8283 32.2317 53.6043C32.1451 53.3102 31.4687 53.5743 31.2889 53.61C29.2354 54.0132 27.1248 53.9895 25.0464 54.1269C24.8988 54.1365 24.7461 54.1484 24.616 54.2355C24.6025 54.2445 24.5894 54.2541 24.5776 54.2649C24.2552 54.5397 24.456 55.224 24.4814 55.6171" fill="#5B3650"/>
<path d="M25.5764 54.1439C25.5419 54.1439 25.5136 54.1168 25.5131 54.0817C25.5131 54.0466 25.5408 54.0178 25.5753 54.0178C27.5552 53.9912 29.5527 53.8204 31.5106 53.5105C31.5474 53.5054 31.578 53.5286 31.5831 53.5631C31.5887 53.5976 31.565 53.6298 31.531 53.6355C29.5663 53.9465 27.5632 54.1179 25.5775 54.1439C25.577 54.1439 25.5764 54.1439 25.5764 54.1439" fill="#24142C"/>
<path d="M31.7852 53.3425C31.7519 53.3425 31.7236 53.317 31.7225 53.2836L31.33 47.1532C31.3277 47.1181 31.3543 47.0875 31.3893 47.0853C31.3905 47.0853 31.3922 47.0853 31.3927 47.0853C31.4261 47.0853 31.4544 47.1113 31.4561 47.1447L31.848 53.2752C31.8503 53.3102 31.8237 53.3408 31.7892 53.3425C31.788 53.3425 31.7864 53.3425 31.7852 53.3425" fill="#24142C"/>
</svg>
