<svg width="389" height="759" viewBox="0 0 389 759" fill="none" xmlns="http://www.w3.org/2000/svg">
<path d="M107.749 724.513C107.406 721.052 101.761 686.249 101.982 682.769C102.023 682.168 120.941 689.55 125.494 688.884C130.198 688.192 146.601 690.688 147.091 691.331C147.394 691.724 145.488 713.665 144.572 726.925C132.153 726.865 119.8 726.516 107.762 724.57C107.758 724.553 107.749 724.513 107.749 724.513Z" fill="#FFCBB4"/>
<path d="M144.572 726.925C144.412 729.228 144.277 731.278 144.195 732.902C132.239 732.66 120.279 731.711 108.322 730.072C108.118 727.757 107.852 724.848 107.762 724.571C119.8 726.516 132.153 726.865 144.572 726.925Z" fill="#5B3650"/>
<path d="M94.9876 750.495C97.0655 749.321 99.5034 748.854 101.806 748.306C103.97 747.787 106.167 747.391 107.57 745.471C108.826 743.754 108.695 741.684 108.793 739.672C108.903 737.393 108.793 735.111 108.568 732.844C108.543 732.591 108.445 731.438 108.323 730.072C120.279 731.711 132.239 732.66 144.196 732.901C143.717 742.191 143.083 752.016 142.613 756.843C142.556 757.444 142.187 757.813 141.59 757.866C133.651 758.626 103.852 757.981 96.8037 758.083C91.3634 758.165 91.3594 757.666 91.3635 756.258C91.3635 753.862 92.9096 751.665 94.9876 750.495Z" fill="#5B3650"/>
<path d="M108.089 748.321C107.84 748.321 107.618 748.142 107.586 747.893C107.541 747.615 107.729 747.353 108.007 747.308C118.921 745.594 120.839 735.805 121.166 732.843C121.199 732.562 121.452 732.365 121.731 732.394C122.009 732.426 122.213 732.675 122.181 732.958C121.833 736.1 119.796 746.493 108.167 748.313C108.138 748.318 108.11 748.321 108.089 748.321Z" fill="#6F5270"/>
<path d="M123.52 737.642C123.499 737.642 123.483 737.642 123.462 737.639C123.38 737.63 115.085 736.71 109.993 735.921C109.714 735.879 109.522 735.617 109.567 735.344C109.608 735.061 109.882 734.865 110.148 734.914C115.22 735.691 123.491 736.616 123.577 736.624C123.855 736.656 124.06 736.905 124.027 737.188C123.998 737.45 123.777 737.642 123.52 737.642Z" fill="#6F5270"/>
<path d="M121.675 743.184C121.642 743.184 121.605 743.181 121.577 743.172L109.972 740.856C109.694 740.804 109.514 740.534 109.571 740.26C109.624 739.982 109.89 739.781 110.168 739.859L121.773 742.17C122.051 742.223 122.231 742.498 122.174 742.772C122.125 743.017 121.916 743.184 121.675 743.184Z" fill="#6F5270"/>
<path d="M183.77 691.331C184.26 690.689 200.659 688.193 205.367 688.884C209.916 689.551 228.834 682.169 228.875 682.769C229.08 685.948 224.376 715.317 223.312 722.961C210.967 725.163 198.622 726.467 186.281 726.828C185.357 713.558 183.463 691.724 183.77 691.331Z" fill="#FFCBB4"/>
<path d="M223.309 722.961C223.207 723.677 223.142 724.217 223.109 724.513C223.031 724.513 222.749 727.641 222.532 730.072C210.576 731.711 198.615 732.66 186.663 732.902C186.577 731.257 186.442 729.175 186.278 726.828C198.619 726.467 210.964 725.163 223.309 722.961Z" fill="#5B3650"/>
<path d="M235.869 750.495C233.787 749.321 231.349 748.854 229.051 748.306C226.887 747.787 224.686 747.391 223.287 745.471C222.031 743.754 222.158 741.684 222.064 739.672C221.954 737.393 222.064 735.111 222.289 732.844C222.31 732.591 222.412 731.438 222.53 730.072C210.574 731.711 198.613 732.66 186.661 732.901C187.14 742.191 187.77 752.016 188.24 756.843C188.297 757.444 188.669 757.813 189.263 757.866C197.206 758.626 227.005 757.981 234.053 758.083C239.493 758.165 239.498 757.666 239.494 756.258C239.494 753.862 237.947 751.665 235.869 750.495Z" fill="#5B3650"/>
<path d="M222.771 748.321C222.747 748.321 222.718 748.318 222.689 748.313C211.06 746.493 209.023 736.1 208.676 732.958C208.647 732.675 208.847 732.426 209.13 732.394C209.424 732.365 209.665 732.562 209.694 732.843C210.021 735.805 211.936 745.594 222.849 747.308C223.131 747.353 223.319 747.615 223.274 747.893C223.238 748.142 223.017 748.321 222.771 748.321Z" fill="#6F5270"/>
<path d="M207.337 737.642C207.083 737.642 206.858 737.45 206.83 737.188C206.797 736.905 207.002 736.656 207.284 736.624C207.366 736.616 215.641 735.691 220.717 734.914C221.003 734.865 221.257 735.061 221.294 735.344C221.339 735.617 221.146 735.879 220.868 735.921C215.776 736.71 207.476 737.63 207.394 737.639C207.374 737.642 207.357 737.642 207.337 737.642Z" fill="#6F5270"/>
<path d="M209.181 743.184C208.944 743.184 208.731 743.017 208.682 742.772C208.629 742.498 208.809 742.223 209.083 742.17L220.692 739.859C220.958 739.786 221.236 739.982 221.289 740.26C221.346 740.534 221.166 740.804 220.892 740.856L209.283 743.172C209.251 743.181 209.214 743.184 209.181 743.184Z" fill="#6F5270"/>
<path d="M197.25 699.319C214.597 697.87 227.331 696.276 229.667 695.879C233.802 695.179 233.769 454.317 231.425 419.642C229.531 391.557 218.115 349.462 194.141 330.02C183.673 321.528 181.481 326.028 167.107 327.464C155.318 328.634 143.432 329.308 134.878 336.61C127.659 342.782 125.442 351.397 126.575 360.011C134.539 420.382 145.714 484.398 156.153 544.372C166.526 603.954 173.705 639.537 181.493 699.466C181.64 700.324 188.332 700.064 197.25 699.319Z" fill="#FF5778"/>
<path d="M135.266 689.788C117.922 688.291 104.084 686.516 101.745 686.115C97.6132 685.407 98.6276 450.693 101.07 416.022C103.049 387.941 104.092 354.338 128.128 334.966C138.62 326.507 151.292 322.555 165.658 324.032C177.451 325.238 189.334 325.95 197.862 333.276C205.065 339.465 207.258 348.092 206.096 356.698C197.956 417.045 186.609 448.336 175.991 508.278C165.441 567.831 158.986 630.071 151.026 689.98C150.875 690.84 144.183 690.557 135.266 689.788Z" fill="#FF5778"/>
<path d="M164.919 581.383C164.902 581.383 164.882 581.383 164.866 581.379C164.583 581.35 164.379 581.1 164.412 580.814L181.289 423.741C181.322 423.463 181.522 423.225 181.853 423.287C182.131 423.315 182.336 423.569 182.303 423.851L165.426 580.929C165.397 581.187 165.181 581.383 164.919 581.383Z" fill="#E03A5D"/>
<path d="M96.3516 686.643C96.2575 689.068 94.2245 691.74 94.5231 693.135C95.4925 697.634 100.757 699.11 105.404 700.08C118.812 702.881 138.275 704.559 151.949 705.905C152.739 705.986 153.287 705.642 153.557 705.181C153.606 705.12 153.671 705.083 153.716 705.013C155.982 701.316 154.763 698.395 156.15 694.362C157.827 689.469 151.524 688.034 147.094 687.555C132.699 686 118.301 684.094 103.89 682.769C102.234 682.581 99.8734 681.946 98.3149 682.597C96.9119 683.187 96.417 684.802 96.3516 686.643Z" fill="#FF5778"/>
<path d="M233.993 683.742C232.464 683.027 230.079 683.564 228.414 683.685C213.962 684.401 199.49 685.706 185.047 686.65C180.601 686.949 174.244 688.116 175.721 693.077C176.936 697.167 175.598 700.031 177.7 703.819C177.741 703.888 177.807 703.93 177.856 703.99C178.101 704.47 178.637 704.834 179.431 704.787C193.15 704.014 212.666 703.151 226.177 700.919C230.864 700.141 236.186 698.885 237.339 694.435C237.695 693.053 235.773 690.295 235.785 687.87C235.793 686.026 235.368 684.393 233.993 683.742Z" fill="#FF5778"/>
<path d="M185.045 687.161C184.779 687.161 184.554 686.954 184.534 686.686C184.513 686.405 184.73 686.159 185.008 686.138L224.853 683.361C225.168 683.361 225.377 683.553 225.397 683.836C225.418 684.119 225.201 684.363 224.923 684.384L185.082 687.161C185.07 687.161 185.057 687.161 185.045 687.161Z" fill="#E03A5D"/>
<path d="M147.092 688.066C147.072 688.066 147.055 688.066 147.035 688.063L103.835 683.275C103.553 683.243 103.349 682.994 103.381 682.712C103.41 682.429 103.668 682.205 103.946 682.261L147.145 687.048C147.428 687.08 147.632 687.329 147.599 687.612C147.571 687.874 147.346 688.066 147.092 688.066Z" fill="#E03A5D"/>
<path d="M166.076 241.547C169.103 238.43 179.043 227.497 181.882 224.2C188.279 216.747 193.593 209.912 199.565 202.115C204.911 195.141 211.284 187.934 215.313 180.076C219.809 171.306 224.66 161.734 227.212 152.163C229.879 142.141 230.661 131.694 234.473 121.971C236.633 116.457 239.656 111.201 243.857 106.984C245.881 104.955 248.197 103.224 250.741 101.895C252.487 100.979 256.193 99.363 257.085 102.267C257.33 103.061 257.019 103.711 256.586 104.304C257.993 103.609 259.445 103.004 260.955 102.545C262.689 102.022 267.765 100.398 268.072 103.633C268.199 105.016 266.963 105.789 265.998 106.517C265.7 106.746 265.397 106.971 265.094 107.2C265.413 106.959 266.616 108.775 266.653 109.094C266.755 109.888 266.154 111.111 265.646 111.7C265.045 112.399 264.427 113.091 263.801 113.774C263.638 113.954 263.454 114.126 263.286 114.305C264.047 114.649 264.648 115.271 264.828 116.15C265.143 117.68 264.162 119.054 263.405 120.294C259.523 126.663 258.173 133.404 256.488 140.623C251.804 160.63 250.107 178.984 240.081 197.285C233.074 210.075 223.163 221.7 211.885 234.197C203.909 243.02 196.477 253.373 186.124 259.451C180.896 262.515 161.663 246.092 166.076 241.547Z" fill="#FA825E"/>
<path d="M200.363 286.424C200.453 279.074 198.285 273.703 194.869 267.342C192.166 262.319 189.519 257.263 186.921 252.179C184.79 248.011 183.113 241.863 178.794 239.523C175.341 237.654 174.671 237.604 170.956 237.674C151.011 238.026 136.617 239.478 117.326 244.542C112.455 245.826 105.051 247.961 102.515 252.944C101.181 255.562 101.562 258.756 102.359 261.607C105.701 273.576 109.874 285.238 113.387 297.17C115.895 305.682 117.866 314.35 119.842 323.005C120.824 327.329 121.691 331.705 122.853 335.98C123.143 337.044 123.785 342.087 125.025 342.214C150.124 344.864 173.472 341.964 196.186 332.384C197.103 331.996 196.53 328.2 196.526 327.406C196.505 324.985 196.489 322.531 196.473 320.027C196.407 310.595 200.24 297.063 200.363 286.424Z" fill="#FA825E"/>
<path d="M114.822 314.485C115.198 316.17 116.532 317.499 118.233 317.802C125.293 319.054 132.484 319.185 139.659 318.69C154.205 317.691 168.73 314.558 182.883 311.143C188.295 309.842 193.784 308.341 199.061 306.353C200.55 305.788 201.601 304.434 201.801 302.855C202.652 296.114 203.041 286.175 203.122 280.984C203.241 273.29 200.938 267.677 197.294 261.03C194.41 255.778 189.505 251.7 186.732 246.391C184.462 242.034 182.462 236.087 181.541 234.07C179.799 230.27 175.716 229.972 171.728 230.053C150.306 230.503 134.849 232.078 114.11 237.457C108.874 238.815 100.918 241.081 98.1736 246.305C96.7337 249.05 97.1304 252.391 97.9731 255.377C101.515 267.89 105.95 280.088 109.676 292.564C111.345 298.139 113.325 307.789 114.822 314.485Z" fill="#5B3650"/>
<path d="M151.612 183.627C150.79 180.04 149.952 176.379 148.671 172.975C147.011 168.582 145.207 164.205 142.769 160.18C138.008 152.31 130.162 146.346 120.607 146.821C115.445 147.075 110.434 149.304 105.975 151.791C102.142 153.934 98.9847 156.961 96.9353 160.868C93.483 167.449 93.5851 175.225 97.1357 181.672C99.2423 185.492 101.975 188.961 105.19 191.91C108.483 194.925 112.348 197.056 116.025 199.539C119.56 201.924 121.278 204.533 123.4 208.317C127.904 216.363 130.465 228.107 133.336 238.19C134.228 241.347 137.999 240.942 140.683 240.746C144.319 240.476 147.935 239.429 151.154 237.719C153.134 236.668 157.331 233.739 155.31 230.974C153.785 228.88 145.898 213.647 142.879 204.599C146.773 202.791 150.034 201.711 151.952 197.539C153.645 193.874 152.991 189.542 152.103 185.758C151.935 185.05 151.776 184.339 151.612 183.627Z" fill="#FA825E"/>
<path d="M140.928 155.337C139.316 152.76 137.005 150.15 134.269 148.539C133.708 148.06 133.005 147.684 132.526 147.418C130.706 146.424 128.615 146.109 126.562 146.109C123.22 146.113 119.878 146.498 116.622 147.234C111.841 148.322 106.834 150.154 102.645 152.989C102.698 152.318 102.723 151.647 102.694 150.989C102.588 148.244 101.684 145.59 99.7164 143.614C97.8225 141.72 95.3109 140.755 92.6808 140.493C87.6659 139.994 82.9538 143.225 80.2254 147.189C78.8183 149.234 77.9143 151.922 78.0616 154.417C78.2088 156.928 79.1046 159.419 80.4831 161.518C82.0293 163.882 84.1481 165.792 86.8846 166.639C88.9503 167.277 91.1143 167.126 93.0327 166.3C93.1145 166.34 93.2044 166.369 93.2903 166.406C92.6645 169.932 93.0449 173.601 94.0757 177.053C96.5136 185.226 102.837 190.266 109.304 195.432C111.227 196.966 113.477 198.618 115.661 200.696C117.228 202.189 119.171 204.402 120.529 206.091C121.191 206.914 122.819 206.394 122.361 205.232C120.34 200.124 117.686 195.55 114.099 191.3C112.732 189.681 111.088 188.286 109.836 186.576C109.28 185.811 108.748 184.952 108.531 184.011C108.257 182.8 111.153 181.778 112.041 181.68C113.374 181.536 114.217 181.991 114.491 180.673C114.683 179.733 114.013 178.796 113.575 178.027C113.01 177.029 112.483 176.006 112.004 174.963C111.329 173.495 110.793 171.961 110.335 170.406C111.178 169.932 111.959 169.376 112.634 168.897C114.573 167.527 116.307 165.903 117.845 164.099C120.59 160.896 122.713 157.235 124.533 153.443C124.554 153.435 124.578 153.427 124.599 153.423C129.442 155.648 134.698 156.846 140.044 156.875C140.805 156.879 141.341 155.996 140.928 155.337Z" fill="#5B3650"/>
<path d="M121.91 174.313C122.189 175.544 122.753 176.464 123.571 176.28C124.389 176.092 125.15 174.869 124.868 173.638C124.59 172.407 123.408 172.022 122.59 172.21C121.767 172.394 121.624 173.086 121.91 174.313Z" fill="#5B3650"/>
<path d="M137.365 168.451C137.643 169.678 138.212 170.599 139.03 170.415C139.844 170.227 140.609 169.004 140.327 167.776C140.044 166.545 138.862 166.157 138.044 166.341C137.23 166.529 137.087 167.22 137.365 168.451Z" fill="#5B3650"/>
<path d="M135.694 184.936C134.946 184.936 134.238 184.825 133.641 184.625C133.371 184.535 133.223 184.248 133.318 183.983C133.399 183.713 133.698 183.557 133.96 183.655C135.162 184.044 137.952 184.253 139.997 182.195C140.198 181.995 140.521 181.991 140.721 182.191C140.922 182.391 140.926 182.715 140.725 182.915C139.285 184.363 137.375 184.936 135.694 184.936Z" fill="#DB5148"/>
<path d="M132.413 180.232C132.18 180.232 131.971 180.073 131.914 179.835C131.848 179.561 132.02 179.283 132.298 179.222L136.679 178.203L131.513 169.515C131.37 169.278 131.452 168.963 131.693 168.82C131.93 168.668 132.249 168.75 132.392 168.996L137.915 178.285C137.996 178.424 138.009 178.596 137.943 178.743C137.882 178.894 137.751 179.005 137.591 179.046L132.527 180.22C132.487 180.228 132.45 180.232 132.413 180.232Z" fill="#DB5148"/>
<path d="M138.474 205.167C137.84 205.167 137.169 205.13 136.486 205.036C136.208 204.995 136.011 204.738 136.052 204.455C136.089 204.177 136.347 203.956 136.629 204.022C139.59 204.443 142.118 203.691 142.147 203.686C142.421 203.601 142.703 203.752 142.785 204.022C142.871 204.288 142.72 204.578 142.45 204.66C141.893 204.836 140.343 205.167 138.474 205.167Z" fill="#DB5148"/>
<path d="M116.349 186.159C115.175 183.827 112.205 181.557 110.434 180.833C108.037 179.855 104.933 179.917 103.1 181.987C99.4595 186.093 108.536 190.163 111.518 190.99C112.627 191.301 113.866 191.313 114.885 190.777C117.118 189.599 117.212 187.865 116.349 186.159Z" fill="#FA825E"/>
<path d="M164.845 230.249C167.582 238.533 160.235 246.313 152.709 248.746C139.983 252.845 121.331 240.639 119.15 236.406C134.175 232.81 149.944 230.924 164.845 230.249Z" fill="#FA825E"/>
<path d="M126.204 311.593C125.93 311.593 125.701 311.372 125.693 311.098C125.684 310.811 125.909 310.578 126.188 310.57C149.761 309.924 172.864 305.24 194.846 296.654C195.108 296.548 195.402 296.679 195.509 296.945C195.611 297.206 195.48 297.501 195.218 297.607C173.122 306.234 149.908 310.942 126.22 311.593C126.212 311.593 126.208 311.593 126.204 311.593Z" fill="#24142C"/>
<path d="M32.4003 415.932C41.522 419.924 51.4987 421.417 61.2299 421.278C76.8677 421.065 92.2765 417.032 107.775 414.459C124.002 411.772 139.137 412.14 154.991 417.404C163.397 420.202 172.163 422.914 180.72 420.951C192.668 418.214 198.518 406.315 200.297 392.498C203.255 369.456 194.497 346.243 180.643 331.071C163.36 312.141 137.284 305.718 115.51 298.343C93.5198 290.886 67.026 287.651 44.913 296.184C9.0151 310.038 -19.5568 370.728 16.971 405.698C21.6382 410.16 26.8618 413.506 32.4003 415.932Z" fill="#FFCA52"/>
<path d="M154.32 348.951C149.836 344.034 142.678 354.988 146.568 358.964C151.6 364.114 157.85 352.808 154.32 348.951Z" fill="#FFB537"/>
<path d="M163.927 360.502C158.806 356.257 153.227 368.086 157.624 371.489C163.322 375.899 167.948 363.84 163.927 360.502Z" fill="#FFB537"/>
<path d="M84.6878 331.063C86.4631 337.477 97.806 330.957 96.1453 325.652C93.9855 318.78 83.2971 326.024 84.6878 331.063Z" fill="#FFB537"/>
<path d="M112.752 399.959C117.861 404.225 123.481 392.412 119.092 388.996C113.411 384.566 108.743 396.608 112.752 399.959Z" fill="#FFB537"/>
<path d="M32.8902 369.358C28.1003 373.98 39.2469 380.836 43.1123 376.835C48.1191 371.661 36.6493 365.73 32.8902 369.358Z" fill="#FFB537"/>
<path d="M30.8928 333.644C26.3687 338.528 37.8752 344.75 41.5116 340.549C46.232 335.105 34.4474 329.816 30.8928 333.644Z" fill="#FFB537"/>
<path d="M111.542 355.397C116.025 360.31 123.191 349.368 119.31 345.388C114.278 340.234 108.024 351.531 111.542 355.397Z" fill="#FFB537"/>
<path d="M267.896 161.415C280.138 180.137 305.266 188.817 327.08 186.739C354.675 184.117 379.581 163.084 386.793 136.316C396.156 101.556 374.309 69.6869 348.056 49.2019C327.886 33.4618 304.002 23.1947 279.836 14.7888C253.718 5.71211 223.551 -2.84926 195.695 0.905792C158.562 5.91251 153.162 45.8231 176.736 71.6339C188.467 84.478 202.988 90.6791 218.274 97.6451C232.366 104.063 243.582 115.991 251.186 129.285C255.759 137.278 259.228 145.88 263.547 153.995C264.897 156.527 266.325 159.01 267.896 161.415Z" fill="#FFCA52"/>
<path d="M281.323 40.2722C265.101 26.0252 244.538 15.9136 223.697 10.5223C221.848 10.0437 222.425 7.20501 224.311 7.60179C235.289 9.91699 245.835 13.8888 255.868 18.8955C265.902 23.9104 275.454 30.0543 283.516 37.8875C285.013 39.3355 282.898 41.6507 281.323 40.2722Z" fill="#FFB537"/>
<path d="M378.906 116.085C376.1 110.268 373.65 104.218 370.394 98.6266C366.831 92.5155 361.992 88.0773 356.359 83.8928C349.365 78.6816 342.027 73.998 334.431 69.7234C327.137 65.6248 319.832 61.5466 312.109 58.3233C304.169 55.006 295.563 52.8871 289.754 46.0683C288.012 44.0231 290.699 40.8612 292.667 42.8982C298.173 48.6085 306.243 50.7028 313.287 53.8525C321.214 57.403 328.757 61.788 336.255 66.1689C343.511 70.4025 350.633 74.8283 357.443 79.7533C363.313 83.9992 368.725 88.4455 372.779 94.528C376.898 100.721 379.356 107.74 381.925 114.665C382.575 116.424 379.745 117.827 378.906 116.085Z" fill="#FFB537"/>
<path d="M301.175 88.3065C307.822 88.6542 305.233 75.8306 299.674 75.7284C292.471 75.5934 295.956 88.0325 301.175 88.3065Z" fill="#FFB537"/>
<path d="M328.111 124.679C330.426 130.917 341.167 123.452 339.053 118.306C336.324 111.643 326.286 119.779 328.111 124.679Z" fill="#FFB537"/>
<path d="M263.951 125.906C261.594 132.128 274.594 133.576 276.39 128.311C278.717 121.492 265.804 121.022 263.951 125.906Z" fill="#FFB537"/>
<path d="M218.767 55.6854C222.162 61.408 231.394 52.139 228.396 47.4554C224.514 41.3893 216.1 51.1941 218.767 55.6854Z" fill="#FFB537"/>
<path d="M312.911 138.755C319.255 136.75 312.326 125.649 307.082 127.506C300.296 129.911 307.925 140.329 312.911 138.755Z" fill="#FFB537"/>
<path d="M344.921 146.449C340.34 141.626 333.403 152.719 337.366 156.614C342.508 161.665 348.525 150.237 344.921 146.449Z" fill="#FFB537"/>
<path d="M241.038 119.795C242.867 117.844 245.476 115.95 247.971 114.956C249.497 114.347 251.776 115.247 251.612 117.161C251.518 118.257 247.223 128.14 246.434 130.242C245.648 132.345 243.857 133.11 242.752 133.163L241.038 119.795Z" fill="#FA825E"/>
<path d="M242.754 133.666C242.484 133.666 242.263 133.454 242.246 133.188C242.238 132.91 242.451 132.677 242.729 132.66C243.584 132.619 245.228 132.026 245.964 130.067C246.222 129.38 246.848 127.87 247.584 126.107C248.885 122.99 251.057 117.783 251.11 117.121C251.172 116.409 250.795 115.975 250.472 115.73C249.842 115.268 248.897 115.137 248.157 115.423C245.858 116.335 243.273 118.147 241.404 120.139C241.219 120.34 240.896 120.352 240.696 120.164C240.491 119.972 240.483 119.657 240.671 119.452C242.663 117.325 245.322 115.472 247.785 114.486C248.852 114.069 250.161 114.249 251.069 114.928C251.818 115.48 252.19 116.29 252.112 117.202C252.047 117.963 250.583 121.534 248.513 126.496C247.785 128.242 247.163 129.74 246.905 130.419C246.104 132.562 244.255 133.593 242.774 133.666C242.766 133.666 242.758 133.666 242.754 133.666Z" fill="#DB5148"/>
<path d="M70.5464 307.588C72.3626 307.834 74.1624 308.398 75.8476 309.167C80.0199 311.077 83.6278 313.99 87.1537 316.882C90.7656 319.839 94.4389 322.715 98.2225 325.451C105.704 330.859 113.451 335.878 121.002 341.191C128.459 346.435 136.027 351.937 142.367 358.523C145.377 361.644 148.044 365.186 149.496 369.309C150.826 373.089 151.222 377.891 148.6 381.229C148.007 381.985 146.101 383.879 145.026 383.969C144.334 384.031 143.132 384.423 142.78 383.585C142.138 384.182 141.381 384.64 140.559 384.939C139.753 385.237 138.738 385.446 137.888 385.262C137.699 385.221 137.552 385.135 137.405 385.053C136.898 385.642 136.264 386.121 135.511 386.424C134.28 386.914 132.93 387.037 131.613 387.062C131.155 387.998 130.558 388.837 129.756 389.508C128.655 390.436 126.729 391.344 125.465 390.179C124.88 389.643 124.725 388.821 124.86 388.068C125.044 387.053 125.768 386.452 126.189 385.565C126.733 384.423 125.69 383.462 124.913 382.73C123.992 381.867 123.015 381.069 122.004 380.316C120.131 378.913 118.159 377.658 116.175 376.418C107.712 371.142 99.4946 365.517 91.4078 359.684C87.3828 356.78 83.3864 353.843 79.39 350.902C75.545 348.075 71.7082 345.208 68.174 341.985C61.1916 335.62 55.7798 327.259 56.8965 317.422C57.4078 312.926 60.1076 308.206 64.8607 307.224C66.3947 306.909 68.5871 307.011 70.5464 307.588Z" fill="#FA825E"/>
<path d="M131.817 386.399C131.731 386.399 131.641 386.375 131.564 386.33C131.318 386.186 131.236 385.876 131.375 385.63C133.314 382.284 131.879 378.762 130.046 375.453C129.911 375.208 129.997 374.893 130.247 374.758C130.496 374.619 130.803 374.709 130.942 374.958C132.823 378.357 134.46 382.346 132.263 386.141C132.165 386.305 131.993 386.399 131.817 386.399Z" fill="#DB5148"/>
<path d="M137.686 384.751C137.605 384.751 137.523 384.73 137.445 384.689C137.199 384.558 137.101 384.248 137.236 383.998C138.578 381.47 138.844 376.656 136.938 373.285C136.799 373.036 136.889 372.725 137.13 372.59C137.384 372.438 137.69 372.533 137.825 372.782C139.932 376.504 139.642 381.65 138.136 384.477C138.046 384.649 137.87 384.751 137.686 384.751Z" fill="#DB5148"/>
<path d="M143.191 383.438C143.109 383.438 143.032 383.417 142.958 383.385C142.709 383.254 142.606 382.947 142.733 382.697C143.94 380.337 144.881 375.453 142.533 371.657C142.381 371.42 142.459 371.105 142.7 370.958C142.942 370.807 143.253 370.888 143.4 371.126C145.809 375.012 145.216 380.088 143.645 383.16C143.555 383.34 143.375 383.438 143.191 383.438Z" fill="#DB5148"/>
<path d="M57.0607 325.414C58.8237 332.098 63.8344 338.254 71.2217 338.213C78.4946 338.172 82.5319 333.665 85.8943 327.942C89.8497 321.213 93.5107 314.321 96.9876 307.339C103.835 293.578 104.408 291.877 110.695 277.859C112.396 274.063 113.174 260.748 112.576 256.249C111.128 245.274 108.748 241.167 102.125 241.805C96.9059 242.304 92.0831 248.289 88.8107 252.232C85.0761 256.735 81.6034 261.947 78.3105 266.851C71.0704 277.634 65.3807 289.459 61.4498 301.837C61.1225 302.88 60.7379 304.009 60.3411 305.203C58.2059 311.556 55.5391 319.651 57.0607 325.414Z" fill="#FA825E"/>
</svg>
