<svg width="149" height="151" viewBox="0 0 149 151" fill="none" xmlns="http://www.w3.org/2000/svg">
<path d="M144.449 146.86C143.577 145.215 143.514 143.341 143.287 141.515C143.143 140.366 133.488 70.5006 133.118 69.4051C133.071 69.2656 117.334 80.2741 117.334 80.2741C117.334 80.2741 134.639 144.714 135.571 148.13C138.577 148.127 141.776 148.09 144.887 147.592C144.742 147.393 144.604 147.155 144.449 146.86Z" fill="#FFCBB4"/>
<path d="M148.01 148.955C147.494 148.676 146.895 148.572 146.328 148.446C145.658 148.297 145.29 148.091 144.979 147.715C144.948 147.677 144.917 147.634 144.887 147.592C141.776 148.09 138.576 148.128 135.571 148.131C135.577 148.154 135.584 148.18 135.591 148.203C135.874 149.24 136.143 150.136 136.356 150.707C136.372 150.853 136.465 150.943 136.611 150.954C138.562 151.108 145.867 150.826 147.595 150.823C148.93 150.82 148.929 150.699 148.922 150.355C148.912 149.767 148.524 149.233 148.01 148.955Z" fill="#FF5778"/>
<path d="M111.37 147.938C111.347 144.44 118.221 83.5782 118.221 83.5782C118.221 83.5782 100.393 75.0425 100.385 75.1911C100.34 76.0438 102.93 147.083 102.71 147.81C105.538 148.036 108.5 148.104 111.371 148.123C111.37 148.061 111.37 148.001 111.37 147.938Z" fill="#FFCBB4"/>
<path d="M102.709 147.81C102.701 147.835 102.692 147.855 102.681 147.87C102.553 148.05 102.395 148.177 102.22 148.271C101.936 148.426 101.604 148.498 101.276 148.581C100.714 148.723 100.118 148.844 99.6101 149.138C99.1035 149.432 98.7323 149.976 98.7383 150.562C98.7423 150.907 98.7433 151.029 100.079 150.994C101.805 150.947 109.116 151.02 111.062 150.809C111.206 150.793 111.297 150.702 111.31 150.555C111.359 149.983 111.375 149.119 111.371 148.122C108.5 148.104 105.537 148.035 102.709 147.81Z" fill="#FF5778"/>
<path d="M139.9 89.4609C138.332 81.0828 136.632 75.4094 134.919 67.0576C133.532 60.2949 132.194 52.1587 125.727 48.224C123.54 46.8938 121.121 46.2657 118.54 46.4313C117.269 46.2146 115.926 46.1444 114.586 46.0501C111.052 45.8023 110.484 44.7137 107.977 46.8697C102.238 51.8066 99.7399 62.208 99.4751 69.1072C99.149 77.6255 98.8331 83.4654 98.6545 91.9877C98.6414 92.6057 98.6314 93.2238 98.6183 93.8429C98.6033 94.6251 115.446 96.0411 116.976 96.0457C124.705 96.0681 131.853 94.1278 139.119 91.8044C139.774 91.5947 140.171 90.9285 140.046 90.2521C139.999 89.9895 139.949 89.7247 139.9 89.4609Z" fill="#FF5778"/>
<path d="M101.703 50.3382C101.895 50.0974 102.078 49.8687 102.249 49.662C104.281 47.2081 107.813 39.6217 109.076 36.6973C109.651 35.367 110.265 33.9595 110.699 32.5921C111.076 31.3942 111.145 30.082 110.556 28.9383C109.809 27.4887 108.296 26.7774 106.685 26.8747C105.573 26.9419 104.889 27.8338 104.332 28.6885C102.275 31.8467 98.3268 39.8244 96.3986 43.0628C95.4194 44.7071 94.4834 46.3774 93.6206 48.0849C92.8873 49.5386 92.493 50.9692 93.4501 52.4751C94.4212 54.005 96.3574 54.2197 97.9696 53.697C99.3611 53.2465 100.675 51.6213 101.703 50.3382Z" fill="#FFCBB4"/>
<path d="M111.394 26.068C111.106 25.3928 110.691 24.7808 110.151 24.3334C109.519 23.8107 108.74 23.4847 107.927 23.3873C107.539 23.3402 107.191 23.3101 106.844 23.5238C106.42 23.7836 106.046 24.0956 105.689 24.4508C104.858 25.2764 104.201 26.2746 103.624 27.2999C103.094 28.241 102.623 29.2161 102.213 30.2153C101.956 30.8443 101.676 31.4683 101.478 32.1184C101.326 32.6221 101.057 33.1909 101.694 33.4377C103.715 34.2232 106.018 35.388 108.588 36.4945C108.838 36.6029 109.104 36.8587 109.319 36.6661C109.528 36.4785 109.615 36.026 109.713 35.7682C109.86 35.3839 110.006 34.9997 110.152 34.6155C110.573 33.5109 110.994 32.4034 111.342 31.2737C111.715 30.0608 111.999 28.8399 111.818 27.5899C111.742 27.0742 111.601 26.5535 111.394 26.068Z" fill="#FFEDD9"/>
<path d="M128.597 30.3516C128.381 32.1664 128.071 33.279 127.785 34.6584C127.69 35.0948 127.605 35.5563 127.524 36.073C127.103 38.7747 126.954 42.4043 126.632 44.8061C126.541 45.4421 126.461 46.0651 126.376 46.6811C126.352 46.8868 126.367 47.8739 126.111 47.9341C119.653 49.4891 113.457 49.5744 107.18 47.9341C106.924 47.8689 106.938 46.8868 106.914 46.6811C106.829 46.0651 106.744 45.4421 106.658 44.8061C106.337 42.4043 104.847 39.1007 104.432 36.398C104.337 35.772 104.287 35.2303 104.277 34.7086V34.7036C104.247 33.4254 104.452 32.2677 104.693 30.3516C104.864 28.9932 105.756 27.5987 105.961 26.2203C106.122 25.1478 106.613 23.1574 108.693 22.8364C108.884 22.8063 109.074 22.7762 109.271 22.7561C110.213 22.6207 111.16 22.5154 112.119 22.4461L112.163 22.4401C115.467 22.1953 118.836 22.2896 122.135 22.5856C122.962 22.6568 123.784 22.7411 124.597 22.8364C125.384 22.9267 126.231 22.9668 126.968 23.2918C127.143 23.3721 127.314 23.4624 127.474 23.5778C128.237 24.1245 128.618 25.1719 128.778 26.2464C128.978 27.6248 128.757 28.9932 128.597 30.3516Z" fill="#FFEDD9"/>
<path d="M144.638 40.3007C144.467 40.0448 144.304 39.8011 144.159 39.5753C142.438 36.8947 137.492 31.5054 135.09 29.4136C133.997 28.4636 132.842 27.4503 131.671 26.6237C130.643 25.8983 129.414 25.4358 128.146 25.6505C126.538 25.9214 125.402 27.1474 125.004 28.7144C124.731 29.7929 125.373 30.7148 126.021 31.5054C128.405 34.4228 133.596 40.3268 136.097 43.1468C137.366 44.5794 138.673 45.9779 140.041 47.3182C141.202 48.4579 142.445 49.2675 144.171 48.8131C145.923 48.3516 146.715 46.5718 146.706 44.8774C146.698 43.4147 145.548 41.6691 144.638 40.3007Z" fill="#FFCBB4"/>
<path d="M125.897 50.2163C126.801 51.665 128.094 51.8295 129.521 51.6881C131.196 51.5225 132.866 51.2747 134.528 50.9758C137.803 50.3889 141.048 49.6044 144.301 48.868C145.181 48.6684 146.133 48.3654 146.559 47.3601C147.175 45.8984 147.1 44.2301 146.172 42.9981C145.438 42.026 144.35 41.6026 143.25 41.5093C141.995 41.402 140.624 41.2485 139.374 41.4892C137.005 41.9457 134.64 42.342 132.319 43.0122C130.032 43.6733 127.749 44.4979 125.526 45.2634C124.142 45.7399 124.978 48.7456 125.897 50.2163Z" fill="#FFCBB4"/>
<path d="M135.732 42.3162C135.672 42.3162 135.619 42.274 135.609 42.2138C135.596 42.1446 135.642 42.0804 135.709 42.0674L140.174 41.2568C140.249 41.2447 140.308 41.2889 140.32 41.3571C140.333 41.4263 140.287 41.4905 140.219 41.5035L135.754 42.3142C135.746 42.3152 135.738 42.3162 135.732 42.3162Z" fill="#D97779"/>
<path d="M123.369 27.5257C123.366 26.7743 123.508 26.0269 123.833 25.3748C124.214 24.6133 124.81 23.9662 125.533 23.5158C125.876 23.3021 126.19 23.1195 126.601 23.1616C127.102 23.2138 127.578 23.3372 128.054 23.5067C129.164 23.901 130.181 24.531 131.135 25.2223C132.01 25.8563 132.843 26.5465 133.629 27.2879C134.123 27.7544 134.636 28.2059 135.084 28.7185C135.43 29.1158 135.909 29.5211 135.414 30.0317C133.841 31.651 132.153 33.7457 130.196 35.9066C130.005 36.1173 129.86 36.4695 129.582 36.3882C129.309 36.3079 129.046 35.9277 128.849 35.7341C128.558 35.4442 128.267 35.1552 127.976 34.8643C127.136 34.0306 126.295 33.1959 125.516 32.3081C124.677 31.353 123.919 30.3518 123.586 29.1178C123.447 28.6082 123.371 28.0664 123.369 27.5257Z" fill="#FFEDD9"/>
<path d="M124.396 44.1431C123.331 44.1742 122.397 45.3309 122.204 46.4425C122.16 46.6933 122.127 47.4076 122.301 47.6373C122.411 47.7828 122.548 48.0898 122.777 48.0105C122.773 48.2443 122.817 48.474 122.904 48.6907C122.989 48.9024 123.128 49.1391 123.318 49.2746C123.359 49.3037 123.402 49.3187 123.445 49.3328C123.417 49.5374 123.437 49.7471 123.511 49.9508C123.634 50.2798 123.85 50.5687 124.079 50.8326C123.977 51.0894 123.918 51.3573 123.927 51.6332C123.941 52.0174 124.104 52.5581 124.56 52.6013C124.769 52.6213 124.959 52.504 125.083 52.3435C125.251 52.1278 125.242 51.877 125.34 51.6362C125.47 51.3252 125.845 51.3593 126.127 51.3824C126.461 51.4115 126.793 51.4606 127.123 51.5258C127.732 51.6462 128.332 51.8117 128.928 51.9823C131.477 52.7116 129.371 43.9986 124.396 44.1431Z" fill="#FFCBB4"/>
<path d="M124.275 50.7083C124.262 50.7083 124.249 50.7063 124.237 50.7032C124.171 50.6812 124.134 50.6109 124.155 50.5447C124.511 49.4402 125.585 49.0529 126.588 48.8192C126.66 48.8041 126.724 48.8463 126.74 48.9125C126.755 48.9807 126.713 49.0479 126.645 49.064C125.662 49.2917 124.71 49.6388 124.394 50.622C124.376 50.6741 124.327 50.7083 124.275 50.7083Z" fill="#D97779"/>
<path d="M123.554 49.2576C123.539 49.2576 123.526 49.2546 123.511 49.2495C123.447 49.2265 123.413 49.1552 123.437 49.089C123.727 48.2925 124.687 47.3203 125.79 47.0725C125.861 47.0585 125.925 47.1006 125.941 47.1678C125.955 47.2361 125.913 47.3023 125.846 47.3183C124.838 47.543 123.933 48.457 123.672 49.1753C123.654 49.2265 123.605 49.2576 123.554 49.2576Z" fill="#D97779"/>
<path d="M122.833 47.9392C122.819 47.9392 122.804 47.9362 122.789 47.9312C122.725 47.9061 122.692 47.8339 122.716 47.7697C123.041 46.9139 123.935 45.8956 125.126 45.6789C125.203 45.6649 125.26 45.712 125.273 45.7793C125.285 45.8485 125.24 45.9127 125.172 45.9257C124 46.1384 123.201 47.1968 122.95 47.8579C122.931 47.9081 122.884 47.9392 122.833 47.9392Z" fill="#D97779"/>
<path d="M128.9 47.2178C128.853 47.2178 128.807 47.1917 128.786 47.1455C128.117 45.7119 127.492 45.4962 127.485 45.4942C127.42 45.4742 127.383 45.4039 127.403 45.3387C127.423 45.2725 127.495 45.2384 127.557 45.2545C127.586 45.2635 128.288 45.4842 129.013 47.0392C129.043 47.1024 129.015 47.1766 128.953 47.2057C128.936 47.2138 128.918 47.2178 128.9 47.2178Z" fill="#D97779"/>
<path d="M127.318 34.3354C127.286 34.3354 127.252 34.3224 127.228 34.2973L126.001 33.0313C125.954 32.9821 125.955 32.9018 126.004 32.8547C126.054 32.8075 126.134 32.8085 126.182 32.8567L127.409 34.1228C127.457 34.1729 127.456 34.2522 127.406 34.3003C127.381 34.3234 127.35 34.3354 127.318 34.3354Z" fill="#FFCBB4"/>
<path d="M115.027 0.419554C113.511 0.742593 111.962 1.801 111.331 3.22859C110.642 4.7866 110.489 6.72284 110.31 8.40124C110.112 10.2572 110.252 12.2908 109.398 14.0053C109.254 14.2952 108.878 14.6684 109.125 14.9985C109.482 15.475 110.603 15.6265 111.146 15.779C111.977 16.0117 112.829 16.1833 113.693 16.2094C114.658 16.2374 115.741 16.0539 116.628 15.6756C117.169 15.4439 115.369 0.346318 115.027 0.419554Z" fill="#FF8C49"/>
<path d="M111.292 11.1238C111.221 10.226 111.149 9.30801 111.199 8.41614C111.263 7.26744 111.364 6.10971 111.638 4.98811C112.173 2.79806 113.57 0.824709 115.84 0.232805C117.067 -0.0862217 118.404 0.0652657 119.63 0.320086C120.684 0.539793 121.645 1.01633 122.412 1.77979C123.703 3.06392 124.253 4.8918 123.896 6.6615C123.684 7.70987 123.299 8.72312 122.764 9.6491C122.215 10.5971 121.468 11.3787 120.79 12.2314C120.139 13.049 119.928 13.7864 119.71 14.8268C119.247 17.0399 119.512 19.9763 119.583 22.5466C119.604 23.3522 118.693 23.5348 118.051 23.6853C117.18 23.8909 116.257 23.912 115.379 23.7475C114.837 23.6481 113.641 23.2709 113.911 22.4744C114.187 21.6527 114.251 20.7388 114.387 19.883C114.508 19.1276 114.628 18.3732 114.749 17.6177C114.867 16.8864 114.866 16.132 114.878 15.3886C113.834 15.2531 112.994 15.2401 112.236 14.4054C111.571 13.671 111.405 12.6106 111.334 11.6596C111.322 11.482 111.307 11.3034 111.292 11.1238Z" fill="#FFCBB4"/>
<path d="M112.752 2.18904C112.941 2.37163 113.249 2.2693 113.472 2.22917C114.607 2.02451 115.821 2.04558 116.967 2.1439C117.486 2.18804 118.01 2.25927 118.491 2.45992C119.353 2.81707 119.862 3.58755 119.947 4.5045C120 5.0643 119.979 5.63212 119.908 6.18991C119.872 6.46981 119.824 6.74771 119.766 7.0236C119.72 7.23327 119.631 7.50314 119.746 7.7078C119.907 7.99572 120.071 7.82819 120.394 7.76499C120.608 7.72185 121.361 7.74793 121.386 8.05191C121.404 8.28767 121.344 8.52743 121.269 8.74814C121.102 9.23972 120.819 9.68716 120.62 10.1657C120.093 11.4237 119.808 12.6898 119.711 14.0332C119.688 14.3391 120.108 14.3411 120.202 14.0994C120.397 13.6048 120.688 12.9436 120.944 12.4792C121.303 11.8321 121.708 11.2813 122.044 10.7817C123.177 9.09626 124.287 7.45097 124.257 5.36024C124.24 4.14934 123.909 2.92842 123.113 1.99442C121.59 0.210679 119.003 -0.137449 116.788 0.0421286C115.972 0.107339 115.162 0.263844 114.38 0.508632C113.9 0.660119 113.434 0.887858 113.08 1.25504C112.877 1.46572 112.448 1.89108 112.752 2.18904Z" fill="#FA825E"/>
<path d="M117.557 6.76183C117.583 7.06982 117.518 7.32664 117.313 7.34369C117.108 7.35974 116.841 7.13001 116.815 6.82101C116.79 6.51302 117.038 6.33545 117.244 6.31839C117.449 6.30234 117.533 6.45283 117.557 6.76183Z" fill="#5B3650"/>
<path d="M113.51 6.52521C113.535 6.83421 113.469 7.09204 113.265 7.10809C113.06 7.12415 112.791 6.89441 112.767 6.58542C112.742 6.27642 112.991 6.09985 113.196 6.0828C113.401 6.06675 113.485 6.21722 113.51 6.52521Z" fill="#5B3650"/>
<path d="M116.327 9.35405C116.357 9.32094 116.361 9.27178 116.337 9.23366C116.312 9.19654 116.265 9.18048 116.223 9.19553C115.33 9.51255 114.632 9.69414 114.095 9.58478C114.053 9.57676 114.009 9.58981 113.979 9.62091C113.948 9.65302 113.935 9.69715 113.945 9.73929C114.133 10.6131 114.686 11.1257 116.327 9.35405Z" fill="white"/>
<path d="M114.227 9.021C114.191 9.021 114.155 9.00495 114.131 8.97686C114.105 8.94676 114.095 8.90463 114.105 8.86651L114.713 6.28921C114.73 6.22199 114.806 6.18287 114.865 6.19491C114.932 6.21197 114.974 6.27918 114.959 6.3464L114.388 8.75715L115.489 8.67288C115.493 8.67288 115.496 8.67288 115.499 8.67288C115.563 8.67288 115.618 8.72304 115.624 8.78825C115.629 8.85848 115.577 8.91767 115.508 8.92369L114.237 9.021C114.233 9.021 114.23 9.021 114.227 9.021Z" fill="#D97779"/>
<path d="M114.983 15.3726C114.914 15.3726 114.857 15.3164 114.857 15.2472C114.857 15.1769 114.914 15.1218 114.983 15.1218C114.989 15.1218 115.633 15.1127 116.299 14.7967C116.36 14.7656 116.437 14.7927 116.466 14.8549C116.496 14.9181 116.469 14.9923 116.406 15.0214C115.804 15.3094 115.174 15.3726 114.983 15.3726Z" fill="#D97779"/>
<path d="M119.728 9.12345C119.832 8.49242 120.359 7.74301 120.721 7.44304C121.21 7.03774 121.941 6.82406 122.522 7.17419C123.675 7.86641 121.852 9.48762 121.215 9.89995C120.978 10.0534 120.688 10.1478 120.411 10.0966C119.802 9.98623 119.652 9.58594 119.728 9.12345Z" fill="#FFCBB4"/>
<path d="M125.919 14.0053C125.066 12.2908 125.204 10.2572 125.007 8.40124C124.827 6.72284 124.675 4.7866 123.987 3.22859C123.461 2.03977 122.35 1.15492 121.159 0.683403C120.13 0.276093 118.933 0.357353 117.854 0.456673C116.348 0.594115 114.823 0.914152 113.432 1.5181C112.653 1.85618 111.563 2.69187 111.354 3.55966C111.248 3.99306 111.559 4.02415 111.868 3.90477C112.88 3.5125 114 2.97979 114.809 2.23941C114.918 2.43404 115.051 2.63369 115.167 2.83634C116.353 4.92105 117.505 4.74648 118.366 5.18489C118.422 5.21398 118.483 5.23304 118.54 5.26013C119.103 6.22925 119.011 6.84022 119.688 7.72707C119.928 8.03507 121.1 6.62854 121.178 6.46802C121.75 5.29123 122.912 6.03362 123.473 6.84624C123.551 6.9596 123.621 7.083 123.638 7.21943C123.667 7.4562 123.529 7.68093 123.376 7.86552C123.162 8.12937 123.014 8.40425 122.836 8.69117C122.755 8.82159 122.334 9.68838 122.16 9.68838C121.906 9.92414 121.6 10.0957 121.295 10.2622C121.092 10.2111 120.889 10.1599 120.687 10.1107C120.606 10.0897 120.496 10.1057 120.442 10.1739C119.953 10.803 119.609 11.5484 119.344 12.2958C119.201 12.6991 119.102 13.1495 118.842 13.4986C118.722 13.6592 118.53 13.8879 118.327 13.9461C118.114 14.0053 117.865 13.7996 117.669 13.8819C117.533 13.9401 117.556 14.3735 117.568 14.4848C117.638 15.1259 118.149 15.4439 118.689 15.6756C119.576 16.0539 120.659 16.2374 121.624 16.2094C122.488 16.1833 123.341 16.0117 124.172 15.779C124.715 15.6265 125.835 15.475 126.192 14.9985C126.439 14.6684 126.063 14.2952 125.919 14.0053Z" fill="#FF8C49"/>
<path d="M53.0441 69.7473C54.264 74.6582 53.5668 81.8011 49.5498 90.9124C45.7386 99.5594 41.3254 106.124 36.7898 109.897C36.0173 110.54 35.2478 111.097 34.4874 111.569C33.4651 106.294 34.4743 98.5088 38.9056 88.4577C42.4279 80.4687 46.4007 74.6982 50.7126 71.3013C51.4921 70.6873 52.2696 70.1857 53.0441 69.7473ZM26.6762 148.274C36.0624 150.242 43.4081 146.806 49.7344 141.436C59.3764 133.249 68.5329 119.713 76.2116 102.293C76.2738 102.154 76.336 102.013 76.3972 101.872C81.3441 90.5621 85.2828 78.4082 85.7503 65.7906C85.9549 60.2588 85.8175 53.795 83.181 48.4157C80.5586 43.0635 73.9503 38.3463 68.3674 35.7831C63.0603 33.3472 56.6828 31.9297 51.0286 32.5005C45.9673 33.0121 41.4859 36.5716 37.9425 39.501C28.5432 47.268 19.6326 60.316 12.1736 77.2325C10.0297 82.099 8.10648 87.0649 6.49329 92.1403C3.30604 102.174 0.948464 113.009 2.11421 123.883C2.78537 130.145 4.61427 134.996 9.82202 139.704C10.7189 140.516 11.6639 141.283 12.6481 142.002C16.7924 145.033 21.6491 147.221 26.6762 148.274Z" fill="#FF9441"/>
<path d="M51.5759 63.3269C51.9531 67.3539 52.1347 71.9828 51.296 75.8632C49.3908 84.6626 47.58 90.0015 43.1919 96.4293C40.7902 99.9567 38.8981 103.709 36.085 106.959C35.0005 108.219 33.9592 109.663 32.5777 110.654C29.3714 108.892 30.6254 104.882 30.6806 102.332C30.7047 101.228 30.3144 100.098 30.3816 98.9985C30.5482 96.289 34.7156 96.4697 35.2182 93.8401C35.4841 92.4505 34.7618 90.995 34.21 89.5996C33.3512 87.4246 33.7395 85.6509 34.9092 83.8399C36.8836 80.779 40.2163 78.937 42.918 76.5305C44.7509 74.8984 44.1279 72.4463 44.47 70.2161C44.8432 67.7813 46.1514 65.4768 48.4227 64.2138C48.9855 63.8978 50.5817 63.1263 51.5759 63.3269ZM26.0467 144.643C26.3818 143.793 26.4651 142.826 27.0138 142.088C28.0893 140.646 31.9869 141.758 33.7365 141.775C36.8044 141.805 40.3096 141.953 42.3241 139.716C43.5841 138.315 43.9965 136.286 43.4005 134.41C42.8748 132.749 41.6409 130.842 42.6782 129.545C43.0163 129.122 43.548 128.869 44.0627 128.626C47.4004 127.065 51.4143 125.83 53.8602 123.293C56.5428 120.512 58.2302 117.124 58.6687 113.287C59.092 109.599 58.7319 105.824 58.7259 102.088C58.7198 98.3758 59.8906 96.7965 62.7307 94.3649C65.0964 92.3404 67.8683 90.7019 70.0111 88.4788C73.4101 84.9525 73.4282 79.8561 73.9228 75.2032C74.307 71.5965 73.8325 67.9919 75.3343 64.7234C77.2866 60.4798 80.6454 56.3776 75.9262 51.9373C74.9109 50.9812 73.7452 50.1245 72.9837 48.9978C71.521 46.8359 73.065 44.0138 72.2945 41.5559C71.518 39.0759 69.8175 36.7524 67.6766 34.9837C64.9238 32.7084 61.4897 31.7263 58.137 31.9931C44.6145 30.0348 34.0745 38.9355 26.8051 47.6033C21.6265 53.7792 17.751 61.0486 14.2758 68.2167C7.82005 81.5345 2.28527 96.7232 1.15965 111.776C0.321954 122.976 2.98452 136.025 13.5936 144.104C17.7801 147.293 23.8888 150.11 26.0467 144.643Z" fill="#FF4668"/>
<path d="M19.2847 69.1121C19.1582 68.153 19.404 67.1638 19.7572 66.2077C20.326 64.1541 20.8878 62.1025 21.7676 60.1573C22.6284 58.2542 23.6808 56.4353 24.8094 54.6786C26.9443 51.356 29.3922 48.1115 32.0929 45.2252C34.305 42.8616 36.8753 40.6375 39.9732 39.548C41.5423 38.9972 43.7453 38.4033 45.3254 39.1717C46.7801 39.88 47.2577 41.4832 47.0279 42.99C46.749 44.8189 45.5472 46.4823 44.546 47.9831C43.3662 49.7498 42.0319 51.4081 40.6524 53.0223C40.1458 53.6152 39.6251 54.1961 39.1134 54.785C39.3241 54.9345 39.5198 55.115 39.6783 55.3458C40.3745 56.358 40.1057 57.587 39.7144 58.6504C39.0964 60.3268 38.0972 62.0012 36.9164 63.3415C36.3746 63.9545 35.7596 64.5384 35.0484 64.9477C34.0752 65.5085 33.1272 65.7302 32.0046 65.6961C31.3756 65.676 30.8077 65.1624 30.5268 64.6457C30.5118 64.6176 30.5068 64.5895 30.4927 64.5624C29.5918 65.5887 28.6829 66.609 27.7188 67.5761C26.3724 68.9265 24.8044 70.5226 23.0177 71.2801C21.2971 72.0094 19.5254 70.943 19.2847 69.1121Z" fill="#FF6188"/>
<path d="M22.6248 125.599C23.4043 123.424 24.9132 121.309 26.3448 119.517C28.0222 117.421 30.0076 115.533 32.1866 113.962C32.6029 113.663 33.0674 113.325 33.562 112.989C34.9204 111.615 36.3419 110.381 38.3213 109.931C39.4068 109.684 40.8494 109.605 41.5878 110.626C42.3653 111.7 41.9429 113.19 41.5587 114.332C40.7331 116.783 38.9483 118.818 37.2649 120.722C35.5986 122.607 33.8529 124.433 31.9438 126.075C31.0549 126.839 30.1249 127.557 29.1478 128.206C28.1175 128.889 26.9226 129.739 25.6907 129.987C22.9619 130.537 21.8302 127.816 22.6248 125.599Z" fill="#FF6188"/>
<path d="M65.6167 104.497C66.2758 105.99 68.7959 104.003 68.203 102.775C67.4345 101.184 65.099 103.324 65.6167 104.497Z" fill="#FFAF48"/>
<path d="M64.7762 113.356C66.3221 113.878 66.5609 110.679 65.2557 110.286C63.5632 109.776 63.5623 112.946 64.7762 113.356Z" fill="#FFAF48"/>
<path d="M81.3778 71.6221C79.7495 71.7315 80.7548 74.7783 82.1112 74.6407C83.8688 74.4633 82.6559 71.5359 81.3778 71.6221Z" fill="#FFAF48"/>
<path d="M77.3118 76.3997C77.4321 78.0268 80.4729 76.9997 80.3255 75.6441C80.1348 73.8876 77.2165 75.1214 77.3118 76.3997Z" fill="#FFAF48"/>
<path d="M51.87 132.664C53.5002 132.744 52.8541 129.601 51.4907 129.581C49.724 129.554 50.5889 132.601 51.87 132.664Z" fill="#FFAF48"/>
<path d="M39.7879 131.006C39.1539 128.552 37.944 126.211 36.7792 123.974C35.8161 122.125 34.7688 120.323 33.7635 118.497C31.8183 114.963 30.0927 111.291 28.301 107.677C24.4696 99.9486 20.3524 92.3691 17.6988 84.2179C16.7909 81.43 15.8911 78.5908 15.2901 75.7176C15.1697 75.1407 15.0654 74.5606 14.9801 73.978C14.9781 73.9649 14.9771 73.9579 14.9761 73.9489C14.9601 73.8385 14.944 73.7272 14.931 73.6148C14.931 73.5616 14.9219 73.3971 14.9179 73.3419C14.8327 72.2123 14.4915 70.3262 15.575 69.5878C16.2652 69.1163 17.1993 69.1404 17.9798 69.4414C19.1826 69.9059 20.3283 70.9021 21.1711 71.8642C21.2844 71.9936 21.3927 72.125 21.5021 72.2574C21.5181 72.2755 21.5804 72.3558 21.6165 72.3999C21.6325 72.42 21.6465 72.439 21.6495 72.443C21.8703 72.742 22.087 73.044 22.2957 73.353C23.0892 74.5207 23.8065 75.7367 24.6231 76.8892C25.4648 78.081 29.8078 83.9659 31.098 84.6533C32.4694 85.3858 33.6111 84.6212 33.2288 83.1335C32.8296 81.5875 28.1916 75.7437 27.2395 74.5356C26.3306 73.3851 25.5872 72.0999 24.6853 70.9342C22.7371 68.4111 20.1588 66.4136 16.8331 66.3514C10.8227 66.2401 11.9674 74.3914 12.6506 78.2115C14.0421 85.9947 17.0759 93.3664 20.5671 100.418C22.6368 104.599 24.6954 108.788 26.7851 112.96C30.0406 119.46 34.1969 125.71 36.405 132.669C35.0176 132.253 33.9311 131.254 32.8998 130.28C31.9788 129.411 31.111 128.485 30.2743 127.535C26.6587 123.427 23.944 118.814 21.0958 114.171C19.9481 112.302 18.7613 110.453 17.6697 108.552C16.7187 106.896 15.8188 105.209 14.7794 103.606C12.9455 100.775 9.84862 96.694 5.94104 98.1659C2.6946 99.3866 0.684119 103.057 0.185515 106.341C-0.404383 110.221 0.479461 114.109 1.891 117.721C3.30355 121.336 5.19865 124.721 7.18504 128.047C10.2278 133.145 13.4622 137.93 17.2213 142.525C17.5825 142.966 17.9567 143.42 18.4563 143.694C18.9569 143.969 19.62 144.028 20.0765 143.685C20.5581 143.324 20.6694 142.621 20.5009 142.042C20.3333 141.464 19.9441 140.983 19.5628 140.516C17.1631 137.585 14.8406 134.687 12.7579 131.52C11.6564 129.843 10.7254 128.09 9.76031 126.334C8.89353 124.757 8.03575 123.175 7.23216 121.565C5.5648 118.227 4.01983 114.831 3.4199 111.103C3.31355 110.445 3.24336 109.533 3.24737 108.708C3.2584 106.801 3.76903 104.384 4.90568 102.819C5.65309 101.789 6.9814 101.07 8.20232 101.422C10.7666 102.164 12.7108 106.881 13.8695 108.982C14.8226 110.71 15.8359 112.396 16.8541 114.087C18.8506 117.4 20.7387 120.818 22.8976 124.028C24.0232 125.703 25.2782 127.301 26.5664 128.853C28.1053 130.707 29.7396 132.534 31.6136 134.058C33.2198 135.363 35.3436 136.887 37.5437 136.32C38.6483 136.035 39.6254 135.177 39.9374 134.064C40.2183 133.073 40.0397 131.984 39.7879 131.006Z" fill="#A4250E"/>
<path d="M29.6195 77.8865C29.6101 77.8751 29.6018 77.8657 29.5966 77.8605C29.6049 77.8686 29.6111 77.878 29.6195 77.8865Z" fill="#A4250E"/>
<path d="M53.7888 120.537C53.7353 120.506 53.6848 120.488 53.6404 120.482C53.6969 120.499 53.7464 120.517 53.7858 120.537C53.7868 120.537 53.7878 120.537 53.7888 120.537Z" fill="#A4250E"/>
<path d="M53.84 120.539C53.823 120.539 53.8059 120.538 53.7878 120.537C53.7969 120.542 53.8049 120.547 53.8129 120.553C53.823 120.548 53.832 120.543 53.84 120.539Z" fill="#A4250E"/>
<path d="M42.1908 104.081C42.1908 104.082 42.1919 104.082 42.1919 104.082C42.1879 104.072 42.1638 104.016 42.1066 103.883C42.1357 103.949 42.1627 104.015 42.1908 104.081Z" fill="#A4250E"/>
<path d="M53.8593 120.539C53.9325 120.517 54.0238 120.506 54.101 120.492C54.073 120.472 53.9756 120.47 53.8402 120.539C53.8432 120.539 53.8452 120.539 53.8472 120.539C53.8503 120.539 53.8552 120.539 53.8593 120.539Z" fill="#A4250E"/>
<path d="M58.7463 118.008C58.4553 115.47 57.3227 113.126 56.1419 110.892C55.6453 109.952 55.1066 109.03 54.6541 108.069C53.9559 106.588 53.374 105.055 52.7751 103.43C52.1059 101.611 50.1757 91.9823 47.8382 92.1496C45.1977 92.3392 48.2034 101.284 48.6829 102.697C50.3422 107.584 52.9356 111.955 54.7384 116.773C54.9711 117.396 55.1908 118.043 55.1748 118.707C55.1216 120.826 53.2526 120.77 51.9845 119.665C46.5591 114.938 44.2647 108.842 41.2008 102.54C41.0764 102.285 40.948 102.033 40.8176 101.781C40.7634 101.674 40.7143 101.566 40.6611 101.459C40.6551 101.447 40.6531 101.443 40.6481 101.434C40.643 101.42 40.64 101.411 40.632 101.389C40.3993 100.804 39.9087 100.382 39.2425 100.483C38.6606 100.571 38.0979 101.088 38.144 101.727C38.3768 104.924 39.6218 106.757 40.9761 109.615C42.7438 113.342 44.8185 117.033 47.4871 120.194C49.5066 122.587 52.6858 125.242 55.9734 123.634C58.0861 122.599 59.0041 120.257 58.7463 118.008Z" fill="#A4250E"/>
<path d="M54.9699 119.69C54.9123 119.792 54.8921 119.835 54.8931 119.836C54.9163 119.793 54.9375 119.753 54.9608 119.711C54.9638 119.704 54.9669 119.697 54.9699 119.69Z" fill="#A4250E"/>
<path d="M53.8132 120.552C53.8145 120.554 53.817 120.555 53.8183 120.556H53.8195C53.817 120.555 53.8157 120.554 53.8132 120.552Z" fill="#A4250E"/>
<path d="M42.518 64.8706C42.3153 61.275 37.9763 52.0804 37.4045 51.1484C36.2116 49.2062 34.7821 47.4716 33.1799 45.8564C32.2088 44.8783 30.8906 43.7045 29.4088 43.8008C27.3682 43.9332 26.5466 46.2687 26.1292 47.9291C25.5664 50.1683 25.442 52.5289 25.6657 54.8232C25.8975 57.22 26.363 59.5976 27.0963 61.892C27.4344 62.9484 27.8448 63.9697 28.2862 64.986C28.3042 65.0271 28.3143 65.0502 28.3243 65.0742C28.3333 65.0943 28.3464 65.1264 28.3674 65.1786C28.4337 65.3381 28.4998 65.4996 28.5651 65.6591C28.7196 66.0363 28.872 66.4135 29.0255 66.7908C29.8492 68.8123 30.6327 70.9431 31.7884 72.8061C32.4255 73.8304 33.3485 74.889 34.1591 75.7946C34.8021 76.5129 36.2659 76.7226 36.5187 75.7919C36.6421 75.3381 36.3772 74.8796 36.1304 74.4806C33.4849 70.2057 31.5296 65.5086 30.3317 60.6279C29.2051 56.0412 28.1547 51.6139 29.798 47.0141C30.5284 47.9722 31.5126 48.7437 32.2068 49.7098C32.8127 50.5525 33.4478 51.3922 33.9925 52.2771C35.3037 54.4079 36.3902 56.6822 37.3804 58.9776C38.1298 60.7112 38.8552 62.4719 39.8514 64.082C40.1854 64.6238 40.9469 66.1868 41.6462 66.2891C42.3304 66.3885 42.5701 65.8287 42.518 64.8706Z" fill="#A4250E"/>
<path d="M71.6632 58.3871C71.6201 58.1192 71.5789 57.8524 71.5358 57.5735C71.5358 57.5685 71.5348 57.5645 71.5348 57.5594C71.5297 57.4792 71.5197 57.3989 71.5117 57.3207C71.4003 56.2181 71.28 55.1186 71.1265 54.0201C70.8586 52.1019 70.4944 50.1988 70.0621 48.3107C69.1973 44.5446 68.0034 40.8958 66.7313 37.2521C66.4193 36.3582 66.006 35.5165 65.6549 34.6387C65.3017 33.7569 64.9637 32.869 64.6045 31.9892C64.0698 30.6739 62.1757 31.1445 62.4526 32.5821C63.1709 36.3322 64.0969 40.018 65.1312 43.6968C66.1314 47.2583 67.0383 50.8519 67.5871 54.5126C67.9111 56.6806 68.0957 58.8656 68.3104 61.0467C65.0148 58.2788 63.5852 54.5257 62.3091 50.5549C61.1584 46.9734 59.9876 43.3467 58.3163 39.9678C57.1074 37.525 55.1129 33.8361 51.8976 34.0057C50.151 34.097 48.8779 35.4162 47.986 36.8027C46.2504 39.4973 46.8093 42.9825 47.7061 45.8739C48.1636 47.3436 48.7986 48.7391 49.3624 50.1677C50.0848 52.0036 50.8773 53.8164 51.714 55.6031C53.255 58.8947 54.9855 62.072 56.7693 65.2371C61.7955 74.1609 66.5869 84.0638 63.8049 94.5295C63.6855 94.9766 63.5481 95.4332 63.2612 95.7965C61.5366 97.9805 57.9862 90.9296 57.2889 89.7218C55.1751 86.0581 53.3643 82.1193 52.2718 78.0253C51.9658 76.692 49.8831 76.9911 49.9002 78.3454C49.9714 84.1701 53.3312 88.8131 55.9045 93.7406C56.7622 95.3811 57.7063 97.0254 59.1179 98.2223C60.8946 99.7283 63.4337 100.391 65.2807 98.718C67.0935 97.0744 67.3985 94.3508 67.7807 92.0775C68.3856 88.4831 68.3195 84.9102 67.5951 81.3378C66.8919 77.8806 65.5967 74.5673 64.0938 71.3859C62.6311 68.29 60.9407 65.3094 59.2713 62.3218C57.3913 58.9589 55.6868 55.5249 53.9893 52.0688C52.4604 48.9538 50.79 46.1969 50.0998 42.8581C49.7768 41.2971 49.7939 39.399 50.8141 38.0647C51.1613 37.6113 51.7311 37.2812 52.2949 37.3815C52.9329 37.4959 53.3533 38.0948 53.6864 38.6526C54.9835 40.8196 56.0229 43.1019 56.8987 45.4675C57.5458 47.2132 58.1287 48.9828 58.6945 50.7565C59.1229 52.1069 59.5261 53.4673 59.9926 54.8046C60.5434 56.3797 61.355 57.8775 62.2038 59.3081C63.5732 61.6165 65.5154 64.4576 68.4629 64.6332C70.0229 64.7275 71.3743 63.7744 71.7826 62.2686C72.1257 61.0075 71.8628 59.6462 71.6632 58.3871Z" fill="#A4250E"/>
<path d="M52.098 37.1727C52.1011 37.1707 52.1041 37.1687 52.1071 37.1667C52.096 37.1667 52.091 37.1677 52.075 37.1657C52.0649 37.1626 52.0529 37.1606 52.0449 37.1576C52.0439 37.1606 52.0409 37.1637 52.0419 37.1667C52.0198 37.1677 51.9917 37.1697 51.9586 37.1727C51.9295 37.1787 51.8954 37.1857 51.8623 37.1938C51.8723 37.1877 51.8803 37.1817 51.8874 37.1767C51.8854 37.1767 51.8834 37.1767 51.8824 37.1767C51.8753 37.1807 51.8663 37.1867 51.8583 37.1927C51.8583 37.1927 51.8593 37.1938 51.8603 37.1948C51.8573 37.1948 51.8552 37.1958 51.8522 37.1958C51.8432 37.2018 51.8402 37.2038 51.8292 37.2108C51.8001 37.2299 51.77 37.2459 51.7399 37.262C51.776 37.2459 51.8232 37.2178 51.8603 37.1948C51.9134 37.2469 52.0058 37.2269 52.068 37.1927C52.1151 37.2198 52.2054 37.2349 52.2616 37.2379C52.2445 37.2269 52.2275 37.2168 52.2094 37.2058C52.1753 37.1998 52.1362 37.1857 52.098 37.1727Z" fill="#A4250E"/>
<path d="M1.91896 102.148C-0.700466 105.784 0.133212 110.351 1.38825 114.337C1.57686 114.936 2.53895 114.855 2.51688 114.184C2.48478 113.227 2.34035 112.233 2.20391 111.284C2.06747 110.34 1.97114 109.387 1.90392 108.435C1.76548 106.445 2.12764 104.598 3.26029 102.932C3.82812 102.097 2.49481 101.348 1.91896 102.148Z" fill="#BA3413"/>
<path d="M17.2051 87.3552C17.0817 86.6862 16.857 86.0161 16.6574 85.3636C16.4397 84.6554 16.3053 83.934 16.1046 83.2258C15.7174 81.8484 15.3843 80.456 15.0853 79.0566C14.8215 77.8213 14.5386 76.5814 14.3369 75.3344C14.1333 74.0713 13.8784 72.6699 14.2165 71.4029C14.4332 70.5913 13.1752 70.2441 12.9575 71.0568C12.6003 72.3931 12.3876 73.7665 12.4859 75.153C12.5843 76.5352 12.81 77.899 13.0498 79.2623C13.3086 80.7467 13.6667 82.2155 14.1081 83.6554C14.3359 84.3949 14.6659 85.114 14.9589 85.8323C15.2428 86.5286 15.5528 87.2537 15.9872 87.8677C16.4286 88.4908 17.3436 88.1115 17.2051 87.3552Z" fill="#BA3413"/>
<path d="M29.509 61.3454C29.4227 60.8418 29.2531 60.3542 29.1548 59.8516C29.0535 59.334 29.0264 58.8032 28.9713 58.2796C28.8599 57.2533 28.7866 56.23 28.7606 55.1997C28.7124 53.3216 28.0693 51.1045 28.7696 49.2957C29.0334 48.6165 28.0372 48.0958 27.5697 48.5974C25.9274 50.3651 26.4381 52.9053 26.6648 55.0983C26.7852 56.2711 26.9206 57.471 27.1514 58.6287C27.3591 59.672 27.6751 60.9722 28.268 61.8681C28.7064 62.5312 29.6394 62.0989 29.509 61.3454Z" fill="#BA3413"/>
<path d="M49.4901 45.0281C49.2955 44.4433 49.2122 43.9055 49.0989 43.2825C48.9785 42.6214 48.9383 42.0726 48.8932 41.3824C48.8159 40.2056 48.825 38.8854 49.3206 37.853C49.7489 36.9612 48.5069 36.2037 47.9792 37.0695C47.2017 38.3416 46.9549 39.8284 46.9951 41.3252C47.0352 42.8401 47.4395 44.2617 48.1418 45.597C48.527 46.3283 49.755 45.8267 49.4901 45.0281Z" fill="#BA3413"/>
<path d="M28.1455 127.244C27.1513 125.006 25.5121 123.134 24.1065 121.151C22.6438 119.088 21.3045 116.911 19.9612 114.767C19.5258 114.072 18.4383 114.7 18.8577 115.413C20.1619 117.638 21.3416 119.911 22.8104 122.042C24.2049 124.064 25.7338 126.01 27.3159 127.884C27.7342 128.38 28.3702 127.748 28.1455 127.244Z" fill="#BA3413"/>
<path d="M32.2359 119.383C31.8246 118.714 31.3852 118.057 31.012 117.365C30.2445 115.945 29.6948 114.42 29.0136 112.959C28.8691 112.65 28.4216 112.57 28.1468 112.732C27.8257 112.921 27.7786 113.283 27.92 113.598C28.5591 115.028 29.0748 116.513 29.785 117.911C30.1251 118.581 30.5164 119.221 30.9608 119.827C31.1805 120.126 31.3842 120.44 31.5758 120.758C31.7644 121.068 31.8978 121.43 32.1105 121.72C32.264 121.928 32.4947 122.057 32.7596 121.983C32.9803 121.923 33.2141 121.676 33.181 121.43C33.0837 120.699 32.6151 120.004 32.2359 119.383Z" fill="#BA3413"/>
<path d="M45.161 112.488C43.9711 109.495 41.8563 106.887 41.3196 103.643C41.1892 102.853 39.8298 103.027 39.91 103.835C40.2491 107.236 42.0088 110.493 44.255 113.016C44.6011 113.404 45.3626 112.994 45.161 112.488Z" fill="#BA3413"/>
<path d="M55.8235 88.7035C55.692 88.4116 55.5516 88.1255 55.4172 87.8366C55.352 87.6952 55.2958 87.5396 55.2195 87.4045C55.2145 87.393 55.2095 87.3833 55.2045 87.3722C55.1985 87.328 55.1884 87.2669 55.1744 87.1806C55.0811 86.8445 54.8664 86.5125 54.7239 86.1943C54.2614 85.1589 53.832 84.0644 53.6043 82.8727C53.506 82.3518 52.881 82.0572 52.4004 82.1885C51.8416 82.3421 51.634 82.8688 51.7162 83.3934C51.9169 84.6855 52.3403 85.9435 52.9161 87.1152C53.0535 87.3923 53.18 87.6913 53.3475 87.9511C53.4499 88.1106 53.5482 88.1956 53.6384 88.3273C53.7257 88.4578 53.803 88.5981 53.8852 88.7325C54.2113 89.2631 54.5333 89.9485 55.0088 90.3597C55.5756 90.8514 56.2789 90.3616 56.1876 89.6735C56.1425 89.3454 55.9579 89.0014 55.8235 88.7035Z" fill="#BA3413"/>
<path d="M77.4529 38.9121C78.9468 39.5622 87.9166 41.99 97.367 45.8564C99.6193 46.7764 97.2186 54.8935 94.2771 53.3405C94.0283 53.2101 78.6789 44.0837 76.4226 42.298C75.8247 41.8234 76.0935 41.3379 76.4005 41.1282C73.7871 38.9632 72.6856 38.1607 73.0056 37.8226C73.6658 37.1253 75.1546 37.9099 77.4529 38.9121Z" fill="#FFCBB4"/>
<path d="M79.4969 42.1797C79.4809 42.1797 79.4658 42.1777 79.4508 42.1717L76.8604 41.1393C76.7962 41.1143 76.7641 41.041 76.7902 40.9768C76.8153 40.9136 76.8925 40.8825 76.9527 40.9066L79.5431 41.9379C79.6073 41.964 79.6394 42.0372 79.6133 42.1004C79.5942 42.1496 79.5471 42.1797 79.4969 42.1797Z" fill="#D97779"/>
</svg>
