<svg width="146" height="210" viewBox="0 0 146 210" fill="none" xmlns="http://www.w3.org/2000/svg">
<path d="M14.9269 104.155C15.3144 103.768 15.8804 103.388 16.649 102.994C19.2507 101.658 22.2515 101.121 25.153 100.642C48.023 96.874 71.5212 95.0749 94.747 96.3239C102.922 96.7611 111.074 97.5509 119.167 98.6933C123.207 99.2635 127.263 99.8695 131.258 100.67C134.257 101.273 138.197 102.045 140.585 103.924C143.189 105.973 139.723 108.46 137.805 109.824C132.233 113.789 126.806 118.669 120.477 121.574C112.326 125.455 103.329 126.997 94.3194 128.14C84.3309 129.408 74.1777 130.123 64.1048 129.359C54.5873 128.635 45.378 126.313 36.6302 122.834C31.8408 120.928 27.0461 118.533 22.9187 115.468C20.6655 113.795 11.8586 107.23 14.9269 104.155Z" fill="#F12D27"/>
<path d="M139.008 88.7448C138.978 88.667 139.001 88.688 139.008 88.7448V88.7448Z" fill="#FFB537"/>
<path d="M123.025 106.963L123.308 106.566C125.502 103.473 128.27 100.971 130.49 98.0882C131.974 96.1718 133.822 94.4708 135.532 92.7719C136.428 91.8871 137.299 90.9843 138.093 90.0182C138.433 89.6022 138.615 88.6287 139.219 88.5083C139.831 88.388 140.176 88.7607 141.301 89.6423C142.512 90.5916 143.668 91.6833 144.865 92.6558C146.318 93.8383 146.071 94.5806 145.769 95.0515C144.367 97.2329 142.745 99.0237 140.915 100.738C138.893 102.629 136.8 104.452 135.164 106.636C133.357 109.048 131.659 111.509 130.315 114.121C129.983 114.762 129.691 115.42 129.393 116.073C129.114 116.733 128.869 117.404 128.627 118.074C128.412 118.75 128.224 119.434 128.047 120.116C127.94 120.621 128.742 121.867 127.602 121.729C126.462 121.597 124.234 120.731 122.229 119.827C120.222 118.926 118.44 117.976 118.153 117.768C117.749 117.478 117.552 117.164 117.659 116.932C119.23 113.447 120.915 110.036 123.025 106.963Z" fill="#FFB537"/>
<path d="M109.961 101.589C109.914 101.522 109.941 101.536 109.961 101.589V101.589Z" fill="#FFB537"/>
<path d="M98.8344 121.598L99.0329 121.2C100.574 118.119 102.655 115.34 104.082 112.215C105.035 110.134 106.375 108.151 107.593 106.177C108.233 105.144 108.847 104.099 109.38 103.005C109.604 102.535 109.554 101.562 110.109 101.317C110.673 101.071 111.093 101.356 112.383 101.966C113.774 102.625 115.143 103.432 116.525 104.117C118.2 104.952 118.145 105.702 117.972 106.205C117.166 108.536 116.073 110.562 114.738 112.582C113.263 114.811 111.68 116.998 110.554 119.426C109.309 122.112 108.091 124.813 107.08 127.598C106.581 128.97 106.135 130.362 105.756 131.779C105.57 132.487 105.401 133.2 105.249 133.92C105.144 134.439 105.944 135.726 104.798 135.617C102.508 135.402 95.9192 132.089 95.3374 131.686C94.9267 131.407 94.7165 131.117 94.8084 130.909C96.1652 127.815 97.3488 124.639 98.8344 121.598Z" fill="#FFB537"/>
<path d="M91.5866 121.638L91.9118 120.921C94.4279 115.365 97.587 110.165 100.199 104.673C101.945 101.021 104.159 97.4199 106.274 93.8997C107.389 92.0614 108.484 90.2126 109.516 88.3247C109.947 87.5128 110.246 86.0082 111.004 85.4486C111.775 84.8837 112.178 85.1951 113.515 85.7358C114.954 86.3196 116.315 87.14 117.735 87.7693C119.454 88.537 119.112 89.7311 118.716 90.5769C116.884 94.4994 114.856 98.0672 112.604 101.737C110.115 105.786 107.583 109.836 105.578 114.159C103.358 118.941 101.254 123.776 99.4453 128.723C99.0008 129.942 98.5827 131.169 98.1678 132.395C97.7644 133.628 97.3853 134.867 97.0147 136.108C96.661 137.352 96.3274 138.601 96.0096 139.853C95.792 140.759 96.4235 142.643 95.1818 142.848C92.6952 143.271 86.0675 139.963 85.5027 139.488C85.1025 139.161 84.9272 138.751 85.0666 138.375C87.1477 132.763 89.1602 127.117 91.5866 121.638Z" fill="#FFB537"/>
<path d="M110.726 85.9215C110.694 85.829 110.721 85.8437 110.726 85.9215V85.9215Z" fill="#FFCA52"/>
<path d="M41.5886 70.8774C41.5087 70.8039 41.5403 70.7996 41.5886 70.8774V70.8774Z" fill="#FFCA52"/>
<path d="M42.9875 121.78L42.9706 120.791C42.8597 113.149 43.2515 105.522 42.789 97.8843C42.4807 92.8087 42.4986 87.503 42.3677 82.3367C42.298 79.6337 42.1914 76.9307 41.9696 74.2351C41.8767 73.0821 41.2432 71.3029 41.5431 70.189C41.8461 69.0592 42.3561 69.0983 43.7593 68.7118C45.2734 68.2969 46.8593 68.1839 48.3819 67.8217C50.2286 67.3836 50.6404 68.923 50.8072 70.1256C51.5769 75.708 51.8863 81.0792 51.9211 86.7027C51.9613 92.9143 51.8124 99.126 52.1049 105.33C52.429 112.198 52.694 119.069 53.09 125.936C53.2832 129.316 53.5081 132.695 53.789 136.073C53.9283 137.757 54.0804 139.441 54.2514 141.123C54.3718 142.33 55.6346 144.363 54.5471 145.185C52.3741 146.827 45.0021 145.738 44.3052 145.44C43.8153 145.229 43.5038 144.821 43.5006 144.318C43.4584 136.802 43.1142 129.292 42.9875 121.78Z" fill="#FFCA52"/>
<path d="M93.6393 76.3153C93.5836 76.2312 93.6151 76.2375 93.6393 76.3153V76.3153Z" fill="#FFB537"/>
<path d="M81.5212 118.485L81.7556 117.667C83.5791 111.336 85.9189 105.181 87.4889 98.7789C88.5321 94.5237 89.967 90.182 91.2425 85.9174C91.9088 83.6863 92.5444 81.4448 93.0745 79.1757C93.3015 78.2043 93.1948 76.5561 93.7872 75.7399C94.388 74.9132 94.861 75.1053 96.3001 75.2321C97.8512 75.3683 99.3885 75.7748 100.934 75.9596C102.807 76.1845 102.776 77.5613 102.602 78.5886C101.798 83.3538 100.633 87.8053 99.1647 92.3898C97.5439 97.4516 95.769 102.47 94.4471 107.621C92.9847 113.321 91.498 119.017 90.174 124.753C89.5225 127.576 88.9091 130.409 88.3568 133.257C88.0823 134.677 87.8215 136.1 87.5808 137.528C87.4076 138.552 88.1362 140.561 86.8934 140.943C84.4079 141.705 77.568 138.826 76.9704 138.389C76.5502 138.081 76.3485 137.66 76.4668 137.243C78.2354 131.013 79.7526 124.715 81.5212 118.485Z" fill="#FFB537"/>
<path d="M131.156 66.2136C131.115 66.1116 131.145 66.1211 131.156 66.2136V66.2136Z" fill="#FFCA52"/>
<path d="M116.927 114.142L117.263 113.246C117.911 111.538 118.559 109.833 119.206 108.126C119.835 106.44 120.438 104.757 121.007 103.042C122.144 99.6109 123.137 96.0748 123.916 92.43C124.95 87.5867 126.354 82.5048 127.818 77.4948L130.194 69.5726C130.354 69.0024 130.487 68.2349 130.65 67.4852C130.816 66.7366 131.026 66.0091 131.409 65.5403C132.168 64.5911 132.614 64.8413 134.05 65.0715C135.597 65.3249 137.081 65.895 138.605 66.2234C140.448 66.6352 140.224 68.124 139.91 69.2105C138.518 74.3029 137.198 79.1947 135.685 84.4022C134.015 90.1504 132.35 96.0115 130.851 102.007C130.024 105.321 129.092 108.671 128.035 111.953C126.992 115.232 125.877 118.445 124.83 121.627C123.804 124.76 122.831 127.872 122.066 130.972C121.685 132.518 121.341 134.063 121.076 135.6C120.868 136.717 121.632 138.799 120.412 139.264C119.18 139.737 116.817 139.361 114.693 138.78C112.568 138.202 110.685 137.402 110.383 137.168C109.957 136.842 109.755 136.349 109.876 135.83C111.765 128.137 114.379 120.96 116.927 114.142Z" fill="#FFCA52"/>
<path d="M116.049 70.8923C115.983 70.8166 116.014 70.8198 116.049 70.8923V70.8923Z" fill="#FFCA52"/>
<path d="M109.916 113.589L110.033 112.761C110.958 106.349 112.42 100.037 113.083 93.5935C113.525 89.3099 114.342 84.889 115.011 80.5642C115.361 78.3025 115.678 76.0345 115.889 73.7539C115.978 72.7782 115.643 71.186 116.116 70.3117C116.595 69.4269 117.091 69.5505 118.532 69.484C120.088 69.4111 121.666 69.6033 123.222 69.579C125.107 69.5505 125.268 70.8935 125.239 71.9156C125.106 76.6564 124.574 81.1386 123.759 85.7918C122.859 90.9285 121.8 96.0452 121.209 101.23L120.233 109.836C119.928 112.699 119.595 115.59 119.406 118.436C119.208 121.232 119.109 123.981 119.219 126.658C119.273 127.993 119.387 129.304 119.564 130.587C119.687 131.53 121.01 132.952 119.982 133.631C118.945 134.325 116.581 134.691 114.384 134.813C112.186 134.94 110.151 134.803 109.792 134.688C109.292 134.534 108.939 134.167 108.915 133.694C108.454 126.602 109.092 119.873 109.916 113.589Z" fill="#FFCA52"/>
<path d="M87.9348 63.0936C87.8844 62.9906 87.9148 62.9969 87.9348 63.0936V63.0936Z" fill="#FFCA52"/>
<path d="M72.7551 117.687L73.0487 116.628C75.3304 108.433 78.1295 100.416 80.1588 92.1501C81.5072 86.6553 83.262 81.0191 84.8479 75.4928C85.6768 72.6018 86.475 69.7003 87.1677 66.7724C87.4644 65.5212 87.4633 63.4369 88.1232 62.3494C88.7916 61.247 89.2635 61.4477 90.7259 61.4793C92.3034 61.5142 93.8481 61.8932 95.4161 61.9893C97.3166 62.1065 97.192 63.8593 96.946 65.1812C95.8057 71.3115 94.3169 77.0755 92.5093 83.0337C90.5137 89.6139 88.365 96.1507 86.6704 102.816C84.793 110.195 82.8925 117.569 81.1545 124.983C80.2993 128.632 79.482 132.291 78.7271 135.962C78.3512 137.794 77.989 139.629 77.6469 141.467C77.5234 142.127 77.6132 143.084 77.572 143.949C77.5625 144.165 77.5445 144.375 77.5118 144.574L77.4854 144.72L77.4706 144.791L77.4421 144.901C77.365 145.184 77.2679 145.474 77.1243 145.802C76.9807 146.127 76.7949 146.484 76.5267 146.879C76.2564 147.271 75.8784 147.735 75.3441 148.185C74.8278 148.626 74.0623 149.09 73.2398 149.335C72.8269 149.462 72.4109 149.536 72.0065 149.566C71.6053 149.596 71.2495 149.573 70.9021 149.529C70.5948 149.498 70.2506 149.436 69.9413 149.349C69.6139 149.255 69.369 149.171 68.9868 148.989C68.2751 148.643 67.6859 148.173 67.2361 147.634C67.121 147.497 67.0144 147.358 66.9173 147.216L66.7779 147.003L66.6765 146.823C66.5467 146.582 66.4368 146.332 66.3482 146.085C66.307 145.967 66.2584 145.82 66.2383 145.731C66.2162 145.635 66.195 145.54 66.1782 145.446C66.1433 145.256 66.1201 145.068 66.1064 144.885C66.0884 144.547 66.1148 144.304 66.1507 144.032C66.1908 143.782 66.2489 143.593 66.3144 143.391C66.4527 143.006 66.6163 142.716 66.818 142.425C67.0038 142.169 67.2594 141.857 67.5117 141.644C67.8485 141.312 68.0924 141.142 68.6415 140.807C68.8981 140.672 69.0702 140.605 69.4767 140.459C69.8357 140.346 70.1873 140.298 70.504 140.302C70.8747 140.298 71.24 140.36 71.5504 140.466C71.7056 140.519 71.8482 140.583 71.9749 140.65C72.0678 140.71 72.1522 140.775 72.2314 140.84C72.3887 140.972 72.5197 141.114 72.6221 141.253C72.6738 141.323 72.7182 141.392 72.7551 141.461L72.8079 141.561C72.8132 141.588 72.8153 141.61 72.8185 141.634C72.8396 141.824 72.8238 141.995 72.7815 142.147C72.6981 142.451 72.5165 142.671 72.3074 142.848C72.0963 143.026 71.8534 143.165 71.618 143.315C71.4997 143.39 71.3825 143.468 71.2727 143.553C71.2178 143.595 71.1639 143.639 71.1133 143.686L71.0383 143.756C71.0119 143.785 71.0372 143.757 71.0341 143.76C71.071 143.708 71.0879 143.711 71.0995 143.666C71.1006 143.657 71.1017 143.664 71.1017 143.656C71.1017 143.656 71.108 143.686 71.1175 143.692C71.1576 143.774 71.3508 143.883 71.4142 143.896C71.4944 143.917 71.4237 143.893 71.3213 143.902C71.2231 143.91 71.1407 143.952 71.1291 143.964C71.109 143.983 71.1217 143.975 71.1228 143.961C71.1333 143.939 71.1386 143.915 71.1376 143.893L71.1365 143.884V143.882L71.1449 143.666V143.668L71.1439 143.675V143.693C71.146 143.735 71.1608 143.698 71.0731 143.586C70.9897 143.477 70.7891 143.295 70.4776 143.124C70.1725 142.953 69.7364 142.773 69.3341 142.65L69.0733 142.574C71.4733 143.223 65.7843 141.686 66.3724 141.842L66.3746 141.836L66.3777 141.824L66.3841 141.8L66.3967 141.753L66.4495 141.564L66.553 141.186L66.7589 140.429L67.1665 138.916L67.971 135.884L69.5495 129.814C70.597 125.766 71.6444 121.717 72.7551 117.687Z" fill="#FFCA52"/>
<path d="M67.0198 71.6917C66.9388 71.6244 66.9704 71.6202 67.0198 71.6917V71.6917Z" fill="#FFCA52"/>
<path d="M67.5669 119.759L67.6007 118.827C67.8869 111.62 68.5499 104.429 68.2384 97.2012C68.023 92.4023 68.0843 87.3901 67.9386 82.5067C67.8541 79.9526 67.7274 77.3974 67.4624 74.856C67.3589 73.7663 66.6832 72.1033 66.9609 71.0433C67.2407 69.9673 67.7517 69.9884 69.1454 69.5809C70.649 69.1406 72.2317 68.9854 73.7448 68.5937C75.5809 68.1175 76.0265 69.5798 76.2187 70.7307C77.1066 76.0649 77.4751 81.2249 77.492 86.6246C77.5131 92.5892 77.2608 98.5443 77.3653 104.499C77.4815 111.095 77.435 117.692 77.4128 124.296L77.4044 129.174C77.4012 130.8 77.4002 132.427 77.4213 134.055C77.4276 135.68 77.4435 137.305 77.4804 138.932C77.4962 140.096 78.5764 142.16 77.4223 142.848C75.1163 144.217 67.87 142.486 67.2016 142.147C66.7317 141.903 66.4572 141.49 66.4973 141.017C67.1034 133.944 67.2861 126.847 67.5669 119.759Z" fill="#FFCA52"/>
<path d="M95.5861 91.7266C95.5236 91.6683 95.5538 91.6745 95.5861 91.7266V91.7266Z" fill="#FFB537"/>
<path d="M87.3092 117.463L87.4897 116.971C88.9067 113.173 90.7608 109.523 91.7734 105.576C92.4407 102.956 93.4469 100.316 94.2673 97.6922C94.6939 96.3175 95.0835 94.9322 95.3538 93.5173C95.4742 92.9123 95.1796 91.8459 95.6653 91.3687C96.1583 90.8819 96.642 91.0392 98.061 91.2219C99.592 91.4172 101.139 91.7847 102.669 92.0075C104.526 92.2767 104.644 93.1816 104.585 93.8489C104.313 96.9415 103.614 99.805 102.583 102.705C101.447 105.909 100.106 109.037 99.1591 112.292C98.08 115.889 97.0009 119.485 95.9208 123.088C95.4024 124.867 94.9029 126.656 94.451 128.464C94.2208 129.365 94.0033 130.271 93.8038 131.185C93.656 131.837 94.3835 133.346 93.2009 133.346C90.841 133.337 84.2683 129.958 83.6854 129.551C83.2768 129.259 83.0751 128.942 83.1765 128.696C84.7117 125.01 85.927 121.203 87.3092 117.463Z" fill="#FFCA52"/>
<path d="M58.7177 54.4027C58.6378 54.3218 58.6693 54.3176 58.7177 54.4027V54.4027Z" fill="#FFB537"/>
<path d="M61.3173 110.254C61.2993 109.893 61.2824 109.532 61.2655 109.171C60.8791 100.785 61.0396 92.4078 60.3902 84.0348C59.9584 78.4693 59.8676 72.6452 59.6511 66.9762C59.5381 64.0103 59.3914 61.0455 59.1369 58.088C59.0281 56.8231 58.3777 54.8708 58.666 53.6481C58.9574 52.4075 59.4674 52.4497 60.8685 52.0273C62.3774 51.5733 63.9622 51.4508 65.4816 51.0559C67.3251 50.5787 67.7527 52.2596 67.9312 53.5742C68.759 59.6718 69.1423 65.5329 69.2827 71.6759C69.4379 78.4588 69.4337 85.248 69.9014 92.0182C70.4188 99.5137 70.9129 107.01 71.5729 114.495C71.8981 118.179 72.2623 121.86 72.69 125.534C72.9033 127.367 73.1313 129.199 73.3794 131.028C73.5568 132.339 74.9147 134.504 73.8672 135.447C71.7745 137.332 64.3571 136.462 63.6465 136.162C63.1471 135.951 62.8166 135.517 62.7891 134.964C62.3858 126.723 61.7206 118.496 61.3173 110.254Z" fill="#FFB537"/>
<path d="M12.2971 75.0007C12.2045 74.9587 12.234 74.9482 12.2971 75.0007V75.0007Z" fill="#FFCA52"/>
<path d="M25.0051 117.228L24.757 116.41C22.8533 110.067 21.4785 103.594 19.3225 97.3291C17.8886 93.1648 16.7388 88.7164 15.4939 84.4191C14.8435 82.1711 14.1614 79.9317 13.3748 77.7249C13.039 76.781 12.0528 75.4442 12.1088 74.4338C12.1648 73.4096 12.6673 73.3167 13.946 72.6451C15.3249 71.9229 16.8391 71.4362 18.2391 70.7573C19.937 69.9358 20.657 71.1173 21.0688 72.0792C22.9799 76.5424 24.4159 80.9347 25.6692 85.6038C27.0535 90.7585 28.2857 95.9607 29.9698 101.029C31.8344 106.639 33.6759 112.256 35.6757 117.82C36.6597 120.558 37.6807 123.283 38.7619 125.987C39.3015 127.336 39.8558 128.679 40.427 130.015C40.8367 130.974 42.5388 132.273 41.7015 133.273C40.0279 135.269 32.7245 136.566 31.9844 136.523C31.4638 136.493 31.0668 136.246 30.9401 135.829C29.0438 129.603 26.9004 123.455 25.0051 117.228Z" fill="#FFCA52"/>
<path d="M24.5427 56.4364C24.4576 56.3607 24.4881 56.3544 24.5427 56.4364V56.4364Z" fill="#FFB537"/>
<path d="M45.9354 65.1823C45.8471 65.1066 45.8776 65.0992 45.9354 65.1823V65.1823Z" fill="#FFB537"/>
<path d="M52.4248 122.861L52.3309 121.74C51.6203 113.057 51.3352 104.359 50.1231 95.7189C49.3122 89.9782 48.7716 83.9544 48.062 78.1039C47.6851 75.044 47.268 71.9873 46.7232 68.9517C46.4972 67.653 45.6441 65.6975 45.8056 64.4073C45.9693 63.0969 46.4824 63.0917 47.8318 62.5194C49.2868 61.9017 50.8527 61.6208 52.3235 61.0623C54.1079 60.3855 54.7087 62.0981 55.0233 63.4528C56.4794 69.7383 57.418 75.837 58.0653 82.2513C58.7822 89.3341 59.2594 96.4369 60.1242 103.501C61.084 111.322 61.9213 119.158 62.8251 126.99C63.2675 130.845 63.7257 134.699 64.2294 138.55C64.4743 140.472 64.7309 142.391 65.0086 144.31C65.1987 145.685 66.5776 147.956 65.5397 148.949C63.465 150.93 56.037 150.025 55.3243 149.72C54.8217 149.502 54.488 149.053 54.4553 148.479C53.9812 139.925 53.1312 131.397 52.4248 122.861Z" fill="#FFB537"/>
<path d="M120.484 79.4111C120.421 79.3476 120.451 79.3528 120.484 79.4111V79.4111Z" fill="#FFCA52"/>
<path d="M112.857 110.82L113.004 110.209C114.153 105.496 115.828 100.924 116.721 96.1495C117.314 92.9756 118.283 89.7468 119.103 86.5697C119.532 84.9088 119.929 83.2395 120.22 81.5459C120.344 80.8215 120.07 79.582 120.57 78.9822C121.077 78.373 121.563 78.5261 122.991 78.6496C124.533 78.7816 126.087 79.1174 127.627 79.2863C129.494 79.4911 129.602 80.5259 129.536 81.2946C129.229 84.8613 128.535 88.1862 127.556 91.603C126.475 95.3766 125.239 99.1133 124.462 102.96C123.602 107.218 122.718 111.47 121.997 115.759C121.635 117.878 121.346 119.956 121.037 122.191C120.882 123.302 120.716 124.441 120.52 125.611C120.451 126.029 120.6 126.679 120.602 127.262C120.602 127.844 120.455 128.358 119.839 128.444C118.6 128.62 116.356 127.801 114.334 126.93C112.313 126.054 110.504 125.146 110.208 124.949C109.794 124.669 109.579 124.357 109.673 124.107C110.362 122.209 110.847 120.08 111.327 117.797C111.813 115.487 112.305 113.134 112.857 110.82Z" fill="#FFCA52"/>
<path d="M73.8905 86.3228C73.8187 86.2717 73.8499 86.2728 73.8905 86.3228V86.3228Z" fill="#FFCA52"/>
<path d="M71.3363 116.774C71.3511 116.577 71.3669 116.38 71.3849 116.184C71.7713 111.612 72.7016 107.099 72.8261 102.508C72.9096 99.4566 73.3551 96.2985 73.6613 93.2133C73.8218 91.5989 73.9496 89.9803 73.9686 88.3563C73.977 87.6626 73.5103 86.5413 73.9084 85.9089C74.3117 85.268 74.8164 85.3418 76.2461 85.2531C77.7876 85.1581 79.3757 85.25 80.9214 85.1888C82.7977 85.1148 83.068 86.0662 83.125 86.7947C83.3869 90.1735 83.2275 93.3812 82.8019 96.7146C82.3331 100.397 81.7049 104.067 81.5465 107.774C81.3712 111.877 81.1727 115.979 81.14 120.091C81.1242 122.114 81.1474 124.141 81.234 126.17C81.2783 127.183 81.3364 128.195 81.4145 129.209C81.4705 129.935 82.6203 131.24 81.4927 131.646C79.2394 132.456 71.9466 131.246 71.2677 131.012C70.7904 130.849 70.5022 130.58 70.5265 130.279C70.8823 125.784 70.9784 121.27 71.3363 116.774Z" fill="#FFCA52"/>
<path d="M49.5779 53.9319C49.4896 53.8478 49.5201 53.8404 49.5779 53.9319V53.9319Z" fill="#FFCA52"/>
<path d="M57.9754 116.593C57.9205 116.189 57.8656 115.783 57.8117 115.379C56.5553 105.97 55.8436 96.5276 54.3253 87.1547C53.3169 80.9241 52.6211 74.3756 51.8155 68.0119C51.3942 64.6817 50.9402 61.3558 50.3785 58.0467C50.1388 56.6318 49.2878 54.4853 49.4472 53.0862C49.6087 51.6672 50.1229 51.6746 51.4755 51.0896C52.9326 50.4582 54.5016 50.1953 55.9756 49.6315C57.7642 48.9494 58.365 50.8077 58.6797 52.2732C60.1389 59.0709 61.1303 65.6384 61.9085 72.5416C62.769 80.1639 63.4712 87.8062 64.6411 95.3905C65.9366 103.787 67.2079 112.186 68.6449 120.559C69.3513 124.68 70.0978 128.795 70.9055 132.897C71.3099 134.943 71.728 136.986 72.1652 139.026C72.4788 140.488 74.0573 142.817 73.1112 143.961C71.2202 146.247 63.732 145.853 62.9918 145.572C62.4723 145.374 62.0975 144.912 62.013 144.292C60.7534 135.047 59.235 125.838 57.9754 116.593Z" fill="#FFCA52"/>
<path d="M30.349 84.3303C30.2607 84.283 30.2912 84.2746 30.349 84.3303V84.3303Z" fill="#FFCA52"/>
<path d="M38.6482 126.538L38.4941 125.718C37.3157 119.37 36.6474 112.945 35.1523 106.656C34.1566 102.477 33.4587 98.048 32.6383 93.7591C32.2085 91.5164 31.7439 89.2791 31.1685 87.0681C30.9235 86.122 30.0662 84.7452 30.214 83.7643C30.3639 82.7686 30.8708 82.7126 32.2022 82.1499C33.6382 81.5427 35.185 81.1753 36.6358 80.6115C38.3969 79.9283 39.0062 81.1415 39.3282 82.1171C40.8223 86.6426 41.8411 91.0709 42.632 95.7557C43.5062 100.928 44.2042 106.134 45.3445 111.254C46.6084 116.922 47.8258 122.6 49.1815 128.25C49.8488 131.032 50.5478 133.807 51.3059 136.569C51.6818 137.947 52.0725 139.322 52.4821 140.693C52.7736 141.676 54.3088 143.149 53.3553 144.022C51.4516 145.766 44.0352 146.14 43.3067 146.014C42.7936 145.922 42.4282 145.637 42.3533 145.219C41.2309 138.969 39.8255 132.775 38.6482 126.538Z" fill="#FFCA52"/>
<path d="M43.4338 98.0333C44.0082 98.747 43.9818 99.8198 44.0631 100.691C44.1761 101.914 44.4126 103.12 44.6174 104.329C45.0165 106.676 45.158 109.077 45.7293 111.391C45.9193 112.156 44.7378 112.484 44.5467 111.716C43.9776 109.436 43.8509 107.075 43.4824 104.758C43.2944 103.574 43.0738 102.39 42.9502 101.197C42.9017 100.732 42.8879 100.266 42.8457 99.8018C42.8013 99.3182 42.6789 98.8484 42.6282 98.3669C42.5881 97.9752 43.1846 97.7239 43.4338 98.0333Z" fill="#FFB537"/>
<path d="M81.0196 115.387C81.6352 113.652 81.2435 111.635 81.3269 109.833C81.442 107.332 81.5602 104.827 81.7883 102.334C82.1715 98.1431 82.9107 94.0073 83.3488 89.825C83.427 89.0732 83.4956 88.3088 83.4576 87.5528C83.4407 87.2202 83.4439 86.5085 83.0342 86.4019C82.6573 86.3026 82.6573 85.7377 83.0342 85.6385C85.3434 85.0314 84.0964 91.3317 83.9634 92.415C83.6297 95.1307 83.1218 97.8084 82.9138 100.541C82.709 103.228 82.5411 105.917 82.4154 108.609C82.3584 109.86 82.2645 111.118 82.2518 112.37C82.2412 113.443 82.2645 114.607 81.9013 115.631C81.7059 116.181 80.8222 115.945 81.0196 115.387Z" fill="#FFB537"/>
<path d="M72.5264 106.683C72.518 105.204 72.5338 103.728 72.6214 102.25C72.7714 99.7258 72.9899 97.2086 73.0205 94.6777C73.0353 93.492 73.0871 92.3052 73.1969 91.1237C73.3246 89.7563 73.4693 88.3214 73.9371 87.0216C74.2623 86.1199 75.2569 84.552 76.4025 85.4104C76.7087 85.6395 76.6548 86.235 76.186 86.2086C75.8133 86.1875 75.6433 86.1664 75.411 86.4304C75.1164 86.7661 74.9528 87.2381 74.8208 87.6573C74.4227 88.9222 74.277 90.2589 74.1852 91.5766C74.1123 92.6167 74.0764 93.6609 74.0785 94.703C74.0838 97.1104 73.9772 99.5072 73.8357 101.909C73.747 103.423 73.6351 104.939 73.614 106.456C73.6044 107.211 73.54 107.962 73.4767 108.713C73.4154 109.441 73.3964 110.202 73.2539 110.918C73.1926 111.228 72.7196 111.209 72.6447 110.918C72.3068 109.584 72.5338 108.047 72.5264 106.683Z" fill="#FFB537"/>
<path d="M116.029 107.513C116.178 106.227 116.371 104.947 116.587 103.671C117.031 101.038 117.512 98.4135 117.927 95.7759C118.345 93.112 118.727 90.4459 118.906 87.7535C119.055 85.5172 119.287 83.3041 119.623 81.0878C119.738 80.3234 119.905 79.2981 120.644 78.8747C121.509 78.3806 122.609 78.8631 123.493 79.0342C123.77 79.088 123.753 79.5146 123.493 79.58C123.118 79.674 122.766 79.6539 122.384 79.617C121.987 79.579 121.346 79.4375 121.026 79.75C120.581 80.184 120.587 81.1987 120.522 81.7678C120.408 82.7624 120.226 83.7454 120.129 84.7422C120.014 85.93 119.954 87.121 119.873 88.311C119.535 93.2809 118.658 98.1843 117.905 103.103C117.694 104.477 117.516 105.858 117.255 107.225C116.991 108.601 117.005 110.11 116.48 111.417C116.353 111.73 115.807 111.838 115.73 111.417C115.492 110.107 115.879 108.815 116.029 107.513Z" fill="#FFB537"/>
<path d="M124.387 105.533C124.603 104.404 124.859 103.284 125.125 102.167C125.667 99.8884 126.172 97.6056 126.584 95.2985C126.991 93.0295 127.328 90.7478 127.683 88.4703C128.029 86.2435 128.032 83.9575 128.476 81.7476C128.548 81.3886 128.7 80.9948 128.714 80.6263C128.725 80.3612 128.622 80.2947 128.385 80.1701C127.372 79.6411 126.173 79.8882 125.143 79.3962C124.729 79.1987 125.039 78.6254 125.437 78.6993C126.621 78.9189 129.565 78.6148 129.72 80.4119C129.786 81.1626 129.461 82.0369 129.328 82.7665C129.112 83.9417 128.958 85.1263 128.821 86.3121C128.26 91.1648 127.537 96.0313 126.356 100.776C126.026 102.109 125.659 103.43 125.355 104.769C125.209 105.415 125.071 106.064 124.953 106.717C124.823 107.438 124.758 108.175 124.536 108.874C124.436 109.192 123.988 109.123 123.966 108.797C123.893 107.715 124.185 106.59 124.387 105.533Z" fill="#FFB537"/>
<path d="M53.4425 52.8953C54.2556 54.3724 54.3706 56.2286 54.4973 57.8821C54.566 58.7817 54.6473 59.6961 54.6093 60.5968C54.5734 61.4657 54.5586 62.3358 54.6177 63.2037C54.8827 67.0618 55.8795 70.845 56.3187 74.6841C56.5373 76.6005 56.6587 78.519 56.8276 80.4396C57.0008 82.3972 57.2204 84.3484 57.3851 86.307C57.5499 88.2614 57.7547 90.2137 58.0091 92.1586C58.2626 94.1046 58.7124 96.022 59.0386 97.9574C59.3754 99.9551 59.8537 101.913 59.9509 103.942C60.0438 105.859 60.0628 107.805 60.4978 109.685C60.5749 110.016 60.0829 110.155 59.9878 109.826C59.5285 108.255 59.4335 106.602 59.3311 104.977C59.2181 103.169 59.0027 101.417 58.592 99.651C58.1601 97.7906 57.8064 95.9724 57.6502 94.0655C57.4907 92.1143 57.194 90.1704 56.9976 88.2224C56.8044 86.3091 56.5626 84.3927 56.4655 82.4711C56.3652 80.5029 56.0611 78.557 55.8457 76.5994C55.4233 72.7782 54.6082 69.012 54.17 65.194C53.9356 63.1519 53.6959 61.0835 53.5861 59.032C53.5323 58.0257 53.4563 57.0205 53.3296 56.0217C53.2028 55.026 52.9632 54.0525 52.8544 53.0547C52.8196 52.7348 53.3 52.6355 53.4425 52.8953Z" fill="#FFB537"/>
<path d="M87.2671 89.5715C87.8648 87.5126 88.5257 85.4727 89.155 83.4222C90.4125 79.3223 91.725 75.2751 92.6826 71.0897C92.9434 69.9525 93.2496 68.827 93.5347 67.6961C93.8346 66.5094 94.0722 65.2793 94.4935 64.1273C94.5959 63.8496 95.0773 63.8612 95.0499 64.2023C94.8873 66.2211 94.2865 68.2642 93.7913 70.2228C93.2634 72.3081 92.6024 74.365 92.0079 76.4334C91.4219 78.4712 90.9046 80.528 90.3006 82.5616C89.6882 84.6216 89.0357 86.67 88.3462 88.7047C87.6135 90.8681 86.7413 92.9904 86.1616 95.2035C86.0856 95.4949 85.5851 95.4474 85.62 95.1306C85.8343 93.1847 86.7265 91.4319 87.2671 89.5715Z" fill="#FFB537"/>
<path d="M97.0973 92.6538C97.4996 92.3994 97.9927 92.8069 98.3781 92.9495C98.6875 93.0646 99.0063 93.1353 99.3347 93.1659C99.8669 93.2187 100.396 93.2409 100.925 93.3201C101.507 93.4067 102.091 93.5344 102.679 93.5692C103.062 93.5914 103.201 94.208 102.776 94.282C102.143 94.3907 101.553 94.3474 100.921 94.2556C100.358 94.1732 99.794 94.1626 99.2291 94.1056C98.8406 94.0666 98.4615 94.0022 98.0951 93.8638C97.6559 93.696 96.9696 93.5091 96.9147 92.9727C96.9009 92.8439 96.9949 92.7182 97.0973 92.6538Z" fill="#FFB537"/>
<path d="M92.9572 109.772C93.1251 109.161 93.2381 108.534 93.4271 107.929C93.6414 107.25 94.0226 106.642 94.2549 105.966C94.4777 105.319 94.5643 104.668 94.6836 103.998C94.8113 103.28 95.0204 102.572 95.2199 101.871C95.6212 100.463 96.1322 99.0839 96.5725 97.686C97.0223 96.2542 97.3179 94.7433 97.8828 93.3527C98.038 92.9715 98.5903 93.0096 98.6177 93.452C98.7064 94.9143 98.2059 96.4094 97.7846 97.7926C97.338 99.2634 96.8491 100.729 96.3487 102.182C95.8978 103.491 95.334 104.832 95.0669 106.19C94.9328 106.873 94.9296 107.622 94.6878 108.276C94.4481 108.928 94.0786 109.518 93.6604 110.069C93.4134 110.395 92.8326 110.226 92.9572 109.772Z" fill="#FFB537"/>
<path d="M91.796 114.042C91.7939 114.032 91.7929 114.021 91.7898 114.002C91.7929 114.006 91.7939 114.017 91.795 114.029C91.795 114.033 91.796 114.036 91.796 114.039C91.796 114.04 91.796 114.041 91.796 114.042Z" fill="#FFB537"/>
<path d="M91.7681 114.349C91.7702 114.299 91.7744 114.249 91.7776 114.2C91.7786 114.175 91.7945 114.094 91.7955 114.042C91.7987 114.068 91.7987 114.066 91.7955 114.039C91.7955 114.035 91.7945 114.033 91.7945 114.029C91.7902 114.002 91.785 113.964 91.7765 113.902C91.785 113.831 91.7945 113.761 91.8061 113.692C91.8135 113.641 91.8219 113.59 91.8304 113.541C91.8504 113.415 91.8673 113.288 91.8979 113.165C91.9655 112.892 92.0722 112.642 92.1978 112.393C92.2622 112.264 92.3287 112.141 92.428 112.033C92.4702 111.988 92.5167 111.942 92.5642 111.902C92.6634 111.817 92.6254 111.852 92.7015 111.766C92.9517 111.484 93.4437 111.781 93.3329 112.133C93.3022 112.229 93.3086 112.271 93.298 112.393C93.2874 112.541 93.2473 112.679 93.2178 112.823C93.2114 112.852 93.1872 113.064 93.203 112.915C93.1924 113.004 93.1776 113.085 93.1576 113.171C93.1301 113.295 93.1101 113.42 93.0805 113.544C93.053 113.659 93.0224 113.773 92.995 113.888C92.9823 113.945 92.9717 114.004 92.9548 114.06C92.939 114.115 92.9126 114.166 92.8841 114.214C92.882 114.219 92.8831 114.217 92.8809 114.224C92.8493 114.349 92.7986 114.477 92.7479 114.596C92.7057 114.697 92.6592 114.779 92.5969 114.847C92.5473 114.969 92.4955 115.091 92.4174 115.198C92.221 115.471 91.824 115.371 91.7955 115.03C91.785 114.908 91.7945 114.789 91.8008 114.667C91.7723 114.567 91.7638 114.46 91.7681 114.349Z" fill="#FFB537"/>
<path d="M130.722 74.7103C131.002 73.6534 131.338 72.6207 131.74 71.6039C132.466 69.7752 133.096 67.9834 133.443 66.0427C133.496 65.7439 133.935 65.7808 134.01 66.0427C134.546 67.9073 133.404 70.0887 132.743 71.7908C132.351 72.8023 132.017 73.8286 131.687 74.8613C131.299 76.0808 130.986 77.3637 130.409 78.5114C130.235 78.8577 129.756 78.6011 129.819 78.2622C130.039 77.0659 130.411 75.8865 130.722 74.7103Z" fill="#FFB537"/>
<path d="M13.0116 74.3418C13.908 74.3397 14.8604 73.7209 15.7093 74.3175C16.3945 74.7979 16.8275 75.5972 17.1727 76.3374C18.104 78.3319 18.4545 80.5091 18.9983 82.625C19.6128 85.0092 20.4375 87.3479 21.11 89.7173C21.7837 92.093 22.6432 94.4159 23.2777 96.8063C23.5734 97.9203 23.8194 99.0479 24.1097 100.164C24.4117 101.325 24.8932 102.401 25.2606 103.536C25.3778 103.898 24.8531 104.23 24.5997 103.921C24.0021 103.193 23.698 102.245 23.4308 101.354C23.132 100.362 22.9134 99.351 22.678 98.3447C22.1606 96.1401 21.3919 93.9967 20.7574 91.8237C20.0848 89.5219 19.351 87.2381 18.6573 84.9395C18.3321 83.8667 18.0227 82.8003 17.7978 81.7012C17.5792 80.6368 17.3828 79.5673 17.0904 78.5199C16.8021 77.4893 16.4273 76.2835 15.7009 75.4631C15.3271 75.0408 14.8424 74.9975 14.3071 75.0608C13.775 75.1242 13.36 75.1009 12.8659 74.8824C12.5903 74.761 12.7434 74.3418 13.0116 74.3418Z" fill="#FFB537"/>
<path d="M16.8686 73.2195C16.895 73.0305 17.0196 72.89 17.1125 72.7317C17.2287 72.5353 17.4472 72.379 17.6352 72.2555C17.8073 72.1425 18.0005 72.0749 18.1884 72C18.2697 71.9672 18.351 71.9366 18.4345 71.9091C18.5316 71.8764 18.6414 71.8352 18.747 71.8426C18.7639 71.8394 18.7808 71.8363 18.7977 71.8331C18.841 71.8257 18.8938 71.812 18.9349 71.8131C18.9539 71.8162 18.974 71.8194 18.9941 71.8215C18.9983 71.8215 18.9973 71.8215 19.0057 71.8204C19.1282 71.8131 19.2623 71.9165 19.2897 72.0369C19.3182 72.1668 19.2686 72.2956 19.1546 72.3685C19.1567 72.3653 19.1567 72.3663 19.1588 72.3632C19.1408 72.3832 19.1229 72.4054 19.0986 72.4181C19.0807 72.4297 19.0616 72.4392 19.0437 72.4497C19.0257 72.4613 19.0067 72.473 18.9888 72.4846C18.9254 72.5458 18.842 72.5849 18.7671 72.6293C18.6953 72.6715 18.6245 72.7158 18.5559 72.7623C18.5517 72.7655 18.5485 72.7676 18.5443 72.7697C18.5274 72.7866 18.5094 72.8024 18.4894 72.8151C18.444 72.851 18.3964 72.8827 18.35 72.9164C18.3183 72.9386 18.2866 72.9618 18.256 72.9851C18.2191 73.0146 18.1821 73.0442 18.1452 73.0717C18.1145 73.0938 18.0839 73.1149 18.0533 73.1371C18.0385 73.1477 18.0227 73.1593 18.0079 73.1709C17.9973 73.1793 17.9805 73.192 17.9741 73.1973C17.9604 73.2089 17.9467 73.2205 17.9319 73.2321C17.8632 73.2913 17.7988 73.3441 17.7144 73.38C17.5686 73.4412 17.6922 73.4064 17.6996 73.3895C17.6964 73.399 17.6669 73.4127 17.6574 73.419C17.6405 73.4307 17.6236 73.4444 17.6067 73.456C17.6003 73.4613 17.6025 73.4591 17.6014 73.4591C17.5338 73.5183 17.4652 73.5742 17.3849 73.6175C17.2582 73.6851 17.1094 73.6788 16.9943 73.5901C16.8729 73.4961 16.8475 73.3652 16.8686 73.2195Z" fill="#FFB537"/>
<path d="M15.1728 104.73C16.6647 104.148 20.2895 106.347 21.717 106.874C42.4933 114.536 66.1552 117.49 88.4423 116.072C98.1605 115.453 107.89 114.502 117.387 112.453C122.254 111.403 127.05 110.066 131.703 108.384C133.956 107.57 136.162 106.696 138.207 105.568C139.034 105.112 141.769 103.605 141.5 106.048C140.792 112.498 138.467 118.754 137.209 125.146C135.039 136.187 132.572 147.473 130.043 158.563C127.921 167.867 125.8 177.467 123.237 186.793C121.913 191.611 120.474 196.409 118.815 201.142C117.23 205.66 110.783 206.195 106.488 206.872C100.088 207.88 93.6255 208.555 87.1415 208.896C77.0612 209.427 66.9312 209.15 56.9037 208.067C52.8756 207.631 38.2181 206.813 37.0735 201.65C35.0093 192.344 31.6791 183.221 29.3404 173.949C26.3037 161.914 23.9364 149.46 21.4657 137.209C20.185 130.858 18.8683 124.512 17.3901 118.197C16.651 115.04 15.8739 111.889 15.0387 108.752C14.7314 107.597 13.4908 105.588 15.0704 104.775C15.1031 104.758 15.1369 104.742 15.1728 104.73Z" fill="#F94737"/>
<path d="M58.2794 165.262C62.4416 173.562 72.3318 176.682 81.0564 176.18C94.3582 175.415 101.695 163.148 97.2312 150.639C92.9328 138.597 79.8116 134.011 68.7461 140.199C60.5305 144.794 53.6431 156.013 58.2794 165.262Z" fill="#FFE5BD"/>
<path d="M36.4084 143.028C35.0886 142.291 37.138 140.137 38.2203 140.79C39.6214 141.636 37.4453 143.607 36.4084 143.028Z" fill="#F12D27"/>
<path d="M34.6482 154.209C34.4222 155.704 31.6854 154.544 31.9167 153.302C32.2144 151.692 34.8245 153.035 34.6482 154.209Z" fill="#F12D27"/>
<path d="M38.5055 165.354C39.7947 164.564 40.6689 167.405 39.5698 168.029C38.1465 168.836 37.494 165.975 38.5055 165.354Z" fill="#F12D27"/>
<path d="M59.5614 190.877C60.3892 189.613 62.3922 191.81 61.6637 192.843C60.7208 194.181 58.91 191.871 59.5614 190.877Z" fill="#F12D27"/>
<path d="M42.8153 151.992C43.7465 153.184 41.0214 154.373 40.278 153.351C39.3151 152.027 42.0846 151.057 42.8153 151.992Z" fill="#F12D27"/>
<path d="M89.1342 198.633C90.1067 197.474 91.8341 199.894 90.9883 200.834C89.8934 202.05 88.3698 199.541 89.1342 198.633Z" fill="#F12D27"/>
<path d="M74.8322 196.372C75.944 195.348 77.3494 197.967 76.3917 198.791C75.151 199.859 73.9579 197.177 74.8322 196.372Z" fill="#F12D27"/>
<path d="M74.1672 188.278C75.6317 187.901 75.6316 190.873 74.3973 191.147C72.7998 191.501 73.0163 188.574 74.1672 188.278Z" fill="#F12D27"/>
<path d="M53.0909 193.01C54.5955 193.158 53.5787 195.951 52.3264 195.785C50.7036 195.572 51.9094 192.895 53.0909 193.01Z" fill="#F12D27"/>
<path d="M60.3362 126.379C61.8324 126.162 61.5135 129.118 60.257 129.256C58.63 129.436 59.1611 126.55 60.3362 126.379Z" fill="#F12D27"/>
<path d="M51.9325 122.187C53.1563 123.073 50.8693 124.971 49.8715 124.196C48.5781 123.192 50.9706 121.491 51.9325 122.187Z" fill="#F12D27"/>
<path d="M86.316 118.819C88.1986 118.754 90.0802 118.662 91.9639 118.599C93.7641 118.54 95.5633 118.433 97.354 118.234C99.1374 118.036 100.905 117.716 102.686 117.491C104.566 117.254 106.45 117.061 108.328 116.803C111.642 116.348 115.084 116.334 118.326 115.461C121.837 114.516 125.165 113.012 128.64 111.952C131.513 111.076 134.486 110.556 137.042 108.88C137.369 108.666 137.638 109.119 137.428 109.382C136.627 110.39 135.38 110.9 134.206 111.346C132.892 111.843 131.534 112.198 130.192 112.606C126.783 113.645 123.494 115.035 120.096 116.108C118.421 116.637 116.741 116.993 114.996 117.204C113.322 117.404 111.637 117.506 109.962 117.708C106.25 118.16 102.543 118.656 98.8375 119.166C96.7828 119.449 94.7133 119.607 92.6407 119.689C90.5215 119.772 88.433 119.705 86.316 119.632C85.7934 119.614 85.7923 118.837 86.316 118.819Z" fill="#F12D27"/>
<path d="M42.9029 115.259C45.6861 115.737 48.4251 116.445 51.2073 116.943C53.942 117.433 56.6956 117.816 59.4631 118.072C62.3033 118.336 65.1573 118.447 68.0008 118.665C70.3648 118.846 72.7289 118.993 75.0951 119.146C76.1457 119.214 77.1994 119.268 78.2532 119.253C79.0451 119.243 79.9901 119.249 80.7091 118.862C81.1083 118.647 81.6119 119.217 81.2191 119.523C80.6321 119.98 79.894 120.084 79.1718 120.159C78.2352 120.258 77.2902 120.247 76.3505 120.211C74.0973 120.123 71.842 119.972 69.5941 119.803C63.7953 119.368 58.0039 119.106 52.2579 118.151C49.0544 117.618 45.777 117.055 42.6991 116C42.225 115.838 42.4183 115.175 42.9029 115.259Z" fill="#F12D27"/>
<path d="M28.3313 111.51C29.2425 111.809 30.1189 112.18 31.0417 112.451C31.9804 112.728 32.9127 113.016 33.8598 113.263C35.7361 113.751 37.6282 114.17 39.4749 114.764C39.893 114.899 39.7188 115.49 39.2944 115.415C37.3495 115.072 35.3982 114.741 33.4787 114.268C32.5611 114.042 31.6499 113.786 30.763 113.459C29.8549 113.125 28.8603 112.7 28.0568 112.161C27.739 111.947 27.9269 111.377 28.3313 111.51Z" fill="#F12D27"/>
<path d="M27.212 102.517C25.1974 104.638 24.1447 107.621 22.9463 110.232C20.4111 115.754 18.0312 121.349 15.6671 126.947C13.2302 132.713 10.8323 138.494 8.43342 144.276C7.08508 147.525 5.87189 150.893 4.31027 154.049C3.56272 155.561 1.43516 155.01 0.380348 156.11C0.110046 156.391 -0.00396729 156.786 0.00025177 157.175C0.00447845 157.55 -0.0134888 157.683 1.41087 157.645C3.22801 157.597 10.9157 157.672 12.9673 157.451C13.2672 157.419 13.718 156.376 13.8627 156.147C17.2752 150.731 20.6899 145.32 24.0074 139.846C26.1814 136.258 28.328 132.652 30.4439 129.028C31.636 126.989 32.8186 124.944 33.9906 122.892C34.6093 121.811 35.2249 120.729 35.8384 119.646C36.077 119.224 37.3514 116.315 37.7294 116.284C52.5558 115.346 61.234 114.966 61.2762 114.963C68.2111 114.526 73.0058 109.46 73.9117 102.749C74.4386 98.8473 71.2837 93.3557 67.6262 89.4036C67.3221 89.0742 65.1945 90.3254 64.844 90.4447C54.2273 94.0283 46.2745 95.8792 35.4002 98.5168C32.8091 99.145 30.0976 100.026 27.9943 101.782C27.7177 102.013 27.458 102.259 27.212 102.517Z" fill="#FA825E"/>
<path d="M68.3746 87.7353C67.9291 87.7775 64.8829 88.7965 64.5324 88.9158C53.9146 92.4994 45.511 94.5361 35.1963 98.2422C32.2409 99.3033 28.973 100.282 26.3682 102.218C23.3463 104.463 21.9167 107.78 20.6898 111.227C19.3361 115.03 17.1336 120.616 14.8846 126.214C15.8486 126.729 16.8084 127.253 17.7566 127.799C21.2525 129.808 24.6577 132.018 27.8654 134.478C31.2347 128.741 34.8478 122.517 37.9542 116.839C52.7806 115.902 61.4598 115.518 61.502 115.518C71.5929 115.491 78.4265 104.149 79.3324 97.4376C79.8593 93.5362 75.9156 87.0099 68.3746 87.7353Z" fill="#9689B1"/>
<path d="M27.8908 136.919C27.4843 137.578 27.1992 138.302 26.3999 138.107C25.8593 137.973 25.3757 137.564 24.9153 137.269C24.3684 136.921 23.8225 136.57 23.2788 136.219C22.1669 135.5 21.0593 134.773 19.9549 134.044C17.7693 132.598 15.5942 131.137 13.4149 129.681C13.0126 129.413 12.1552 129.088 12.1711 128.535C12.188 127.908 12.7317 127.234 12.9788 126.68C13.1604 126.276 13.3346 125.46 13.6609 125.16C14.0896 124.765 15.2563 125.938 15.5963 126.191C19.4755 129.091 23.8373 131.343 27.9953 133.827C28.2909 134.003 28.5961 134.188 28.7882 134.473C28.8094 134.504 28.8273 134.535 28.8432 134.565C29.2708 135.372 28.2772 136.291 27.8908 136.919Z" fill="#9689B1"/>
<path d="M26.9436 133.307C26.9911 133.307 27.0365 133.281 27.0597 133.238C27.0946 133.174 27.0703 133.093 27.0069 133.059C22.9556 130.865 18.9919 128.413 15.2246 125.77C15.1644 125.728 15.082 125.741 15.0409 125.802C14.9986 125.862 15.0134 125.943 15.0725 125.985C18.8494 128.634 22.8215 131.093 26.8813 133.291C26.9014 133.301 26.9225 133.307 26.9436 133.307Z" fill="#6F5270"/>
<path d="M41.1164 115.944C40.1915 118.718 40.5009 121.866 40.522 124.738C40.5663 130.815 40.7828 136.891 41.0119 142.964C41.2495 149.217 41.5282 155.471 41.8049 161.724C41.9601 165.238 42.2895 168.804 42.2124 172.324C42.1744 174.01 40.0162 174.412 39.5252 175.856C39.4007 176.225 39.464 176.632 39.6329 176.982C39.7955 177.321 39.8357 177.448 41.109 176.81C42.7351 175.996 49.7302 172.806 51.4956 171.737C51.7522 171.582 51.7194 170.445 51.7532 170.175C52.5493 163.825 53.3486 157.476 54.0339 151.113C54.4826 146.941 54.8976 142.765 55.2798 138.586C55.4941 136.233 55.699 133.88 55.8922 131.525C55.9935 130.285 56.0928 129.043 56.1889 127.801C56.2258 127.319 56.1477 124.144 56.4761 123.956C69.5086 116.824 72.6044 114.511 72.6414 114.49C78.7369 111.156 78.3926 102.417 76.3696 95.9544C75.1923 92.1977 77.152 88.9667 72.1652 86.9374C71.7502 86.7684 70.3533 88.8041 70.0861 89.0596C61.9877 96.8054 55.5691 101.852 46.8371 108.85C44.757 110.517 42.6749 112.464 41.5134 114.945C41.3603 115.271 41.2294 115.605 41.1164 115.944Z" fill="#FA825E"/>
<path d="M80.9784 91.3601C80.9784 87.4238 78.6577 81.2576 72.1356 85.1094C71.7502 85.3375 69.4231 87.5506 69.156 87.8071C61.0575 95.5519 54.3095 100.959 46.5362 108.687C44.3094 110.901 41.7637 113.172 40.2253 116.029C38.4398 119.345 38.5507 122.954 38.9002 126.596C39.1979 129.697 39.4872 133.975 39.7575 138.533C45.0506 139.164 50.3774 139.473 55.7021 139.731C56.1667 134.565 56.607 129.259 56.9153 124.363C69.9478 117.23 72.1958 115.715 74.4289 114.1C81.0703 109.297 80.9784 101.471 80.9784 91.3601Z" fill="#9689B1"/>
<path d="M56.892 139.53C56.8582 140.303 56.9628 141.074 56.1688 141.293C55.6324 141.441 55.0105 141.317 54.4646 141.286C53.8173 141.248 53.1701 141.207 52.5229 141.165C51.202 141.079 49.8811 140.985 48.5613 140.885C45.948 140.688 43.3368 140.473 40.7246 140.262C40.2421 140.223 39.3362 140.358 39.0796 139.868C38.7892 139.312 38.935 138.458 38.8822 137.854C38.8431 137.413 38.5971 136.615 38.7364 136.194C38.918 135.64 40.5082 136.096 40.9284 136.152C45.7294 136.794 50.636 136.636 55.4772 136.778C55.8214 136.789 56.1783 136.802 56.4855 136.958C56.5172 136.973 56.5478 136.991 56.5774 137.01C57.3439 137.506 56.9237 138.794 56.892 139.53Z" fill="#9689B1"/>
<path d="M52.734 136.863C53.2376 136.863 53.7402 136.859 54.2428 136.853C54.3157 136.852 54.3737 136.793 54.3727 136.72C54.3716 136.648 54.3135 136.589 54.2407 136.589H54.2396C49.6424 136.651 44.9818 136.437 40.3983 135.964C40.3244 135.964 40.2611 136.01 40.2537 136.082C40.2463 136.154 40.2991 136.22 40.3719 136.227C44.4634 136.649 48.615 136.863 52.734 136.863Z" fill="#6F5270"/>
<path d="M38.6944 122.729C38.7662 122.729 38.8253 122.671 38.8264 122.599C38.8633 120.012 39.3437 117.945 40.3415 116.092C41.6561 113.651 43.7034 111.648 45.6831 109.711C46.002 109.399 46.3188 109.089 46.6292 108.78C48.1993 107.219 50.0153 105.755 51.7712 104.339C53.0488 103.31 54.2546 102.336 55.3263 101.364C55.3802 101.314 55.3844 101.232 55.3348 101.177C55.2862 101.123 55.2028 101.119 55.1489 101.168C54.0836 102.137 52.8799 103.106 51.6065 104.134C49.8443 105.554 48.0229 107.023 46.4434 108.594C46.1329 108.901 45.8172 109.211 45.4984 109.522C43.5049 111.472 41.4438 113.49 40.1092 115.967C39.0914 117.858 38.5994 119.964 38.5624 122.595C38.5613 122.668 38.6194 122.728 38.6923 122.729C38.6933 122.729 38.6944 122.729 38.6944 122.729Z" fill="#6F5270"/>
<path d="M52.4141 77.5168C52.319 75.0757 52.3581 72.6345 52.3739 70.1912C52.3824 68.8513 52.3169 67.5421 52.7593 66.2571C53.0962 65.2825 53.6769 64.3481 54.6219 63.8708C55.6461 63.3524 56.8772 63.3218 57.9975 63.2236C63.9705 62.702 70.1673 62.702 76.1383 63.2236C77.2585 63.3218 78.4907 63.3524 79.5138 63.8708C80.4588 64.3481 81.0406 65.2825 81.3764 66.2571C81.8188 67.5421 81.7533 68.8513 81.7628 70.1912C81.7776 72.6345 81.8167 75.0757 81.7227 77.5168C81.6076 80.734 81.5432 84.3197 81.4978 87.538C81.4851 88.4218 81.4725 92.8754 81.4598 93.7581C81.4567 94.0516 81.6741 95.5605 81.2856 95.5974C71.7469 96.478 62.3772 92.8955 52.8512 92.0275C52.4616 91.9927 52.6801 90.4817 52.6759 90.1893C52.6633 89.3055 52.6506 88.4218 52.6379 87.538C52.5925 84.3197 52.5292 80.734 52.4141 77.5168Z" fill="#5B3650"/>
<path d="M82.2012 117.702C81.9087 117.508 81.3459 117.152 81.2087 116.833C80.7314 115.716 81.0661 115.014 81.5708 114.029C82.216 112.77 82.5982 112.442 83.3436 110.424C83.4513 110.131 83.6878 109.416 83.8167 109.132L83.4862 114.267L82.2012 117.702Z" fill="#FA825E"/>
<path d="M83.8166 109.131C84.826 106.915 85.4511 104.519 85.6633 102.095C86.0878 97.2329 85.0119 92.9134 83.1736 88.4608C81.9034 85.3861 80.6321 82.3083 79.2036 79.3022C78.589 78.0088 77.7042 76.651 78.0062 75.1569C78.2818 73.7917 79.3271 72.74 80.5751 72.1973C81.8369 71.6472 83.4196 71.4413 84.7215 71.9703C86.0223 72.4983 86.8385 73.6872 87.4953 74.8708C88.3157 76.3501 89.1181 77.8536 89.8477 79.3804C95.2506 90.6781 95.1112 103.795 90.3112 115.195C90.3007 115.222 90.2838 115.239 90.269 115.259C90.1592 115.608 90.043 115.954 89.9142 116.298C89.5246 117.33 89.0516 118.335 88.4983 119.291C88.0559 120.054 87.434 120.852 86.4806 120.918C86.1163 120.944 85.6813 120.855 85.4669 120.529C85.4332 120.479 85.4099 120.426 85.393 120.372C85.0288 120.43 84.6149 120.335 84.372 120.047C84.3129 119.976 84.2728 119.901 84.2411 119.824C83.7585 119.97 83.0247 120.048 82.7597 119.549C82.7365 119.503 82.7259 119.456 82.7132 119.408C82.4757 119.505 82.2107 119.536 81.9245 119.449C81.2023 119.23 81.5708 118.203 81.8548 117.586C82.4102 116.374 83.0004 113.606 83.0004 113.606L83.8166 109.131Z" fill="#FA825E"/>
<path d="M81.916 117.461C81.9635 117.461 82.01 117.435 82.0332 117.389C82.0701 117.317 82.9307 115.61 83.1218 114.117C83.1313 114.044 83.0806 113.979 83.0077 113.969C82.937 113.961 82.8694 114.011 82.8599 114.083C82.6741 115.531 81.8072 117.252 81.7977 117.27C81.765 117.334 81.7903 117.414 81.8558 117.446C81.8748 117.457 81.8959 117.461 81.916 117.461Z" fill="#DB5148"/>
<path d="M82.8316 119.373C82.8706 119.373 82.9097 119.355 82.935 119.322C83.4735 118.627 84.1577 117.305 84.1862 117.249C84.22 117.183 84.1947 117.104 84.1292 117.072C84.0669 117.037 83.9856 117.063 83.9518 117.127C83.9455 117.141 83.2497 118.484 82.727 119.161C82.6827 119.218 82.6932 119.3 82.7513 119.345C82.7745 119.364 82.8031 119.373 82.8316 119.373Z" fill="#DB5148"/>
<path d="M84.3573 119.784C84.3847 119.784 84.4122 119.776 84.4354 119.758C84.4671 119.734 85.2041 119.18 85.7309 118.019C85.7616 117.952 85.732 117.874 85.6655 117.844C85.6021 117.814 85.5219 117.843 85.4913 117.91C84.994 119.005 84.2855 119.54 84.2781 119.546C84.22 119.59 84.2084 119.672 84.2517 119.73C84.277 119.765 84.3171 119.784 84.3573 119.784Z" fill="#DB5148"/>
<path d="M85.6737 120.403C85.6959 120.403 85.717 120.398 85.7371 120.386C85.7719 120.367 86.5892 119.911 87.0791 119.078C87.116 119.015 87.096 118.934 87.0326 118.897C86.9692 118.863 86.889 118.881 86.8521 118.944C86.4001 119.712 85.6177 120.152 85.6104 120.155C85.547 120.191 85.5238 120.271 85.5586 120.334C85.5829 120.377 85.6273 120.403 85.6737 120.403Z" fill="#DB5148"/>
<path d="M74.2249 67.8586C74.4762 66.9728 74.8986 66.1344 75.5036 65.465C76.211 64.6826 77.137 64.1019 78.1443 63.7904C78.6237 63.6436 79.0555 63.5233 79.5285 63.6985C80.1029 63.9118 80.6245 64.2011 81.1313 64.5453C82.3118 65.3467 83.3022 66.3973 84.1955 67.5007C85.0159 68.5122 85.7676 69.5797 86.4466 70.6915C86.8742 71.3905 87.3271 72.0778 87.683 72.8191C87.9586 73.3913 88.4706 74.198 87.6281 74.4652C84.4911 75.4619 81.635 77.3297 79.462 79.8036C79.2297 80.0676 78.8739 80.3653 78.5719 80.1848C78.2763 80.0074 78.0947 79.4795 77.9278 79.1923C77.6818 78.7615 77.4347 78.3328 77.1877 77.9031C76.4771 76.6656 75.7654 75.4271 75.1435 74.1442C74.4741 72.7652 73.9177 71.3557 73.9409 69.7993C73.9515 69.1584 74.0444 68.4964 74.2249 67.8586Z" fill="#5B3650"/>
<path d="M27.6668 34.0417C28.2486 36.4069 31.8354 46.3182 33.17 48.3529C35.8487 52.4327 39.37 55.1569 43.5713 57.5125C46.4728 59.1406 49.3775 60.7688 52.3603 62.2438C53.6443 62.8784 55.1805 63.3958 55.869 64.7557C56.4993 65.9985 56.3304 67.4714 55.6863 68.6709C55.0359 69.8841 53.9209 71.0265 52.5715 71.4182C51.2232 71.8089 49.8463 71.3813 48.5972 70.8586C47.0377 70.2061 45.475 69.523 43.9567 68.7765C32.717 63.2543 24.7009 52.8709 21.4067 40.9481C21.3993 40.9217 21.4014 40.8974 21.4003 40.8732C21.2704 40.53 21.1459 40.1858 21.035 39.8374C20.7013 38.7847 20.45 37.7034 20.2927 36.6106C20.1671 35.7364 27.6668 34.0417 27.6668 34.0417Z" fill="#FA825E"/>
<path d="M57.3091 73.1519C58.1665 72.8162 58.9605 72.3146 59.5676 71.6473C60.2782 70.8671 60.766 69.8904 60.9783 68.8567C61.0786 68.3657 61.1567 67.9233 60.936 67.4703C60.6689 66.9192 60.33 66.4271 59.9382 65.9562C59.026 64.8602 60.0554 63.6418 58.7177 63.1645C57.0895 62.5817 51.8398 60.5196 51.0679 60.2377C50.4714 60.0202 49.6193 59.5883 49.4345 60.452C48.7472 63.6713 47.1655 66.6953 44.9133 69.0974C44.6726 69.355 44.4107 69.7373 44.6208 70.0203C44.8257 70.2969 45.3684 70.4278 45.6714 70.5651C46.1223 70.7689 46.5742 70.9727 47.0261 71.1764C48.3259 71.7635 49.6277 72.3516 50.9655 72.8468C52.4025 73.3789 53.8586 73.7971 55.4054 73.6229C56.0421 73.5511 56.6925 73.3937 57.3091 73.1519Z" fill="#5B3650"/>
<path d="M52.3467 77.069C52.4196 77.069 52.4787 77.0109 52.4787 76.938L52.4988 72.0716C52.4988 71.9998 52.4397 71.9396 52.3668 71.9396C52.2939 71.9396 52.2348 71.9987 52.2348 72.0705L52.2147 76.937C52.2147 77.0098 52.2739 77.069 52.3467 77.069Z" fill="#24142C"/>
<path d="M61.6614 51.2088C61.7142 50.304 61.8124 49.4001 61.8631 48.4942C61.9306 47.2842 62.0373 46.0668 62.3255 44.8863C62.8893 42.5814 64.3813 40.6111 66.7707 39.9882C68.062 39.6513 69.5318 39.8562 70.8221 40.1244C71.9318 40.3546 72.8588 40.7062 73.6655 41.5097C74.9009 42.7377 75.528 44.5231 75.3496 46.2568C75.2313 47.4077 74.9695 48.6188 74.4849 49.6736C74.0319 50.6587 73.3825 51.5372 72.7522 52.4136C72.1102 53.309 71.3954 54.2138 71.0892 55.2908C70.5581 57.1544 70.7165 59.3263 70.9435 61.23C71.0248 61.9058 71.237 62.6206 71.2022 63.3407C71.1842 63.7177 70.7418 63.9077 70.4504 64.0407C69.195 64.6172 67.8266 64.8559 66.454 64.6563C65.8669 64.5718 65.2893 64.4156 64.7392 64.1917C64.3802 64.046 63.5862 63.7768 63.6422 63.2742C63.6422 63.2689 63.6432 63.2626 63.6443 63.2562C63.8903 62.0145 64.224 60.7929 64.4742 59.5523C64.7308 58.281 64.829 57.0161 64.8522 55.7205C64.4045 55.6625 63.9558 55.597 63.525 55.4587C63.0815 55.3172 62.6444 55.1007 62.3276 54.7513C61.6667 54.0227 61.6097 52.9331 61.6287 52.0007C61.6339 51.7368 61.6456 51.4728 61.6614 51.2088Z" fill="#FA825E"/>
<path d="M69.0842 46.2252C69.1106 46.5504 69.043 46.8196 68.8266 46.8376C68.6112 46.8555 68.3282 46.6127 68.3029 46.2885C68.2765 45.9633 68.5383 45.7764 68.7537 45.7585C68.9702 45.7416 69.0578 45.9 69.0842 46.2252Z" fill="#5B3650"/>
<path d="M64.8247 45.977C64.8511 46.3011 64.7825 46.5725 64.566 46.5894C64.3506 46.6063 64.0687 46.3645 64.0423 46.0393C64.017 45.7151 64.2778 45.5282 64.4942 45.5113C64.7096 45.4945 64.7983 45.6518 64.8247 45.977Z" fill="#5B3650"/>
<path d="M65.9313 49.9968C66.3462 49.9968 66.7316 49.8596 66.9935 49.6727C67.0526 49.6294 67.0663 49.547 67.0241 49.4879C66.9808 49.4288 66.8974 49.4161 66.8393 49.4573C66.5753 49.6473 65.8996 49.9145 65.2386 49.566C65.1742 49.5322 65.094 49.5576 65.0612 49.622C65.0274 49.6864 65.0517 49.7656 65.1161 49.7994C65.3812 49.9388 65.6631 49.9968 65.9313 49.9968Z" fill="#DB5148"/>
<path d="M65.5787 48.603C65.5819 48.603 65.5851 48.603 65.5882 48.603L66.926 48.5006C66.9989 48.4953 67.0538 48.432 67.0485 48.3591C67.0432 48.2873 66.9778 48.2271 66.907 48.2377L65.7466 48.3264L66.3717 45.5389C66.3875 45.4682 66.3432 45.3974 66.2714 45.3816C66.1985 45.3657 66.1299 45.4101 66.1141 45.4808L65.4499 48.4425C65.4415 48.4827 65.451 48.526 65.4784 48.5576C65.5038 48.5861 65.5407 48.603 65.5787 48.603Z" fill="#DB5148"/>
<path d="M65.4196 55.8271C65.7574 55.8271 66.2526 55.7902 66.6824 55.5843C66.7489 55.5537 66.7763 55.4745 66.7447 55.408C66.713 55.3425 66.6328 55.315 66.5694 55.3457C66.0425 55.597 65.3837 55.5664 65.1377 55.5548C65.0954 55.5537 65.0637 55.5516 65.0426 55.5516C64.9698 55.5516 64.9106 55.6107 64.9106 55.6836C64.9106 55.7564 64.9698 55.8155 65.0426 55.8155C65.0606 55.8155 65.0891 55.8177 65.125 55.8187C65.1957 55.8219 65.2971 55.8271 65.4196 55.8271Z" fill="#DB5148"/>
<path d="M76.8195 43.9162C76.6759 43.4167 76.4193 42.8349 75.9907 42.5161C75.8302 42.3968 75.6876 42.3366 75.5493 42.3081C75.8734 41.8393 75.9473 41.2068 75.7869 40.5912C75.5166 39.548 74.6244 38.9863 73.6044 38.8248C72.3289 38.6231 71.1199 39.1912 69.8519 39.2355C68.7875 39.2725 67.7158 39.037 66.7698 38.5471C66.415 38.3623 66.1542 38.2567 65.771 38.3845C65.3951 38.5091 65.0297 38.6706 64.6824 38.8617C64.0034 39.2355 63.3889 39.7286 62.88 40.3157C62.653 40.5775 62.2148 41.2037 62.1229 41.5373C61.9297 42.2363 61.8653 43.1887 62.5653 43.3069C63.3277 43.4368 64.8302 42.533 65.5619 42.3841C66.2788 42.2394 67.398 42.0494 68.097 42.3218C68.0917 42.3609 68.0706 42.3767 68.0548 42.4095C68.0463 42.4264 68.0442 42.4327 68.0453 42.4348C68.0421 42.438 68.04 42.439 68.0305 42.4485C67.7327 42.779 67.3611 42.9511 66.9746 43.1496C66.7941 43.2436 66.5449 43.5941 66.9482 43.6142C67.4836 43.6427 68.0094 43.6459 68.5394 43.5667C69.0399 43.4917 69.5245 43.3301 69.9955 43.1507C70.0725 43.1221 70.1517 43.0873 70.2299 43.0567C70.1201 43.5962 70.1158 44.1696 70.156 44.6775C70.1992 45.2159 70.2753 45.7745 70.4484 46.2887C70.5963 46.7258 70.762 47.1534 70.9003 47.5948C71.0366 48.034 71.2255 47.8841 71.6057 47.8081C71.8316 47.7637 72.6246 47.7912 72.6499 48.1101C72.67 48.3592 72.6056 48.6105 72.5274 48.8439C72.3511 49.3613 72.0544 49.8322 71.8432 50.3358C71.4937 51.1731 71.2994 52.0685 71.2013 52.9681C71.1516 53.4211 71.1273 53.8761 71.1199 54.3312C71.1136 54.6786 70.9668 55.3659 71.2498 55.5824C71.2308 55.5665 71.2266 55.5645 71.2372 55.575C71.2435 55.5813 71.2498 55.5887 71.2562 55.594C71.6141 55.8717 71.7609 55.2984 71.8538 55.0692C72.0069 55.0978 72.1621 54.9975 72.2434 54.8634C72.5929 54.2943 72.5823 53.5045 72.9096 52.9016C73.2433 52.2892 73.6477 51.719 74.0637 51.1615C74.8672 50.0845 75.7288 49.0276 76.2694 47.7859C76.7667 46.6414 77.1732 45.1515 76.8195 43.9162Z" fill="#5B3650"/>
<path d="M70.8415 49.2397C70.9513 48.5755 71.5056 47.7858 71.8868 47.4701C72.3999 47.0445 73.1696 46.8186 73.782 47.186C74.9952 47.9156 73.3903 49.8426 72.7209 50.2776C72.4707 50.4391 71.7368 50.5511 71.4444 50.4983C70.8034 50.3811 70.7612 49.7264 70.8415 49.2397Z" fill="#FA825E"/>
<path d="M48.3111 1.00037C48.3111 0.897341 48.3332 0.91311 48.3111 1.00037V1.00037Z" fill="#FFCA52"/>
<path d="M15.1444 42.5571C15.3587 42.2879 15.573 42.0197 15.7874 41.7515C20.77 35.5135 26.0894 29.589 30.8989 23.2127C34.096 18.9755 37.667 14.7425 41.0637 10.5508C42.8407 8.35772 44.5955 6.14678 46.2796 3.8809C46.9987 2.91161 47.8064 1.14616 48.7493 0.42923C49.7059 -0.298256 49.9995 0.0185165 51.1419 0.49894C52.373 1.01736 53.4458 1.81667 54.6463 2.38366C56.1002 3.07314 55.3221 4.51966 54.6146 5.56285C51.3362 10.404 47.9236 14.827 44.1848 19.3165C40.0575 24.2738 35.8245 29.1456 31.8999 34.2697C27.5539 39.9407 23.1932 45.6001 18.9444 51.344C16.8527 54.1706 14.7875 57.0182 12.7666 59.8955C11.7593 61.3304 10.7615 62.7738 9.7774 64.2256C9.07103 65.2677 8.57584 67.5811 7.33098 67.6719C4.84231 67.8524 0.725491 63.0768 0.465748 62.4644C0.283085 62.0336 0.346432 61.5363 0.672695 61.1245C5.55395 54.9804 10.2631 48.7012 15.1444 42.5571Z" fill="#FFCA52"/>
<path d="M51.3591 3.0086C50.7869 5.08865 49.2147 6.81182 47.8368 8.37134C47.0871 9.21814 46.3364 10.0913 45.4843 10.8368C44.6639 11.5537 43.8625 12.2949 43.1329 13.1058C39.8882 16.7127 37.4038 20.9741 34.3418 24.7362C32.8129 26.6145 31.19 28.3968 29.6115 30.2298C28.0013 32.0966 26.4429 34.0056 24.8242 35.8671C23.2098 37.7233 21.6345 39.6196 20.113 41.555C18.5904 43.4936 17.278 45.599 15.8325 47.5988C14.3416 49.6619 13.0207 51.8296 11.2743 53.6869C9.62613 55.4407 7.88292 57.148 6.59054 59.2059C6.36247 59.5691 5.77541 59.2048 5.98236 58.8258C6.97065 57.0118 8.37917 55.4839 9.7539 53.9741C11.2838 52.2952 12.667 50.5636 13.8802 48.6272C15.1568 46.5894 16.4692 44.6645 18.0488 42.8569C19.6653 41.0081 21.1446 39.0294 22.7241 37.1468C24.2752 35.2969 25.7819 33.3974 27.429 31.6352C29.1174 29.8297 30.5924 27.8425 32.1614 25.9325C35.2224 22.2021 37.8652 18.1349 40.9093 14.3919C42.5374 12.39 44.1835 10.3595 45.9373 8.47164C46.7978 7.5467 47.6351 6.60064 48.4207 5.60918C49.2041 4.62089 49.8587 3.54076 50.6601 2.56832C50.9157 2.25684 51.4594 2.64222 51.3591 3.0086Z" fill="#FFB537"/>
<path fill-rule="evenodd" clip-rule="evenodd" d="M21.7097 32.6015C22.3284 31.7082 22.9936 30.7706 23.8013 30.0378C24.4697 29.4297 25.363 28.9736 26.2911 29.1573C27.2255 29.3399 27.8242 30.2015 28.2655 30.9786C28.6847 31.7188 28.8241 32.8919 27.8294 33.2424C27.7883 33.2572 27.7503 33.2572 27.7144 33.2529C27.6996 33.3258 27.6806 33.3976 27.6521 33.4683C27.5 33.8548 27.1769 34.028 26.8369 34.0132C26.8908 34.256 26.8707 34.5073 26.7197 34.7354C26.4399 35.1546 25.8444 35.2411 25.5361 34.8885C25.1761 34.4756 24.5457 34.1811 24.1561 34.0491C24.3683 34.3363 24.7991 35.0226 24.948 35.3414C25.1211 35.711 25.3651 36.0605 25.0926 36.429C24.7579 36.8809 24.2944 36.6127 23.984 36.2981C23.5954 35.9042 23.2618 35.4587 22.8521 35.0849C22.6525 34.9043 22.4372 34.7407 22.1932 34.6224C22.0972 34.576 21.9863 34.5612 21.8712 34.5189C21.6896 34.747 21.3602 34.9698 21.0466 35.3478C20.5577 35.0353 20.8439 34.255 20.9283 34.0184C21.1099 33.5064 21.4024 33.046 21.7097 32.6015Z" fill="#FA825E"/>
<path fill-rule="evenodd" clip-rule="evenodd" d="M29.3035 34.2886C29.5981 34.1007 29.8177 34.2812 30.0848 34.4765C30.8503 35.0351 31.4997 35.6042 31.4891 36.4732C31.4796 37.3949 30.9855 38.0411 30.2907 38.5786C29.7776 38.9756 28.9466 39.6894 28.2476 39.4254C28.0639 39.3568 28.009 39.3018 28.1822 39.0917C28.6372 38.5363 29.8082 37.0455 29.8082 37.0455C29.7184 36.6326 29.4534 36.319 29.2264 35.865C28.9603 35.3339 28.6668 34.693 29.3035 34.2886Z" fill="#FA825E"/>
<path d="M27.8103 32.6511C27.8219 32.6511 27.8346 32.649 27.8472 32.6448C27.9169 32.6247 27.957 32.5519 27.937 32.4822C27.7342 31.7769 27.0595 30.9808 26.0364 30.2395C25.9794 30.1963 25.896 30.2089 25.8527 30.2691C25.8094 30.3282 25.8231 30.4106 25.8823 30.4528C26.842 31.1497 27.4999 31.9152 27.6836 32.555C27.6994 32.6131 27.7533 32.6511 27.8103 32.6511Z" fill="#DB5148"/>
<path d="M26.8032 33.501C26.8296 33.501 26.857 33.4936 26.8803 33.4767C26.9394 33.4334 26.9521 33.351 26.9098 33.2919C26.4833 32.7038 26.0482 32.1769 25.0357 31.6923C24.9691 31.6627 24.891 31.6891 24.8593 31.7546C24.8277 31.82 24.8562 31.8992 24.9216 31.9309C25.8772 32.3881 26.2911 32.8886 26.6965 33.4471C26.7219 33.482 26.762 33.501 26.8032 33.501Z" fill="#DB5148"/>
</svg>
