<svg width="124" height="95" viewBox="0 0 124 95" fill="none" xmlns="http://www.w3.org/2000/svg">
<path d="M99.1359 15.1809C98.8664 14.3518 97.1775 12.0548 94.6241 14.4999C93.308 15.7598 89.6546 20.5649 87.9479 21.9728C87.09 22.6783 86.2329 23.7852 86.3627 24.9894C86.3993 25.3308 86.5104 25.6355 86.6761 25.8974C88.8353 29.3172 92.9327 24.8695 94.5189 23.3281C96.4248 21.4754 96.9657 21.2802 98.4507 19.078C99.0559 18.181 99.4768 16.2303 99.1359 15.1809Z" fill="#FF5778"/>
<path d="M79.402 34.8173C78.7076 34.6466 78.0312 34.2213 77.6555 33.7275C77.488 33.5072 77.2787 33.3745 77.1111 33.1744C77.0266 33.0734 76.9826 32.9382 76.9746 32.8079C76.9593 32.5545 77.0756 32.3055 77.1949 32.0895C77.1967 32.0858 77.1998 32.084 77.2022 32.0809C77.4464 31.4244 78.1567 30.7917 78.7305 30.2471C79.749 29.2846 80.8888 28.4604 81.9004 27.49C83.1983 26.2454 84.6875 25.1532 85.9209 23.8566C89.1414 20.4705 93.3918 23.528 90.4952 26.1469C87.8906 28.5014 85.2695 30.8358 82.6402 33.1615C82.3717 33.3989 82.1038 33.6357 81.8353 33.8725C81.4766 34.1895 81.1518 34.6007 80.6946 34.78C80.3066 34.9317 79.8506 34.928 79.402 34.8173Z" fill="#FFCBB4"/>
<path d="M85.7351 24.0554C86.7822 24.0762 89.1855 27.3045 88.912 27.5542C88.6391 27.8032 88.6016 27.8326 88.6016 27.8326C88.6016 27.8326 88.7039 27.8852 88.8124 27.9556C89.7316 27.3467 90.7912 26.3261 91.4375 25.5399C92.1196 24.7101 92.3902 23.971 92.0812 22.9051C91.7551 21.7823 90.7879 21.4262 89.6922 21.4592C89.0026 21.4794 88.184 21.7566 87.1206 22.6077C86.987 22.7148 86.8388 22.4682 86.7121 22.5214C86.1638 22.7527 85.2458 23.2441 84.9621 23.7746C84.9434 23.8095 85.1442 24.4519 85.3459 24.4923C85.3459 24.4923 85.7432 24.0554 85.7351 24.0554Z" fill="#FF5778"/>
<path d="M88.6497 27.8513C88.9012 28.0134 89.0176 28.1542 89.4968 27.9877C89.7104 27.9131 90.6453 27.3532 90.6718 27.1959C90.6988 27.0381 90.619 26.1527 90.619 26.1527L88.6497 27.8513Z" fill="#FF5778"/>
<path d="M90.3945 25.958C90.4064 25.958 90.4186 25.9556 90.4298 25.9494C90.4674 25.9305 90.482 25.884 90.4623 25.8466C90.1875 25.3186 89.4453 24.3573 87.4708 22.7738C87.1386 22.5082 86.9381 22.3491 86.6011 22.4758C86.5616 22.4911 86.542 22.5357 86.5568 22.5749C86.5716 22.6147 86.6161 22.6324 86.6556 22.619C86.8993 22.5247 87.0225 22.6116 87.3747 22.8931C89.3292 24.4601 90.0589 25.4024 90.3269 25.917C90.3404 25.9433 90.3672 25.958 90.3945 25.958Z" fill="#E03A5D"/>
<path d="M106.077 13.0389C104.856 12.9594 99.6682 13.0389 99.6682 13.0389L98.7222 13.8252H106.948L106.077 13.0389Z" fill="#FF5778"/>
<path d="M120.283 89.3997C119.751 88.3956 119.713 87.2526 119.574 86.1395C119.487 85.4382 119.191 82.9546 118.966 82.2865C118.936 82.2008 116.887 82.6812 116.203 82.7601C115.497 82.842 113.093 82.924 113.047 83.0366C113 83.1492 114.3 88.0896 114.868 90.1743C116.701 90.1724 118.653 90.1492 120.55 89.8457C120.462 89.724 120.378 89.5797 120.283 89.3997Z" fill="#FFCBB4"/>
<path d="M122.456 90.6772C122.769 90.8466 123.005 91.1722 123.012 91.5295C123.015 91.7405 123.016 91.8146 122.202 91.8165C121.984 91.817 121.617 91.8244 121.165 91.8354C121.234 91.3251 121.398 90.8345 121.662 90.4171C121.935 90.4771 122.211 90.5445 122.456 90.6772Z" fill="#6F5270"/>
<path d="M120.55 89.8458C120.569 89.8716 120.587 89.8971 120.607 89.9211C120.796 90.1505 121.021 90.276 121.43 90.3666C121.506 90.3835 121.584 90.4001 121.662 90.4172C121.398 90.8346 121.234 91.3253 121.165 91.8356C119.438 91.8784 116.446 91.9701 115.503 91.8956C115.414 91.8889 115.358 91.8351 115.347 91.7457C115.217 91.3975 115.053 90.8511 114.881 90.2184C114.877 90.2038 114.872 90.1885 114.868 90.1744C116.701 90.1725 118.653 90.1493 120.55 89.8458Z" fill="#5B3650"/>
<path d="M120.775 89.4476C120.799 89.8457 120.625 90.2693 120.296 90.4576C120.249 90.4839 120.197 90.5066 120.145 90.5011C119.866 90.4699 120.004 89.4817 120.07 89.3042C120.132 89.1378 120.359 89.0075 120.516 89.0178C120.725 89.0307 120.761 89.2277 120.774 89.4284C120.774 89.4347 120.774 89.4406 120.775 89.4476Z" fill="#5B3650"/>
<path d="M92.2083 90.4718C92.2274 90.4668 92.2466 90.4613 92.2657 90.4573C92.3183 90.4443 92.3711 90.4314 92.4229 90.418C92.623 90.3671 92.8252 90.3236 92.9992 90.2295C93.1056 90.1714 93.2017 90.0942 93.28 89.9842C93.2992 89.9572 93.3106 89.896 93.3169 89.8098C95.0227 90.0387 96.797 89.9634 98.5793 89.9431C98.5793 89.9706 98.5793 89.9988 98.5793 90.0258C98.5826 90.5165 98.5781 90.9594 98.5623 91.3064C98.5569 91.4234 98.5504 91.5297 98.5422 91.6227C98.5348 91.7114 98.4799 91.7678 98.3914 91.7776C97.4985 91.8736 94.7572 91.8724 93.004 91.8784C92.8635 91.3567 92.6106 90.8487 92.2083 90.4718Z" fill="#5B3650"/>
<path d="M90.9091 91.3816C90.9825 91.1216 91.1699 90.8945 91.4065 90.7581C91.6523 90.6149 91.9314 90.5396 92.2082 90.4717C92.6105 90.8486 92.8634 91.3565 93.0039 91.8783C92.9599 91.8783 92.9135 91.8783 92.8713 91.8783C92.3538 91.8809 91.9333 91.8833 91.6922 91.8893C90.8783 91.9115 90.8771 91.8367 90.8747 91.6264C90.8738 91.5425 90.8867 91.4605 90.9091 91.3816Z" fill="#6F5270"/>
<path d="M92.832 84.8546C92.8368 84.7652 98.8724 84.558 98.8724 84.558C98.8724 84.558 98.5734 87.8069 98.5794 89.943C96.7971 89.9633 95.0228 90.0387 93.317 89.8097C93.3669 89.0706 92.9704 86.418 92.9541 86.4188C92.897 85.9015 92.8045 85.3759 92.832 84.8546Z" fill="#FFCBB4"/>
<path d="M92.6946 89.6753C92.6315 89.4851 92.5909 89.2893 92.779 89.1987C92.9207 89.1301 93.18 89.1657 93.2998 89.2967C93.4276 89.4361 93.9277 90.3001 93.6805 90.433C93.6339 90.4586 93.5777 90.4574 93.5242 90.45C93.149 90.3993 92.8284 90.0719 92.7008 89.6937C92.6986 89.6882 92.6967 89.6822 92.6946 89.6753Z" fill="#5B3650"/>
<path d="M116.044 55.1185C115.27 50.2363 114.06 45.4386 112.884 40.6414C111.926 36.7303 111.868 32.6019 110.341 28.8602C109.534 26.8802 107.95 26.8416 105.825 27.2314C104.081 27.552 102.318 27.798 101.133 28.9924C100.132 30.0014 99.9081 31.3133 100.183 32.5829C100.935 36.0523 102.032 39.7065 102.929 43.1844C103.83 46.6733 104.596 49.95 105.683 53.4329C106.788 56.9744 112.407 83.1446 113.21 86.8832C113.217 87.1065 116.138 86.5981 118.426 86.0266C119.437 85.7738 120.474 85.8694 121.03 85.4705C121.409 85.1994 116.834 60.1053 116.044 55.1185Z" fill="#FFC566"/>
<path d="M104.401 27.1497C103.073 26.1168 101.292 26.0991 99.5214 26.0055C97.3643 25.891 96.3671 25.9932 95.82 28.0602C94.7863 31.967 94.6907 36.208 94.2418 40.2103C93.6916 45.1188 91.2987 85.1292 91.4297 85.6345C91.5381 86.0499 93.9506 85.8592 94.5697 85.9307C96.9123 86.2037 99.875 86.3334 99.8524 86.1111C100.169 82.3005 102.383 55.6256 103.025 51.9707C103.656 48.3783 103.995 45.0295 104.441 41.4543C104.885 37.8894 105.503 34.1251 105.804 30.5878C105.914 29.2937 105.523 28.021 104.401 27.1497Z" fill="#FFC566"/>
<path d="M111.22 27.3868C111.213 27.8977 111.204 28.4117 111.198 28.922C111.195 29.0934 111.324 29.9684 111.097 29.9892C105.568 30.5001 100.138 30.4915 94.6184 29.9892C94.3921 29.9684 94.5207 29.0934 94.5178 28.922C94.5114 28.4117 94.5023 27.8977 94.4961 27.3868C94.4686 25.5224 94.432 23.666 94.3649 21.8003C94.3096 20.3851 94.3343 18.9716 94.3431 17.5563C94.3462 16.7792 94.3096 16.0211 94.5664 15.2746C94.759 14.7098 95.0984 14.1683 95.6457 13.893C96.2392 13.5932 96.9517 13.5748 97.6 13.5167C97.973 13.4836 98.3461 13.4561 98.7221 13.4316C101.444 13.245 104.226 13.245 106.948 13.4286C107.339 13.453 107.728 13.4836 108.116 13.5167C108.764 13.5748 109.476 13.5932 110.07 13.893C110.617 14.1683 110.953 14.7098 111.149 15.2746C111.406 16.0211 111.369 16.7792 111.373 17.5563C111.381 18.9716 111.406 20.3851 111.351 21.8003C111.284 23.666 111.247 25.5224 111.22 27.3868Z" fill="#5B3650"/>
<path d="M103.339 46.3252C103.343 46.3252 103.346 46.3252 103.35 46.3246C103.391 46.3185 103.421 46.2793 103.415 46.2377L102.327 38.4643C102.321 38.4234 102.285 38.3921 102.241 38.3989C102.199 38.405 102.17 38.4442 102.175 38.4858L103.263 46.2591C103.268 46.2977 103.301 46.3252 103.339 46.3252Z" fill="#FF8C49"/>
<path d="M106.948 13.4285C106.055 14.6302 105.012 15.7396 103.575 16.2627C102.74 16.5626 101.805 16.6115 100.963 16.3184C100.101 16.0149 99.4497 15.37 99.0738 14.544C98.9088 14.1866 98.7955 13.8134 98.7222 13.4316C101.444 13.2449 104.226 13.2449 106.948 13.4285Z" fill="#FFCBB4"/>
<path d="M111.664 21.7844C111.707 20.3685 111.588 18.7984 111.566 17.3825C111.557 16.6061 111.587 15.8473 111.324 15.1033C111.127 14.5391 110.782 14.0007 110.233 13.7308C109.637 13.4365 107.949 13.1728 107.301 13.1202C106.927 13.0896 106.554 13.0657 106.178 13.0443C106.145 13.0425 106.111 13.0412 106.078 13.0394C105.816 13.9138 105.523 16.7425 105.451 17.1739C104.951 20.1703 104.81 23.223 105.028 26.253C105.288 29.857 105.941 35.244 106.173 38.8517C106.223 39.6343 106.264 40.4187 106.295 41.2031C107.28 41.1389 112.453 41.2307 113.431 41.1334C113.657 41.1101 113.521 40.2364 113.523 40.065C113.525 39.5547 111.612 23.6501 111.664 21.7844Z" fill="#FF5778"/>
<path d="M94.1567 21.8315C94.102 20.4156 94.2074 18.8449 94.2167 17.429C94.2196 16.6526 94.1827 15.8938 94.4397 15.1479C94.6326 14.5826 94.972 14.041 95.5191 13.7663C96.1123 13.4659 97.7976 13.1887 98.4459 13.1312C98.8192 13.0975 99.192 13.07 99.5683 13.0455C99.6013 13.0431 99.6354 13.0412 99.6682 13.0388C99.3732 13.5919 99.1684 14.1977 99.0379 14.8218C98.8006 15.9562 98.7707 17.1219 98.7401 18.2765C98.7002 19.7646 98.6399 21.2521 98.6031 22.7414C98.5635 24.3678 97.7539 37.2914 97.6636 38.9165C97.6198 39.6997 97.5856 40.4848 97.561 41.2692C96.576 41.2129 94.6195 41.4056 93.6402 41.3163C93.4141 41.2955 93.5424 40.4205 93.5395 40.2492C93.5334 39.7389 93.5241 39.2249 93.5181 38.7146C93.4906 36.849 94.2244 23.6966 94.1567 21.8315Z" fill="#FF5778"/>
<path d="M94.1516 22.583C94.1925 22.583 94.2265 22.5506 94.2281 22.5096L94.4189 17.5588C94.4203 17.5166 94.3876 17.4811 94.3452 17.4793C94.3441 17.4793 94.3431 17.4793 94.3424 17.4793C94.3015 17.4793 94.2676 17.5117 94.2659 17.5527L94.0751 22.5035C94.0737 22.5457 94.1065 22.5812 94.1488 22.583C94.1495 22.583 94.151 22.583 94.1516 22.583Z" fill="#E03A5D"/>
<path d="M111.098 14.4605C110.134 13.3866 108.826 13.561 107.602 13.9227C106.917 14.1258 106.97 15.002 106.697 15.6665C106.005 17.3516 104.372 24.1068 103.382 26.0856C102.884 27.0781 102.549 28.4377 103.156 29.4865C103.327 29.7833 103.552 30.0164 103.81 30.1889C107.17 32.44 109.114 26.7147 109.939 24.6618C110.93 22.1959 111.586 20.9165 112.051 18.3013C112.241 17.236 111.835 15.2816 111.098 14.4605Z" fill="#FF5778"/>
<path d="M105.135 20.8623C105.168 20.8623 105.198 20.8409 105.208 20.8072L106.214 17.3666C106.225 17.3262 106.202 17.284 106.162 17.2718C106.122 17.2614 106.079 17.2834 106.067 17.3238L105.061 20.7644C105.049 20.8054 105.073 20.8476 105.113 20.8592C105.12 20.8611 105.127 20.8623 105.135 20.8623Z" fill="#E03A5D"/>
<path d="M97.7066 23.9575C97.7365 23.9575 97.7501 23.9679 97.7616 23.9851C97.7824 24.0163 97.7965 24.0744 97.8034 24.1576C97.8132 24.2794 97.7982 24.4244 97.7238 24.4299C97.6952 24.4385 97.6452 24.4146 97.6056 24.381C97.5465 24.3302 97.5088 24.258 97.5028 24.1821C97.4913 24.0389 97.6077 23.9649 97.6945 23.9582C97.6985 23.9575 97.7028 23.9575 97.7066 23.9575ZM97.7176 24.5835C97.7238 24.5835 97.7303 24.5829 97.7365 24.5829C97.8947 24.57 97.977 24.406 97.9557 24.146C97.9466 24.0328 97.9253 23.9545 97.8885 23.8994C97.856 23.8517 97.7929 23.8009 97.6818 23.8052C97.5047 23.8199 97.3323 23.9692 97.3505 24.1943C97.3596 24.31 97.4165 24.4207 97.5064 24.4978C97.5716 24.5529 97.6473 24.5835 97.7176 24.5835Z" fill="#E03A5D"/>
<path d="M98.1022 17.4374C98.1117 17.5592 98.0966 17.7036 98.0225 17.7097C97.9879 17.7183 97.9322 17.6889 97.8894 17.6467C97.8387 17.5971 97.807 17.5298 97.8012 17.4619C97.7895 17.3181 97.9062 17.2441 97.9927 17.2373C98.029 17.2306 98.0474 17.2453 98.0603 17.2643C98.0811 17.2955 98.0952 17.3542 98.1022 17.4374ZM98.0159 17.8633C98.0221 17.8633 98.0285 17.8627 98.0352 17.8627C98.111 17.8559 98.2843 17.8009 98.2544 17.4252C98.2453 17.3126 98.224 17.2343 98.187 17.1792C98.1547 17.1315 98.0938 17.0764 97.9803 17.0844C97.8029 17.0997 97.6306 17.249 97.649 17.4735C97.6576 17.5794 97.7047 17.6797 97.7821 17.7556C97.8524 17.8247 97.9363 17.8633 98.0159 17.8633Z" fill="#E03A5D"/>
<path d="M96.8681 38.6073C96.8982 38.6073 96.9119 38.6177 96.9231 38.6349C96.9441 38.6661 96.9583 38.7248 96.9649 38.8074C96.9747 38.9298 96.9599 39.0742 96.8856 39.0803C96.8502 39.0907 96.7952 39.0595 96.7524 39.0173C96.702 38.9677 96.6703 38.9004 96.6645 38.8319C96.6528 38.6887 96.7694 38.6147 96.856 38.6079C96.86 38.6073 96.8643 38.6073 96.8681 38.6073ZM96.8787 39.2339C96.8851 39.2339 96.8916 39.2333 96.898 39.2333C97.0565 39.2198 97.1387 39.0564 97.1174 38.7958C97.1081 38.6826 97.0868 38.6043 97.0502 38.5498C97.0177 38.5015 96.9573 38.4458 96.8435 38.455C96.6661 38.4703 96.4938 38.6196 96.512 38.8441C96.5206 38.95 96.5679 39.0503 96.6453 39.1262C96.7156 39.1953 96.7995 39.2339 96.8787 39.2339Z" fill="#E03A5D"/>
<path d="M107.184 29.8794C107.198 29.8794 107.212 29.8751 107.225 29.8665C108.441 29.076 110.058 25.5381 111.781 19.9051C111.793 19.8647 111.771 19.8182 111.731 19.8066C111.693 19.7919 111.649 19.8127 111.637 19.8537L111.635 19.861C109.923 25.4592 108.327 28.9671 107.142 29.7387C107.106 29.7613 107.096 29.809 107.12 29.8445C107.134 29.8665 107.159 29.8794 107.184 29.8794Z" fill="#E03A5D"/>
<path d="M105.468 0.950344C104.908 0.444318 104.166 0.12614 103.421 0.071682C103.126 0.0502663 102.83 0.0716772 102.536 0.066783C102.186 0.0600519 101.835 0.0692291 101.486 0.112062C100.89 0.184875 100.302 0.328061 99.7396 0.538548C99.267 0.715995 98.7223 0.996235 98.473 1.46249C98.2213 1.93242 98.0956 2.46353 98.0617 2.99281C98.0449 3.25775 98.1023 3.84332 98.1176 4.08073C98.1269 4.23064 98.1429 4.39891 98.0834 4.54454C98.0174 4.70669 97.7983 5.08789 97.706 5.22923C97.5788 5.42626 97.7107 5.56577 97.8334 5.5676C97.9146 5.56944 97.9957 5.56271 98.0765 5.55598C98.197 5.54619 98.2053 5.57189 98.2134 5.68876C98.2553 6.29085 98.2899 6.89662 98.3549 7.49748C98.4056 7.96435 98.5373 8.45997 98.9173 8.76958C99.2163 9.01311 99.5825 9.13978 99.957 9.21198C100.04 9.2285 101.012 9.37534 101.014 9.31966C100.989 9.97009 101.022 10.6089 100.928 11.2538C100.862 11.7042 100.797 12.1539 100.732 12.6036C100.681 12.9555 100.501 13.519 100.674 13.8531C100.827 14.1468 101.414 14.2453 101.7 14.3218C102.373 14.5029 103.082 14.4215 103.753 14.2747C104.088 14.2019 104.979 14.022 104.931 13.527C104.896 13.1513 104.632 11.8155 104.586 11.4423C104.458 10.4039 104.444 9.33496 104.693 8.31373C104.935 7.32126 105.686 6.51113 106.11 5.59024C106.555 4.62286 106.606 3.38931 106.344 2.36563C106.203 1.81065 105.885 1.32788 105.468 0.950344Z" fill="#FFCBB4"/>
<path d="M98.7605 4.50537C98.7988 4.50537 98.8363 4.4864 98.858 4.45091C98.9876 4.23981 99.2163 4.14559 99.5196 4.17129C99.5906 4.1823 99.6384 4.13029 99.6444 4.06787C99.6504 4.00485 99.6042 3.94917 99.5411 3.94305C99.1477 3.90939 98.8389 4.04462 98.6627 4.33037C98.6295 4.38483 98.6462 4.45519 98.7002 4.48824C98.7189 4.49986 98.7397 4.50537 98.7605 4.50537Z" fill="#5B3650"/>
<path d="M98.9497 5.90771C98.9521 5.90771 98.9548 5.90771 98.9576 5.9071C99.2638 5.8759 99.6644 5.65378 99.8205 5.24015C99.8353 5.20099 99.8157 5.15632 99.7758 5.14164C99.738 5.12695 99.6926 5.14714 99.6776 5.1863C99.5241 5.59198 99.1295 5.73638 98.9421 5.75535C98.9001 5.75963 98.8695 5.79696 98.8735 5.83918C98.8778 5.87834 98.9111 5.90771 98.9497 5.90771Z" fill="#D97779"/>
<path d="M101.206 9.43506C101.21 9.43506 101.215 9.43506 101.219 9.43445C101.525 9.37754 101.955 9.19948 102.184 9.09852C102.223 9.08139 102.24 9.03612 102.223 8.99757C102.206 8.95963 102.16 8.9425 102.123 8.95841C101.899 9.05631 101.482 9.23008 101.191 9.28331C101.15 9.29127 101.123 9.33165 101.13 9.37265C101.137 9.40936 101.169 9.43506 101.206 9.43506Z" fill="#D97779"/>
<path d="M97.682 1.66123C97.7346 1.4587 97.9497 1.35101 98.1421 1.2684C98.0455 1.20538 97.9473 1.14174 97.8754 1.05179C97.8029 0.962458 97.7604 0.841305 97.7912 0.730555C97.828 0.598388 97.9597 0.513336 98.0919 0.478459C98.2243 0.44297 98.3639 0.446035 98.4989 0.423396C98.8207 0.368938 99.1 0.172521 99.4115 0.0752306C99.8461 -0.0612183 100.3 0.00425434 100.743 0.138257C101.011 0.127243 101.397 0.110106 101.908 0.0886908C102.877 0.0476942 103.857 -0.128522 104.787 0.232489C104.94 0.292454 105.089 0.366487 105.231 0.449702C105.259 0.321819 105.351 0.21964 105.496 0.232489C105.671 0.248398 105.802 0.4289 105.875 0.573304C105.949 0.719544 105.977 0.876794 105.968 1.0365C106.144 1.22496 106.299 1.43177 106.424 1.65756C106.878 2.47564 106.865 3.46506 106.676 4.35779C106.529 5.04983 106.249 5.37107 105.903 5.9903C105.656 6.43147 105.371 6.85121 105.126 7.29299C104.921 7.66134 104.832 8.06397 104.733 8.46965C104.7 8.60732 104.477 8.63974 104.439 8.48616C104.311 7.97218 104.272 7.42271 104.404 6.89711C104.496 6.52936 104.586 6.16897 104.657 5.79572C104.705 5.54668 104.956 5.46714 104.84 5.23768C104.722 5.00333 103.501 4.95805 103.26 4.90971C103.187 5.04066 103.065 5.14406 102.909 5.18995C102.693 5.25359 102.65 5.05534 102.595 4.89809C102.333 4.15282 101.91 4.348 101.552 3.62904C101.366 3.25579 101.67 2.11341 101.316 2.04671C100.601 2.38753 99.7868 2.52582 99.0016 2.43159C98.9251 2.42302 98.845 2.41018 98.7838 2.36367C98.7225 2.31717 98.688 2.22599 98.7284 2.16052C98.5004 2.20825 98.2602 2.25537 98.0376 2.18622C97.8151 2.11708 97.6239 1.88763 97.682 1.66123Z" fill="#5B3650"/>
<path d="M103.302 4.86249C103.445 4.5694 103.645 4.29099 103.925 4.09029C104.203 3.89021 104.596 3.75437 104.951 3.82535C105.293 3.89388 105.514 4.1833 105.524 4.49475C105.534 4.81904 105.37 5.13662 105.151 5.38687C105.034 5.52027 104.894 5.64019 104.74 5.73809C104.627 5.80907 104.475 5.90514 104.328 5.89657C104.033 5.94491 103.7 5.85435 103.46 5.70873C103.324 5.62612 103.222 5.50313 103.191 5.35567C103.155 5.18618 103.227 5.01546 103.302 4.86249Z" fill="#FFCBB4"/>
<path d="M1.45492 91.6017C1.42922 91.8036 1.45186 92.0123 1.5106 92.1978C1.71252 92.8458 2.33113 93.2564 2.92037 93.5193C4.36993 94.1644 8.88622 94.5454 10.4594 94.5454C21.4139 94.5418 29.6296 93.4703 38.3141 90.742C47.2139 87.9445 55.3905 83.6625 63.408 79.0062C70.9953 74.5968 78.4624 66.7549 84.1574 60.1842C87.1927 56.6797 90.1232 53.082 93.0053 49.4511C95.6202 46.1652 97.5024 42.9094 100.195 39.7698C103.093 36.3861 102.475 32.0944 98.2156 30.3297C97.6848 30.1082 97.0985 29.9259 96.4536 29.7925C92.7283 29.0142 90.374 29.1414 86.5935 28.8221C80.7971 28.3332 74.7596 29.1935 68.9376 29.1935C64.108 29.3073 59.2037 28.8153 54.4335 29.4046C51.8838 29.7209 48.7283 29.9975 46.856 31.9873C45.4621 33.462 45.0515 36.0221 45.5955 37.9366C46.159 39.9265 47.1295 40.6136 46.6081 42.9027C46.2141 44.6184 45.2895 46.175 44.6416 47.7971C43.2281 51.3331 41.8606 54.9248 40.2323 58.3705C37.5199 64.1148 34.0713 69.6504 29.4051 74.0168C25.6243 77.5573 21.1306 80.5402 16.6755 83.151C13.3377 85.1047 6.66204 86.4858 3.43192 88.5827C2.71846 89.049 1.98909 89.6939 1.64704 90.4649C1.48795 90.8198 1.40964 91.2009 1.45492 91.6017Z" fill="#FFAF48"/>
<path d="M1.64704 90.4649C1.88506 90.6961 2.12616 90.9243 2.38988 91.1227C3.64362 92.0546 5.30733 92.1978 6.86763 92.1488C10.6772 92.0319 14.4446 92.4057 18.2645 92.1452C24.0413 91.7487 29.4828 90.0774 35.0448 88.6128C43.1369 86.4798 50.526 83.2588 57.2341 78.2211C70.1289 68.5399 81.7221 56.804 90.6345 43.3255C90.8171 43.0489 90.9928 42.7619 91.1623 42.4725C91.6635 41.6159 90.8138 38.5026 90.879 37.3957C91.0222 35.0253 92.0772 32.1109 94.2817 30.9416C95.4507 30.323 96.8217 30.1829 98.2156 30.3297C102.475 32.0944 103.093 36.3861 100.195 39.7698C97.5024 42.9094 95.6202 46.1652 93.0053 49.4511C90.1232 53.082 87.1927 56.6797 84.1574 60.1842C78.4624 66.7549 70.9953 74.5968 63.408 79.0062C55.3905 83.6625 47.2139 87.9445 38.3141 90.742C29.6296 93.4703 21.4139 94.5418 10.4594 94.5454C8.88622 94.5454 4.36993 94.1644 2.92037 93.5193C2.33113 93.2564 1.71252 92.8458 1.5106 92.1978C1.45186 92.0123 1.42922 91.8036 1.45492 91.6017C1.40964 91.2009 1.48795 90.8198 1.64704 90.4649Z" fill="#FF9441"/>
<path d="M0.0311661 90.1408C0.375656 87.9956 2.26515 87.3352 4.1522 86.9719C8.14167 86.2039 10.9496 84.145 14.5573 82.5123C16.8353 81.4827 18.5755 80.3679 20.3995 78.6479C22.7406 76.4397 25.789 75.2305 28.2585 73.1959C31.1032 70.8519 33.0893 67.1022 35.1703 64.099C36.4706 62.2237 37.132 60.2559 38.7951 58.6308C41.0218 56.4547 41.2194 53.9523 41.8741 51.091C42.4156 48.7243 44.4275 46.3723 45.4842 44.1585C45.2199 40.0209 49.2008 41.3071 51.4721 41.2276C53.1456 41.1682 54.8222 40.7674 56.5012 40.9173C59.7392 41.2055 63.0067 40.6224 66.2111 40.9467C67.8534 41.1125 69.4321 41.569 71.0939 41.602C74.0371 41.6595 76.8658 40.5165 79.8144 40.3972C82.9106 40.2712 87.9727 40.8977 89.2522 44.2766C90.5101 47.5972 87.6739 49.3613 86.0312 51.7232C84.4764 53.9578 85.3411 56.6916 85.4398 59.2278C85.5194 61.269 85.8264 63.5863 85.3887 65.6134C85.0914 66.9908 84.0878 68.124 82.5731 67.5128C80.5986 66.7162 81.242 64.6998 81.4954 63.1018C81.6957 61.8365 82.835 57.8676 80.802 57.4988C80.0319 57.3599 79.3206 57.9068 78.7498 58.4429C77.1742 59.9217 75.5056 61.5506 74.8087 63.6377C74.1613 65.5744 74.0922 67.7643 72.557 69.2842C71.2793 70.5483 69.5043 71.0034 67.8516 71.5555C63.8658 72.8876 62.3777 77.6854 58.7321 79.5007C57.0158 80.3557 54.9347 80.6253 53.26 81.6576C50.5892 83.303 51.7224 85.0622 51.6312 87.623C51.5773 89.1374 50.4821 91.3751 48.688 91.2257C47.2012 91.1021 46.7233 89.4517 46.5972 88.2005C46.5226 87.4595 47.1247 86.2309 46.5122 85.6654C45.4683 84.7029 44.0977 85.958 43.2704 86.5675C42.2247 87.3383 41.321 87.8928 40.0201 88.1051C37.252 88.5566 34.6857 89.3649 32.0363 90.2883C29.6775 91.1107 28.1288 92.8539 25.5681 92.4373C24.4153 92.2494 21.7738 91.4551 20.5353 91.4417C18.9475 91.4245 18.0028 92.3985 16.5648 92.7793C13.8524 93.4975 11.1252 93.1519 8.40233 92.7083C7.09229 92.4953 5.60052 91.9061 4.31985 91.8423C2.9988 91.7768 -0.357384 92.5656 0.0311661 90.1408Z" fill="#FFC566"/>
<path d="M81.1 35.7617C80.7513 34.7331 82.8795 34.5728 83.1419 35.441C83.4814 36.5663 81.3739 36.5687 81.1 35.7617Z" fill="#FF9441"/>
<path d="M75.5508 32.9719C76.3321 32.2187 77.384 34.0758 76.7097 34.6827C75.8365 35.469 74.9371 33.5636 75.5508 32.9719Z" fill="#FF9441"/>
<path d="M73.0682 34.3359C73.879 33.6133 74.8568 35.5108 74.1598 36.0908C73.2561 36.8428 72.4319 34.9032 73.0682 34.3359Z" fill="#FF9441"/>
<path d="M58.6733 39.3014C57.6196 39.0402 58.6323 37.1617 59.5048 37.4095C60.6356 37.7307 59.5005 39.5064 58.6733 39.3014Z" fill="#FF9441"/>
<path d="M55.0043 32.429C56.0898 32.4351 55.5458 34.4984 54.639 34.4629C53.4648 34.4158 54.1519 32.4235 55.0043 32.429Z" fill="#FF9441"/>
<path d="M51.6595 37.3763C50.5918 37.5696 50.7448 35.4409 51.6424 35.3093C52.805 35.138 52.4984 37.2233 51.6595 37.3763Z" fill="#FF9441"/>
<path d="M22.052 84.8308C24.5111 80.8873 31.7944 79.6324 35.9943 78.8638C38.1708 78.4661 40.9855 79.0877 40.2591 81.9619C39.4527 85.152 36.493 87.0778 33.5682 88.1235C30.7505 89.1319 26.0421 90.1934 23.187 88.9665C21.3502 88.1766 21.0803 86.3883 22.052 84.8308Z" fill="#F94737"/>
<path d="M67.007 47.3877C67.4524 47.0408 67.9242 46.7293 68.4229 46.4564C69.8424 45.6818 71.8255 45.1439 73.417 44.8771C74.9455 44.6214 76.7249 44.9255 77.6277 46.1853C78.4462 47.3265 78.3052 48.9045 77.8387 50.2298C76.4526 54.168 74.21 58.3838 70.934 61.0627C69.3413 62.3641 67.3778 63.2629 65.2833 62.9039C62.1156 62.3611 61.4847 59.3482 61.9608 56.4729C62.5243 53.0738 64.2572 49.5268 67.007 47.3877Z" fill="#F94737"/>
<path d="M37.6262 67.1764C37.6011 66.6556 37.6317 66.132 37.7168 65.6259C38.5196 60.8255 43.6227 50.2168 49.6993 53.6166C53.6429 55.8222 51.4762 62.5505 49.6057 65.7146C47.6183 69.0761 43.2194 73.6985 39.1596 71.0031C37.7321 70.0547 37.7101 68.9153 37.6262 67.1764Z" fill="#F94737"/>
<path d="M47.1792 62.6248C48.1294 62.3282 48.2291 64.2824 47.427 64.5039C46.388 64.7898 46.4333 62.8581 47.1792 62.6248Z" fill="#FF5C5F"/>
<path d="M41.9302 65.751C42.9123 65.9102 42.1272 67.703 41.3116 67.5415C40.2543 67.3328 41.1586 65.6257 41.9302 65.751Z" fill="#FF5C5F"/>
<path d="M45.9729 58.5695C45.6609 57.6242 47.6128 57.4932 47.8471 58.2911C48.15 59.3251 46.2183 59.3117 45.9729 58.5695Z" fill="#FF5C5F"/>
<path d="M44.614 61.5705C44.3937 62.5409 42.6529 61.647 42.8646 60.8417C43.1381 59.7996 44.7865 60.8073 44.614 61.5705Z" fill="#FF5C5F"/>
<path d="M43.3723 58.3335C42.378 58.288 42.9501 56.417 43.7792 56.4825C44.8536 56.5674 44.1537 58.3681 43.3723 58.3335Z" fill="#FF5C5F"/>
<path d="M35.8452 82.636C35.3429 83.4955 33.9521 82.1188 34.3957 81.4146C34.9709 80.5035 36.2393 81.961 35.8452 82.636Z" fill="#FF5C5F"/>
<path d="M29.6902 86.2984C29.9362 87.2632 27.9794 87.259 27.8013 86.4466C27.5706 85.3935 29.4968 85.5409 29.6902 86.2984Z" fill="#FF5C5F"/>
<path d="M27.8082 83.0549C28.77 82.798 28.7872 84.7548 27.9764 84.942C26.9264 85.1836 27.0525 83.2562 27.8082 83.0549Z" fill="#FF5C5F"/>
<path d="M25.4843 86.0613C25.223 87.0212 23.522 86.0532 23.768 85.2585C24.0862 84.2292 25.6899 85.3074 25.4843 86.0613Z" fill="#FF5C5F"/>
<path d="M33.9972 86.6965C33.0225 86.4957 33.8816 84.7378 34.6905 84.933C35.738 85.1852 34.7627 86.8543 33.9972 86.6965Z" fill="#FF5C5F"/>
<path d="M72.2149 49.9731C71.3772 49.436 72.8121 48.1044 73.4961 48.5768C74.3821 49.1899 72.8726 50.3959 72.2149 49.9731Z" fill="#FF5C5F"/>
<path d="M72.0737 54.562C71.1222 54.8546 71.0317 52.9002 71.8345 52.6824C72.8753 52.4015 72.8214 54.3326 72.0737 54.562Z" fill="#FF5C5F"/>
<path d="M67.4611 58.03C68.1917 57.3546 69.1211 59.0765 68.4921 59.6205C67.6771 60.3246 66.8878 58.5619 67.4611 58.03Z" fill="#FF5C5F"/>
<path d="M69.1718 51.4973C68.2435 51.1388 69.3817 49.546 70.1471 49.8722C71.1384 50.2951 69.9011 51.7794 69.1718 51.4973Z" fill="#FF5C5F"/>
<path d="M64.734 56.3133C63.9459 55.7062 65.4878 54.5016 66.1297 55.0315C66.9606 55.7175 65.3538 56.7899 64.734 56.3133Z" fill="#FF5C5F"/>
<path d="M66.6705 51.9572C65.7227 52.2615 65.6077 50.3077 66.408 50.0806C67.4445 49.7864 67.4152 51.7179 66.6705 51.9572Z" fill="#FF5C5F"/>
<path d="M56.7453 72.1674C56.7698 71.3039 55.5442 71.8235 54.9604 72.2126C54.8962 72.2554 54.8326 72.3001 54.7701 72.3455C53.8493 73.0105 53.1407 74.0906 52.6279 75.0854C52.5074 75.3186 52.3954 75.5933 52.4988 75.8337C53.0263 77.0649 54.9819 74.7428 55.3319 74.3384C55.732 73.8752 56.484 73.1782 56.667 72.5809C56.7172 72.417 56.7422 72.2805 56.7453 72.1674ZM51.8888 73.7234C52.7026 72.2609 54.0353 70.9363 55.5344 70.4284C56.5409 70.0875 57.5995 70.4597 58.0517 71.465C58.3955 72.2298 58.6195 73.3037 58.2622 74.0628C57.646 75.3712 55.702 77.3195 54.4354 78.0059C53.4889 78.5193 51.9445 77.9918 51.3901 76.9253C51.0903 76.3483 51.1166 75.6454 51.3167 75.0261C51.4568 74.5911 51.6508 74.151 51.8888 73.7234Z" fill="#5B3650"/>
<path d="M56.5539 71.655C56.5965 71.6746 56.6247 71.699 56.5539 71.655V71.655Z" fill="#593880"/>
<path d="M52.2858 77.6919C52.2455 77.6759 52.2607 77.6814 52.2968 77.6943C52.3212 77.7053 52.3249 77.7077 52.2858 77.6919Z" fill="#593880"/>
<path d="M52.0471 77.5903C52.0596 77.5959 52.0703 77.6042 52.0822 77.6099C52.0314 77.5861 52.0277 77.5829 52.0471 77.5903Z" fill="#593880"/>
<path d="M52.8812 76.4912C52.9106 76.4562 52.9491 76.3288 52.9883 76.2731C53.0531 76.1809 53.1235 76.1025 53.2098 76.0296C53.3842 75.8859 53.5781 75.7672 53.7611 75.6345C54.1258 75.3713 54.4678 75.0788 54.7872 74.7619C55.1904 74.3617 55.5349 73.9272 55.8354 73.4475C56.1021 73.0215 56.3769 72.5407 56.5598 72.1049C56.6069 71.9942 56.6461 71.8793 56.6798 71.7636C56.6963 71.7048 56.7122 71.646 56.7238 71.5867C56.7256 71.5777 56.7263 71.5722 56.7275 71.5667C56.7275 71.5624 56.7275 71.555 56.7287 71.5397C56.7318 71.4914 56.7342 71.4448 56.7348 71.3972C56.7348 71.3781 56.7354 71.3707 56.7354 71.3678C56.7244 71.3243 56.7238 71.2808 56.7287 71.2368C56.7067 71.142 56.6798 71.0012 56.7201 71.1964C56.7012 71.1059 56.7318 71.0086 56.8156 70.9608C56.7471 71.0007 56.8841 70.9192 56.9086 70.9125C56.9374 70.9046 57.0756 70.9137 57.0298 70.9101C57.1576 70.9204 57.2561 70.9411 57.3547 71.0325C57.5205 71.1855 57.5817 71.4209 57.5817 71.6394C57.5811 72.1197 57.3773 72.5987 57.1742 73.0235C56.7171 73.9798 56.1113 74.8555 55.3465 75.5922C55.0081 75.9177 54.6434 76.2182 54.2628 76.4923C54.0841 76.6207 53.903 76.7497 53.6999 76.8367C53.5885 76.8845 53.4821 76.9125 53.3609 76.923C53.2587 76.9328 53.1535 76.8987 53.0543 76.9101C52.82 76.9372 52.7625 76.6348 52.8812 76.4912Z" fill="#6F5270"/>
<path d="M16.8892 84.7939C17.4123 84.106 16.1133 83.8142 15.4121 83.7902C15.335 83.7874 15.2579 83.7859 15.1802 83.7867C14.0445 83.7902 12.8391 84.2546 11.8424 84.7645C11.6093 84.8838 11.3578 85.0418 11.3015 85.2975C11.0127 86.6056 13.9552 85.8585 14.4753 85.733C15.0707 85.5898 16.0876 85.462 16.5845 85.0833C16.7209 84.9799 16.8207 84.8831 16.8892 84.7939ZM12.0357 83.2269C13.5495 82.5127 15.4048 82.2135 16.9186 82.6743C17.9355 82.9838 18.5786 83.9036 18.3595 84.9841C18.1931 85.8066 17.7495 86.8093 17.0171 87.2175C15.7535 87.9217 13.0386 88.3715 11.6093 88.191C10.5409 88.0565 9.59311 86.7273 9.76443 85.5379C9.85683 84.8942 10.2882 84.3381 10.8114 83.9518C11.1791 83.6803 11.5927 83.436 12.0357 83.2269Z" fill="#5B3650"/>
<path d="M17.032 84.2655C17.0558 84.3068 17.0639 84.343 17.032 84.2655V84.2655Z" fill="#593880"/>
<path d="M10.045 86.6834C10.0218 86.6466 10.0309 86.6595 10.0523 86.692C10.0664 86.7146 10.0676 86.7187 10.045 86.6834Z" fill="#593880"/>
<path d="M9.91083 86.4619C9.91709 86.4736 9.92085 86.4863 9.92773 86.498C9.90019 86.4494 9.89894 86.4443 9.91083 86.4619Z" fill="#593880"/>
<path d="M11.2291 86.0547C11.2731 86.0433 11.379 85.9625 11.4426 85.9398C11.5497 85.9025 11.6525 85.8798 11.7651 85.8719C11.9903 85.8559 12.2173 85.8719 12.4431 85.8712C12.8928 85.87 13.3413 85.8323 13.7855 85.7606C14.3466 85.6699 14.8796 85.5182 15.404 85.304C15.8684 85.1131 16.372 84.8824 16.7746 84.636C16.8774 84.5722 16.9765 84.5026 17.0707 84.4273C17.1191 84.39 17.1656 84.3513 17.2096 84.3097C17.217 84.3031 17.2206 84.2994 17.2249 84.2952C17.2274 84.2913 17.2317 84.2865 17.2414 84.2744C17.272 84.2375 17.3008 84.201 17.3296 84.1618C17.3406 84.1465 17.3455 84.1402 17.3467 84.1383C17.3632 84.0967 17.3883 84.0607 17.4177 84.0289C17.4556 83.9383 17.5156 83.808 17.4348 83.9896C17.4721 83.906 17.5535 83.8448 17.6496 83.8546C17.5706 83.8465 17.7297 83.8606 17.7536 83.8699C17.7811 83.8802 17.8882 83.9677 17.8527 83.9378C17.9512 84.021 18.0185 84.0956 18.0461 84.2272C18.0913 84.4481 18.0032 84.6752 17.8766 84.8518C17.5963 85.2424 17.1509 85.5127 16.7385 85.7398C15.8096 86.2501 14.8074 86.6086 13.7562 86.7615C13.2917 86.829 12.8206 86.86 12.3507 86.8612C12.1304 86.8619 11.9083 86.8607 11.6929 86.8129C11.5742 86.7874 11.472 86.7475 11.3668 86.6858C11.2787 86.6344 11.2126 86.5443 11.1257 86.496C10.9195 86.3815 11.0486 86.1019 11.2291 86.0547Z" fill="#6F5270"/>
<path d="M34.7596 72.2758C34.9609 71.4349 33.6539 71.6933 33.0035 71.9538C32.9313 71.9825 32.8603 72.0131 32.7893 72.0444C31.7522 72.5069 30.8368 73.4188 30.1313 74.2876C29.9661 74.4907 29.8003 74.7367 29.8517 74.9931C30.1154 76.3068 32.5054 74.4343 32.9313 74.1102C33.4177 73.7388 34.2964 73.2113 34.598 72.6637C34.6812 72.5139 34.7333 72.3852 34.7596 72.2758ZM29.6871 72.8025C30.7836 71.5384 32.3592 70.5154 33.9305 70.3249C34.986 70.197 35.9454 70.7783 36.1822 71.8561C36.3615 72.6747 36.3609 73.7718 35.8561 74.4413C34.9841 75.5957 32.6822 77.1041 31.3018 77.5164C30.2702 77.8247 28.8665 76.9915 28.5428 75.8345C28.3672 75.2085 28.5373 74.5249 28.8598 73.9601C29.0862 73.5631 29.3664 73.1728 29.6871 72.8025Z" fill="#5B3650"/>
<path d="M34.6779 71.7345C34.7152 71.7624 34.7376 71.7923 34.6779 71.7345V71.7345Z" fill="#593880"/>
<path d="M29.2626 76.7678C29.2265 76.7439 29.24 76.7525 29.273 76.7728C29.2944 76.7885 29.2974 76.7917 29.2626 76.7678Z" fill="#593880"/>
<path d="M29.0504 76.6202C29.0603 76.6285 29.069 76.639 29.0796 76.6465C29.0354 76.6134 29.0323 76.6098 29.0504 76.6202Z" fill="#593880"/>
<path d="M30.0911 75.715C30.1272 75.6861 30.1908 75.5692 30.2404 75.5233C30.323 75.4457 30.408 75.384 30.5078 75.3311C30.7073 75.2253 30.922 75.1488 31.1282 75.057C31.5388 74.8742 31.9341 74.6576 32.311 74.4133C32.7883 74.1038 33.2141 73.7496 33.607 73.3414C33.9551 72.9793 34.3223 72.5643 34.5909 72.1764C34.66 72.0772 34.7218 71.9733 34.7781 71.8669C34.8069 71.8124 34.8338 71.7586 34.8577 71.7022C34.8613 71.6936 34.8632 71.6888 34.8656 71.6833C34.8662 71.679 34.8681 71.6716 34.8723 71.657C34.8852 71.6111 34.8968 71.5664 34.9072 71.5186C34.9115 71.5002 34.9133 71.4928 34.914 71.4904C34.9121 71.4457 34.9207 71.4029 34.9348 71.3614C34.9323 71.2634 34.9348 71.1202 34.9341 71.319C34.9348 71.2268 34.9843 71.1381 35.0761 71.108C35.0008 71.1331 35.1514 71.0824 35.1771 71.0805C35.207 71.0786 35.3398 71.1159 35.2958 71.1032C35.4194 71.1386 35.5111 71.1797 35.5889 71.2884C35.7198 71.4727 35.7314 71.7163 35.6868 71.9293C35.5882 72.3996 35.2896 72.8268 35.0039 73.2006C34.3608 74.0426 33.588 74.7757 32.6885 75.3398C32.2908 75.5895 31.8723 75.8085 31.4434 75.9994C31.242 76.0882 31.0383 76.1775 30.8217 76.221C30.703 76.2447 30.5935 76.2509 30.4723 76.2363C30.3707 76.2246 30.2747 76.1697 30.1749 76.1598C29.9406 76.1383 29.9455 75.8312 30.0911 75.715Z" fill="#6F5270"/>
<path d="M56.4098 45.6665C56.2427 44.819 55.1622 45.5967 54.6788 46.1052C54.6255 46.1615 54.5735 46.2184 54.5221 46.2759C53.7713 47.1282 53.3185 48.3385 53.0383 49.4222C52.9728 49.6754 52.9239 49.9685 53.0775 50.1798C53.8637 51.2644 55.2588 48.568 55.5103 48.0956C55.7985 47.5553 56.378 46.7097 56.4245 46.0868C56.4373 45.9161 56.4318 45.7778 56.4098 45.6665ZM52.0165 48.2565C52.487 46.651 53.4948 45.0644 54.8446 44.2377C55.7508 43.6827 56.8656 43.8118 57.5289 44.6936C58.0331 45.363 58.4883 46.3609 58.3072 47.1796C57.9958 48.5931 56.5297 50.9219 55.4461 51.8708C54.6359 52.5807 53.0132 52.4069 52.238 51.4899C51.8176 50.993 51.6873 50.3015 51.746 49.6535C51.787 49.1982 51.8788 48.7265 52.0165 48.2565Z" fill="#5B3650"/>
<path d="M56.1101 45.2093C56.1558 45.2194 56.189 45.2369 56.1101 45.2093V45.2093Z" fill="#593880"/>
<path d="M53.2809 52.0392C53.2375 52.0332 53.2534 52.0349 53.2919 52.0399C53.3182 52.0447 53.3224 52.0461 53.2809 52.0392Z" fill="#593880"/>
<path d="M53.0262 51.9932C53.039 51.9963 53.0506 52.0018 53.0635 52.0049C53.0103 51.9927 53.006 51.9908 53.0262 51.9932Z" fill="#593880"/>
<path d="M53.5956 50.7371C53.6158 50.6955 53.6256 50.5634 53.6519 50.501C53.6947 50.3956 53.7461 50.3038 53.8147 50.2144C53.9524 50.0351 54.1151 49.8762 54.265 49.7072C54.5618 49.3695 54.831 49.0085 55.0727 48.6291C55.3774 48.1494 55.6179 47.6507 55.8051 47.116C55.971 46.6417 56.1325 46.1119 56.2151 45.6468C56.2365 45.5281 56.2494 45.4076 56.2561 45.287C56.2598 45.2265 56.2622 45.1659 56.2598 45.1047C56.2598 45.0955 56.2598 45.09 56.2598 45.0839C56.2585 45.0796 56.2567 45.0735 56.2543 45.0576C56.2469 45.0105 56.2396 44.9646 56.2292 44.9181C56.2255 44.8985 56.2237 44.8918 56.2237 44.8893C56.2029 44.8489 56.1931 44.8067 56.1882 44.7627C56.1453 44.6745 56.0884 44.543 56.1704 44.7247C56.1325 44.6409 56.1404 44.5393 56.212 44.4738C56.1533 44.5277 56.2696 44.4182 56.2922 44.4065C56.3179 44.3925 56.455 44.3711 56.4091 44.3778C56.5363 44.3594 56.6367 44.3582 56.7529 44.4249C56.9487 44.5381 57.0607 44.7541 57.1084 44.967C57.2143 45.4345 57.1213 45.9473 57.0173 46.4062C56.7823 47.4403 56.3846 48.4278 55.8015 49.3151C55.5432 49.7079 55.2544 50.081 54.943 50.4324C54.7974 50.5976 54.6493 50.7627 54.4706 50.8925C54.3721 50.964 54.2748 51.0156 54.1592 51.0521C54.0613 51.084 53.9511 51.0737 53.8575 51.1067C53.6348 51.185 53.5118 50.9028 53.5956 50.7371Z" fill="#6F5270"/>
<path d="M44.0083 79.0463C44.0964 78.9784 44.1858 78.9117 44.2763 78.847C44.2904 78.8364 44.2959 78.8333 44.3057 78.8267C44.3149 78.8188 44.3198 78.8144 44.3332 78.8035C44.5774 78.5991 44.8123 78.3881 45.0259 78.1511C45.0754 78.0959 45.1238 78.039 45.1721 77.9829C45.1776 77.975 45.1795 77.9736 45.185 77.9676C45.1911 77.9571 45.1948 77.9511 45.2046 77.9358C45.2859 77.8122 45.3679 77.6898 45.4395 77.5601C45.4781 77.4903 45.5105 77.4181 45.5466 77.3479C45.5521 77.3349 45.5564 77.327 45.5619 77.3103C45.6194 77.1518 45.6659 76.9905 45.7014 76.8258C45.7051 76.8105 45.7161 76.7463 45.7247 76.6984C45.7289 76.6606 45.7338 76.6152 45.7351 76.5995C45.7448 76.4685 45.7479 76.3368 45.7485 76.2065C45.7497 75.9166 45.7344 75.6252 45.7075 75.3377C45.7063 75.3229 45.7057 75.3035 45.7063 75.2828C45.7032 75.222 45.6849 75.1565 45.6745 75.0996C45.6476 74.956 45.6121 74.8152 45.5735 74.6744C45.5478 74.5815 45.4775 74.4438 45.4713 74.347C45.4371 74.2908 45.4163 74.2296 45.4095 74.1646C45.3673 73.9676 45.3471 73.7449 45.423 73.5546C45.6053 73.0993 45.9223 72.8278 46.4198 72.7953C47.4734 72.7274 47.8577 74.0888 47.9776 74.9008C48.0994 75.7249 48.1324 76.5321 47.9733 77.3545C47.8087 78.2093 47.3688 78.9679 46.8199 79.6307C46.5892 79.9084 46.3274 80.1599 46.0496 80.39C45.5448 80.8085 44.9873 81.3122 44.2757 81.0937C43.8554 80.9639 43.4576 80.5363 43.4937 80.0657C43.5255 79.6507 43.6761 79.3032 44.0083 79.0463Z" fill="#87B63F"/>
<path d="M21.098 80.5056C21.1727 80.3582 21.2901 80.2308 21.3942 80.1017C21.5141 79.9537 21.6346 79.8001 21.7729 79.6679C22.0807 79.3737 22.4258 79.1258 22.7874 78.9061C22.8608 78.8607 22.9355 78.8163 23.012 78.7763C23.0817 78.7372 23.1552 78.7054 23.2323 78.681C23.1099 78.7422 23.0781 78.7579 23.1368 78.7305C23.1772 78.7128 23.217 78.6925 23.2573 78.6743C23.4109 78.605 23.5621 78.5257 23.7291 78.5022C23.8704 78.4845 23.8655 78.4838 23.7144 78.5017C23.7352 78.4936 23.7566 78.4857 23.7774 78.4778C23.8178 78.4587 23.8631 78.4465 23.9059 78.4319C24.0161 78.3939 24.1238 78.3554 24.24 78.3401C24.2553 78.3382 24.2614 78.3377 24.2724 78.3359C24.2816 78.3327 24.2957 78.3284 24.319 78.3225C24.3673 78.3095 24.4156 78.2974 24.464 78.2845C24.5037 78.2739 24.7815 78.2453 24.6696 78.2527C24.598 78.2575 24.7546 78.2409 24.7748 78.2374C24.8544 78.2233 24.9357 78.2037 25.0159 78.2025C25.0606 78.1963 25.1052 78.2006 25.1493 78.2127C25.1377 78.2092 25.1529 78.2104 25.1982 78.2159C25.5531 78.2422 25.7673 78.6619 25.4968 78.9356C25.3781 79.0567 25.2521 79.1478 25.115 79.2458C25.0642 79.2776 25.0569 79.2843 25.0924 79.2647C25.1572 79.2293 25.1242 79.2568 24.9939 79.3462C24.9394 79.3835 24.8807 79.4227 24.8231 79.4544C24.8158 79.4599 24.8121 79.4623 24.8066 79.4659C24.7675 79.5106 24.7222 79.5491 24.6677 79.578C24.6286 79.606 24.5882 79.6311 24.5484 79.6588C24.5013 79.691 24.456 79.726 24.4095 79.7597C24.3979 79.7738 24.3869 79.7891 24.3746 79.8012C24.3502 79.8197 24.3263 79.8386 24.3018 79.8577C24.2608 79.8954 24.2131 79.928 24.1703 79.9636C24.158 79.9739 24.1189 80.0185 24.1042 80.0193C24.1299 79.9848 24.1556 79.9507 24.1813 79.9157C24.1372 79.9726 24.0932 80.0295 24.0497 80.086C24.01 80.1263 23.9616 80.1598 23.9194 80.1978C23.8772 80.2351 23.8374 80.2798 23.7927 80.3135C23.7756 80.3264 23.7689 80.33 23.7652 80.3307C23.7358 80.3685 23.7095 80.4088 23.6789 80.4432C23.5969 80.5355 23.5045 80.6187 23.4213 80.71C23.2555 80.8912 23.1001 81.0814 22.9386 81.2655C22.8517 81.3652 22.7684 81.4675 22.684 81.569C22.5053 81.7856 22.2698 81.8774 22.0164 81.971C21.5227 82.1539 20.9034 81.6749 20.9438 81.1541C20.9628 80.9174 20.9903 80.7215 21.098 80.5056Z" fill="#87B63F"/>
<path d="M55.5801 61.4357C55.8701 61.151 56.3046 61.071 56.676 61.2282C57.0486 61.3855 57.2805 61.7397 57.2934 62.1449C57.2989 62.3303 57.2426 62.4929 57.193 62.6666C57.1771 62.7211 57.163 62.7763 57.152 62.8325C57.149 62.8466 57.1477 62.8521 57.1459 62.8619C57.1435 62.9427 57.1453 63.04 57.1453 63.0541C57.1465 63.087 57.149 63.1195 57.1508 63.1521C57.171 63.2439 57.1912 63.3349 57.2199 63.4248C57.231 63.4604 57.2444 63.4958 57.2567 63.5319C57.3497 63.7118 57.4445 63.8892 57.5601 64.0563C57.5712 64.0716 57.6042 64.1138 57.6207 64.1359C57.696 64.2245 57.7743 64.3097 57.8569 64.3916C57.9273 64.4619 58.0007 64.5305 58.076 64.5955C58.1194 64.6328 58.1745 64.6693 58.2143 64.7104C58.18 64.6842 58.1463 64.6579 58.1121 64.6321C58.1855 64.6858 58.2577 64.7434 58.3287 64.8011C58.3703 64.8298 58.4101 64.8603 58.4517 64.8878C58.5428 64.9509 58.6365 65.0109 58.7313 65.0659C58.8261 65.1211 58.9167 65.1816 59.0073 65.2428C59.0568 65.2698 59.1021 65.3027 59.1443 65.3407C59.1651 65.3565 59.178 65.3663 59.1914 65.3768C59.233 65.4 59.2912 65.4275 59.3003 65.433C59.4246 65.5035 59.5237 65.6123 59.5922 65.7385C59.621 65.7746 59.6491 65.8111 59.6736 65.8522C59.8523 66.146 59.7348 66.5382 59.4478 66.7125C59.4019 66.7407 59.3542 66.7634 59.3052 66.7815C59.1847 66.858 59.0458 66.9034 58.9051 66.8917C58.5985 66.8662 58.2846 66.8496 57.9964 66.7333C57.718 66.6219 57.4366 66.5026 57.1789 66.3477C56.6301 66.0174 56.1761 65.5628 55.793 65.0561C55.4749 64.6352 55.2405 64.1198 55.1561 63.5981C55.0441 62.9109 55.0465 61.9589 55.5801 61.4357Z" fill="#87B63F"/>
<path d="M46.6826 44.7629C46.6895 44.7555 46.6901 44.7549 46.6945 44.7493C46.6777 44.7785 46.6671 44.7947 46.6826 44.7629Z" fill="#87B63F"/>
<path d="M46.2459 45.8045C46.2863 45.6527 46.3462 45.5126 46.4001 45.3676C46.3933 45.3835 46.4007 45.3553 46.4166 45.3033C46.4343 45.2483 46.4515 45.1914 46.4723 45.1375C46.5029 45.0653 46.5328 44.9937 46.5634 44.9215C46.7017 44.749 46.7427 44.6957 46.6944 44.7502C46.7195 44.7086 46.7599 44.6376 46.7623 44.6345C46.8406 44.5336 46.93 44.4436 47.0236 44.3561C47.3026 44.0961 47.778 44.1285 47.9744 44.4785C47.9965 44.5177 48.1605 44.8854 48.0882 44.7159C48.1513 44.8242 48.1819 44.9423 48.191 45.0659C48.1929 45.0635 48.2002 45.0855 48.2155 45.1375C48.2902 45.3835 48.2351 45.7274 48.2167 45.9831C48.2021 46.1887 48.1782 46.3937 48.1696 46.5999C48.1647 46.7186 48.1641 46.8373 48.1684 46.9566C48.1708 47.0111 48.1678 47.3935 48.1745 47.1188C48.1696 47.3195 48.2712 47.5667 48.3379 47.7527C48.3514 47.7894 48.3654 47.8261 48.3801 47.8622C48.4113 47.9393 48.3997 47.9112 48.3452 47.7784C48.3428 47.8488 48.4474 47.9901 48.4817 48.0531C48.702 48.4594 49.1242 48.8786 49.1915 49.3448C49.2624 49.8366 49.1492 50.3807 48.6659 50.6364C48.1776 50.8941 47.6966 50.7882 47.2793 50.4572C46.9098 50.1653 46.7158 49.5718 46.5328 49.1478C46.2911 48.5879 46.1339 48.0562 46.0813 47.4461C46.0348 46.9083 46.1076 46.3239 46.2459 45.8045Z" fill="#87B63F"/>
<path d="M56.1378 55.0722C56.306 54.9573 56.4737 54.9383 56.6664 54.9219C56.7276 54.904 56.7925 54.8906 56.8537 54.8721C56.891 54.8532 56.9289 54.8349 56.965 54.8141C57.0507 54.7651 57.1308 54.7101 57.2122 54.6544C57.2575 54.6171 57.3016 54.5791 57.345 54.5395C57.4288 54.463 57.5108 54.3845 57.5916 54.3057C57.6803 54.2168 57.7654 54.1257 57.848 54.0315C57.8865 53.9868 57.9245 53.9421 57.9624 53.8963C57.971 53.8857 57.9746 53.8817 57.9807 53.8736C58.1288 53.6692 58.2751 53.4624 58.4085 53.2483C58.4703 53.1491 58.5284 53.0487 58.5834 52.9466C58.614 52.8898 58.6434 52.8316 58.6722 52.7741C58.696 52.7246 58.786 52.5121 58.6875 52.7514C58.7462 52.6082 58.8135 52.4712 58.8888 52.3367C58.8925 52.3262 58.8961 52.3159 58.9035 52.2967C58.9396 52.2031 58.9812 52.1127 59.0222 52.0209C59.0375 51.9865 59.0515 51.9504 59.0687 51.9174C59.0791 51.8959 59.0901 51.8751 59.1029 51.8555C59.0564 51.9712 59.0656 51.9499 59.1311 51.7919C59.2792 51.5245 59.5937 51.4138 59.8696 51.5594C59.9694 51.612 60.0446 51.6946 60.0991 51.7919C60.1242 51.852 60.1389 51.8849 60.1474 51.9064C60.1664 51.9473 60.1854 51.9884 60.2013 52.0319C60.2502 52.1744 60.2771 52.3336 60.2826 52.4834C60.2937 52.7788 60.2692 53.0776 60.1939 53.3632C60.0434 53.9402 59.7987 54.4983 59.4695 54.9945C59.1029 55.5491 58.6807 56.0134 58.1417 56.4002C57.9049 56.5709 57.6381 56.6992 57.3627 56.7953C56.9889 56.9262 56.4804 57.0023 56.1378 56.763C55.5149 56.3285 55.5045 55.5048 56.1378 55.0722Z" fill="#87B63F"/>
<path d="M102.315 27.4646C103.138 26.9715 103.778 26.5566 104.737 26.9935C106.215 27.6666 106.359 29.3817 105.542 30.6305C104.679 31.9485 103.202 32.8045 101.91 33.644C100.494 34.5637 96.6357 36.8821 96.0967 37.1624C95.5238 37.5142 94.7184 37.8758 94.1349 38.2111C93.5895 38.5244 92.9829 38.7918 92.3389 38.7331C92.2536 38.7257 92.2147 38.6633 92.2111 38.5978C91.2686 38.7447 90.5692 38.5862 90.753 37.7271C90.9832 36.6514 93.2002 35.4962 93.1965 34.9694C93.1951 34.7277 92.0352 35.6957 91.8475 35.5433C91.6695 35.3995 91.7091 35.107 91.8262 34.91C92.3958 33.9555 100.197 28.7361 102.315 27.4646Z" fill="#FFCBB4"/>
<path d="M91.1682 37.8228C91.1806 37.8228 91.1935 37.8197 91.2049 37.813C91.27 37.7775 92.8002 36.927 93.5794 36.2074C93.6102 36.1792 93.6123 36.1303 93.5836 36.0997C93.5549 36.0691 93.5067 36.0667 93.4754 36.0954C92.71 36.8021 91.1469 37.671 91.1308 37.6796C91.0941 37.6998 91.0809 37.7463 91.1012 37.7836C91.1151 37.8087 91.1411 37.8228 91.1682 37.8228Z" fill="#D97779"/>
<path d="M91.5223 38.3516C91.5307 38.3516 91.5393 38.3503 91.5477 38.3473C91.612 38.3246 93.1261 37.7856 93.761 37.1608C93.7913 37.1315 93.7916 37.0831 93.7619 37.0525C93.732 37.0226 93.6833 37.0219 93.6541 37.0519C93.0429 37.6534 91.5123 38.1974 91.497 38.2029C91.457 38.2176 91.4362 38.261 91.4504 38.3008C91.4614 38.332 91.491 38.3516 91.5223 38.3516Z" fill="#D97779"/>
<path d="M92.4387 38.5405C92.4457 38.5405 92.4529 38.5393 92.4598 38.5375C92.4985 38.5258 93.4046 38.2627 93.7337 37.9856C93.7663 37.958 93.7703 37.9103 93.7431 37.8779C93.7158 37.8454 93.6673 37.8411 93.6353 37.8681C93.3307 38.1244 92.4263 38.3882 92.4175 38.3906C92.3769 38.4022 92.3537 38.4451 92.3651 38.4848C92.3749 38.5191 92.4055 38.5405 92.4387 38.5405Z" fill="#D97779"/>
<path d="M101.449 27.9882C102.493 28.0671 104.879 31.5138 104.592 31.747C104.306 31.9813 104.148 32.1117 104.148 32.1117L104.238 32.1753C105.19 31.6179 106.305 30.6578 106.993 29.9083C107.72 29.1177 108.031 28.3945 107.781 27.3133C107.518 26.1746 106.571 25.7652 105.476 25.7377C104.786 25.7199 103.954 25.9518 102.845 26.7424C102.706 26.8415 102.571 26.5876 102.442 26.6341C101.881 26.8348 100.938 27.2741 100.625 27.7887C100.605 27.8218 100.66 28.3278 100.859 28.3798L101.449 27.9882Z" fill="#FF5778"/>
<path d="M104.148 32.1114C104.39 32.287 104.432 32.3849 104.92 32.2448C105.138 32.1818 106.102 31.6745 106.137 31.5191C106.173 31.3631 106.142 30.4746 106.142 30.4746L104.148 32.1114Z" fill="#FF5778"/>
<path d="M105.722 31.9214C105.729 31.9214 105.738 31.9202 105.745 31.9177C105.759 31.9128 106.087 31.8033 106.206 31.5524C106.312 31.3297 106.202 30.9112 106.062 30.3819L106.007 30.1732C105.721 29.0719 104.184 27.7747 103.446 27.1512C103.336 27.0575 103.246 26.9823 103.185 26.9272C102.98 26.7436 102.846 26.628 102.699 26.576C102.66 26.5619 102.616 26.5833 102.602 26.6225C102.588 26.6629 102.608 26.7063 102.648 26.721C102.766 26.762 102.891 26.8697 103.083 27.041C103.144 27.0967 103.235 27.1738 103.347 27.268C104.017 27.8334 105.585 29.1575 105.859 30.2118L105.914 30.4204C106.041 30.9008 106.15 31.3144 106.068 31.487C105.992 31.646 105.775 31.7464 105.698 31.7715C105.658 31.7849 105.636 31.8284 105.649 31.8688C105.66 31.9006 105.69 31.9214 105.722 31.9214Z" fill="#E03A5D"/>
<path d="M106.272 30.7007C106.291 30.7007 106.309 30.6946 106.324 30.6811L107.235 29.8593C107.266 29.8312 107.269 29.7829 107.24 29.7517C107.212 29.7204 107.164 29.718 107.132 29.7461L106.222 30.5679C106.19 30.596 106.187 30.6444 106.216 30.6756C106.231 30.6927 106.252 30.7007 106.272 30.7007Z" fill="#E03A5D"/>
</svg>
