<svg width="126" height="159" viewBox="0 0 126 159" fill="none" xmlns="http://www.w3.org/2000/svg">
<path d="M30.4233 20.8593C30.3744 20.0204 30.2834 19.1845 30.2365 18.3456C30.1739 17.2252 30.0752 16.0979 29.8083 15.0048C29.2872 12.8695 27.9037 11.0461 25.6912 10.4683C24.4964 10.1564 23.1355 10.3461 21.9408 10.5944C20.9132 10.8076 20.0548 11.1331 19.3078 11.8772C18.1649 13.0152 17.5831 14.6685 17.7484 16.2729C17.8579 17.3396 18.1004 18.461 18.5491 19.4377C18.9686 20.3499 19.5698 21.1624 20.1535 21.9748C20.748 22.8029 21.4099 23.6418 21.6934 24.6381C22.1852 26.3647 22.0385 28.3748 21.8283 30.1386C21.753 30.7643 21.5555 31.4253 21.5888 32.093C21.6064 32.4411 22.0151 32.6171 22.2849 32.7412C23.4474 33.2751 24.7135 33.496 25.9855 33.3112C26.5291 33.232 27.0649 33.0883 27.5742 32.8811C27.9057 32.7452 28.6399 32.4958 28.5891 32.0304C28.5891 32.0256 28.5881 32.0197 28.5871 32.0138C28.3593 30.8641 28.0504 29.7329 27.8187 28.585C27.5811 27.4079 27.4902 26.2356 27.4696 25.036C27.8832 24.9822 28.2987 24.9216 28.6976 24.7935C29.1082 24.6625 29.513 24.4621 29.8063 24.1385C30.4184 23.4648 30.4712 22.4559 30.4536 21.5925C30.4487 21.3481 30.4379 21.1037 30.4233 20.8593Z" fill="#AB493C"/>
<path d="M23.5509 16.2436C23.5265 16.5447 23.589 16.795 23.7895 16.8116C23.9889 16.8273 24.25 16.6024 24.2744 16.3022C24.2988 16.0011 24.0564 15.828 23.8569 15.8124C23.6565 15.7967 23.5744 15.9424 23.5509 16.2436Z" fill="#5B3650"/>
<path d="M27.4953 16.0147C27.4708 16.3148 27.5334 16.5651 27.7328 16.5817C27.9333 16.5974 28.1943 16.3735 28.2187 16.0724C28.2432 15.7722 28.0007 15.5992 27.8013 15.5825C27.6008 15.5669 27.5187 15.7136 27.4953 16.0147Z" fill="#5B3650"/>
<path d="M26.4699 19.7368C26.0867 19.7368 25.7288 19.6097 25.4864 19.4367C25.4316 19.3976 25.4189 19.3203 25.459 19.2656C25.4981 19.2118 25.5753 19.1991 25.6291 19.2382C25.8745 19.4142 26.4983 19.6606 27.1103 19.3379C27.17 19.3066 27.2443 19.3291 27.2756 19.3888C27.3069 19.4484 27.2844 19.5227 27.2247 19.554C26.9793 19.684 26.7192 19.7368 26.4699 19.7368Z" fill="#822323"/>
<path d="M26.7965 18.446C26.7935 18.446 26.7906 18.446 26.7877 18.446L25.5489 18.3512C25.4815 18.3453 25.4306 18.2877 25.4365 18.2192C25.4414 18.1527 25.4981 18.1107 25.5665 18.1068L26.641 18.1889L26.0622 15.6088C26.0475 15.5423 26.0896 15.4778 26.1551 15.4621C26.2226 15.4455 26.2861 15.4885 26.3008 15.555L26.9157 18.2974C26.9245 18.3356 26.9148 18.3747 26.8893 18.404C26.8659 18.4304 26.8317 18.446 26.7965 18.446Z" fill="#822323"/>
<path d="M26.9448 25.1359C26.6319 25.1359 26.1724 25.1017 25.7744 24.91C25.7129 24.8817 25.6874 24.8093 25.7168 24.7477C25.7461 24.6881 25.8204 24.6607 25.8791 24.691C26.3669 24.9237 26.9751 24.8954 27.2048 24.8836C27.2439 24.8817 27.2733 24.8807 27.2928 24.8807C27.3603 24.8807 27.415 24.9354 27.415 25.0029C27.415 25.0704 27.3603 25.1251 27.2928 25.1251C27.2752 25.1251 27.2498 25.1261 27.2166 25.128C27.151 25.131 27.0572 25.1359 26.9448 25.1359Z" fill="#822323"/>
<path d="M28.3431 11.3665C27.9989 11.0087 27.5443 10.7858 27.076 10.6401C26.3143 10.3996 25.5244 10.248 24.7285 10.1835C22.5698 10.0085 20.0493 10.3497 18.5671 12.0861C17.7888 12.9973 17.4671 14.1862 17.4505 15.3673C17.43 16.8113 17.7996 18.3287 18.4204 19.631C18.7998 20.4249 19.3003 21.1103 19.8537 21.7888C20.3826 22.437 20.9047 23.1282 21.2117 23.9123C21.3036 24.148 21.7133 24.146 21.6918 23.8468C21.597 22.5377 21.5089 21.2765 20.9957 20.0504C20.8001 19.5841 20.5254 19.148 20.3631 18.668C20.2898 18.4529 20.2301 18.2192 20.2487 17.9894C20.2722 17.6932 21.0064 17.6678 21.2156 17.7098C21.5295 17.7714 21.6898 17.9357 21.8463 17.6551C21.9577 17.4546 21.8727 17.1936 21.8277 16.9873C21.77 16.7184 21.7231 16.4476 21.6889 16.1758C21.6194 15.6312 21.5999 15.0798 21.6498 14.5323C21.7329 13.6397 22.2295 12.8888 23.0694 12.5407C23.5387 12.3462 24.05 12.2758 24.5564 12.2318C25.672 12.136 26.855 12.1164 27.9618 12.3149C28.1778 12.354 28.479 12.4547 28.6618 12.2768C28.959 11.9864 28.5406 11.5718 28.3431 11.3665Z" fill="#5B3650"/>
<path d="M21.9236 19.0349C21.8219 18.4199 21.3086 17.6895 20.9566 17.3972C20.4795 17.0022 19.7678 16.794 19.2017 17.1342C18.0773 17.8108 19.5634 19.5941 20.1833 19.9959C20.414 20.1455 21.0945 20.2511 21.3653 20.2012C21.9588 20.0927 21.9979 19.4856 21.9236 19.0349Z" fill="#AB493C"/>
<path d="M40.3308 150.062C40.412 149.235 40.5508 148.394 40.4961 147.562C40.4873 147.418 37.2961 146.745 36.2098 146.585C35.0845 146.42 31.6 146.746 31.4827 146.9C31.3986 147.011 31.4837 149.451 31.6196 152.067C34.4774 152.01 37.3352 151.783 40.193 151.391C40.2448 150.81 40.3123 150.062 40.3308 150.062Z" fill="#AB493C"/>
<path d="M43.3813 156.272C42.8837 155.992 42.301 155.88 41.7515 155.749C41.2333 155.625 40.7083 155.53 40.373 155.072C40.0738 154.661 40.1041 154.166 40.0816 153.685C40.0552 153.141 40.0816 152.595 40.1354 152.053C40.1412 151.993 40.1647 151.717 40.1931 151.391C37.3352 151.783 34.4774 152.009 31.6196 152.067C31.734 154.288 31.8846 156.636 31.997 157.79C32.0107 157.933 32.0997 158.021 32.2414 158.034C34.1401 158.216 41.2627 158.062 42.9472 158.086C44.2476 158.105 44.2476 157.986 44.2476 157.65C44.2466 157.077 43.878 156.552 43.3813 156.272Z" fill="#5B3650"/>
<path d="M40.2489 155.753C40.243 155.753 40.2372 155.752 40.2303 155.751C37.4517 155.316 36.9648 152.832 36.8817 152.081C36.8739 152.013 36.9218 151.954 36.9892 151.946C37.0518 151.927 37.1163 151.986 37.1242 152.053C37.2024 152.761 37.6599 155.101 40.2684 155.511C40.3349 155.522 40.3809 155.584 40.3701 155.651C40.3603 155.71 40.3085 155.753 40.2489 155.753Z" fill="#24142C"/>
<path d="M36.5608 153.2C36.4993 153.2 36.4465 153.154 36.4396 153.092C36.4328 153.024 36.4807 152.964 36.5481 152.957C36.5677 152.955 38.5456 152.734 39.7579 152.548C39.8244 152.537 39.887 152.583 39.8977 152.651C39.9075 152.716 39.8615 152.779 39.7951 152.789C38.5768 152.977 36.5951 153.197 36.5745 153.199C36.5706 153.2 36.5657 153.2 36.5608 153.2Z" fill="#24142C"/>
<path d="M37.0027 154.525C36.945 154.525 36.8942 154.485 36.8824 154.426C36.8687 154.361 36.9118 154.295 36.9783 154.282L39.753 153.73C39.8194 153.713 39.883 153.76 39.8967 153.826C39.9094 153.891 39.8664 153.956 39.7999 153.968L37.0262 154.522C37.0183 154.524 37.0095 154.525 37.0027 154.525Z" fill="#24142C"/>
<path d="M10.2808 150.062C10.1986 149.235 10.0608 148.394 10.1155 147.562C10.1243 147.418 13.3155 146.745 14.4017 146.585C15.5271 146.42 19.0116 146.746 19.1289 146.9C19.213 147.011 19.127 149.451 18.992 152.067C16.1342 152.01 13.2764 151.783 10.4186 151.391C10.3668 150.81 10.2993 150.062 10.2808 150.062Z" fill="#AB493C"/>
<path d="M7.23105 156.272C7.72869 155.992 8.3114 155.88 8.86086 155.749C9.37806 155.625 9.90407 155.53 10.2394 155.072C10.5386 154.661 10.5083 154.166 10.5308 153.685C10.5572 153.141 10.5308 152.595 10.477 152.053C10.4711 151.993 10.4477 151.717 10.4193 151.391C13.2771 151.783 16.1349 152.009 18.9927 152.067C18.8783 154.288 18.7278 156.636 18.6154 157.79C18.6017 157.933 18.5127 158.021 18.3709 158.034C16.4722 158.216 9.34971 158.062 7.66514 158.086C6.3648 158.105 6.36382 157.986 6.3648 157.65C6.36577 157.077 6.73438 156.552 7.23105 156.272Z" fill="#5B3650"/>
<path d="M10.3635 155.753C10.3039 155.753 10.2521 155.71 10.2423 155.651C10.2315 155.584 10.2775 155.522 10.344 155.511C12.9515 155.101 13.41 152.761 13.4883 152.053C13.4961 151.986 13.5547 151.925 13.6232 151.946C13.6906 151.954 13.7385 152.013 13.7307 152.081C13.6476 152.832 13.1607 155.316 10.3821 155.751C10.3753 155.752 10.3694 155.753 10.3635 155.753Z" fill="#24142C"/>
<path d="M14.0511 153.2C14.0462 153.2 14.0413 153.2 14.0374 153.199C14.0169 153.197 12.0351 152.977 10.8169 152.789C10.7504 152.779 10.7044 152.716 10.7142 152.651C10.725 152.582 10.7895 152.537 10.854 152.548C12.0664 152.734 14.0442 152.955 14.0638 152.957C14.1313 152.964 14.1792 153.024 14.1723 153.092C14.1655 153.154 14.1127 153.2 14.0511 153.2Z" fill="#24142C"/>
<path d="M13.6091 154.525C13.6023 154.525 13.5935 154.524 13.5856 154.522L10.8119 153.968C10.7454 153.956 10.7024 153.891 10.7151 153.826C10.7288 153.76 10.7884 153.711 10.8588 153.73L13.6336 154.282C13.7 154.295 13.7431 154.361 13.7294 154.426C13.7176 154.485 13.6668 154.525 13.6091 154.525Z" fill="#24142C"/>
<path d="M39.1353 150.364C40.1677 150.255 43.096 150.49 43.2856 149.826C43.4176 149.368 43.3228 148.878 43.3531 148.075C43.3883 147.121 43.7217 146.165 44.0512 145.282C44.7463 143.421 43.5604 141.712 43.1761 139.859C42.9982 139.001 42.9151 138.048 43.1673 137.221C43.3932 136.481 44.015 135.879 44.4246 135.209C45.2107 133.919 45.5021 132.407 45.4815 130.919C45.4512 128.709 44.7952 126.475 44.5097 124.298C44.1851 121.814 43.1888 119.176 42.9434 116.701C42.0762 107.962 41.384 99.46 41.0966 90.835C40.9528 86.4968 39.6222 81.632 39.4912 77.3232C39.3699 73.3664 38.3649 61.6048 37.3608 57.7516C36.4994 54.4412 35.9294 54.3629 32.3305 54.5233C29.3779 54.6543 26.4096 54.666 24.1707 56.3017C22.2798 57.6842 21.5974 59.7139 21.7489 61.7837C22.1644 67.4406 23.104 73.4642 23.758 79.1662C24.4141 84.8867 24.899 90.2434 25.864 95.9912C26.8446 101.841 27.5261 107.721 27.967 113.672C28.4178 119.743 28.8421 125.845 29.283 131.978C29.7152 138.01 29.8892 144.503 30.3253 150.597C30.2832 150.952 35.2235 150.776 39.1353 150.364Z" fill="#5B3650"/>
<path d="M10.9469 150.364C9.91345 150.255 6.98522 150.49 6.79555 149.826C6.66454 149.368 6.7584 148.878 6.72809 148.075C6.69289 147.121 6.35951 146.165 6.03003 145.282C5.33488 143.421 6.52083 141.712 6.90506 139.859C7.083 139.001 7.16611 138.048 6.91387 137.221C6.68802 136.481 6.06619 135.879 5.65654 135.209C4.87047 133.919 4.58009 132.407 4.60062 130.919C4.62995 128.709 5.28598 126.475 5.57147 124.298C5.89704 121.814 6.89234 119.176 7.13872 116.701C8.00496 107.962 8.69718 99.46 8.98463 90.835C9.12933 86.4968 10.459 81.632 10.591 77.3232C10.7122 73.3664 11.7163 61.6048 12.7204 57.7516C13.5818 54.4412 14.1527 54.3629 17.7507 54.5233C20.7043 54.6543 23.6716 54.666 25.9105 56.3017C27.8014 57.6842 28.4838 59.7139 28.3323 61.7837C27.9168 67.4406 26.9772 73.4642 26.3231 79.1662C25.6671 84.8867 25.1822 90.2434 24.2172 95.9912C23.2365 101.841 22.5551 107.721 22.1141 113.672C21.6634 119.743 21.2391 125.845 20.7991 131.978C20.367 138.01 20.192 144.503 19.7559 150.597C19.798 150.952 14.8577 150.776 10.9469 150.364Z" fill="#5B3650"/>
<path d="M32.7749 35.8423C32.8649 35.6859 32.9656 35.5324 33.077 35.3838C33.8719 34.321 35.0735 33.6102 36.411 33.5809C36.7913 33.5731 37.1315 33.577 37.4483 33.8165C37.8345 34.1069 38.1689 34.4472 38.4798 34.8246C39.2082 35.7045 39.7508 36.735 40.2132 37.784C41.3875 40.4483 41.9956 43.3041 42.6966 46.116C43.5501 49.5448 44.7801 52.9032 46.4412 56.024C47.2771 57.5902 48.113 59.6825 47.1862 61.3818C46.9242 61.8628 46.5742 62.2451 46.1694 62.5306C40.8937 66.2615 37.8893 56.287 36.4882 53.042C34.8046 49.1429 33.1992 45.065 32.3506 40.9078C32.0045 39.2125 31.895 37.3685 32.7749 35.8423Z" fill="#FFBF56"/>
<path d="M41.858 61.4376C41.8473 61.4258 41.8356 61.4141 41.8248 61.4024C40.2487 59.8117 40.634 57.6109 41.8786 55.9243C43.4194 53.8379 44.7716 51.4093 45.7952 49.0276C46.7915 46.7095 47.3488 44.2242 48.6091 42.0176C49.3238 40.7671 50.235 39.6085 51.3955 38.7432C51.9547 38.3248 52.5717 37.9914 53.2316 37.7607C53.6853 37.6013 54.6336 37.3432 54.7461 38.0735C54.7764 38.274 54.6796 38.4187 54.5535 38.5467C54.9172 38.4284 55.2877 38.3346 55.6661 38.2779C56.1031 38.2124 57.3819 38.0002 57.3409 38.7912C57.3233 39.1265 56.9987 39.2702 56.7415 39.411C56.6604 39.455 56.5802 39.5 56.5001 39.544C56.5841 39.497 56.81 39.9761 56.808 40.0543C56.8041 40.2499 56.6164 40.5217 56.4737 40.6449C56.3035 40.7925 56.1315 40.9382 55.9565 41.08C55.9105 41.1181 55.8606 41.1523 55.8127 41.1904C55.9838 41.299 56.107 41.47 56.1197 41.6871C56.1412 42.0664 55.8557 42.3646 55.6309 42.6345C54.4713 44.0306 53.9092 45.6057 53.2482 47.2834C51.416 51.9324 49.8488 57.5307 46.7896 61.5813C46.7847 61.5891 46.7788 61.5969 46.772 61.6048C45.5127 63.2698 43.175 62.736 41.858 61.4376Z" fill="#AB493C"/>
<path d="M51.8549 40.8374C51.8236 40.8374 51.7933 40.8266 51.7698 40.8032C51.7209 40.7562 51.72 40.679 51.7669 40.6301C52.5598 39.8128 53.7252 38.8566 54.261 38.5828C54.3216 38.5535 54.395 38.577 54.4253 38.6356C54.4566 38.6962 54.4321 38.7696 54.3725 38.7999C53.865 39.059 52.7065 40.0132 51.9419 40.8002C51.9184 40.8257 51.8862 40.8374 51.8549 40.8374Z" fill="#822323"/>
<path d="M53.6552 41.1091C53.6239 41.1091 53.5926 41.0964 53.5691 41.073C53.5212 41.025 53.5212 40.9478 53.5691 40.8999C54.0071 40.4619 55.3016 39.7042 56.2529 39.4197C56.3184 39.405 56.3859 39.4383 56.4045 39.5018C56.424 39.5663 56.3869 39.6348 56.3223 39.6543C55.3612 39.9418 54.1137 40.7014 53.7422 41.073C53.7177 41.0964 53.6864 41.1091 53.6552 41.1091Z" fill="#822323"/>
<path d="M53.9452 42.6306C53.9101 42.6306 53.8749 42.616 53.8514 42.5856C53.8084 42.5348 53.8152 42.4576 53.868 42.4145C53.9638 42.3354 54.0538 42.2591 54.1408 42.1858C54.5104 41.8748 54.8594 41.5796 55.5067 41.2042C55.5634 41.1729 55.6396 41.1905 55.6729 41.2491C55.7071 41.3078 55.6875 41.3821 55.6289 41.4163C55.0012 41.78 54.6756 42.0548 54.2992 42.3735C54.2102 42.4478 54.1203 42.5231 54.0225 42.6032C54 42.6208 53.9726 42.6306 53.9452 42.6306Z" fill="#822323"/>
<path d="M53.1947 48.5544C53.2651 49.3982 52.1584 51.3624 51.9247 51.9373C51.3586 53.3334 50.7828 54.7247 50.201 56.115C49.6721 57.3772 49.0708 58.6091 48.3943 59.7979C47.7666 60.9018 46.8583 62.3067 45.6352 62.7653C44.2517 63.2834 41.9082 62.512 40.9481 61.5647C40.9364 61.5539 40.9256 61.5431 40.9139 61.5314C39.3378 59.9387 40.3067 57.5942 41.5513 55.9077C43.0922 53.8223 46.0663 47.4887 46.3342 46.7144C46.4965 46.2451 46.6803 44.716 47.4156 45.197C48.2867 45.768 49.2439 46.336 50.1873 46.8386C50.6909 47.1065 51.2022 47.3626 51.7174 47.607C52.1594 47.8163 52.7078 47.9121 53.0735 48.2553C53.1459 48.3237 53.183 48.4254 53.1947 48.5544Z" fill="#FFBF56"/>
<path d="M38.7322 54.9681C38.7225 55.7845 39.2309 63.8183 39.2162 64.6337C39.2162 64.9074 39.4166 66.3045 39.0549 66.3388C30.236 67.1405 20.1188 66.8481 11.2853 66.0327C10.9285 65.9985 11.1289 64.6004 11.124 64.3276C11.1142 63.5113 12.0254 55.7845 12.0108 54.9681C11.9726 51.9891 11.9081 49.0228 11.8064 46.0427C11.7174 43.7803 11.7517 41.5219 11.7673 39.2604C11.7761 38.0188 11.7126 36.8074 12.1232 35.6146C12.436 34.7122 12.9738 33.8469 13.8488 33.407C14.7962 32.9279 15.9343 32.8986 16.9755 32.8057C17.6159 32.7529 18.2504 32.704 18.8908 32.659C19.5596 32.615 20.2342 32.5759 20.9088 32.5476C23.8302 32.4097 26.7769 32.4097 29.6983 32.5427C30.3436 32.571 30.983 32.6053 31.6234 32.6493C32.3459 32.6884 33.0596 32.7421 33.7733 32.8057C34.8087 32.8986 35.9526 32.9279 36.8951 33.407C37.7751 33.8469 38.3118 34.7122 38.6198 35.6146C39.0304 36.8074 38.9718 38.0188 38.9815 39.2604C38.9962 41.5219 39.0304 43.7803 38.9424 46.0427C38.8349 49.0228 38.7762 51.9891 38.7322 54.9681Z" fill="#FFBF56"/>
<path d="M25.7181 87.7776C25.7151 87.7776 25.7112 87.7776 25.7073 87.7764C25.6399 87.7707 25.59 87.7119 25.5968 87.6435L26.8404 73.9138C26.8453 73.8513 26.8991 73.8034 26.9617 73.8034C26.9656 73.8034 26.9685 73.8034 26.9724 73.8043C27.0399 73.8102 27.0898 73.8689 27.0839 73.9373L25.8403 87.6672C25.8344 87.7295 25.7806 87.7776 25.7181 87.7776Z" fill="#24142C"/>
<path d="M11.3611 83.2528C11.6319 83.0729 12.154 82.7433 12.2801 82.4481C12.7221 81.4128 12.4121 80.7627 11.9448 79.8515C11.3464 78.6861 10.9935 78.382 10.3042 76.5136C10.2035 76.2428 9.98451 75.5789 9.86523 75.3159L10.1712 80.0715L11.3611 83.2528Z" fill="#AB493C"/>
<path d="M9.86502 75.3161C8.93034 73.264 8.35056 71.0465 8.15502 68.8017C7.76101 64.2994 8.75825 60.2997 10.4604 56.1767C11.6366 53.3297 12.8128 50.4797 14.1356 47.6962C14.7046 46.4985 15.5249 45.2412 15.2453 43.8577C14.9901 42.5926 14.0222 41.6188 12.8665 41.1163C11.6982 40.6079 10.2326 40.4172 9.02712 40.907C7.8226 41.3959 7.06684 42.4968 6.45871 43.5928C5.69904 44.9616 4.95501 46.3548 4.27942 47.7676C-0.722487 58.2289 -0.59342 70.3749 3.8512 80.931C3.86097 80.9554 3.87661 80.9722 3.89029 80.9905C3.99197 81.3144 4.09953 81.6348 4.21881 81.9518C4.57958 82.9089 5.01758 83.8396 5.5299 84.7234C5.93955 85.4314 6.5164 86.1697 7.39829 86.2312C7.73559 86.2544 8.13839 86.1715 8.33686 85.8714C8.36815 85.8233 8.38968 85.7744 8.40532 85.7255C8.74263 85.7786 9.12588 85.6915 9.35075 85.4246C9.4055 85.3589 9.44265 85.2886 9.47198 85.2183C9.91781 85.3531 10.5973 85.4257 10.8437 84.962C10.8652 84.9212 10.876 84.8769 10.8867 84.833C11.1067 84.9231 11.3521 84.9514 11.6161 84.87C12.2858 84.6669 11.9436 83.7174 11.6816 83.1457C11.1673 82.0233 10.6208 79.4606 10.6208 79.4606L9.86502 75.3161Z" fill="#AB493C"/>
<path d="M11.6249 83.0303C11.5809 83.0303 11.5379 83.0047 11.5164 82.9626C11.4822 82.8961 10.6853 81.3162 10.5084 79.9337C10.4996 79.8661 10.5465 79.8057 10.613 79.7969C10.6756 79.7832 10.7411 79.8348 10.7509 79.9023C10.9219 81.2418 11.7256 82.8354 11.7334 82.8522C11.7647 82.9119 11.7403 82.9859 11.6806 83.0165C11.663 83.0253 11.6435 83.0303 11.6249 83.0303Z" fill="#822323"/>
<path d="M10.7771 84.7994C10.7409 84.7994 10.7047 84.7838 10.6802 84.7517C10.1826 84.1082 9.54906 82.8841 9.52267 82.8322C9.49138 82.7727 9.51485 82.6993 9.57449 82.6673C9.63315 82.639 9.70842 82.6603 9.73873 82.72C9.74558 82.7326 10.3899 83.9764 10.8739 84.6031C10.9149 84.6566 10.9051 84.7331 10.8513 84.7742C10.8298 84.7906 10.8035 84.7994 10.7771 84.7994Z" fill="#822323"/>
<path d="M9.36465 85.1812C9.33923 85.1812 9.31381 85.1731 9.29132 85.1567C9.26297 85.1349 8.57955 84.6216 8.09071 83.5462C8.06333 83.4847 8.09072 83.4121 8.15133 83.3849C8.21293 83.3556 8.28527 83.3831 8.31362 83.4446C8.77412 84.4585 9.43015 84.955 9.437 84.96C9.49077 85.0001 9.5025 85.0772 9.46242 85.1311C9.43798 85.1632 9.4018 85.1812 9.36465 85.1812Z" fill="#822323"/>
<path d="M8.14485 85.754C8.12432 85.754 8.10478 85.749 8.08523 85.7384C8.05394 85.7216 7.29718 85.2984 6.84255 84.5281C6.80833 84.4692 6.82791 84.3948 6.88559 84.3608C6.94425 84.3276 7.01953 84.3459 7.05277 84.4035C7.47416 85.1166 8.1957 85.5203 8.20353 85.5241C8.26219 85.5573 8.2837 85.6318 8.25143 85.6903C8.22894 85.7304 8.18689 85.754 8.14485 85.754Z" fill="#822323"/>
<path d="M18.6689 37.3285C18.2563 35.6194 17.1555 34.1724 15.117 33.5428C14.6731 33.4059 14.2732 33.2945 13.8352 33.4568C13.3033 33.6543 12.8194 33.9221 12.351 34.2409C11.258 34.9829 10.3419 35.9558 9.51376 36.9775C5.57559 41.8395 3.09321 48.0802 1.4673 54.0686C0.272552 58.4692 -0.211398 63.0722 0.0848444 67.6254C0.229544 69.8379 0.56001 72.0387 1.0909 74.1926C1.34412 75.2162 1.68142 76.2164 2.03535 77.2097C2.21818 77.7191 2.19863 78.0427 2.7041 78.1082C4.19998 78.3028 5.89531 77.3046 7.27484 76.8196C7.89861 76.6006 10.2079 75.5701 9.98208 74.5709C9.87062 74.0713 9.51767 73.6216 9.36319 73.1327C8.90074 71.6701 8.59962 70.1586 8.46665 68.6353C8.05308 63.9072 8.84112 60.6602 10.6293 56.33C12.5632 51.6459 15.7036 47.6471 17.8956 43.1291C18.752 41.3634 19.1187 39.191 18.6689 37.3285Z" fill="#FFBF56"/>
<path d="M38.8669 57.9636C38.8659 57.9636 38.8659 57.9636 38.8659 57.9636C38.7984 57.9626 38.7437 57.9079 38.7446 57.8404L38.8639 40.9986C38.8649 40.9321 38.9196 40.8774 38.9861 40.8774C38.9871 40.8774 38.9871 40.8774 38.9871 40.8774C39.0546 40.8783 39.1093 40.9331 39.1083 41.0006L38.9891 57.8424C38.9881 57.9089 38.9333 57.9636 38.8669 57.9636Z" fill="#FF8C49"/>
<path d="M12.2736 52.5319C12.2531 52.5319 12.2316 52.526 12.213 52.5162C12.1543 52.481 12.1348 52.4067 12.168 52.349L15.195 47.1066C15.2302 47.048 15.3045 47.0303 15.3621 47.0616C15.4208 47.0968 15.4404 47.1711 15.4071 47.2288L12.3802 52.4712C12.3567 52.5104 12.3156 52.5319 12.2736 52.5319Z" fill="#FF8C49"/>
<path d="M41.6625 55.8785C41.642 55.8785 41.6205 55.8736 41.6019 55.8619C41.5432 55.8287 41.5227 55.7544 41.5559 55.6967L43.8545 51.6666C43.8878 51.608 43.9621 51.5845 44.0207 51.6216C44.0794 51.6549 44.0999 51.7292 44.0667 51.7869L41.7681 55.8169C41.7456 55.857 41.7046 55.8785 41.6625 55.8785Z" fill="#FF8C49"/>
<path d="M29.359 32.9101C29.3053 32.6774 28.4762 28.4215 28.4224 28.1888C28.3647 27.9121 28.3256 27.5992 28.2259 27.3343C28.1526 27.1407 27.9893 26.996 27.7957 26.9285C27.5513 26.8435 27.3743 26.9129 27.1377 26.9823C26.0026 27.3196 24.7736 27.4017 23.5955 27.2189C23.1262 27.1456 22.6765 26.9833 22.2082 26.9119C21.8337 26.8552 21.426 26.8973 21.2529 27.2844C21.2451 27.301 21.2393 27.3177 21.2324 27.3343C21.1317 27.5992 21.0936 27.9121 21.0359 28.1888C20.9812 28.4215 20.4503 32.6774 20.3965 32.9101L24.8773 35.1735L29.359 32.9101Z" fill="#FFBF56"/>
<path d="M24.714 34.3542C23.1712 34.3542 21.7222 34.0228 20.7426 33.4831C20.6829 33.4509 20.6614 33.3756 20.6937 33.3169C20.7259 33.2582 20.8012 33.2358 20.8599 33.269C22.654 34.2555 26.0691 34.5253 28.6776 33.2661C28.7382 33.2358 28.8105 33.2622 28.8408 33.3228C28.8702 33.3834 28.8438 33.4557 28.7832 33.4861C27.5249 34.0942 26.0818 34.3542 24.714 34.3542Z" fill="#FF8C49"/>
<path d="M27.8698 33.2788C27.8111 33.2788 27.7603 33.2377 27.7495 33.1781L26.8031 27.9298C26.7914 27.8633 26.8364 27.7998 26.9029 27.7881C26.9654 27.7793 27.0319 27.8193 27.0446 27.8858L27.99 33.1341C28.0018 33.2016 27.9578 33.2641 27.8913 33.2769C27.8835 33.2778 27.8766 33.2788 27.8698 33.2788Z" fill="#FF8C49"/>
<path d="M24.7658 33.4979C24.6983 33.4979 24.6436 33.4442 24.6436 33.3757V28.2154C24.6436 28.148 24.6983 28.0932 24.7658 28.0932C24.8332 28.0932 24.888 28.148 24.888 28.2154V33.3757C24.888 33.4442 24.8332 33.4979 24.7658 33.4979Z" fill="#FF8C49"/>
<path d="M21.9588 33.0188C21.9529 33.0188 21.9461 33.0178 21.9392 33.0169C21.8727 33.0071 21.8277 32.9435 21.8385 32.877L22.6431 28.0062C22.6529 27.9406 22.7184 27.8957 22.783 27.9064C22.8494 27.9162 22.8944 27.9797 22.8837 28.0462L22.079 32.9171C22.0702 32.9758 22.0174 33.0188 21.9588 33.0188Z" fill="#FF8C49"/>
<path d="M51.721 51.2869C51.7112 51.2869 51.6995 51.2859 51.6897 51.282C51.6594 51.2742 48.7048 50.4558 46.2478 48.7028C46.1931 48.6637 46.1804 48.5874 46.2195 48.5327C46.2586 48.4779 46.3348 48.4642 46.3906 48.5043C48.8104 50.2319 51.7239 51.0385 51.7532 51.0473C51.8188 51.0639 51.8569 51.1324 51.8393 51.1969C51.8246 51.2517 51.7757 51.2869 51.721 51.2869Z" fill="#FF8C49"/>
<path d="M49.2052 49.4832C49.1886 49.4832 49.171 49.4792 49.1544 49.4714C49.0928 49.444 49.0664 49.3717 49.0938 49.3101L49.9669 47.3967C49.9942 47.3352 50.0686 47.3088 50.1282 47.3371C50.1898 47.3645 50.2172 47.4368 50.1888 47.4984L49.3167 49.4118C49.2962 49.4568 49.2512 49.4832 49.2052 49.4832Z" fill="#FF8C49"/>
<path d="M47.0817 48.4272C47.0689 48.4272 47.0553 48.4253 47.0426 48.4204C46.979 48.3999 46.9438 48.3295 46.9653 48.2659L47.6174 46.3271C47.6389 46.2636 47.7093 46.2284 47.7719 46.2499C47.8355 46.2714 47.8707 46.3408 47.8492 46.4054L47.197 48.3441C47.1804 48.395 47.1325 48.4272 47.0817 48.4272Z" fill="#FF8C49"/>
<path d="M51.2162 50.375C51.1937 50.375 51.1722 50.3691 51.1527 50.3574C51.095 50.3222 51.0764 50.2469 51.1116 50.1902L52.235 48.3414C52.2692 48.2837 52.3444 48.2642 52.4031 48.3003C52.4608 48.3345 52.4784 48.4098 52.4442 48.4675L51.3208 50.3163C51.2974 50.3545 51.2573 50.375 51.2162 50.375Z" fill="#FF8C49"/>
<path d="M26.52 63.2689C17.9162 63.2689 12.3375 62.6266 12.2602 62.6178C12.1928 62.6099 12.1449 62.5484 12.1527 62.4819C12.1605 62.4154 12.2231 62.3616 12.2886 62.3753C12.3971 62.387 23.2721 63.6414 38.1223 62.6344C38.1908 62.6383 38.2484 62.6813 38.2523 62.7478C38.2572 62.8163 38.2064 62.8739 38.1389 62.8788C33.8889 63.1653 29.9615 63.2689 26.52 63.2689Z" fill="#FF8C49"/>
<path d="M25.7179 66.1178C25.6505 66.1178 25.5957 66.063 25.5957 65.9956V63.655C25.5957 63.5875 25.6505 63.5328 25.7179 63.5328C25.7854 63.5328 25.8401 63.5875 25.8401 63.655V65.9956C25.8401 66.063 25.7854 66.1178 25.7179 66.1178Z" fill="#FF8C49"/>
<path d="M37.7523 65.8342C37.6898 65.8342 37.637 65.7863 37.6301 65.7228L37.417 63.5005C37.4111 63.434 37.46 63.3734 37.5274 63.3675C37.591 63.347 37.6546 63.4105 37.6604 63.478L37.8736 65.7003C37.8804 65.7668 37.8305 65.8274 37.7631 65.8332C37.7601 65.8342 37.7562 65.8342 37.7523 65.8342Z" fill="#FF8C49"/>
<path d="M12.274 65.5508C12.2672 65.5508 12.2593 65.5498 12.2525 65.5488C12.186 65.5361 12.142 65.4726 12.1537 65.4061L12.5712 63.1271C12.5839 63.0606 12.6494 63.0186 12.714 63.0293C12.7805 63.041 12.8244 63.1056 12.8117 63.1711L12.3943 65.4501C12.3835 65.5097 12.3317 65.5508 12.274 65.5508Z" fill="#FF8C49"/>
<path d="M18.8616 65.8342C18.8587 65.8342 18.8538 65.8342 18.8499 65.8332C18.7824 65.8264 18.7335 65.7658 18.7404 65.6993L18.9535 63.6422C18.9604 63.5758 19.0112 63.52 19.0875 63.5337C19.1549 63.5405 19.2038 63.6012 19.197 63.6677L18.9838 65.7237C18.977 65.7873 18.9242 65.8342 18.8616 65.8342Z" fill="#FF8C49"/>
<path d="M15.5288 65.5508C15.5239 65.5508 15.52 65.5508 15.5142 65.5498C15.4477 65.542 15.3998 65.4804 15.4076 65.4139L15.6207 63.6413C15.6285 63.5739 15.6823 63.5211 15.7566 63.5338C15.8241 63.5416 15.871 63.6022 15.8632 63.6697L15.65 65.4423C15.6422 65.5048 15.5904 65.5508 15.5288 65.5508Z" fill="#FF8C49"/>
<path d="M22.6686 65.9524C22.6011 65.9524 22.5464 65.8976 22.5464 65.8302V63.82C22.5464 63.7526 22.6011 63.6978 22.6686 63.6978C22.7361 63.6978 22.7908 63.7526 22.7908 63.82V65.8302C22.7908 65.8976 22.7361 65.9524 22.6686 65.9524Z" fill="#FF8C49"/>
<path d="M32.4803 66.1178C32.4187 66.1178 32.3659 66.0718 32.359 66.0083L32.099 63.6687C32.0911 63.6012 32.14 63.5416 32.2065 63.5337C32.273 63.5161 32.3346 63.5738 32.3414 63.6413L32.6015 65.9819C32.6093 66.0484 32.5614 66.109 32.494 66.1168C32.4891 66.1178 32.4852 66.1178 32.4803 66.1178Z" fill="#FF8C49"/>
<path d="M29.4066 66.1178C29.344 66.1178 29.2903 66.0709 29.2844 66.0063L29.0713 63.8319C29.0654 63.7645 29.1143 63.7058 29.1818 63.699C29.2541 63.6833 29.3089 63.741 29.3147 63.8085L29.5279 65.9839C29.5337 66.0503 29.4858 66.11 29.4184 66.1168C29.4135 66.1178 29.4105 66.1178 29.4066 66.1178Z" fill="#FF8C49"/>
<path d="M35.0573 65.9524C34.9937 65.9524 34.94 65.9035 34.9351 65.84L34.7699 63.6646C34.765 63.5971 34.8148 63.5385 34.8823 63.5326C34.94 63.5297 35.0084 63.5785 35.0133 63.645L35.1785 65.8204C35.1844 65.8879 35.1336 65.9465 35.0661 65.9524C35.0632 65.9524 35.0602 65.9524 35.0573 65.9524Z" fill="#FF8C49"/>
<path d="M1.93445 74.7703C1.87677 74.7703 1.82593 74.7292 1.8142 74.6715C1.80149 74.6041 1.84549 74.5405 1.91197 74.5278C2.1212 74.4887 2.33532 74.4506 2.55139 74.4114C4.26236 74.1054 6.20114 73.7574 8.15654 72.4883C8.21422 72.4521 8.2895 72.4688 8.32568 72.5235C8.36283 72.5812 8.3462 72.6565 8.28949 72.6927C6.29303 73.9891 4.32786 74.342 2.5944 74.652C2.37931 74.6911 2.16617 74.7292 1.95694 74.7683C1.94912 74.7693 1.9413 74.7703 1.93445 74.7703Z" fill="#FF8C49"/>
<path d="M6.35568 76.6379C6.30288 76.6379 6.254 76.6037 6.23836 76.5519L5.62338 74.4948C5.60383 74.4303 5.64099 74.3619 5.70552 74.3423C5.77102 74.3276 5.83849 74.3599 5.85804 74.4244L6.47302 76.4805C6.49257 76.546 6.45541 76.6135 6.39088 76.634C6.37915 76.637 6.36741 76.6379 6.35568 76.6379Z" fill="#FF8C49"/>
<path d="M3.56535 77.5609C3.50767 77.5609 3.45681 77.5199 3.44605 77.4612L2.99633 75.1206C2.98362 75.0541 3.02761 74.9905 3.0941 74.9769C3.15863 74.97 3.22413 75.0081 3.23684 75.0746L3.68561 77.4152C3.69832 77.4817 3.6553 77.5453 3.58882 77.559C3.581 77.5599 3.57318 77.5609 3.56535 77.5609Z" fill="#FF8C49"/>
<path d="M8.76693 75.7402C8.72001 75.7402 8.67502 75.7119 8.65546 75.6649L7.79998 73.6675C7.7726 73.6059 7.80097 73.5345 7.86354 73.5072C7.92514 73.4817 7.99845 73.5091 8.02387 73.5727L8.87936 75.5701C8.90576 75.6317 8.87741 75.7031 8.81582 75.7304C8.7992 75.7373 8.78356 75.7402 8.76693 75.7402Z" fill="#FF8C49"/>
<path d="M57.7306 10.077C54.4074 10.6127 51.6738 12.7989 50.6374 15.0593C49.6265 17.263 50.13 19.3573 50.4859 21.4877C49.3811 21.5933 48.3046 22.0694 47.5156 22.6267C45.9366 23.7413 45.1437 25.3369 45.1799 26.8005C45.2562 29.8714 47.4276 32.783 50.1094 35.0073C50.8984 35.6614 51.8077 36.1483 52.7414 36.6723C52.7629 36.6831 52.7854 36.6958 52.8059 36.7075C53.5157 37.1025 53.8834 40.0962 54.3908 40.8578C55.5748 42.6304 56.8634 44.3697 58.0982 46.1237C58.9107 47.2774 57.3092 48.2121 56.8771 49.3765C56.4479 50.5322 56.3921 51.7171 56.4811 52.8728C56.6483 55.0374 57.452 57.1355 58.81 59.0195C59.292 59.6893 63.633 63.1132 63.5518 63.3488C63.3641 63.8875 63.2145 64.4311 63.1246 64.9757C62.8948 66.3806 62.8469 67.9215 63.6212 69.1993C64.2372 70.2142 65.5649 71.145 67.2065 71.1782C66.9474 71.1733 69.0103 76.4148 69.2909 76.8684C70.2021 78.3389 71.2649 79.7047 74.0122 79.6791C78.2789 79.6394 81.0145 76.5008 81.7966 74.2003C81.9267 73.816 82.8623 68.0701 82.7606 68.0574C87.4262 68.6489 90.9362 66.1118 92.1299 63.0917C92.8436 61.2859 92.8172 59.4214 92.6637 57.6205C92.5718 56.5333 90.6595 53.3968 91.0916 52.6C93.793 47.6313 94.9907 41.6889 92.5015 36.7857C91.8151 35.4345 90.8355 34.1234 89.2575 33.1976C88.0432 32.4838 86.3742 32.0654 84.7043 32.1925C84.3758 29.3904 83.2241 27.0498 82.0323 24.4384C81.4241 23.1067 80.6312 21.7702 79.15 20.8512C76.6324 19.2888 73.5996 19.7112 71.521 21.6822C71.2541 21.9335 71.0107 22.1994 70.779 22.4634C71.4409 19.15 69.0064 15.0847 66.2581 12.6376C64.7749 11.3167 62.7041 10.2481 60.2325 10.0007C59.3741 9.91369 58.5362 9.94791 57.7306 10.077Z" fill="#87B63F"/>
<path d="M94.1101 0.129066C91.0528 -0.469284 87.8176 1.08134 85.9991 3.34666C84.2266 5.55332 83.7925 8.19115 83.2156 10.8163C82.2291 10.5327 81.1136 10.6931 80.2102 11.0548C78.4024 11.7783 77.0679 13.3534 76.494 15.08C75.2904 18.7034 75.9415 22.9114 77.3123 26.5034C77.7151 27.5603 78.29 28.4657 78.8707 29.4219C78.8844 29.4434 78.8981 29.4659 78.9118 29.4874C79.3537 30.2118 78.4308 33.8528 78.5501 34.9292C78.8277 37.4419 79.21 39.9517 79.5395 42.4605C79.7565 44.1118 78.0035 44.6163 77.1549 45.8179C76.3101 47.0146 75.7734 48.3804 75.3725 49.7658C74.6217 52.3606 74.4408 55.1138 74.8221 57.8191C74.957 58.7812 77.2478 64.3892 77.0806 64.6346C76.6983 65.1958 76.3453 65.7776 76.0452 66.3818C75.2679 67.9432 74.5904 69.7284 74.7243 71.5088C74.8309 72.9245 75.5798 74.5035 76.9672 75.1478C76.7482 75.0461 76.3434 81.9418 76.3962 82.5765C76.5663 84.6335 76.9095 86.6239 79.2648 87.6066C82.9223 89.1328 86.5525 86.4666 88.1696 84.0613C88.4395 83.6596 91.6101 77.2782 91.529 77.2254C95.2667 79.6365 99.3095 77.9597 101.576 74.8653C102.93 73.0145 103.677 70.8215 104.29 68.6569C104.659 67.3497 104.323 62.9735 105.021 62.2002C109.378 57.3792 109.944 51.4455 109.844 44.7864C109.817 42.9522 109.522 41.0565 108.558 39.3915C107.815 38.1097 109.313 36.1709 107.836 35.7055C108.712 32.3041 108.858 29.3906 108.918 25.8953C108.951 24.111 108.824 22.2544 107.94 20.6324C106.436 17.8772 103.675 17.2534 101.087 18.7943C100.756 18.9928 100.438 19.2118 100.131 19.4366C102.064 15.8016 101.665 10.1456 100.33 6.26704C99.6106 4.17477 98.2829 2.1617 96.2767 0.960106C95.5806 0.542633 94.8502 0.272789 94.1101 0.129066Z" fill="#87B63F"/>
<path d="M73.7071 23.841C73.184 23.8097 72.6277 23.8625 72.0127 24.016C68.933 24.7864 65.4367 26.7819 64.3808 29.9134C64.0034 31.0339 63.6974 34.2984 64.639 35.0688C64.6047 35.0405 64.7142 36.4386 64.8345 36.6596C65.1562 37.2462 65.8669 37.5972 66.436 37.8836C68.0707 38.7059 70.1082 38.9259 71.9091 39.0246C73.2495 39.097 74.8794 39.2084 76.1425 38.6492C79.4247 37.1973 80.3711 32.3068 80.9391 29.1606C81.0359 28.6229 80.9861 28.0842 80.6302 27.655C80.3486 27.1123 79.6857 26.776 79.1978 26.4465C78.6699 26.0877 78.138 25.7357 77.5935 25.4033C76.211 24.5605 75.071 23.9211 73.7071 23.841Z" fill="#A4250E"/>
<path d="M68.021 30.7759C66.6639 29.9478 65.7507 32.9376 66.9083 33.5916C68.4072 34.4373 69.0876 31.426 68.021 30.7759Z" fill="#BA3413"/>
<path d="M74.4718 28.8228C72.9045 29.0965 74.1931 31.9465 75.4935 31.6728C77.179 31.3198 75.7017 28.6077 74.4718 28.8228Z" fill="#BA3413"/>
<path d="M68.3331 29.2186C69.0683 30.6275 71.3933 28.5372 70.7392 27.3806C69.8916 25.8808 67.7553 28.1109 68.3331 29.2186Z" fill="#BA3413"/>
<path d="M75.0079 27.4976C76.4637 28.138 76.9702 25.0524 75.7353 24.5587C74.1368 23.9203 73.864 26.9951 75.0079 27.4976Z" fill="#BA3413"/>
<path d="M73.3661 51.3948C74.4846 50.7769 75.5102 50.3116 76.1564 49.0826C76.9103 47.6512 77.0285 45.9412 76.9337 44.3554C76.9259 44.2137 76.9151 44.0729 76.9034 43.9321C76.1506 35.167 68.4141 23.9861 62.4159 23.3271C61.3472 23.2098 60.3519 23.5911 59.3958 24.0535C58.3437 24.5639 56.6377 25.567 56.0364 26.6063C55.5133 27.5077 55.2855 28.5617 55.1946 29.5912C54.9326 32.5536 55.704 35.5943 56.7384 38.3445C57.5137 40.4055 58.5031 42.3844 59.647 44.2635C61.2094 46.8319 62.9018 48.8167 64.5609 50.2157C65.8085 51.2668 67.2584 52.22 68.8736 52.5759C70.1377 52.8536 71.2063 52.6297 72.3014 51.9863C72.4392 51.9052 73.2292 51.4701 73.3661 51.3948Z" fill="#F12D27"/>
<path d="M67.2096 48.7148C72.8607 53.4791 77.5057 51.1688 76.8809 43.8898C76.1271 35.1257 68.3906 23.9438 62.3924 23.2848C56.452 22.6327 56.1107 32.6023 62.2947 42.7625C63.858 45.3309 65.5494 47.3157 67.2096 48.7148Z" fill="#F94737"/>
<path d="M68.6303 43.6964C68.7555 42.9034 68.4573 41.8798 68.3605 41.0742C68.2363 40.0427 68.0926 39.0122 67.9312 37.9846C67.6634 36.2864 67.3446 34.5959 66.9741 32.9172C66.5722 31.0899 65.6298 29.5207 64.8828 27.8312C64.4585 26.8702 63.7809 25.5444 62.7543 25.1103C61.7747 24.6977 60.5105 25.3802 59.9317 26.1574C59.217 27.1185 59.0626 28.3875 59.1183 29.5843C59.1701 30.6715 59.1535 32.0686 59.4702 33.104C59.8261 34.2694 60.5105 35.3292 60.8351 36.5152C61.673 39.5763 62.858 43.7355 66.0883 45.113C66.3826 45.2392 66.6974 45.335 67.0181 45.3311C67.8746 45.3193 68.5061 44.4824 68.6303 43.6964Z" fill="#F12D27"/>
<path d="M75.2648 48.0354C75.779 47.0088 76.0108 45.73 76.0274 44.8794C76.0743 42.4234 75.3254 40.0055 74.2656 37.8135C73.7249 36.6921 73.0923 35.6157 72.3933 34.5871C71.8487 33.7854 71.1477 32.4294 70.1524 32.1361C68.4747 31.6413 69.2666 35.5844 69.3086 36.3529C69.3556 37.2025 69.3712 38.0472 69.3399 38.89C69.3116 39.6477 69.4964 40.4279 69.5824 41.1866C69.7251 42.4381 69.8102 43.7012 69.732 44.9605C69.6733 45.903 69.2187 46.6598 69.7095 47.5514C70.3567 48.7276 72.2456 50.0553 73.6682 49.6124C74.3663 49.3944 74.8903 48.7814 75.2648 48.0354Z" fill="#F12D27"/>
<path d="M61.6731 29.8786C61.9567 29.726 61.9401 29.2264 61.7885 28.9214C61.6096 28.5616 61.1471 28.2722 60.7404 28.3846C60.5908 28.4257 60.4462 28.5117 60.3689 28.6496C60.146 29.0465 60.5615 29.419 60.8519 29.6263C60.9937 29.728 61.2303 29.901 61.4102 29.9206C61.5167 29.9323 61.6037 29.9157 61.6731 29.8786Z" fill="#F94737"/>
<path d="M62.8083 27.9427C63.0909 27.7901 63.0752 27.2915 62.9227 26.9845C62.7438 26.6247 62.2813 26.3363 61.8756 26.4487C61.725 26.4888 61.5813 26.5758 61.5031 26.7147C61.2802 27.1106 61.6967 27.4822 61.987 27.6904C62.1278 27.7921 62.3654 27.9642 62.5453 27.9847C62.6519 27.9964 62.7389 27.9798 62.8083 27.9427Z" fill="#F94737"/>
<path d="M62.3571 32.5027C62.3444 32.4108 62.319 32.3179 62.2848 32.2329C62.1782 31.966 61.9915 31.7421 61.8087 31.5211C61.662 31.3451 61.5124 31.1672 61.3198 31.044C61.0285 30.8573 60.6374 30.8201 60.4907 31.1906C60.259 31.7773 60.8065 32.3991 61.2162 32.7491C61.6248 33.0972 62.4842 33.4022 62.3571 32.5027Z" fill="#F94737"/>
<path d="M67.2269 43.9259C67.3032 43.7705 67.356 43.5779 67.2973 43.4068C67.2338 43.223 67.1037 43.1076 66.9248 43.0362C66.8016 42.9883 66.6628 42.9736 66.5318 42.9697C66.2746 42.9619 66.0156 43.001 65.7633 43.045C65.7398 43.0489 65.7174 43.0587 65.6959 43.0695C65.6773 43.0665 65.6597 43.0616 65.6411 43.0587C65.5394 43.046 65.4299 43.1174 65.3801 43.2015C65.3233 43.2953 65.3302 43.397 65.3742 43.4948C65.424 43.6052 65.5101 43.7059 65.5981 43.791C65.7056 43.8956 65.8269 43.9905 65.9549 44.0687C66.2013 44.2192 66.5337 44.3503 66.8241 44.2593C66.9971 44.2056 67.1467 44.0912 67.2269 43.9259Z" fill="#F94737"/>
<path d="M62.9863 35.3801C62.8445 35.0663 62.5815 34.8111 62.3136 34.6038C62.0985 34.4376 61.3995 33.9576 61.1629 34.3154C61.0788 34.4425 61.0856 34.6087 61.114 34.7583C61.2225 35.3449 61.6175 35.8651 62.1337 36.1564C62.821 36.5455 63.3314 36.1437 62.9863 35.3801Z" fill="#F94737"/>
<path d="M85.9569 37.1183C85.6294 36.823 85.3576 36.3645 85.1679 35.6967C84.6996 34.0522 84.8443 32.3315 85.1219 30.6479C85.513 28.2818 86.2062 25.9637 87.137 23.7561C87.9651 21.7928 89.5324 17.2759 92.1203 16.9738C93.1049 17.6631 93.8997 19.0299 94.0933 19.9118C94.4208 21.4106 94.5274 23.1802 94.2145 24.6213C93.9017 26.0664 93.4676 27.5104 92.9924 28.9066C91.9101 32.0861 90.115 35.7348 86.609 36.9628C86.3881 37.0401 86.1691 37.0938 85.9569 37.1183ZM86.3998 38.7021C87.5691 38.9818 88.7981 38.885 89.9039 38.444C91.651 37.7469 92.8897 36.1963 93.7853 34.5968C94.7972 32.79 95.4699 30.8649 96.1504 28.9183C96.6852 27.3872 97.0694 25.8004 97.307 24.1931C97.7773 21.0039 96.9296 17.2397 93.7961 15.5688C92.5955 14.9275 91.0781 14.4953 89.7758 15.08C88.8841 15.4799 88.1528 16.1877 87.5193 16.9161C85.8454 18.8422 84.7279 21.2581 83.8079 23.6172C82.8351 26.1153 82.183 28.7326 81.8809 31.3978C81.6804 33.1615 81.7939 35.2284 82.8283 36.7399C83.3846 37.5514 84.1931 38.0148 85.0819 38.3199C85.3771 38.4215 86.0928 38.6288 86.3998 38.7021Z" fill="#FFD7C0"/>
<path d="M83.7841 35.2831C83.3148 33.6376 83.2356 31.8504 83.5143 30.1668C83.9053 27.8008 84.5975 25.4826 85.5293 23.274C86.3642 21.2942 88.1749 16.7792 90.803 16.5494C92.3301 16.4184 93.8192 18.6573 94.0939 19.9117C94.4215 21.4105 94.267 23.3659 93.9551 24.808C93.6422 26.2521 93.2072 27.6971 92.733 29.0933C91.6507 32.2737 90.1157 35.7348 86.6096 36.9628C85.4159 37.3812 84.2994 37.0938 83.7841 35.2831ZM88.1045 37.9219C89.8507 37.2248 91.0904 35.6732 91.985 34.0746C92.9979 32.2669 93.6706 30.3418 94.351 28.3952C94.8858 26.8651 95.2691 25.2783 95.5067 23.67C95.977 20.4817 95.5409 16.8388 92.4074 15.1679C90.5028 14.1521 88.8075 15.4456 87.516 16.9307C85.8422 18.8578 84.7237 21.2727 83.8046 23.6319C82.8308 26.1289 82.1797 28.7482 81.8776 31.4124C81.6772 33.1752 81.7896 35.244 82.825 36.7545C84.0676 38.5682 86.1364 38.707 88.1045 37.9219Z" fill="#FFF0DE"/>
<path d="M94.0583 27.6034C93.8315 27.1312 93.5177 26.6697 93.0845 26.2053C90.9199 23.8843 87.4804 21.791 84.2295 22.3835C83.067 22.5957 80.0616 23.9087 79.8436 25.1044C79.8524 25.0614 78.6811 25.8348 78.5471 26.046C78.1893 26.6121 78.2265 27.404 78.2509 28.0395C78.3223 29.8688 79.1171 31.7577 79.9032 33.3807C80.4879 34.5901 81.1801 36.0693 82.28 36.9043C85.1398 39.0728 89.8777 37.5329 92.9056 36.5073C93.4228 36.3313 93.8696 36.0273 94.074 35.5071C94.4113 34.9987 94.3849 34.2557 94.4377 33.6691C94.4954 33.0345 94.5452 32.3971 94.5726 31.7606C94.641 30.1435 94.6488 28.8363 94.0583 27.6034Z" fill="#A4250E"/>
<path d="M84.2812 24.7817C82.9242 23.9535 82.011 26.9433 83.1686 27.5974C84.6674 28.4441 85.3479 25.4328 84.2812 24.7817Z" fill="#BA3413"/>
<path d="M88.5568 30.4113C86.9905 30.685 88.2781 33.5341 89.5794 33.2603C91.264 32.9073 89.7867 30.1962 88.5568 30.4113Z" fill="#BA3413"/>
<path d="M86.9503 27.0284C87.6855 28.4392 90.0105 26.3479 89.3564 25.1903C88.5088 23.6915 86.3725 25.9206 86.9503 27.0284Z" fill="#BA3413"/>
<path d="M92.5955 31.5778C94.0523 32.2172 94.5578 29.1326 93.3239 28.6389C91.7254 27.9985 91.4526 31.0743 92.5955 31.5778Z" fill="#BA3413"/>
<path d="M73.8579 34.6467C73.3348 34.6164 72.7785 34.6682 72.1645 34.8217C69.0847 35.5931 65.5875 37.5876 64.5326 40.7192C64.1552 41.8396 63.8482 45.1051 64.7907 45.8746C64.7555 45.8452 64.865 47.2443 64.9862 47.4653C65.3079 48.0519 66.0187 48.4039 66.5867 48.6894C68.2214 49.5116 70.2599 49.7316 72.0608 49.8303C73.4013 49.9037 75.0301 50.0141 76.2933 49.4549C79.5764 48.002 80.5219 43.1116 81.0899 39.9663C81.1877 39.4286 81.1378 38.8909 80.7809 38.4607C80.4994 37.9181 79.8365 37.5817 79.3496 37.2513C78.8216 36.8934 78.2888 36.5424 77.7442 36.209C76.3618 35.3663 75.2218 34.7259 73.8579 34.6467Z" fill="#A4250E"/>
<path d="M68.1723 41.5813C66.8143 40.7522 65.9011 43.743 67.0587 44.3971C68.5585 45.2428 69.238 42.2315 68.1723 41.5813Z" fill="#BA3413"/>
<path d="M74.6227 39.6279C73.0564 39.9016 74.344 42.7506 75.6454 42.4778C77.3299 42.1249 75.8526 39.4128 74.6227 39.6279Z" fill="#BA3413"/>
<path d="M68.4845 40.0231C69.2197 41.433 71.5447 39.3427 70.8906 38.1851C70.0429 36.6863 67.9067 38.9154 68.4845 40.0231Z" fill="#BA3413"/>
<path d="M75.1593 38.3031C76.6141 38.9435 77.1206 35.8578 75.8867 35.3641C74.2882 34.7247 74.0154 37.8005 75.1593 38.3031Z" fill="#BA3413"/>
<path d="M102.177 31.3323C101.654 31.301 101.098 31.3528 100.483 31.5073C97.4031 32.2777 93.9069 34.2732 92.8509 37.4058C92.4735 38.5252 92.1665 41.7898 93.109 42.5592C93.0748 42.5318 93.1843 43.9299 93.3046 44.1509C93.6262 44.7385 94.337 45.0885 94.9051 45.375C96.5398 46.1972 98.5783 46.4172 100.379 46.516C101.72 46.5883 103.349 46.6988 104.613 46.1405C107.895 44.6886 108.841 39.7982 109.409 36.652C109.506 36.1142 109.457 35.5755 109.1 35.1453C108.819 34.6037 108.156 34.2683 107.668 33.9379C107.14 33.5791 106.608 33.2271 106.063 32.8947C104.681 32.0519 103.541 31.4125 102.177 31.3323Z" fill="#A4250E"/>
<path d="M96.4902 38.2661C95.1332 37.439 94.22 40.4288 95.3776 41.0819C96.8764 41.9286 97.5569 38.9173 96.4902 38.2661Z" fill="#BA3413"/>
<path d="M102.942 36.3136C101.374 36.5884 102.662 39.4374 103.963 39.1636C105.649 38.8107 104.172 36.0995 102.942 36.3136Z" fill="#BA3413"/>
<path d="M96.8024 36.7084C97.5376 38.1183 99.8626 36.027 99.2085 34.8714C98.3608 33.3725 96.2245 35.6007 96.8024 36.7084Z" fill="#BA3413"/>
<path d="M103.478 34.9887C104.933 35.6291 105.44 32.5435 104.205 32.0498C102.607 31.4113 102.334 34.4862 103.478 34.9887Z" fill="#BA3413"/>
<path d="M92.4263 49.0168C91.1719 48.7675 90.0524 48.6345 89.064 47.6598C87.9122 46.5247 87.2807 44.931 86.8896 43.3912C86.8544 43.2543 86.8211 43.1164 86.7898 42.9786C84.8481 34.3983 88.8284 21.3969 94.3435 18.9497C95.3252 18.5136 96.3899 18.5743 97.4419 18.7258C98.5985 18.893 100.528 19.331 101.416 20.1376C102.189 20.8396 102.726 21.7733 103.125 22.7275C104.273 25.4709 104.461 28.6015 104.309 31.5376C104.196 33.7364 103.854 35.9215 103.333 38.0588C102.624 40.9802 101.614 43.3863 100.457 45.2224C99.5879 46.6019 98.4948 47.9502 97.0635 48.7783C95.944 49.4275 94.8578 49.5379 93.6181 49.2564C93.4626 49.2202 92.5778 49.0471 92.4263 49.0168Z" fill="#F12D27"/>
<path d="M97.4791 44.5948C93.539 50.8501 88.4119 50.0572 86.7997 42.9317C84.858 34.3514 88.8372 21.35 94.3524 18.9028C99.8158 16.4781 103.165 25.8758 100.355 37.4332C99.6457 40.3535 98.6357 42.7587 97.4791 44.5948Z" fill="#F94737"/>
<path d="M96.6341 41.3125C96.9411 41.2186 97.212 41.0319 97.4544 40.8237C100.113 38.53 99.9818 34.2076 99.8508 31.0369C99.8009 29.8089 100.13 28.5897 100.117 27.3725C100.104 26.2882 99.664 24.9634 99.3834 23.9105C99.0745 22.7529 98.5416 21.5914 97.5688 20.8933C96.7818 20.3282 95.37 20.0612 94.5624 20.7515C93.7147 21.476 93.4723 22.9455 93.3589 23.9896C93.1594 25.8267 92.738 27.6071 92.9091 29.4706C93.0665 31.1826 93.2748 32.8896 93.5348 34.5898C93.6932 35.6174 93.8692 36.642 94.0638 37.6637C94.2153 38.4605 94.2417 39.5253 94.6015 40.2439C94.9584 40.9547 95.8139 41.5618 96.6341 41.3125Z" fill="#F12D27"/>
<path d="M91.596 47.4096C93.087 47.3998 94.4832 45.5618 94.7432 44.2458C94.9407 43.2466 94.2778 42.6629 93.9356 41.783C93.4791 40.6068 93.176 39.3769 92.9325 38.141C92.7849 37.3931 92.7243 36.5924 92.4681 35.8796C92.1826 35.0857 91.9402 34.2762 91.727 33.454C91.5354 32.708 91.0925 28.7112 89.6436 29.6908C88.7851 30.2716 88.528 31.7782 88.2523 32.706C87.8984 33.8988 87.6227 35.116 87.4467 36.3479C87.1025 38.758 87.1231 41.2902 87.9121 43.6162C88.1858 44.4218 88.7949 45.5696 89.5966 46.3918C90.1793 46.9892 90.8637 47.4145 91.596 47.4096Z" fill="#F12D27"/>
<path d="M97.3024 24.9273C97.4676 24.8539 97.6416 24.6163 97.7452 24.4775C97.9584 24.191 98.2429 23.711 97.9105 23.4001C97.7932 23.2916 97.6299 23.2534 97.4744 23.2603C97.054 23.2759 96.7001 23.6914 96.6395 24.0884C96.5867 24.4267 96.7235 24.9067 97.0393 24.9673C97.1166 24.982 97.2046 24.9712 97.3024 24.9273Z" fill="#F94737"/>
<path d="M95.6346 23.4265C95.7998 23.3522 95.9729 23.1165 96.0775 22.9767C96.2906 22.6912 96.5741 22.2102 96.2417 21.9003C96.1254 21.7917 95.9621 21.7536 95.8066 21.7595C95.3853 21.7761 95.0323 22.1916 94.9707 22.5886C94.9189 22.9269 95.0548 23.4069 95.3706 23.4665C95.4478 23.4802 95.5358 23.4705 95.6346 23.4265Z" fill="#F94737"/>
<path d="M97.1829 27.6747C97.1673 27.5838 97.1634 27.488 97.1702 27.3951C97.1917 27.1086 97.3003 26.8388 97.4088 26.5729C97.4948 26.3617 97.5828 26.1456 97.7295 25.9696C97.9504 25.7047 98.3122 25.5502 98.5634 25.8582C98.9624 26.347 98.629 27.1057 98.3444 27.5633C98.0609 28.0189 97.3354 28.5703 97.1829 27.6747Z" fill="#F94737"/>
<path d="M96.0087 40.0378C95.8894 39.9127 95.7799 39.7445 95.7848 39.5646C95.7887 39.3691 95.8777 39.2195 96.0273 39.0983C96.13 39.0152 96.258 38.9585 96.3812 38.9155C96.6237 38.8304 96.8818 38.7893 97.136 38.7541C97.1595 38.7512 97.1839 38.7522 97.2083 38.7561C97.224 38.7483 97.2396 38.7385 97.2572 38.7297C97.3501 38.6876 97.4752 38.7219 97.5486 38.7874C97.6317 38.8597 97.6561 38.9585 97.6434 39.0641C97.6297 39.1863 97.5779 39.3075 97.5202 39.4141C97.4498 39.547 97.3618 39.6741 97.2641 39.7885C97.0754 40.0066 96.7977 40.2314 96.4937 40.2324C96.3128 40.2334 96.1358 40.1708 96.0087 40.0378Z" fill="#F94737"/>
<path d="M97.4577 30.6066C97.4968 30.2654 97.6699 29.9428 97.8635 29.6641C98.0179 29.4402 98.538 28.7705 98.8724 29.0394C98.9907 29.1352 99.0338 29.2955 99.0523 29.4461C99.1276 30.0386 98.9086 30.6535 98.5048 31.0886C97.9681 31.6664 97.3599 31.4396 97.4577 30.6066Z" fill="#F94737"/>
<path d="M97.0206 44.489C97.1536 43.9816 97.2113 43.4262 97.1809 42.7927C97.0274 39.622 95.7555 35.8021 92.8908 34.1537C91.8662 33.5652 88.7248 32.6256 87.7862 33.398C87.8205 33.3706 86.4272 33.2034 86.1867 33.2787C85.5483 33.4791 85.0653 34.1068 84.6732 34.6084C83.5469 36.0514 82.932 38.0068 82.4832 39.753C82.1488 41.0533 81.7216 42.6294 82.0227 43.9777C82.8039 47.4807 87.4147 49.3667 90.3889 50.539C90.8963 50.7394 91.4331 50.7971 91.9258 50.5312C92.5124 50.361 92.972 49.7774 93.3914 49.3638C93.846 48.916 94.2948 48.4623 94.7279 47.994C95.8249 46.8042 96.6755 45.8108 97.0206 44.489Z" fill="#A4250E"/>
<path d="M90.5972 35.3341C89.2391 34.506 88.3269 37.4958 89.4836 38.1499C90.9833 38.9956 91.6629 35.9843 90.5972 35.3341Z" fill="#BA3413"/>
<path d="M89.9664 43.0804C88.3992 43.3541 89.6878 46.2041 90.9881 45.9303C92.6737 45.5774 91.1964 42.8653 89.9664 43.0804Z" fill="#BA3413"/>
<path d="M92.2858 40.4492C93.021 41.859 95.3459 39.7687 94.6919 38.6111C93.8442 37.1123 91.7079 39.3414 92.2858 40.4492Z" fill="#BA3413"/>
<path d="M94.2059 47.1515C95.6617 47.7918 96.1681 44.7062 94.9343 44.2125C93.3357 43.5731 93.063 46.6489 94.2059 47.1515Z" fill="#BA3413"/>
<path d="M77.1478 38.5586C77.5877 38.5478 78.1 38.6954 78.6964 39.0503C80.1669 39.9254 81.2424 41.2756 82.1947 42.6903C83.5341 44.6799 84.6223 46.8406 85.4611 49.0864C86.2061 51.0829 88.1664 55.4434 86.4916 57.4379C85.3027 57.6129 83.7863 57.1651 83.0403 56.6557C81.7733 55.7905 80.4817 54.5772 79.7191 53.314C78.9555 52.0488 78.279 50.6996 77.6669 49.3582C76.2718 46.3029 75.0731 42.4185 76.7792 39.1178C76.8867 38.9105 77.0099 38.7218 77.1478 38.5586ZM75.7379 37.7109C74.6947 38.3092 73.8686 39.2234 73.366 40.3028C72.5741 42.0098 72.7374 43.9877 73.1842 45.7642C73.6887 47.7743 74.5217 49.6349 75.3625 51.5179C76.0234 52.9982 76.8339 54.4158 77.7647 55.7484C79.6116 58.3902 82.8125 60.546 86.2374 59.6104C87.5495 59.2525 88.9505 58.5261 89.4971 57.2062C89.8706 56.3038 89.9165 55.287 89.8764 54.322C89.7718 51.7731 88.928 49.2487 87.9767 46.9012C86.9697 44.4169 85.6469 42.0656 84.0386 39.9205C82.9729 38.5009 81.4721 37.0744 79.6819 36.6863C78.7209 36.477 77.8155 36.696 76.9591 37.0832C76.6746 37.2123 76.0117 37.5535 75.7379 37.7109Z" fill="#FFD7C0"/>
<path d="M79.9874 38.4C81.4578 39.276 82.7425 40.5207 83.6958 41.9354C85.0352 43.925 86.1224 46.0857 86.9613 48.3315C87.7132 50.3455 89.4955 54.8723 87.7405 56.8423C86.7218 57.9862 84.1006 57.3801 83.0407 56.6556C81.7736 55.7903 80.5427 54.2632 79.7811 53C79.0165 51.7348 78.3409 50.3856 77.7279 49.0442C76.3327 45.9899 75.0735 42.4184 76.7795 39.1177C77.3603 37.9953 78.3703 37.438 79.9874 38.4ZM75.0353 39.4471C74.2424 41.1532 74.4057 43.1321 74.8525 44.9086C75.357 46.9187 76.19 48.7793 77.0308 50.6623C77.6917 52.1426 78.5023 53.5602 79.433 54.8928C81.2799 57.5346 84.0976 59.883 87.5225 58.9483C89.605 58.3793 89.9511 56.2753 89.87 54.3091C89.7653 51.7583 88.9206 49.2349 87.9703 46.8884C86.9632 44.4041 85.6404 42.0517 84.0321 39.9067C82.9664 38.487 81.4657 37.0606 79.6755 36.6734C77.5255 36.2061 75.928 37.526 75.0353 39.4471Z" fill="#FFF0DE"/>
<path d="M104.897 56.4055C105.548 54.0307 105.231 51.6588 104.411 50.4162C103.612 49.2048 102.451 49.0445 101.312 48.7736C101.563 48.0012 101.627 47.1595 101.572 46.4917C101.46 45.1581 100.899 44.2401 100.174 43.9145C98.6524 43.2301 96.6324 44.0015 94.809 45.2813C94.2723 45.6587 93.7844 46.1573 93.2711 46.6638C93.2603 46.6745 93.2476 46.6872 93.2369 46.698C92.8478 47.0832 91.2844 46.6149 90.7731 46.7762C89.5813 47.1516 88.3777 47.6072 87.1801 48.0218C86.393 48.2946 86.3764 46.9874 85.9266 46.4174C85.4798 45.8493 84.9157 45.5287 84.3271 45.3116C83.2233 44.9068 81.9767 44.9469 80.6823 45.4152C80.2237 45.5815 77.3571 47.6962 77.2642 47.5848C77.053 47.3286 76.8282 47.0979 76.5867 46.9062C75.9629 46.4135 75.2228 46.0126 74.3859 46.2306C73.7211 46.4047 72.9008 47.0783 72.4334 48.1812C72.5077 48.0061 69.3791 48.1469 69.0799 48.2281C68.111 48.4911 67.1519 48.8841 66.4088 50.7476C65.2561 53.6426 66.0373 56.2433 66.9466 57.3236C67.0981 57.5035 69.6499 59.5117 69.6832 59.4462C68.112 62.4604 68.3877 65.4395 69.5346 66.9705C70.2209 67.8857 71.1399 68.3139 72.0619 68.6424C72.6182 68.8399 74.6772 68.2973 74.9471 68.7812C76.6326 71.7974 79.2978 71.8444 82.3786 71.335C83.2272 71.1942 84.1375 70.8461 85.0232 70.0004C85.7057 69.3503 86.4145 70.369 86.8115 69.2095C88.2712 69.6582 89.5959 69.58 91.1984 69.3992C92.0177 69.3073 92.8878 69.0912 93.7443 68.309C95.2001 66.9813 95.8268 64.8284 95.4357 62.9512C95.3849 62.7107 95.3233 62.4829 95.2568 62.262C96.694 63.5036 99.3504 62.83 101.302 61.559C102.354 60.8726 103.446 59.7278 104.246 58.1155C104.524 57.5563 104.739 56.9814 104.897 56.4055Z" fill="#87B63F"/>
<path d="M85.8055 33.4938C85.7146 33.4596 85.6315 33.4615 85.5435 33.4664C85.3685 33.4381 85.1769 33.5222 85.0263 33.6023C85.0077 33.6082 84.9852 33.615 84.9549 33.6238C84.9129 33.6502 84.8718 33.6766 84.8308 33.703C84.8024 33.7226 84.774 33.7412 84.7467 33.7617C84.6812 33.8106 84.6176 33.8614 84.556 33.9142C84.3918 34.057 84.2422 34.2017 84.1053 34.3718C83.989 34.5165 83.8814 34.669 83.7807 34.8254C83.5734 35.1471 83.4102 35.545 83.2938 35.9107C83.2733 35.9752 83.2479 36.0505 83.24 36.115C83.241 36.1492 83.242 36.1844 83.244 36.2187C83.242 36.2157 83.2391 36.2255 83.2352 36.249C83.2107 36.3164 83.2029 36.3985 83.1902 36.4699C83.1618 36.6322 83.1394 36.7945 83.1716 36.9578C83.2244 37.2208 83.5969 37.3391 83.7573 37.0937C83.8423 36.9646 83.8951 36.8258 83.9567 36.685C83.9831 36.6254 84.0144 36.5647 84.0408 36.5041C84.0515 36.4924 84.0603 36.4816 84.074 36.466C84.121 36.4064 84.1522 36.3389 84.1855 36.2705C84.251 36.1355 84.3155 35.9987 84.3859 35.8657C84.3996 35.8403 84.4231 35.7982 84.4289 35.7865C84.4485 35.7533 84.4671 35.721 84.4876 35.6878C84.5335 35.6105 84.5854 35.5362 84.6323 35.459C84.7232 35.3113 84.8063 35.1588 84.9041 35.0141C84.95 34.9476 84.9979 34.8812 85.0478 34.8156C85.0977 34.7501 85.1299 34.6925 85.1739 34.6201C85.1778 34.6181 85.1798 34.6191 85.1925 34.6045C85.2248 34.5722 85.2521 34.5311 85.2824 34.4959C85.2883 34.4901 85.2991 34.4783 85.3098 34.4676C85.3724 34.408 85.4907 34.319 85.5112 34.2505C85.476 34.2828 85.4692 34.2887 85.4917 34.2681C85.5034 34.2574 85.5151 34.2457 85.5279 34.2349C85.5591 34.2075 85.5914 34.1821 85.6256 34.1557C85.6784 34.1166 85.7244 34.0697 85.7635 34.0179C85.7674 34.0159 85.7703 34.012 85.7733 34.01C85.7654 34.0149 85.7694 34.013 85.7664 34.0149C85.7664 34.0139 85.7664 34.0139 85.7664 34.0139C85.7772 34.0071 85.7918 33.9973 85.8212 33.9797C85.8583 33.9484 85.8876 33.9074 85.9189 33.8712C86.0235 33.749 85.9473 33.5437 85.8055 33.4938Z" fill="#BA3413"/>
<path d="M78.1677 35.7497C78.11 35.6451 78.0435 35.5522 77.9594 35.4662C77.6436 35.1445 77.2203 34.9539 76.8028 34.7945C76.3775 34.6322 75.9425 34.4904 75.5396 34.2763C75.3588 34.1805 75.1183 34.3066 75.0322 34.4679C74.9423 34.6341 74.9736 34.8932 75.1515 34.9969C75.5201 35.209 75.9112 35.3684 76.3032 35.5317C76.49 35.6089 76.6757 35.691 76.8586 35.7771C76.9045 35.7976 76.9495 35.8181 76.9935 35.8416C77.012 35.8514 77.0306 35.8602 77.0492 35.87C77.0521 35.8719 77.0512 35.8719 77.0551 35.8739C77.1626 35.9374 77.2682 36.002 77.3797 36.0596C77.3816 36.0606 77.4227 36.0831 77.4315 36.087C77.4354 36.0899 77.4403 36.0919 77.4413 36.0929C77.5029 36.13 77.5625 36.1682 77.627 36.2004C77.76 36.2659 77.89 36.3246 78.0396 36.2561C78.2391 36.1642 78.2625 35.9237 78.1677 35.7497Z" fill="#BA3413"/>
<path d="M81.561 29.2722C81.2629 28.1077 80.3927 27.3979 79.5587 26.605C79.2937 26.3528 78.8528 26.6871 79.108 26.9775C79.7767 27.7421 80.5824 28.3962 80.7857 29.4423C80.8737 29.8979 80.8864 30.3613 80.6391 30.769C80.4132 31.1415 80.1013 31.6275 80.1727 32.084C80.2099 32.3187 80.5501 32.4145 80.686 32.2033C80.8209 31.9931 80.9275 31.7966 81.0917 31.6099C81.2619 31.4153 81.4046 31.1738 81.5131 30.9392C81.7507 30.4268 81.6979 29.806 81.561 29.2722Z" fill="#BA3413"/>
<path d="M66.2147 22.9592C65.7855 22.0079 65.6663 20.9412 64.8607 20.1923C63.9641 19.3583 62.9238 19.4669 61.8151 19.6604C61.469 19.7211 61.0877 19.7954 60.813 19.5245C60.4747 19.1921 60.3779 18.6446 60.2733 18.2027C60.023 17.1438 59.6378 16.1456 58.533 15.7379C57.4976 15.3576 56.4642 15.9247 55.6898 16.5778C55.5491 16.6961 55.6253 16.92 55.8013 16.9454C56.1014 16.9894 56.4016 16.8212 56.6734 16.7176C57.0938 16.5572 57.6316 16.4243 58.0637 16.6071C59.0326 17.0216 59.0463 18.0932 59.2751 18.9702C59.5214 19.9117 60.066 20.8376 61.1288 20.9422C61.9666 21.0243 62.8837 20.468 63.6815 20.865C64.1499 21.0977 64.3601 21.5366 64.5761 21.9864C64.8294 22.5114 65.0699 23.0022 65.4932 23.4148C65.8256 23.7384 66.4279 23.4334 66.2147 22.9592Z" fill="#72A633"/>
<path d="M84.1343 51.0642C83.7862 50.809 83.3179 50.7972 82.9121 50.8931C82.5191 50.9859 82.1505 51.1512 81.7751 51.2959C81.7643 51.2988 81.7418 51.3076 81.7262 51.3135C81.693 51.3232 81.6587 51.333 81.6245 51.3418C81.5238 51.3711 81.4221 51.3995 81.3204 51.4239C81.3116 51.4269 81.3029 51.4279 81.2931 51.4308C81.2706 51.3663 81.253 51.2988 81.2285 51.2362C81.0516 50.7855 80.7925 50.3504 80.4317 50.0249C79.7962 49.4519 78.9642 49.4392 78.1732 49.624C77.7665 49.7179 77.3705 49.798 76.9775 49.932C76.9511 49.9417 76.9227 49.9584 76.8954 49.976C76.8748 49.973 76.8465 49.974 76.8446 49.973C76.7888 49.9711 76.7331 49.9721 76.6783 49.9779C76.6646 49.9799 76.6559 49.9809 76.6451 49.9818C76.4818 49.9017 76.3762 49.8518 76.2589 49.6836C76.1132 49.4734 75.8512 49.7003 75.9138 49.9026C76.0106 50.2184 76.1513 50.4355 76.4075 50.6349C76.5718 50.764 76.6989 50.7953 76.8964 50.851C76.7272 50.8031 77.043 50.9058 77.1017 50.9106C77.219 50.9204 77.3441 50.9067 77.4624 50.897C78.0843 50.85 78.8146 50.5557 79.3357 50.7405C79.6437 50.85 79.851 51.1717 79.9927 51.4875C80.0866 51.6957 80.1022 51.9803 80.2244 52.2609C80.5823 53.0792 81.5785 52.7536 82.2228 52.5483C82.5924 52.431 82.9483 52.2755 83.2338 52.2061C83.2661 52.1983 83.3003 52.1944 83.3335 52.1914C83.3482 52.1895 83.3492 52.1885 83.3501 52.1865C83.358 52.1875 83.358 52.1885 83.3726 52.1895C83.3795 52.1895 83.3805 52.1905 83.3863 52.1914C83.4098 52.2198 83.4332 52.2022 83.3971 52.168C83.4587 52.2266 83.5173 52.2892 83.5828 52.3449C83.6562 52.4075 83.7315 52.4701 83.8077 52.5317C83.9671 52.6627 84.2428 52.6089 84.3542 52.4417C84.6505 51.9969 84.5791 51.3907 84.1343 51.0642Z" fill="#72A633"/>
<path d="M80.6547 20.5934C80.2685 20.2072 79.8354 19.8953 79.3417 19.6616C79.1246 19.5599 78.9085 19.4573 78.6827 19.3771C78.4373 19.2901 78.1801 19.2578 77.925 19.2187C77.7079 19.1855 77.4938 19.163 77.2748 19.1679C77.0323 19.1737 76.8534 19.2256 76.6168 19.2979C76.3069 19.3947 76.4799 19.8689 76.7801 19.8288C76.9707 19.8034 77.0685 19.8288 77.2797 19.8532C77.4782 19.8767 77.6102 19.9031 77.7891 19.9667C78.0257 20.0498 78.142 20.129 78.3571 20.2257C78.5928 20.3323 78.6768 20.3704 78.8841 20.5122C79.0689 20.6383 79.2527 20.7752 79.4257 20.916C79.4619 20.9463 79.4971 20.9756 79.5323 21.005C79.5431 21.0147 79.6066 21.0744 79.6223 21.0881C79.6887 21.1526 79.7543 21.2191 79.8168 21.2885C79.9429 21.4293 80.0593 21.5769 80.1649 21.7343C80.1805 21.7607 80.203 21.7959 80.2089 21.8067C80.2284 21.8419 80.248 21.8751 80.2666 21.9103C80.3135 22.0032 80.3594 22.0873 80.4191 22.1635C80.4308 22.189 80.4416 22.2134 80.4523 22.2388C80.4601 22.2574 80.467 22.277 80.4738 22.2946C80.5041 22.4295 80.5305 22.5761 80.6303 22.6788C80.7681 22.8186 80.993 22.8685 81.1533 22.7277C81.3987 22.5116 81.3723 22.1293 81.3274 21.8321C81.3186 21.3716 80.9598 20.8984 80.6547 20.5934Z" fill="#72A633"/>
<path d="M94.6847 6.28958C94.5909 5.98454 94.2379 5.64724 93.8859 5.86722C93.0236 6.40495 92.041 6.53695 91.1543 7.00722C90.3613 7.42665 89.8314 8.06997 89.5332 8.90786C89.2536 9.69002 89.1255 10.6931 89.3367 11.5613C89.0522 11.4831 88.7618 11.4323 88.4607 11.4313C87.5241 11.4274 86.695 11.9084 86.0741 12.583C85.5384 13.1667 85.2392 13.8765 85.0612 14.6401C84.8579 15.521 84.7044 16.3912 84.4492 17.2613C84.3759 17.5116 84.7151 17.7384 84.8755 17.4901C85.6254 16.3325 85.4367 14.821 86.1553 13.6438C86.5884 12.9321 87.3471 12.2672 88.2192 12.2555C89.0287 12.2457 89.7962 12.714 90.4572 13.1276C90.9959 13.4639 91.5757 12.6642 91.035 12.321C89.9449 11.6308 89.9625 9.97649 90.5227 8.94111C90.8893 8.26552 91.5326 7.90573 92.2522 7.69454C92.6189 7.587 92.9923 7.50878 93.3551 7.39438C93.5604 7.32986 93.7647 7.26142 93.9583 7.16561C93.9964 7.14605 94.1587 7.06196 94.2565 7.00037C94.2956 6.98864 94.3337 6.97495 94.367 6.94953C94.4247 6.90651 94.4882 6.87424 94.541 6.82732C94.6564 6.72466 94.759 6.53597 94.7102 6.37465C94.7014 6.3463 94.6926 6.31793 94.6847 6.28958Z" fill="#72A633"/>
<path d="M53.4307 28.8959C52.5156 28.2095 51.446 28.5703 50.6277 29.1931C50.0411 29.6389 49.5063 30.1053 48.8297 29.5979C48.2382 29.153 47.8559 28.3855 47.6203 27.7021C47.3856 27.0255 47.1735 26.0733 47.4991 25.3928C47.6203 25.1405 47.2204 24.9284 47.0679 25.1611C46.671 25.7633 46.6543 26.5533 46.7697 27.2426C46.9075 28.0756 47.2048 28.8959 47.6819 29.594C48.0827 30.1806 48.7007 30.7252 49.4437 30.7652C49.9658 30.7936 50.4136 30.5668 50.8359 30.2822C51.2016 30.0359 51.5545 29.6771 51.9935 29.5636C53.2802 29.2293 53.1482 30.9226 53.6165 31.5963C53.7641 31.8084 54.1523 31.7439 54.2237 31.4975C54.472 30.6332 54.1689 29.4493 53.4307 28.8959Z" fill="#72A633"/>
<path d="M64.0172 17.2827C63.7562 16.7283 63.3554 16.2531 62.9565 15.8904C62.7746 15.7242 62.5849 15.5668 62.3698 15.4446C62.2115 15.3546 62.1626 15.3595 62.0032 15.2862C61.8634 15.2217 61.7333 15.1865 61.5769 15.2041C61.3765 15.2256 61.2347 15.4817 61.3335 15.6616C61.4 15.7799 61.4723 15.8503 61.5769 15.9373C61.6072 15.9628 61.6375 15.9882 61.6688 16.0136C61.6688 16.0204 61.6854 16.0488 61.7431 16.1172C61.8741 16.2756 62.0452 16.4047 62.186 16.5552C62.3454 16.7273 62.4803 16.916 62.625 17.0988C62.7482 17.2563 62.9271 17.5105 62.9838 17.6072C63.2204 18.0052 63.3661 18.3151 63.4003 18.7414C63.3984 18.7658 63.4062 18.9858 63.4062 18.9056C63.4062 18.9487 63.4091 18.9428 63.4101 18.9379C63.4091 18.9428 63.4072 18.9535 63.4042 18.979C63.3905 19.0806 63.3827 19.1139 63.3524 19.2038C63.2869 19.3984 63.1852 19.5714 63.0376 19.7161C62.7189 20.0261 63.1217 20.5315 63.4824 20.2539C63.9351 19.9029 64.2353 19.3935 64.3145 18.8783C64.3956 18.3591 64.2353 17.75 64.0172 17.2827Z" fill="#72A633"/>
<path d="M110.632 34.7631C109.985 32.577 109.163 30.4818 108.652 31.4888C107.325 34.1012 106.461 36.3978 104.658 38.9369C102.265 42.307 99.8253 45.0857 96.2176 47.0411C90.4198 50.1824 86.9558 52.4869 78.4616 56.9579C71.1494 60.8051 76.7487 64.4636 81.8718 68.8564C87.478 73.6618 93.0831 78.4682 98.6892 83.2736C101.47 85.6571 104.254 88.041 106.933 90.5142C109.676 93.0467 112.176 97.0728 115.302 99.1241C121.627 103.272 118.35 91.4881 118.115 89.1241C117.008 77.9617 115.529 66.7867 113.685 55.7299C113.347 53.6894 113.272 50.5011 112.777 47.4849C112.292 44.5421 112.066 41.564 111.597 38.6202C111.534 38.231 111.136 36.4702 110.632 34.7631Z" fill="#FFAF48"/>
<path d="M118.21 87.7785C112.526 77.3975 101.028 74.3764 91.6024 66.4688C85.393 61.2586 78.4611 57.0311 71.7531 52.5141C68.2931 50.1842 64.8799 47.7752 61.6643 45.1139C60.2026 43.9035 54.1927 38.3326 53.215 37.0557C50.8255 33.9339 53.2952 51.3907 53.4223 52.3645C55.3943 67.4973 57.9871 82.6204 60.3629 97.7071C62.7133 112.634 63.5717 117.067 66.6789 131.856C67.3936 135.258 68.1356 138.655 68.9129 142.045C69.9923 146.756 72.9186 152.612 78.0427 154.791C83.8619 157.266 90.8867 157.426 97.3258 156.495C105.616 155.297 119.079 153.868 124.345 146.908C127.344 142.943 122.42 95.4683 118.21 87.7785Z" fill="#FFAF48"/>
<path d="M80.4224 93.7623C81.9202 93.2283 80.1712 90.6374 78.9353 91.1251C77.3339 91.7568 79.2453 94.1816 80.4224 93.7623Z" fill="#FF9441"/>
<path d="M77.0532 87.9842C75.837 89.01 78.3848 90.8214 79.3713 89.9308C80.6492 88.777 78.0084 87.1787 77.0532 87.9842Z" fill="#FF9441"/>
<path d="M84.0308 122C85.0661 123.207 86.8573 120.644 85.9578 119.664C84.7934 118.396 83.2173 121.052 84.0308 122Z" fill="#FF9441"/>
<path d="M88.3957 98.995C89.0351 100.45 91.494 98.5168 90.9171 97.3203C90.1712 95.7686 87.8921 97.8511 88.3957 98.995Z" fill="#FF9441"/>
<path d="M94.7544 120.745C93.1744 120.92 94.2831 123.844 95.5981 123.653C97.3013 123.404 95.996 120.606 94.7544 120.745Z" fill="#FF9441"/>
<path d="M68.8162 70.5388C68.0125 71.9115 71.0189 72.7699 71.6525 71.6006C72.4708 70.0871 69.4478 69.4614 68.8162 70.5388Z" fill="#FF9441"/>
<path d="M105.243 137.667C106.825 137.499 105.73 134.571 104.414 134.756C102.709 134.996 104.001 137.8 105.243 137.667Z" fill="#FF9441"/>
<path d="M105.466 139.67C105.514 141.26 108.517 140.39 108.432 139.063C108.321 137.345 105.428 138.421 105.466 139.67Z" fill="#FF9441"/>
<path d="M104.127 115.037C104.779 116.487 107.221 114.534 106.635 113.342C105.876 111.796 103.614 113.898 104.127 115.037Z" fill="#FF9441"/>
<path d="M99.7648 91.5802C99.3854 93.1239 102.512 93.0918 102.785 91.7914C103.14 90.1057 100.064 90.3669 99.7648 91.5802Z" fill="#FF9441"/>
<path d="M82.3913 130.085C80.826 130.362 82.1205 133.208 83.4208 132.933C85.1054 132.575 83.6222 129.868 82.3913 130.085Z" fill="#FF9441"/>
<path d="M69.4381 65.7422C68.5386 64.4311 66.4825 66.7864 67.2715 67.856C68.2932 69.2424 70.1449 66.7717 69.4381 65.7422Z" fill="#FF9441"/>
<path d="M92.7228 79.4241C91.6248 80.5748 94.3536 82.102 95.2384 81.1106C96.3833 79.8251 93.5851 78.5208 92.7228 79.4241Z" fill="#FF9441"/>
<path d="M108.233 63.1395C109.736 62.6233 108.017 60.0128 106.774 60.4861C105.166 61.1 107.051 63.5453 108.233 63.1395Z" fill="#FF9441"/>
<path d="M100.461 52.1877C100.332 53.7725 103.414 53.2426 103.476 51.9149C103.558 50.1961 100.563 50.9421 100.461 52.1877Z" fill="#FF9441"/>
<path d="M100.482 58.348C99.5848 57.0349 97.5239 59.3863 98.3109 60.4578C99.3297 61.8462 101.187 59.3794 100.482 58.348Z" fill="#FF9441"/>
<path d="M95.6168 138.901C94.205 138.168 93.4991 141.213 94.6987 141.786C96.2523 142.528 96.7245 139.477 95.6168 138.901Z" fill="#FF9441"/>
<path d="M116.827 85.588C115.712 84.6844 114.715 83.5707 113.68 82.5754C112.676 81.6095 111.646 80.6621 110.546 79.8066C108.198 77.9793 105.629 76.46 103.087 74.9221C101.822 74.1556 100.568 73.3734 99.3045 72.604C98.0267 71.8277 96.7429 71.0758 95.5501 70.1675C93.1059 68.308 90.7389 66.3262 88.3973 64.3385C87.0364 63.1858 85.6891 62.0155 84.3565 60.8305C83.0571 59.6729 81.8018 58.4655 80.4379 57.3851C80.2502 57.2375 80.0067 57.5073 80.1553 57.6892C82.1117 60.0523 84.5237 62.1103 86.8379 64.1175C89.1746 66.1443 91.5768 68.0782 94.0367 69.9524C96.4614 71.7993 98.9672 73.5533 101.543 75.1812C104.035 76.7543 106.527 78.3206 108.947 79.9995C110.32 80.9527 111.524 82.0771 112.742 83.2159C113.288 83.7254 113.839 84.2299 114.404 84.7169C115.041 85.2641 115.721 85.6972 116.403 86.1784C116.789 86.4511 117.19 85.8801 116.827 85.588Z" fill="#FF9441"/>
<path d="M50.2642 41.7251C50.7726 41.3203 51.4678 40.9566 52.1033 40.8051C52.4924 40.7122 53.0086 41.0094 52.9011 41.465C52.8405 41.7251 51.459 43.9523 51.195 44.4294C50.9301 44.9075 50.4735 45.0287 50.2056 45.0023L50.2642 41.7251Z" fill="#AB493C"/>
<path d="M50.2816 45.1285C50.2503 45.1285 50.222 45.1266 50.1927 45.1237C50.1252 45.1168 50.0763 45.0582 50.0832 44.9897C50.09 44.9232 50.1477 44.8675 50.2171 44.8812C50.4224 44.9027 50.8409 44.8176 51.0873 44.3708C51.1743 44.2134 51.3806 43.8712 51.6201 43.4704C52.0415 42.7684 52.7454 41.5942 52.7826 41.4377C52.8217 41.2686 52.7474 41.1503 52.677 41.0799C52.5401 40.943 52.3143 40.8824 52.1315 40.9235C51.5468 41.0643 50.8595 41.4074 50.3393 41.821C50.2875 41.864 50.2093 41.8542 50.1682 41.8024C50.1262 41.7486 50.135 41.6724 50.1878 41.6303C50.7421 41.1894 51.448 40.8355 52.0757 40.6869C52.3377 40.6214 52.6526 40.7103 52.8491 40.9068C53.0104 41.0682 53.071 41.2764 53.0202 41.4925C52.9781 41.6734 52.5 42.478 51.8303 43.5955C51.5918 43.9934 51.3874 44.3327 51.3014 44.4891C51.0531 44.9379 50.6258 45.1285 50.2816 45.1285Z" fill="#822323"/>
</svg>
