<svg width="137" height="193" viewBox="0 0 137 193" fill="none" xmlns="http://www.w3.org/2000/svg">
<path d="M87.7749 182.967C87.7749 182.967 91.4759 181.958 92.4444 181.882C93.3803 181.809 95.8555 181.315 95.8906 181.433C96.0936 182.116 96.1379 182.843 96.2273 183.548C96.2098 183.553 96.4137 185.92 96.6527 187.345C94.4082 187.885 91.9439 188.478 89.6325 189.033C88.908 186.298 87.7749 182.967 87.7749 182.967Z" fill="#FFCBB4"/>
<path d="M89.6323 189.033C91.9437 188.478 94.408 187.885 96.6525 187.346C96.7277 187.8 96.8079 188.16 96.8848 188.315C94.555 189.12 92.3181 189.839 89.9365 190.254C89.9281 190.213 89.9181 190.175 89.9089 190.134C89.8279 189.786 89.7334 189.415 89.6323 189.033Z" fill="#9689B1"/>
<path d="M96.8848 188.315C96.9007 188.347 96.9166 188.374 96.9316 188.387C97.0712 188.509 97.2233 188.58 97.3837 188.622C97.6444 188.693 97.9268 188.687 98.2093 188.69C98.6923 188.695 99.1987 188.678 99.6666 188.816C100.135 188.955 100.541 189.324 100.65 189.801C100.715 190.081 100.736 190.18 99.6482 190.411C98.241 190.71 92.3348 192.191 90.7178 192.399C90.5967 192.415 90.5064 192.359 90.4672 192.242C90.3151 191.783 90.1304 191.074 89.9365 190.254C92.3181 189.839 94.5551 189.12 96.8848 188.315Z" fill="#5B3650"/>
<path d="M90.7471 185.677C89.9173 185.866 86.8982 187.21 86.5698 186.724C85.8136 185.602 85.598 183.605 85.2161 182.332C84.1674 178.844 83.132 175.353 82.0967 171.862C79.5939 163.431 65.8127 116.527 65.3664 111.026C65.1308 108.116 67.0377 107.093 69.8672 106.259C72.1894 105.574 74.4907 104.787 76.6701 105.512C78.5126 106.124 79.5939 107.585 80.0418 109.302C81.2635 113.994 82.1794 119.123 83.2281 123.915C84.281 128.722 96.3074 178.455 97.6319 183.506C97.7623 183.782 93.8883 184.964 90.7471 185.677Z" fill="#5B3650"/>
<path d="M30.4431 164.51C30.4431 164.51 32.5999 167.682 32.9868 168.574C33.3603 169.436 34.6305 171.616 34.531 171.687C33.9511 172.101 33.2776 172.38 32.64 172.694C32.6308 172.678 30.4573 173.641 29.1871 174.33C27.9479 172.383 26.5867 170.244 25.3098 168.24C27.6596 166.665 30.4431 164.51 30.4431 164.51Z" fill="#FFCBB4"/>
<path d="M25.3098 168.24C26.5866 170.244 27.9479 172.383 29.1871 174.33C28.7818 174.549 28.4677 174.742 28.3457 174.865C26.8273 172.922 25.4201 171.041 24.2544 168.924C24.2895 168.902 24.3229 168.881 24.358 168.859C24.6613 168.669 24.9814 168.459 25.3098 168.24Z" fill="#9689B1"/>
<path d="M28.3454 174.864C28.3204 174.89 28.3011 174.914 28.2928 174.933C28.2234 175.104 28.205 175.271 28.2167 175.436C28.236 175.706 28.3337 175.971 28.4215 176.238C28.5736 176.698 28.7557 177.17 28.7758 177.658C28.7958 178.145 28.5802 178.65 28.1649 178.908C27.9209 179.06 27.834 179.114 27.2624 178.159C26.5221 176.924 23.2021 171.821 22.4784 170.36C22.425 170.251 22.4484 170.146 22.5461 170.072C22.9305 169.779 23.5405 169.373 24.2542 168.924C25.4199 171.041 26.8271 172.922 28.3454 174.864Z" fill="#5B3650"/>
<path d="M53.3962 147.275C53.2541 147.468 53.0962 147.649 52.9216 147.817C52.3132 148.397 35.0223 159.384 31.836 161.146C30.672 161.789 28.7651 162.422 27.8292 163.399C27.423 163.822 29.3751 166.49 29.7352 167.261C31.0982 170.179 33.0719 173.715 33.3143 173.53C37.9704 171.167 56.7162 160.582 60.3027 158.668C64.6672 156.338 65.8906 150.7 68.9824 141.733C70.6069 137.024 75.4887 122.706 76.6895 118.01C77.1282 116.29 76.8883 114.488 75.5731 113.062C74.0163 111.372 71.6213 110.948 69.2573 110.423C66.3778 109.784 64.2143 109.757 63.0127 112.418C60.7414 117.448 56.0594 136.89 54.7583 143.514C54.5076 144.79 54.19 146.204 53.3962 147.275Z" fill="#5B3650"/>
<path d="M82.2163 105.121C82.1227 103.191 81.9239 101.268 81.7425 99.3433C81.6431 98.2871 81.6046 97.2509 81.1651 96.2673C80.8333 95.522 80.3111 94.8267 79.5323 94.515C78.6899 94.1774 77.7165 94.2384 76.8274 94.2384C72.0818 94.2401 67.1967 94.6679 62.5246 95.4919C61.6481 95.6465 60.6796 95.7559 59.9083 96.2348C59.1955 96.6768 58.8027 97.4531 58.6047 98.2445C58.344 99.289 58.4869 100.317 58.5721 101.374C58.7284 103.3 58.8663 105.228 59.1103 107.146C59.4228 109.674 59.6944 112.195 59.9534 114.73C60.0236 115.426 60.0946 116.121 60.1648 116.817C60.189 117.048 60.1214 118.254 60.4305 118.255C68.0114 118.29 75.3976 117.633 82.8481 116.29C83.1522 116.236 82.8757 115.06 82.8598 114.828C82.808 114.131 82.757 113.434 82.7052 112.736C82.5188 110.195 82.3484 107.665 82.2163 105.121Z" fill="#FF5778"/>
<path d="M62.1413 93.7646C61.7001 92.9942 61.2054 92.2496 60.8118 91.4541C59.9219 89.655 59.2174 88.0339 58.4294 86.188C57.7258 84.5368 56.8275 82.7878 56.4289 81.0288C55.9835 79.0642 55.508 76.925 55.4888 74.9011C55.4679 72.7827 55.8415 70.6761 55.5799 68.5578C55.4312 67.357 55.1003 66.1645 54.4827 65.1175C54.1836 64.6127 53.8142 64.1531 53.378 63.7612C53.0772 63.4905 52.4271 62.9833 52.1028 63.5139C52.0151 63.6585 52.0435 63.8014 52.0978 63.9417C51.8546 63.7328 51.599 63.5398 51.3232 63.3727C51.0065 63.1813 50.084 62.6022 49.8592 63.2281C49.7639 63.4938 49.9686 63.7111 50.1232 63.9033C50.1717 63.9635 50.2193 64.0236 50.2678 64.0838C50.2168 64.0211 49.8876 64.3186 49.8625 64.3796C49.8032 64.5317 49.86 64.8041 49.9302 64.9462C50.0146 65.115 50.1015 65.2838 50.1909 65.4509C50.2143 65.4952 50.241 65.5378 50.2661 65.5821C50.099 65.6113 49.9477 65.7032 49.8675 65.8687C49.728 66.1553 49.8525 66.4779 49.9386 66.7603C50.3848 68.2177 50.3113 69.6207 50.2787 71.1349C50.1918 75.3306 49.5984 79.05 50.6564 83.1797C51.3942 86.066 52.7663 88.8687 54.3674 91.9129C55.498 94.063 56.4448 96.4896 58.1863 98.2152C59.0645 99.0868 62.7839 94.8877 62.1413 93.7646Z" fill="#FFCBB4"/>
<path d="M63.9659 95.2511C63.3024 94.8225 62.5871 93.4086 62.2988 92.9206C62.0766 92.5429 61.8777 92.059 61.368 92.3105C59.7485 93.1094 57.7363 93.8682 55.6104 94.8233C55.4032 94.9169 55.0974 94.9353 55.094 95.1751C55.0907 95.4108 55.3213 95.7183 55.4241 95.9238C55.577 96.2297 55.7308 96.5355 55.8837 96.8414C56.3266 97.7221 56.7686 98.6037 57.2667 99.4527C57.8006 100.365 58.221 101.762 58.7641 103.748C58.8778 104.167 64.7222 95.7391 63.9659 95.2511Z" fill="#FF5778"/>
<path d="M62.588 78.0573C62.4627 78.2002 62.5396 78.4091 62.4067 78.5553C62.3574 78.6113 62.2981 78.6648 62.2345 78.7099C61.968 78.8971 61.6613 78.9682 61.3613 79.0826C61.251 79.1244 61.17 79.1604 61.1842 79.2982C61.2042 79.4754 61.4416 79.5723 61.5911 79.6032C61.7307 79.6333 62.1109 79.6592 62.2128 79.5439C62.1861 79.5732 62.1602 79.6024 62.1318 79.6291C62.0457 79.706 61.9454 79.8773 62.0265 79.9459C62.1527 80.0545 62.4351 79.9099 62.5521 79.8389C63.0677 79.523 63.422 78.9523 63.5365 78.364C63.5565 78.2595 62.6407 77.9971 62.588 78.0573Z" fill="#5B3650"/>
<path d="M61.5001 75.8806C60.7656 76.6134 60.9294 77.6212 61.3698 78.0023C61.6773 78.268 62.06 78.4485 62.5004 78.4702C62.8672 78.4886 63.4112 78.4234 63.758 77.9529C64.2585 77.2744 63.8491 76.7714 63.5424 76.4839C63.2541 76.2115 62.9583 75.9441 62.6115 75.7536C62.2982 75.5822 61.933 75.4477 61.5001 75.8806Z" fill="#5B3650"/>
<path d="M63.9946 76.5956C63.7564 76.2405 63.3027 76.4085 63.0904 76.6842C62.9433 76.8764 62.8239 77.1054 62.7679 77.3536C62.7202 77.5608 62.6893 77.8608 62.8556 78.0196C63.0954 78.2477 63.3578 77.9795 63.5149 77.7864C63.6637 77.6034 63.8115 77.4179 63.9302 77.2082C64.038 77.0202 64.1349 76.8046 63.9946 76.5956Z" fill="#FF5778"/>
<path d="M64.1589 78.1108C64.8182 77.3186 65.7582 76.7445 66.7552 76.5264C67.1496 76.4404 67.554 76.412 67.9501 76.3485C68.4223 76.2716 68.9002 76.2156 69.379 76.2064C70.1988 76.1889 71.0211 76.2682 71.8224 76.4446C72.4951 76.5925 73.2865 76.8657 73.7135 77.4482C74.1447 78.0348 74.4179 78.7283 74.5667 79.4378C74.6402 79.7913 74.677 80.5951 74.702 80.9185C74.7179 81.1224 74.7288 81.3539 74.8374 81.5394C74.9586 81.7458 75.3279 82.2179 75.4808 82.3926C75.6914 82.6324 75.5393 82.8472 75.3747 82.8739C75.2644 82.8915 75.1533 82.8982 75.043 82.9048C74.8784 82.9149 74.8717 82.9516 74.8834 83.1112C74.9435 83.9335 75.0137 84.7591 75.0421 85.583C75.0655 86.2248 74.9828 86.92 74.5291 87.4122C74.1723 87.8 73.701 88.0415 73.2096 88.2119C73.101 88.2504 71.8149 88.6364 71.8007 88.5621C71.962 89.4361 72.0406 90.3069 72.2921 91.1609C72.4676 91.7559 72.6439 92.3517 72.8194 92.9466C72.9564 93.4129 73.309 94.1399 73.1386 94.6254C72.989 95.0516 72.2144 95.2981 71.8433 95.4569C70.9684 95.8321 69.9941 95.8597 69.0574 95.7911C68.5911 95.7577 67.3526 95.6867 67.3209 95.009C67.2958 94.4934 67.3944 92.6375 67.3844 92.1235C67.356 90.6954 67.1672 89.2473 66.6323 87.9145C66.1134 86.6209 64.941 85.6708 64.1906 84.5084C63.4009 83.2867 63.0917 81.6288 63.2472 80.194C63.3324 79.4161 63.6667 78.7024 64.1589 78.1108Z" fill="#FFCBB4"/>
<path d="M72.1837 82.8405C72.1561 82.8154 72.1494 82.7753 72.1678 82.7419C72.1845 82.7093 72.2229 82.6926 72.2589 82.7018C73.0235 82.8998 73.6151 82.9993 74.053 82.8706C74.0873 82.8605 74.1249 82.8689 74.1524 82.8923C74.18 82.9157 74.1942 82.9516 74.1892 82.9875C74.0956 83.7254 73.6736 84.1917 72.1837 82.8405Z" fill="white"/>
<path d="M71.3397 88.7601C71.104 88.7601 70.6996 88.7392 69.8982 88.6131C69.8431 88.6047 69.8046 88.552 69.813 88.4961C69.8222 88.4401 69.8665 88.4016 69.9308 88.4108C70.9361 88.5696 71.2996 88.5571 71.4943 88.5521L71.5478 88.5504C71.5971 88.5479 71.6514 88.5938 71.653 88.6507C71.6539 88.7075 71.6088 88.7543 71.5519 88.7551L71.501 88.7568C71.4567 88.7585 71.4049 88.7601 71.3397 88.7601Z" fill="#D97779"/>
<path d="M73.7513 76.8624C73.5616 75.8429 70.926 76.0635 70.4405 76.112C70.077 76.1479 69.5314 76.2031 68.8052 76.2758C67.4874 76.407 66.1295 76.3594 64.9421 77.0287C64.0638 77.5234 63.3652 78.3281 63.0051 79.2707C62.5488 80.4657 62.7586 81.8002 63.1881 82.9701C63.5198 83.8776 63.9602 84.2569 64.5485 85.0274C64.968 85.5764 65.4343 86.0878 65.8513 86.6385C66.1989 87.0964 66.3969 87.6237 66.61 88.1535C66.6819 88.3323 66.9885 88.3331 67.0111 88.1184C67.0855 87.3989 67.0303 86.6485 66.7504 85.9633C66.5557 85.4845 66.3635 85.0132 66.1947 84.5235C66.0819 84.1959 65.7276 84.1374 65.8395 83.804C65.9549 83.4648 67.596 83.1664 67.9119 83.0553C68.0347 83.2174 68.2211 83.3336 68.4409 83.3653C68.7442 83.4096 68.7651 83.1338 68.8094 82.9107C69.0183 81.852 68.603 80.7247 68.9473 79.6835C69.1737 78.9991 69.7411 78.898 70.367 78.6791C70.9085 78.4894 71.4533 78.3131 72.0032 78.1501C72.4887 78.0064 73.0076 77.8836 73.397 77.5376C73.6811 77.2878 73.824 77.2493 73.7513 76.8624Z" fill="#6F5270"/>
<path d="M73.0346 75.0231C72.0653 74.6295 70.9062 74.7841 69.9419 75.1158C69.4614 75.2813 69.0085 75.5136 68.5548 75.7367C68.1687 75.9264 67.7258 76.2055 67.2888 76.2072C66.4506 76.2122 65.1504 76.1278 64.3632 76.4495C63.7574 76.6969 63.0948 77.2584 63.068 78.0021C63.0546 78.3715 63.3404 78.4183 63.6488 78.4016C65.7713 78.2896 68.2222 78.0548 70.3481 78.0138C70.9104 78.0038 71.477 78.0472 72.0377 78.0013C72.4354 77.9679 72.8516 77.906 73.2402 77.7798C73.592 77.6653 74.0432 77.5074 74.2087 77.1556C74.568 76.3868 74.0399 75.6064 73.3914 75.2036C73.2778 75.1334 73.1575 75.0732 73.0346 75.0231Z" fill="#5B3650"/>
<path d="M67.8443 82.9808C67.5936 82.6123 67.2693 82.2747 66.8532 82.0575C66.4379 81.8402 65.8805 81.7332 65.4151 81.8978C64.9655 82.0566 64.7223 82.4903 64.7691 82.914C64.8184 83.3535 65.1026 83.7513 65.4477 84.0479C65.6307 84.205 65.8421 84.3404 66.0694 84.4423C66.2365 84.5167 66.4613 84.617 66.6585 84.5777C67.0663 84.5852 67.4983 84.3989 67.795 84.1549C67.9638 84.0162 68.0766 83.8307 68.0908 83.6251C68.1058 83.3894 67.9755 83.173 67.8443 82.9808Z" fill="#FFCBB4"/>
<path d="M73.7079 81.2761C73.7388 81.5318 73.6928 81.7482 73.5232 81.7691C73.3527 81.7892 73.1221 81.607 73.0912 81.3505C73.0603 81.0948 73.2608 80.9385 73.4304 80.9185C73.6017 80.8976 73.6761 81.0204 73.7079 81.2761Z" fill="#5B3650"/>
<path d="M47.0561 64.7164C47.9711 65.0891 48.6998 65.5094 49.5245 66.0509C49.9457 66.3267 50.3551 66.62 50.7563 66.925C51.0771 67.1698 51.4315 67.367 51.4189 67.8191C51.4122 68.0573 51.2877 68.4141 51.352 68.6439C51.3863 68.7659 51.4549 68.8753 51.5075 68.9898C51.5618 69.1043 51.6011 69.233 51.5727 69.3567C51.5016 69.6617 51.0721 69.6441 50.8473 69.5589C50.554 69.4486 50.3476 69.1904 50.1304 68.979C49.7577 68.6171 49.3866 68.2561 49.0156 67.8943C48.2418 67.1422 47.4756 66.3835 46.7001 65.6306C46.5463 65.481 46.3057 65.3013 46.3425 65.0716C46.3817 64.8342 46.8346 64.6262 47.0561 64.7164Z" fill="#FFCBB4"/>
<path d="M79.1812 92.5237C79.6759 91.7875 80.2224 91.0789 80.672 90.3134C81.6856 88.5812 82.5037 87.0144 83.4204 85.2286C84.2393 83.6317 85.2579 81.9504 85.7802 80.2232C86.3635 78.2962 86.9885 76.1954 87.1515 74.1782C87.3219 72.0666 87.0988 69.9382 87.5091 67.845C87.7414 66.6567 88.1576 65.491 88.8478 64.4899C89.1804 64.0077 89.5823 63.5757 90.0444 63.2155C90.3637 62.9665 91.0488 62.5069 91.3338 63.0585C91.4123 63.2089 91.3739 63.3501 91.3087 63.4855C91.5661 63.2949 91.836 63.1203 92.1227 62.9732C92.4519 62.8044 93.4129 62.2922 93.5917 62.9323C93.6686 63.2047 93.4488 63.4061 93.2808 63.5874C93.229 63.6442 93.1764 63.7011 93.1246 63.7571C93.1797 63.6977 93.4872 64.0186 93.5073 64.0813C93.5558 64.2375 93.4805 64.5049 93.4003 64.6411C93.3042 64.8041 93.2065 64.9654 93.1045 65.1258C93.0778 65.1684 93.0477 65.2094 93.021 65.252C93.1856 65.2929 93.3293 65.3957 93.3978 65.5662C93.5173 65.862 93.3703 66.1745 93.2633 66.4503C92.7151 67.8725 92.69 69.2781 92.6148 70.7897C92.4051 74.9813 92.7335 78.7333 91.3873 82.7777C90.4455 85.6047 88.8787 88.3038 87.0671 91.2268C85.7877 93.2908 84.6713 95.6448 82.812 97.2434C81.8736 98.0498 78.4609 93.5992 79.1812 92.5237Z" fill="#FFCBB4"/>
<path d="M77.3136 94.2345C78.0055 93.8534 78.7609 92.1379 79.0835 91.6716C79.3325 91.3106 79.5639 90.8418 80.0553 91.1284C81.6138 92.0392 83.5666 92.9401 85.6206 94.0423C85.8203 94.1501 86.1245 94.1902 86.1103 94.43C86.0978 94.6648 85.8462 94.9556 85.7292 95.1528C85.5538 95.447 85.3791 95.7411 85.2045 96.0352C84.7023 96.8826 84.1984 97.7307 83.641 98.543C83.0435 99.4154 82.6984 100.346 82.0174 102.289C81.8736 102.698 76.5256 94.6673 77.3136 94.2345Z" fill="#FF5778"/>
<path d="M96.2833 64.6153C95.3441 64.9228 94.5878 65.2905 93.7263 65.7718C93.2868 66.0175 92.8581 66.2807 92.4369 66.5565C92.0985 66.7779 91.7308 66.95 91.7116 67.4013C91.7024 67.6394 91.8002 68.0046 91.7199 68.2294C91.6773 68.3489 91.6021 68.4525 91.5403 68.5628C91.4784 68.6739 91.43 68.7993 91.45 68.9246C91.4985 69.2338 91.9288 69.2463 92.1586 69.1778C92.4586 69.0884 92.6834 68.8461 92.9157 68.6497C93.311 68.3154 93.7079 67.9812 94.104 67.6469C94.9288 66.9509 95.7477 66.2489 96.5733 65.5529C96.7371 65.4141 96.9911 65.252 96.9694 65.0197C96.9477 64.7807 96.5098 64.5417 96.2833 64.6153Z" fill="#FFCBB4"/>
<path d="M71.538 134.335C71.5271 134.335 71.5154 134.333 71.5045 134.33C71.4494 134.311 71.4202 134.252 71.4394 134.198C71.538 133.903 73.6388 127.578 73.6388 127.578L73.8359 127.644C73.8359 127.644 71.7352 133.969 71.6366 134.264C71.6215 134.307 71.5822 134.335 71.538 134.335Z" fill="#24142C"/>
<path d="M126.4 4.74801C120.461 -2.3415 111.728 -0.655178 105.158 4.34358C85.705 19.1443 57.0662 15.6689 35.2997 7.91338C28.2051 5.38559 20.4212 -0.957695 12.5663 2.2152C-0.0810513 7.32426 5.47008 21.8367 13.5039 28.2502C24.4665 37.0018 40.921 39.7268 54.7281 41.6095C68.801 43.5289 83.3377 42.8069 97.0571 39.2346C109.101 36.0976 130.639 25.8001 129.168 10.9142C128.942 8.63872 127.896 6.53292 126.4 4.74801Z" fill="#FFAF48"/>
<path d="M132.945 10.549C126.455 2.2787 116.918 4.24078 109.746 10.066C88.5103 27.3151 57.2334 23.2464 33.4588 14.1898C25.7099 11.2375 17.2049 3.83633 8.62878 7.5315C3.10943 9.91055 -0.78714 16.5388 0.135399 22.5796C1.13649 29.1293 8.64967 35.0531 13.9902 38.0162C26.289 44.8408 40.8508 48.094 54.668 50.1129C70.0394 52.359 85.9131 51.5259 100.894 47.3661C114.045 43.7144 137.585 35.1032 135.97 17.7429C135.723 15.0881 134.58 12.6322 132.945 10.549Z" fill="#F94448"/>
<path d="M122.576 10.534C122.253 9.50702 121.353 8.36802 120.207 8.2009C116.024 7.58921 113.159 11.4708 109.82 13.5983C93.6393 23.9142 73.4429 25.8746 54.8484 22.6348C48.0873 21.4566 41.4557 19.5221 35.1333 16.8506C29.3448 14.4047 23.3283 10.2081 16.7811 10.4789C13.9725 10.595 11.6236 14.6303 14.27 16.6726C17.8457 19.4318 21.9528 21.1106 25.9956 23.061C30.3108 25.1425 34.7731 26.9199 39.3348 28.3856C48.4616 31.3179 57.987 33.0017 67.565 33.3869C78.0004 33.8064 88.9497 32.6298 99.0291 29.7619C104.221 28.2845 109.267 26.1478 113.763 23.1379C117.412 20.6953 124.237 15.811 122.576 10.534Z" fill="#FF5C5F"/>
<path d="M127.661 30.3417C121.722 23.253 112.988 24.9393 106.419 29.9381C86.9651 44.738 58.3263 41.2634 36.5597 33.5071C29.466 30.9793 21.6813 24.6368 13.8263 27.8097C1.17987 32.9179 6.73015 47.4312 14.7648 53.8447C25.7266 62.5963 42.181 65.3213 55.9874 67.204C70.0619 69.1234 84.5986 68.4014 98.318 64.8283C110.361 61.6921 131.9 51.3946 130.427 36.5087C130.203 34.2332 129.157 32.1274 127.661 30.3417Z" fill="#FFAF48"/>
<path d="M119.634 9.25127C116.968 7.70702 113.725 6.59143 110.599 7.5758C107.564 8.53177 104.339 11.1214 104.151 14.5149C104.061 16.1352 104.772 17.6017 105.689 18.8853C106.573 20.122 108.013 21.795 106.624 23.1579C105.29 24.4656 102.896 24.7965 101.127 24.6511C98.826 24.4614 96.4086 23.5556 94.5292 22.2345C92.0917 20.5198 89.9441 18.0505 86.8823 17.4789C83.6217 16.8706 80.4973 18.0831 78.6397 20.844C77.7823 22.1192 77.2358 23.6843 77.0611 25.2135C76.8999 26.6266 77.5308 28.3003 76.7219 29.5872C76.1261 30.5348 74.8918 30.8833 73.7729 30.849C70.6017 30.7529 67.5416 29.6683 65.2227 27.4689C63.1537 25.506 61.8109 23.1144 60.0886 20.8616C59.1235 19.6006 58.0856 18.434 56.7385 17.5691C55.4993 16.7736 54.0136 16.421 52.5596 16.3316C51.139 16.2447 49.5488 16.5305 48.3705 17.3627C47.0586 18.2903 46.3499 19.7209 46.126 21.2877C45.8761 23.035 46.3717 25.933 44.2993 26.7528C43.3091 27.1447 42.4133 26.6742 41.5075 26.3082C40.2398 25.7976 39.0465 25.033 38.0179 24.1397C35.872 22.2788 34.2483 19.9465 32.6448 17.626C29.7886 13.4929 26.5471 7.72373 20.8799 7.51232C18.0588 7.40702 15.5728 8.75322 14.5926 11.4456C13.7812 13.6776 14.0661 16.3959 15.0355 18.5235C15.4951 19.5337 16.2003 20.2875 17.0878 20.9393C17.8532 21.5008 18.7966 20.981 19.0741 20.1521C19.4233 19.1092 18.6521 17.9887 18.3546 17.0235C18.0011 15.8728 17.7479 14.5458 18.0245 13.3551C18.6495 10.6693 21.6754 11.1958 23.4118 12.3807C23.6567 12.547 24.1347 12.9623 24.4973 13.3183C24.9461 13.7595 25.363 14.2308 25.7641 14.7155C27.2148 16.4695 28.6788 18.8034 30.0777 20.8097C31.723 23.1679 33.477 25.5419 35.7291 27.3611C37.9577 29.1619 40.7997 30.7772 43.7453 30.8081C46.7243 30.8398 48.953 28.6162 49.6173 25.8085C49.9465 24.418 49.3633 21.3504 50.829 20.5373C51.2551 20.3008 51.7615 20.2465 52.2487 20.2666C54.2592 20.3485 55.6556 21.586 56.8129 23.1077C58.5669 25.4141 59.9942 27.9026 62.0532 29.9758C64.1113 32.0482 66.6609 33.5841 69.5003 34.3044C72.1317 34.9729 75.1501 35.1484 77.672 34.0052C79.0683 33.3718 80.1254 32.2529 80.6544 30.8106C81.5301 28.4224 80.5775 25.4659 81.9362 23.2013C84.1197 19.563 87.9578 22.1626 90.3026 24.0495C92.7167 25.9915 95.2805 27.7371 98.3731 28.3538C101.027 28.8836 103.967 28.7432 106.508 27.7706C109.552 26.6049 112.131 24.0319 111.208 20.5164C110.755 18.7959 109.605 17.8349 108.824 16.3341C108.455 15.6255 108.288 14.7731 108.558 14.0211C109.393 11.6813 112.692 11.2183 114.767 11.1565C116.216 11.1139 117.251 11.7097 118.658 12.1049C120.102 12.5102 121.059 10.076 119.634 9.25127Z" fill="#FFCA52"/>
<path d="M21.9087 9.02889C21.8686 9.00883 21.8285 8.98962 21.7875 8.97123C21.8895 9.06065 21.8535 9.03557 21.6789 8.89685C21.5619 8.82248 21.4324 8.7782 21.2995 8.73976C21.1474 8.69714 20.992 8.66539 20.8374 8.63531C20.3753 8.5459 19.9107 8.61525 19.4544 8.71553C18.74 8.87095 18.0347 9.19184 17.4422 9.61885C16.8055 10.0793 16.2548 10.6567 15.8696 11.3444C15.6774 11.6862 15.5211 12.0606 15.4233 12.4391C15.3105 12.8736 15.3523 13.3015 15.471 13.731C15.654 14.3937 16.5773 14.341 16.772 13.721C16.7946 13.6499 16.8163 13.5781 16.8414 13.5079C16.8573 13.4745 16.874 13.441 16.8907 13.4085C16.9734 13.2355 17.0169 13.0617 17.072 12.8812C17.0929 12.8151 17.1163 12.7508 17.138 12.6856C17.1431 12.6714 17.1456 12.6639 17.1472 12.6555C17.1539 12.6447 17.1614 12.6305 17.1731 12.6087C17.2408 12.4759 17.3077 12.3438 17.3862 12.2168C17.423 12.1575 17.4606 12.0998 17.5007 12.0422C17.5158 12.0205 17.5333 11.9979 17.5475 11.9787C17.6469 11.8609 17.7456 11.7447 17.855 11.6344C17.9545 11.5341 18.0606 11.4431 18.1659 11.3486C18.1776 11.3369 18.1834 11.3319 18.191 11.3244C18.196 11.321 18.1976 11.3202 18.2043 11.3152C18.2703 11.265 18.3363 11.2157 18.404 11.1681C18.648 10.9976 18.9062 10.8573 19.1736 10.7277C19.1812 10.7236 19.1837 10.7227 19.1887 10.7202C19.197 10.7169 19.2029 10.7152 19.2163 10.711C19.294 10.6834 19.3708 10.6533 19.4486 10.6274C19.594 10.579 19.7402 10.5381 19.8889 10.5046C19.9575 10.4888 20.0268 10.4771 20.0954 10.4628C20.1037 10.4612 20.1054 10.4603 20.1121 10.4586C20.1179 10.4586 20.1196 10.4587 20.1263 10.4578C20.3402 10.4411 20.5783 10.4453 20.7856 10.3918C20.8015 10.3876 20.8081 10.386 20.8165 10.3826H20.8174C20.8859 10.3801 20.9544 10.3734 21.0229 10.3717C21.1591 10.3676 21.2803 10.3567 21.399 10.3333C21.4541 10.335 21.5084 10.3383 21.5636 10.3417C22.2521 10.3918 22.5246 9.32637 21.9087 9.02889Z" fill="#FFE068"/>
<path d="M51.2837 17.5099C50.7865 17.3645 50.3101 17.2692 49.7971 17.4171C49.3726 17.5408 49.0015 17.7464 48.6572 18.0179C47.9804 18.5511 47.5609 19.2831 47.2467 20.0719C46.676 21.5084 46.5974 23.0727 46.1378 24.5401C46.1094 24.6295 46.0802 24.7189 46.0492 24.8066C46.0359 24.8442 46.0209 24.881 46.0083 24.9186C46.0066 24.9261 46.0058 24.9278 46.0041 24.9336C45.9281 25.1041 45.8487 25.2721 45.7543 25.4325C45.5379 25.8019 45.283 26.1629 45.1886 26.584C45.0808 27.0645 45.4267 27.6177 45.964 27.5868C47.6954 27.4857 48.2319 25.0707 48.5395 23.7086C48.7057 22.9749 48.8486 22.2354 49.0408 21.5075C49.086 21.3371 49.1344 21.1674 49.1896 20.9995C49.2138 20.9243 49.2389 20.8482 49.2664 20.7739C49.2756 20.748 49.3116 20.656 49.3308 20.6076C49.3533 20.5591 49.3868 20.4856 49.3985 20.4622C49.4319 20.3953 49.4662 20.3285 49.5029 20.2633C49.5389 20.1989 49.5764 20.1354 49.6149 20.0736C49.6425 20.031 49.6826 19.9792 49.7068 19.9466C49.8071 19.8346 49.909 19.7285 50.0185 19.624C50.0377 19.6098 50.0578 19.5948 50.0787 19.5822C50.1514 19.5363 50.2241 19.4895 50.2984 19.4469C50.3218 19.4335 50.4296 19.3783 50.4814 19.3508C50.4923 19.3458 50.5032 19.3416 50.5082 19.3391C50.6152 19.2981 50.7188 19.2497 50.8199 19.1962C50.9628 19.1218 51.216 18.9539 51.2937 18.9213C51.9304 18.6539 52.0324 17.7271 51.2837 17.5099Z" fill="#FFE068"/>
<path d="M80.8067 20.0853C80.0521 20.7187 79.3644 21.3036 78.8722 22.176C78.4193 22.9791 78.1477 23.8699 77.999 24.7765C77.8377 25.7601 77.7642 26.7603 77.4825 27.7213C77.226 28.5937 76.6954 29.4586 76.3369 30.3627C76.1389 30.8641 76.7614 31.485 77.2619 31.2736C77.8151 31.0413 78.2589 30.7872 78.6524 30.3251C79.0385 29.8714 79.2792 29.3675 79.4881 28.8126C79.8591 27.8358 79.9828 26.7896 80.1048 25.7584C80.1557 25.318 80.2192 24.881 80.3237 24.4498C80.429 24.0228 80.5384 23.7086 80.6847 23.4161C81.09 22.6106 81.603 21.8167 82.0877 21.0579C82.615 20.2323 81.4702 19.5279 80.8067 20.0853Z" fill="#FFE068"/>
<path d="M109.337 20.1346C109.058 18.9964 108.364 18.0154 107.863 16.9734C107.24 15.679 107.118 13.6651 107.904 12.3139C108.117 11.9479 107.749 11.3938 107.314 11.5585C105.301 12.3239 105.291 14.886 105.723 16.6675C105.97 17.6845 106.547 18.5711 107.017 19.4936C107.248 19.9499 107.477 20.4429 107.528 20.9585C107.584 21.5117 107.338 22.0966 107.121 22.5955C106.755 23.4362 107.655 24.1114 108.368 23.5423C109.415 22.7083 109.646 21.3955 109.337 20.1346Z" fill="#FFE068"/>
<path d="M91.8996 54.1313C90.7715 53.1695 89.4913 55.7876 90.4598 56.5589C91.7158 57.5591 92.7854 54.8876 91.8996 54.1313Z" fill="#FF9441"/>
<path d="M107.148 48.3389C108.549 48.8261 108.789 45.9214 107.605 45.5546C106.073 45.0799 106.048 47.957 107.148 48.3389Z" fill="#FF9441"/>
<path d="M104.865 56.5757C105.515 57.9077 107.733 56.0192 107.153 54.9245C106.402 53.5064 104.355 55.5295 104.865 56.5757Z" fill="#FF9441"/>
<path d="M43.2474 52.3508C42.6658 53.7145 45.5463 54.1566 45.9942 53.0009C46.5749 51.5051 43.7054 51.2803 43.2474 52.3508Z" fill="#FF9441"/>
<path d="M56.3101 56.2782C57.6747 56.8573 58.1092 53.9752 56.9527 53.5298C55.4552 52.954 55.2388 55.8236 56.3101 56.2782Z" fill="#FF9441"/>
<path d="M60.9368 54.5241C59.5288 54.987 61.0998 57.4421 62.263 57.016C63.7696 56.4636 62.0432 54.1606 60.9368 54.5241Z" fill="#FF9441"/>
<path d="M41.2253 45.4033C42.493 46.1729 43.337 43.3827 42.2565 42.7761C40.8568 41.9906 40.2301 44.8 41.2253 45.4033Z" fill="#FF9441"/>
<path d="M60.0794 50.824C61.4715 51.3338 61.7599 48.4333 60.5816 48.0472C59.0566 47.5467 58.9855 50.4237 60.0794 50.824Z" fill="#FF9441"/>
<path d="M25.0793 55.8588C26.5592 55.9398 25.9876 53.0811 24.7492 53.0561C23.1439 53.0235 23.9161 55.7953 25.0793 55.8588Z" fill="#FF9441"/>
<path d="M23.8626 47.2809C22.6451 48.1266 24.852 50.0301 25.8455 49.2889C27.1316 48.3288 24.8185 46.6157 23.8626 47.2809Z" fill="#FF9441"/>
<path d="M30.0062 55.964C31.1201 56.9417 32.437 54.3421 31.4785 53.5566C30.2376 52.5388 29.1313 55.1953 30.0062 55.964Z" fill="#FF9441"/>
</svg>
