<svg width="190" height="133" viewBox="0 0 190 133" fill="none" xmlns="http://www.w3.org/2000/svg">
<path d="M156.066 26.1906C155.576 27.0045 155.138 27.8571 154.6 28.6429C153.382 30.4157 152.233 31.9239 150.918 33.6264C149.741 35.1496 148.573 36.904 147.133 38.1987C145.527 39.6445 143.772 41.2099 141.884 42.2892C139.909 43.4195 137.737 44.1763 135.889 45.5307C134.841 46.2989 133.897 47.2333 133.241 48.3592C132.925 48.9024 132.69 49.4886 132.552 50.1003C132.456 50.5222 132.325 51.3959 132.991 51.4205C133.174 51.4275 133.293 51.3247 133.395 51.1999C133.328 51.5365 133.281 51.8767 133.27 52.2221C133.257 52.6176 133.201 53.7813 133.905 53.6635C134.206 53.6134 134.3 53.3076 134.399 53.0632C134.431 52.9868 134.463 52.9103 134.494 52.8338C134.461 52.9138 134.913 53.0659 134.984 53.0562C135.158 53.0316 135.383 52.8356 135.478 52.6967C135.593 52.5297 135.705 52.3601 135.815 52.1896C135.844 52.1439 135.87 52.0955 135.899 52.0498C136.014 52.1905 136.18 52.2827 136.377 52.2713C136.719 52.2511 136.957 51.9663 137.176 51.7369C138.307 50.5556 139.662 49.8903 141.097 49.1256C145.077 47.0065 148.878 45.6099 152.193 42.458C154.51 40.2554 156.415 37.5052 158.426 34.4148C159.846 32.2333 161.622 30.0764 162.323 27.5468C162.676 26.2697 156.779 25.0006 156.066 26.1906Z" fill="#FFCBB4"/>
<path d="M135.685 49.5598C135.562 49.5598 135.441 49.5168 135.336 49.4333C135.139 49.2777 135.027 49.0096 135.057 48.7644C135.125 48.1887 135.367 47.5216 135.706 46.9801C135.738 46.9283 135.806 46.9125 135.858 46.945C135.91 46.9775 135.925 47.0452 135.894 47.097C135.576 47.6042 135.34 48.2528 135.276 48.7907C135.256 48.9604 135.337 49.1537 135.472 49.261C135.541 49.3155 135.654 49.3682 135.804 49.3181C135.941 49.2689 136.923 48.5156 137.511 48.0656C137.844 47.8107 138.128 47.5928 138.26 47.4996C138.634 47.2324 138.666 46.8518 138.627 46.669C138.614 46.6092 138.652 46.5512 138.711 46.538C138.771 46.5266 138.829 46.5626 138.843 46.6224C138.911 46.9371 138.797 47.3862 138.387 47.678C138.258 47.7703 137.975 47.9874 137.645 48.2405C136.711 48.9569 136.036 49.4684 135.878 49.5247C135.813 49.5475 135.749 49.5598 135.685 49.5598Z" fill="#D97779"/>
<path d="M133.5 51.084C133.487 51.084 133.474 51.0813 133.461 51.0769C133.404 51.0559 133.375 50.9917 133.397 50.9354C133.587 50.4274 134.324 49.2866 134.974 48.4946C135.012 48.4472 135.082 48.4393 135.129 48.4788C135.176 48.5175 135.183 48.586 135.144 48.6335C134.518 49.3973 133.784 50.5311 133.603 51.0128C133.587 51.0567 133.545 51.084 133.5 51.084Z" fill="#D97779"/>
<path d="M134.465 52.7539C134.459 52.7539 134.452 52.753 134.446 52.7521C134.386 52.7425 134.346 52.6845 134.357 52.6256C134.514 51.744 135.059 50.5109 135.405 50.0758C135.443 50.0292 135.513 50.0195 135.56 50.0582C135.608 50.096 135.615 50.1646 135.577 50.212C135.284 50.5812 134.733 51.773 134.574 52.6634C134.564 52.7161 134.518 52.7539 134.465 52.7539Z" fill="#D97779"/>
<path d="M135.981 51.9277C135.967 51.9277 135.952 51.9251 135.938 51.9181C135.881 51.8943 135.855 51.8302 135.88 51.7739C136.149 51.1595 136.376 50.8176 136.615 50.4564C136.673 50.3694 136.732 50.2815 136.792 50.1857C136.826 50.1356 136.896 50.1215 136.945 50.1523C136.997 50.1857 137.011 50.2542 136.979 50.3043C136.917 50.401 136.858 50.4898 136.8 50.5777C136.555 50.9468 136.344 51.265 136.082 51.8618C136.064 51.9031 136.023 51.9277 135.981 51.9277Z" fill="#D97779"/>
<path d="M138.978 43.2947C139.396 42.9686 140.007 42.6979 140.456 42.4553C141.332 41.9807 142.247 41.572 143.078 41.0165C144.487 40.0752 145.816 39.0143 147.022 37.8242C149.173 35.7051 150.736 33.2054 152.377 30.6952C153.407 29.1192 154.212 27.415 155.339 25.9006C156.657 24.1295 158.341 22.304 160.308 21.2413C160.758 20.9979 161.217 20.8019 161.713 20.6727C162.12 20.5663 162.471 20.7017 162.857 20.8634C163.728 21.2299 165.114 22.0139 164.891 23.1319C164.756 23.8096 164.257 24.5523 163.963 25.1851C163.595 25.9779 163.2 26.7584 162.8 27.5363C161.35 30.3524 159.567 32.9136 157.853 35.5645C156.254 38.036 154.481 40.4751 152.338 42.5116C150.908 43.8722 149.304 45.0464 147.619 46.0748C146.138 46.9775 142.156 48.9498 141.937 48.9463C141.459 48.9401 141.254 48.3548 140.891 47.7501C140.379 46.8957 138.435 43.7175 138.978 43.2947Z" fill="#5B3650"/>
<path d="M158.069 125.752C157.995 125.009 157.871 124.253 157.92 123.505C157.928 123.376 160.811 122.77 161.793 122.626C162.808 122.478 165.956 122.771 166.062 122.91C166.139 123.009 166.061 125.203 165.938 127.555C163.358 127.503 160.776 127.299 158.194 126.947C158.148 126.425 158.086 125.752 158.069 125.752Z" fill="#FFCBB4"/>
<path d="M155.314 131.335C155.764 131.083 156.29 130.983 156.786 130.865C157.253 130.753 157.728 130.668 158.03 130.256C158.302 129.887 158.275 129.442 158.295 129.01C158.318 128.52 158.294 128.03 158.246 127.543C158.241 127.488 158.219 127.24 158.194 126.947C160.776 127.299 163.357 127.503 165.938 127.555C165.835 129.551 165.699 131.662 165.598 132.699C165.585 132.829 165.505 132.908 165.377 132.919C163.661 133.083 157.227 132.944 155.706 132.966C154.531 132.983 154.53 132.876 154.531 132.574C154.532 132.059 154.865 131.587 155.314 131.335Z" fill="#5B3650"/>
<path d="M158.143 130.868C158.09 130.868 158.042 130.83 158.035 130.776C158.025 130.717 158.065 130.66 158.126 130.651C160.482 130.282 160.895 128.179 160.966 127.543C160.973 127.482 161.034 127.435 161.088 127.446C161.149 127.453 161.192 127.506 161.186 127.567C161.111 128.242 160.671 130.476 158.161 130.867C158.155 130.868 158.148 130.868 158.143 130.868Z" fill="#24142C"/>
<path d="M161.475 128.573C161.47 128.573 161.467 128.573 161.462 128.573C161.445 128.571 159.653 128.373 158.554 128.204C158.494 128.195 158.452 128.138 158.462 128.08C158.47 128.019 158.527 127.981 158.587 127.987C159.682 128.154 161.468 128.353 161.486 128.355C161.547 128.362 161.591 128.415 161.584 128.476C161.578 128.532 161.529 128.573 161.475 128.573Z" fill="#24142C"/>
<path d="M161.076 129.765C161.069 129.765 161.061 129.764 161.054 129.762L158.549 129.264C158.489 129.253 158.451 129.195 158.463 129.136C158.474 129.077 158.533 129.033 158.592 129.05L161.097 129.547C161.157 129.558 161.196 129.617 161.184 129.676C161.173 129.729 161.127 129.765 161.076 129.765Z" fill="#24142C"/>
<path d="M185.214 125.752C185.287 125.009 185.412 124.253 185.363 123.505C185.354 123.376 182.473 122.77 181.491 122.626C180.474 122.478 177.327 122.771 177.221 122.91C177.145 123.009 177.222 125.203 177.344 127.555C179.926 127.503 182.507 127.299 185.089 126.947C185.135 126.425 185.197 125.752 185.214 125.752Z" fill="#FFCBB4"/>
<path d="M187.97 131.335C187.519 131.083 186.993 130.983 186.496 130.865C186.028 130.753 185.554 130.668 185.252 130.256C184.981 129.887 185.008 129.442 184.988 129.01C184.964 128.52 184.989 128.03 185.037 127.543C185.042 127.488 185.063 127.24 185.089 126.947C182.507 127.299 179.926 127.503 177.344 127.555C177.448 129.551 177.584 131.662 177.685 132.699C177.698 132.829 177.779 132.908 177.906 132.919C179.622 133.083 186.056 132.944 187.577 132.966C188.751 132.983 188.751 132.876 188.751 132.574C188.75 132.059 188.417 131.587 187.97 131.335Z" fill="#5B3650"/>
<path d="M185.14 130.868C185.135 130.868 185.128 130.868 185.122 130.867C182.612 130.476 182.172 128.242 182.097 127.567C182.09 127.506 182.134 127.453 182.195 127.446C182.261 127.435 182.31 127.482 182.316 127.543C182.387 128.179 182.801 130.282 185.157 130.651C185.217 130.66 185.257 130.717 185.248 130.776C185.24 130.83 185.193 130.868 185.14 130.868Z" fill="#24142C"/>
<path d="M181.809 128.573C181.754 128.573 181.705 128.532 181.699 128.476C181.692 128.415 181.736 128.362 181.796 128.355C181.815 128.353 183.6 128.154 184.697 127.987C184.758 127.981 184.812 128.019 184.821 128.08C184.831 128.138 184.789 128.195 184.729 128.204C183.63 128.373 181.839 128.571 181.821 128.573C181.817 128.573 181.813 128.573 181.809 128.573Z" fill="#24142C"/>
<path d="M182.207 129.765C182.156 129.765 182.11 129.729 182.099 129.676C182.087 129.617 182.125 129.558 182.186 129.547L184.691 129.05C184.748 129.034 184.809 129.077 184.82 129.136C184.832 129.195 184.793 129.253 184.734 129.264L182.229 129.762C182.222 129.764 182.214 129.765 182.207 129.765Z" fill="#24142C"/>
<path d="M184.324 125.834C185.218 125.742 188.696 126.064 188.86 125.468C189.238 124.095 188.777 122.033 188.728 120.635C188.596 116.807 188.45 112.98 188.304 109.152C187.957 100.039 187.158 90.9185 186.546 81.8073C186.095 75.0791 185.567 68.3552 184.962 61.6393C184.407 55.463 184.315 48.7971 182.575 42.8107C181.825 39.8311 181.438 39.5437 178.322 39.6676C175.764 39.7678 173.195 39.7599 171.258 41.2172C169.622 42.4486 168.424 44.406 168.558 46.2676C168.924 51.354 169.745 56.7735 170.318 61.9012C170.893 67.0447 171.318 71.8613 172.16 77.033C173.017 82.2943 173.613 87.5829 174.002 92.9338C174.414 98.5906 176.586 122.388 176.696 125.992C176.706 126.313 180.938 126.181 184.324 125.834Z" fill="#FFC566"/>
<path d="M159.299 125.834C158.404 125.742 154.926 126.064 154.762 125.468C154.384 124.095 154.846 122.033 154.894 120.635C155.027 116.807 155.172 112.98 155.318 109.152C155.665 100.039 156.464 90.9185 157.076 81.8074C157.527 75.0791 158.055 68.3552 158.659 61.6393C159.215 55.463 159.442 48.8455 160.593 42.6121C161.151 39.5921 162.185 39.5437 165.3 39.6676C167.857 39.7678 170.427 39.7599 172.364 41.2172C174 42.4486 175.198 44.406 175.064 46.2676C174.697 51.354 173.878 56.7735 173.305 61.9012C172.73 67.0447 172.303 71.8613 171.461 77.033C170.606 82.2943 170.01 87.5829 169.619 92.9338C169.208 98.5906 167.037 122.388 166.927 125.992C166.917 126.313 162.685 126.181 159.299 125.834Z" fill="#FFC566"/>
<path d="M159.513 40.2641C159.522 40.9981 159.53 41.7364 159.544 42.4694C159.544 42.7155 159.363 43.9724 159.689 44.0023C167.656 44.7239 175.494 44.7362 183.474 44.0023C183.796 43.9724 183.615 42.7155 183.62 42.4694C183.628 41.7364 183.637 40.9981 183.65 40.2641C183.686 37.586 183.743 34.9193 183.836 32.2403C183.915 30.2065 183.885 28.1762 183.871 26.1432C183.862 25.0269 183.92 23.9379 183.549 22.8656C183.266 22.0544 182.781 21.2765 181.991 20.881C181.134 20.4503 180.106 20.4239 179.167 20.3404C178.588 20.293 178.014 20.249 177.437 20.2086C176.832 20.169 176.222 20.1339 175.613 20.1084C172.974 19.9845 170.312 19.9845 167.673 20.104C167.091 20.1295 166.513 20.1603 165.934 20.1998C165.281 20.235 164.637 20.2833 163.992 20.3404C163.057 20.4239 162.024 20.4503 161.172 20.881C160.377 21.2765 159.893 22.0544 159.614 22.8656C159.243 23.9379 159.296 25.0269 159.288 26.1432C159.274 28.1762 159.243 30.2065 159.323 32.2403C159.42 34.9193 159.473 37.586 159.513 40.2641Z" fill="#5B3650"/>
<path d="M171.58 73.1848C171.523 73.1848 171.476 73.1425 171.471 73.0856L170.035 57.3175C170.029 57.2559 170.074 57.2032 170.134 57.1979C170.199 57.1839 170.249 57.2366 170.254 57.2964L171.69 73.0654C171.696 73.1261 171.651 73.1796 171.591 73.1848C171.587 73.1848 171.584 73.1848 171.58 73.1848Z" fill="#FF8C49"/>
<path d="M159.263 33.0103C159.263 33.0103 159.263 33.0103 159.262 33.0103C159.201 33.0103 159.153 32.961 159.153 32.8995L159.173 27.7059C159.173 27.6461 159.223 27.5969 159.284 27.5969C159.284 27.5969 159.284 27.5969 159.284 27.5969C159.345 27.5969 159.394 27.647 159.394 27.7076L159.374 32.9013C159.374 32.9619 159.323 33.0103 159.263 33.0103Z" fill="#24142C"/>
<path d="M170.827 25.0945C170.276 25.0945 168.086 22.6053 167.021 20.9116C166.988 20.8598 167.003 20.7921 167.055 20.7605C167.107 20.7262 167.176 20.7437 167.207 20.7947C168.437 22.7504 170.504 24.8756 170.817 24.8756C170.818 24.8756 170.819 24.8756 170.819 24.8756C171.15 24.8211 174.804 22.3663 176.666 20.7701C176.714 20.7297 176.783 20.735 176.822 20.7807C176.862 20.8273 176.857 20.8967 176.811 20.9362C174.936 22.5438 171.26 25.0259 170.852 25.0918C170.844 25.0936 170.835 25.0945 170.827 25.0945Z" fill="#24142C"/>
<path d="M168.043 20.1041C168.79 21.4832 170.863 23.7447 171.026 23.6647C171.362 23.5065 175.715 20.3801 175.983 20.1085C173.344 19.9846 170.682 19.9846 168.043 20.1041Z" fill="#FFCBB4"/>
<path d="M168.62 2.78816C169.204 2.83738 167.978 6.23183 167.823 6.28105C167.616 6.34873 167.479 6.09297 167.395 5.95058C167.127 5.49266 166.976 4.96705 166.964 4.43705C166.947 3.72775 167.921 2.72927 168.62 2.78816Z" fill="#DB5148"/>
<path d="M167.064 10.2567C167.108 9.50167 167.19 8.75105 167.232 7.99693C167.29 6.98879 167.378 5.97538 167.62 4.99361C168.091 3.07401 169.339 1.43392 171.338 0.915344C172.418 0.634962 173.647 0.805479 174.726 1.02873C175.653 1.22122 176.429 1.51302 177.105 2.18101C178.138 3.2041 178.663 4.69037 178.513 6.13271C178.413 7.09163 178.195 8.09977 177.79 8.97782C177.412 9.79875 176.868 10.5291 176.341 11.2587C175.804 12.004 175.206 12.7581 174.949 13.6538C174.505 15.206 174.638 17.0122 174.828 18.5978C174.896 19.1612 175.073 19.7545 175.044 20.3548C175.028 20.6686 174.658 20.8268 174.415 20.9375C173.365 21.4174 172.221 21.6169 171.072 21.4499C170.581 21.3787 170.097 21.2495 169.638 21.0632C169.338 20.9419 168.674 20.7178 168.721 20.3003C168.722 20.295 168.721 20.2897 168.723 20.2845C168.928 19.2508 169.207 18.2339 169.417 17.2012C169.631 16.1429 169.713 15.0899 169.732 14.0115C169.357 13.9632 168.983 13.9078 168.623 13.7935C168.252 13.6757 167.886 13.4956 167.621 13.2046C167.069 12.5982 167.021 11.692 167.037 10.915C167.041 10.6953 167.051 10.4755 167.064 10.2567Z" fill="#FFCBB4"/>
<path d="M173.272 6.10736C173.294 6.37807 173.238 6.60308 173.057 6.61714C172.877 6.63208 172.64 6.42993 172.619 6.1601C172.597 5.88939 172.815 5.73382 172.997 5.71975C173.177 5.70481 173.251 5.83664 173.272 6.10736Z" fill="#5B3650"/>
<path d="M169.71 5.90075C169.731 6.17058 169.674 6.39647 169.494 6.41142C169.313 6.42548 169.077 6.22419 169.056 5.95348C169.033 5.68365 169.252 5.5272 169.432 5.51313C169.614 5.49907 169.687 5.63004 169.71 5.90075Z" fill="#5B3650"/>
<path d="M170.636 9.24756C170.411 9.24756 170.176 9.19922 169.954 9.0832C169.9 9.05507 169.879 8.98828 169.908 8.93554C169.936 8.88105 170.003 8.86171 170.055 8.88896C170.613 9.17813 171.175 8.95575 171.395 8.79842C171.446 8.76327 171.514 8.77382 171.55 8.82304C171.585 8.87314 171.574 8.94169 171.525 8.97685C171.306 9.13242 170.982 9.24756 170.636 9.24756Z" fill="#D97779"/>
<path d="M170.34 8.08667C170.309 8.08667 170.278 8.07261 170.257 8.04888C170.234 8.02251 170.225 7.98735 170.233 7.95307L170.788 5.48766C170.801 5.42877 170.862 5.39185 170.92 5.40416C170.979 5.41822 171.016 5.47623 171.004 5.536L170.481 7.85551L171.451 7.78168C171.454 7.78168 171.457 7.78168 171.459 7.78168C171.517 7.78168 171.565 7.82563 171.57 7.88364C171.574 7.94429 171.528 7.99702 171.468 8.00142L170.349 8.08667C170.346 8.08667 170.343 8.08667 170.34 8.08667Z" fill="#D97779"/>
<path d="M170.206 14.1001C170.105 14.1001 170.019 14.0957 169.961 14.0931C169.931 14.0913 169.908 14.0904 169.892 14.0904C169.831 14.0904 169.781 14.0412 169.781 13.9806C169.781 13.9199 169.831 13.8707 169.892 13.8707C169.909 13.8707 169.937 13.8716 169.971 13.8733C170.178 13.883 170.726 13.9102 171.168 13.7002C171.223 13.6729 171.288 13.6958 171.315 13.7512C171.342 13.8065 171.318 13.8716 171.263 13.8971C170.902 14.0693 170.489 14.1001 170.206 14.1001Z" fill="#D97779"/>
<path d="M166.041 4.24811C166.152 4.18835 166.262 4.14088 166.307 4.11275C166.578 3.94751 166.819 3.73481 167.015 3.48695C167.233 3.21185 167.213 2.84797 167.332 2.53067C167.573 1.89432 168.102 1.40124 168.693 1.0813C168.876 0.981985 169.067 0.898479 169.265 0.832559C169.649 0.705113 170.043 0.66644 170.438 0.667318C170.335 0.66644 170.132 0.145238 170.303 0.0265818C170.46 -0.082407 170.686 0.174244 170.832 0.258622C171.308 0.531971 171.928 0.625131 172.555 0.635678C172.751 0.626889 172.95 0.623373 173.149 0.624251C173.541 0.603157 173.919 0.563605 174.248 0.525811C175.044 0.430886 176.249 0.308716 176.848 0.978465C176.883 1.01802 176.911 1.06197 176.947 1.10152C176.998 1.15513 177.095 0.866847 177.102 0.842237C177.15 0.676118 177.122 0.594371 177.09 0.43001C177.073 0.337722 176.977 0.102162 177.094 0.040637C177.136 0.0177841 177.19 0.0257025 177.232 0.0485554C177.274 0.070528 177.308 0.10568 177.341 0.140837C177.459 0.269161 177.573 0.403639 177.651 0.558331C177.732 0.71654 177.865 1.26236 177.593 1.34235C177.608 1.33795 177.622 1.33092 177.64 1.32916C178.473 1.265 178.98 2.21601 179.08 2.91124C179.168 3.51419 179.085 4.1523 179.123 4.76932C179.144 5.08398 179.195 5.40215 179.317 5.69572C179.388 5.86799 179.566 6.14749 179.679 6.28812C179.945 6.61772 179.035 6.40238 178.859 6.30043C178.876 7.04313 178.856 7.66278 178.523 8.35538C178.265 8.89065 177.932 9.38725 177.584 9.86627C177.468 10.028 177.322 10.188 177.18 10.3514C177.066 10.5096 176.948 10.667 176.826 10.8208C176.697 11.0414 176.619 11.2778 176.663 11.5442C176.714 11.8491 176.343 11.7947 176.187 11.6417C176.186 11.6408 176.186 11.6391 176.184 11.6382C175.867 12.0619 175.578 12.5101 175.385 13.0014C175.302 13.2124 174.932 13.2106 174.951 12.9425C175.037 11.7665 175.117 10.6318 175.58 9.52876C175.757 9.10951 176.005 8.71838 176.152 8.2877C176.218 8.09346 176.272 7.88338 176.255 7.67683C176.234 7.41052 175.57 7.38766 175.381 7.42458C175.374 7.42634 175.369 7.4281 175.362 7.42986C175.303 7.66278 175.193 7.93964 175.069 7.98271C174.802 8.07324 174.592 6.93766 174.535 6.54213C174.42 5.74406 174.927 4.87391 174.649 4.10572C174.557 3.85258 173.886 2.76447 173.567 3.07122C173.104 3.51332 172.59 3.90533 172.014 4.19186C171.516 4.43972 170.678 4.85281 170.143 4.52321C170.005 4.43883 170.298 4.35973 170.38 4.30612C170.527 4.21119 170.645 4.08727 170.746 3.95015C170.337 4.04332 169.888 4.08286 169.477 4.00728C169.385 3.99058 168.938 4.37555 168.845 4.42829C167.94 4.93456 166.82 5.15165 165.861 4.65593C165.604 4.52321 165.823 4.36501 166.041 4.24811Z" fill="#FF5778"/>
<path d="M174.742 8.61629C174.834 8.06344 175.298 7.406 175.615 7.14407C176.046 6.7881 176.689 6.60177 177.201 6.90676C178.216 7.51499 176.874 9.11816 176.313 9.48028C176.105 9.61476 175.491 9.70881 175.245 9.66399C174.71 9.5673 174.675 9.02148 174.742 8.61629Z" fill="#FFCBB4"/>
<path d="M44.662 39.4233C46.1528 39.3477 47.6762 38.5655 47.9942 37.0098C48.3077 35.4787 47.5349 34.4318 46.4742 33.472C45.2281 32.3435 43.9334 31.2685 42.6122 30.2296C40.0077 28.1826 37.2973 26.2744 34.6133 24.3337C33.8865 23.809 33.044 23.2922 32.1096 23.5849C30.7539 24.0094 29.733 25.0641 29.574 26.4854C29.4486 27.6051 29.9175 28.6563 30.6055 29.5195C31.3907 30.503 32.3392 31.4628 33.2294 32.3716C35.1874 34.3694 37.4333 36.0869 39.8752 37.4598C40.081 37.5758 40.3027 37.705 40.5367 37.843C41.7846 38.5708 43.3761 39.4901 44.662 39.4233Z" fill="#FFCBB4"/>
<path d="M43.0218 33.0455C43.4104 32.9708 43.8167 32.9637 44.2141 33.0059C45.1997 33.1105 46.1385 33.4577 47.0588 33.8066C48.0002 34.1644 48.9496 34.4984 49.9105 34.799C51.8137 35.3914 53.7434 35.8871 55.6528 36.454C57.5393 37.0147 59.4655 37.6203 61.215 38.53C62.0452 38.9616 62.8338 39.5013 63.4132 40.2431C63.9449 40.9225 64.3538 41.8735 64.0456 42.7331C63.9767 42.9274 63.7152 43.4433 63.5015 43.5347C63.3646 43.5936 63.1456 43.7562 63.0149 43.6094C62.9248 43.7755 62.8012 43.9197 62.6537 44.0366C62.5088 44.1517 62.3154 44.2642 62.1282 44.2844C62.0876 44.2888 62.0514 44.2818 62.0143 44.2748C61.9525 44.4303 61.8553 44.5701 61.7211 44.6835C61.5029 44.8672 61.2353 44.9849 60.9669 45.0799C60.9377 45.3005 60.8723 45.5123 60.7549 45.7039C60.5924 45.9685 60.2603 46.284 59.9212 46.1328C59.7657 46.0634 59.6774 45.9061 59.6536 45.7443C59.6218 45.5255 59.7287 45.3523 59.7543 45.1431C59.787 44.8733 59.5078 44.7485 59.2976 44.6536C59.0504 44.5402 58.796 44.4435 58.5373 44.3591C58.0577 44.2009 57.5676 44.0796 57.0774 43.9627C54.9834 43.4635 52.915 42.8773 50.8599 42.2383C49.8363 41.921 48.8171 41.5958 47.798 41.2688C46.8168 40.955 45.8338 40.6307 44.8906 40.2158C43.0245 39.394 41.3438 38.0598 40.8996 35.9785C40.6964 35.0275 40.9261 33.8813 41.8322 33.3584C42.1245 33.1905 42.5803 33.0604 43.0218 33.0455Z" fill="#FFCBB4"/>
<path d="M60.9287 44.9272C60.9217 44.9272 60.9146 44.9264 60.9084 44.9255C60.8537 44.9141 60.8175 44.8604 60.8289 44.8051C60.9968 43.9877 60.4616 43.3654 59.8575 42.8143C59.816 42.7765 59.8133 42.7123 59.8513 42.671C59.8884 42.6297 59.9537 42.6262 59.9952 42.6649C60.6126 43.2274 61.2166 43.9261 61.0285 44.8464C61.0188 44.8947 60.9764 44.9272 60.9287 44.9272Z" fill="#D97779"/>
<path d="M62.0166 44.1917C62.0121 44.1917 62.006 44.1916 62.0007 44.1899C61.9442 44.1811 61.907 44.1292 61.9168 44.0739C62.0183 43.4648 61.7428 42.461 61.1201 41.9029C61.0786 41.8651 61.0751 41.8001 61.1122 41.7596C61.1511 41.7174 61.2155 41.7139 61.2562 41.7517C61.9397 42.3652 62.2312 43.4314 62.1172 44.1064C62.1093 44.1565 62.066 44.1917 62.0166 44.1917Z" fill="#D97779"/>
<path d="M63.0536 43.55C63.0483 43.55 63.0439 43.55 63.0386 43.5492C62.983 43.5404 62.945 43.4885 62.9529 43.4332C63.0395 42.8689 62.8973 41.8054 62.1537 41.1901C62.1095 41.1541 62.1042 41.0908 62.1395 41.0477C62.1775 41.0038 62.2402 40.9985 62.2826 41.0337C63.0412 41.6612 63.2655 42.7326 63.1552 43.4639C63.1472 43.514 63.1039 43.55 63.0536 43.55Z" fill="#D97779"/>
<path d="M31.1888 21.947C30.5044 21.9963 29.8235 22.1773 29.2326 22.5166C28.5429 22.9139 27.9591 23.4975 27.5573 24.1822C27.3657 24.5074 27.2032 24.8027 27.2464 25.171C27.2985 25.6192 27.4169 26.0411 27.5758 26.4586C27.9477 27.4333 28.5332 28.307 29.1735 29.1191C29.7608 29.8636 30.4002 30.5676 31.0838 31.2251C31.5147 31.6391 31.9316 32.0697 32.405 32.438C32.7706 32.7219 33.1451 33.1262 33.6052 32.6437C35.0642 31.1082 36.955 29.4391 38.9033 27.5186C39.0932 27.3323 39.4138 27.1767 39.336 26.9306C39.2601 26.6906 38.9104 26.4797 38.7311 26.3162C38.4635 26.0736 38.1968 25.831 37.9292 25.5885C37.1599 24.8888 36.3898 24.1892 35.572 23.5476C34.6924 22.8576 34.1378 22.3988 33.0073 22.1843C32.5419 22.0964 31.6816 21.9101 31.1888 21.947Z" fill="#52C8F0"/>
<path d="M40.0467 130.457C40.2975 130.592 40.5898 130.655 40.8786 130.728C41.3732 130.852 41.8987 130.958 42.3456 131.216C42.7907 131.472 43.1183 131.949 43.113 132.464C43.1095 132.766 43.1077 132.873 41.9331 132.842C44.0218 132.897 37.5597 133.247 32.2633 132.68C32.1362 132.666 32.0567 132.586 32.0461 132.457C32.0002 131.926 31.986 131.106 31.9922 130.165C34.7009 130.285 37.4431 130.439 40.0467 130.457Z" fill="#5B3650"/>
<path d="M32.3631 122.581C32.4708 122.443 35.622 122.187 36.6359 122.348C37.6162 122.503 40.4909 123.143 40.498 123.273C40.5377 124.02 40.4043 124.776 40.3213 125.518C40.2957 125.518 39.3746 129.732 39.6413 130.105C39.7543 130.263 39.893 130.373 40.0466 130.457C37.4431 130.439 34.7009 130.285 31.9922 130.165C32.0125 127.099 32.2536 122.72 32.3631 122.581Z" fill="#FFCBB4"/>
<path d="M31.9451 43.0514C30.6839 40.9859 26.5772 40.8119 24.7146 41.4904C21.3215 42.7262 17.5301 46.8687 17.4665 50.627C17.4373 52.3251 18.392 53.9116 19.0085 55.4778C19.6894 57.2102 20.3685 59.3522 21.0768 61.074C21.8266 62.8968 22.4758 64.8754 23.1638 66.7229C24.5477 70.4347 25.8371 74.0795 26.9676 77.874C27.5301 79.761 28.4133 81.4602 28.7834 83.3956C29.6418 87.8895 27.41 95.9966 26.3714 100.365C25.9139 102.286 25.1323 104.226 24.8921 106.198C24.7305 107.527 24.8356 108.902 25.3885 110.121C25.6773 110.757 26.1551 111.346 26.2787 112.028C26.4156 112.788 26.2522 113.633 26.0164 114.383C25.505 116.006 24.3163 117.431 24.7367 119.154C24.9354 119.971 25.1297 120.854 25.0688 121.709C25.0167 122.43 25.2657 123.011 25.3346 123.431C25.4344 124.041 27.6052 123.93 28.4857 124.117C31.8205 124.82 34.8799 125.13 38.2659 125.538C39.2665 125.658 41.6528 126.179 41.6502 125.858C42.6164 120.451 43.4298 114.672 44.3509 109.314C46.8988 94.5158 48.4408 90.7347 47.5329 83.422C47.2777 81.373 46.8167 80.2788 46.0828 78.353C43.9658 72.7947 41.8569 67.1922 39.7761 61.626C38.1432 57.2867 34.3817 47.0444 31.9451 43.0514Z" fill="#5B3650"/>
<path d="M16.0575 130.457C16.3083 130.592 16.5997 130.655 16.8885 130.728C17.384 130.852 17.9095 130.958 18.3555 131.216C18.8015 131.472 19.1282 131.949 19.1229 132.464C19.1194 132.766 19.1176 132.873 17.943 132.842C20.0317 132.897 13.5696 133.247 8.27412 132.68C8.14606 132.666 8.06749 132.586 8.05601 132.457C8.01096 131.926 7.99594 131.106 8.00301 130.165C10.7117 130.285 13.453 130.439 16.0575 130.457Z" fill="#5B3650"/>
<path d="M8.37412 122.581C8.48187 122.443 11.633 122.187 12.6469 122.348C13.6272 122.503 16.5019 123.143 16.5089 123.273C16.5478 124.02 16.4144 124.776 16.3314 125.518C16.3058 125.518 15.3856 129.732 15.6514 130.105C15.7644 130.263 15.904 130.373 16.0577 130.457C13.4532 130.439 10.7118 130.285 8.00317 130.165C8.02349 127.099 8.26461 122.72 8.37412 122.581Z" fill="#FFCBB4"/>
<path d="M13.5629 125.523C10.183 125.099 7.12902 124.774 3.80214 124.054C2.92339 123.865 0.755236 123.965 0.658971 123.356C0.59185 122.934 0.346316 122.352 0.401956 121.633C0.468193 120.777 0.278326 119.892 0.0840295 119.076C-0.325759 117.351 0.869164 115.93 1.38758 114.311C1.6278 113.562 1.79471 112.718 1.66223 111.958C1.54301 111.275 1.06787 110.683 0.783489 110.047C0.237693 108.824 0.139672 107.449 0.308357 106.121C0.559176 104.15 1.35048 102.214 1.81679 100.296C2.34845 98.1081 2.86069 95.9239 3.32347 93.7354C4.95644 86.0087 6.16814 78.2843 7.29064 70.6078C7.85498 66.7477 8.40169 62.8979 8.9519 59.0622C9.45795 55.5394 9.89863 51.978 11.1536 48.6266C12.2311 45.7489 14.1255 43.7441 16.7476 41.8429C19.0995 40.1378 21.8743 39.4223 24.9566 39.8899C27.4869 40.2723 29.2373 39.432 31.0001 41.0941C32.4882 42.4977 33.0623 41.8157 32.7214 43.6509C31.7896 48.6652 30.9816 57.633 29.8405 62.6668C28.695 67.7151 27.735 72.4536 26.3202 77.5012C24.8824 82.6351 23.6998 87.8263 22.716 93.1007C21.7118 98.4807 20.7271 103.891 19.7274 109.329C18.7426 114.676 17.9346 120.458 16.941 125.861C16.941 126.181 14.5618 125.648 13.5629 125.523Z" fill="#5B3650"/>
<path d="M26.1339 78.2859C26.1268 78.2859 26.1189 78.2852 26.1118 78.2835C26.0517 78.2722 26.0129 78.2142 26.0252 78.1551L30.2777 57.123C30.29 57.0641 30.343 57.0202 30.4075 57.0369C30.4676 57.0492 30.5064 57.1072 30.4949 57.1661L26.2416 78.198C26.231 78.2499 26.1851 78.2859 26.1339 78.2859Z" fill="#24142C"/>
<path d="M35.6464 34.5787C36.193 32.7391 34.5265 26.1251 34.2898 24.9254C34.0372 23.6439 33.1329 22.2851 32.2974 22.0741C27.8136 20.942 25.2727 20.5949 20.6485 20.5228C19.7874 20.5096 17.9751 23.3556 17.6006 25.7032C17.1944 28.2557 16.8447 36.6768 16.8491 38.7994C16.85 39.361 16.8508 39.9148 16.8517 40.4597C16.8517 40.6381 16.7245 41.496 16.94 41.5786C22.3945 43.6731 27.2722 45.0302 32.9368 44.3314C33.1664 44.3033 33.2689 43.4472 33.3157 43.274C33.4596 42.7493 33.6062 42.2149 33.7537 41.6726C34.3145 39.6256 34.9699 36.8754 35.6464 34.5787Z" fill="#52C8F0"/>
<path d="M24.0053 3.31482C24.2685 3.05729 24.5767 2.83053 24.9353 2.64244C25.5464 2.32075 26.2344 2.17133 26.925 2.23197C27.8374 2.31371 28.7665 2.3102 29.6841 2.36733C30.7509 2.43501 31.8664 2.64068 32.7919 3.23308C33.2582 3.53104 33.7519 3.92304 33.9754 4.4381C34.2447 5.05335 34.3737 5.72662 34.4019 6.39461C34.4187 6.77431 34.2995 8.0101 34.2703 8.35024C34.2518 8.5647 34.2235 8.80641 34.3048 9.01823C34.3957 9.25203 34.6651 9.53769 34.8276 9.71875C34.991 9.90157 34.8294 10.0993 34.6527 10.0993C34.5353 10.0985 34.4187 10.0861 34.3021 10.0747C34.129 10.0563 34.1158 10.0932 34.1008 10.2611C34.023 11.1119 33.9595 11.9706 33.8464 12.8188C33.7546 13.5008 33.5612 14.2215 32.9906 14.6636C32.4104 15.1137 31.5422 15.329 30.8481 15.3422C30.3756 15.3519 29.7838 15.3606 29.2054 15.2877C29.2186 15.9917 29.1736 16.6984 29.1921 17.4024C29.2221 18.4932 29.4253 19.5716 29.4394 20.6641C29.4447 21.0834 29.6266 21.4631 29.4164 21.8437C29.2133 22.2137 28.626 22.4387 28.2436 22.5204C27.4611 22.6874 24.4875 22.4387 24.6129 21.3673C24.9344 18.6153 25.4042 15.7773 24.8178 13.02C24.5546 11.7799 23.6635 10.8148 23.2361 9.6291C22.5172 7.63655 22.3714 4.92063 24.0053 3.31482Z" fill="#FFCBB4"/>
<path d="M33.1675 8.15147C33.1561 8.42307 33.0721 8.63929 32.8911 8.63138C32.71 8.62347 32.5007 8.39495 32.5131 8.12423C32.5246 7.85264 32.7604 7.72519 32.9423 7.7331C33.1225 7.74101 33.1799 7.88164 33.1675 8.15147Z" fill="#5B3650"/>
<path d="M33.0329 10.5527C33.0284 10.5527 33.024 10.5527 33.0187 10.5519C32.578 10.4965 32.0066 10.1651 31.7947 9.56832C31.7743 9.51031 31.8035 9.44791 31.8618 9.42681C31.9183 9.40572 31.9819 9.43736 32.0022 9.49449C32.2115 10.0825 32.7767 10.3005 33.047 10.3339C33.107 10.3409 33.1494 10.3963 33.1423 10.456C33.1353 10.5123 33.0885 10.5527 33.0329 10.5527Z" fill="#D97779"/>
<path d="M29.1544 15.3501C29.1474 15.3501 29.1394 15.3492 29.1324 15.3475C28.4912 15.213 27.9895 14.9071 27.9683 14.8939C27.9162 14.8623 27.9003 14.7946 27.933 14.7427C27.9639 14.6909 28.0328 14.6751 28.0849 14.7067C28.0893 14.7102 28.5759 15.0073 29.1774 15.133C29.2374 15.1444 29.2754 15.2033 29.2631 15.2622C29.2516 15.3149 29.2065 15.3501 29.1544 15.3501Z" fill="#D97779"/>
<path d="M35.5298 5.97539C35.5775 5.80839 35.6137 5.63876 35.6296 5.46649C35.8054 3.66643 34.5539 2.12829 32.8706 1.61675C31.9883 1.34867 31.0425 1.51919 30.154 1.64927C29.2108 1.78726 28.3885 1.86197 27.4374 1.66422C26.1444 1.39702 24.8003 0.707932 23.6751 1.71871C22.6506 2.63895 21.9476 3.74817 21.1386 4.83365C20.4498 5.75829 19.7971 6.80335 19.6753 7.97497C19.5852 8.83633 19.7803 9.79173 19.4898 10.625C19.2089 11.4318 18.4432 12.0717 17.8806 12.6869C17.0213 13.6283 16.4358 14.7727 16.5523 16.0717C16.6027 16.6281 16.8456 17.1361 16.9118 17.6767C17.2624 20.5438 14.1307 21.4095 14.6297 24.8338C14.9697 27.1709 18.4035 28.3733 19.9296 27.4267C20.9779 26.7763 21.4831 26.3184 21.9362 25.3436C22.6091 23.8951 24.2703 23.8486 25.2657 22.8307C26.3935 21.6793 26.9031 20.1394 26.1506 18.6224C25.7903 17.8973 25.1208 17.1862 25.0837 16.3433C25.044 15.4486 25.9289 14.9036 26.3873 14.2418C27.1963 13.0763 26.5383 11.757 25.7479 10.7823C25.3708 10.3173 24.7879 9.9262 24.4558 9.44543C24.1352 8.98135 24.7738 8.54188 25.0979 8.29402C25.3964 8.06902 25.807 7.6902 26.155 7.94333C26.4111 8.13054 26.4968 8.46366 26.8368 8.54892C27.0329 8.59902 27.2334 8.57704 27.4286 8.5164C28.113 8.49882 28.8257 8.04705 29.2752 7.52935C29.7097 7.02924 30.0092 6.4298 30.3041 5.84179C30.3103 5.82948 30.3183 5.81542 30.3253 5.80136C30.3545 5.74423 31.8664 6.26544 32.0307 6.30851C32.6613 6.47287 33.3219 6.56692 33.9675 6.64339C34.3296 6.68646 35.1863 6.96595 35.4027 6.53615C35.4883 6.36476 35.5263 6.17051 35.5298 5.97539Z" fill="#DB5148"/>
<path d="M26.8067 8.96903C26.6389 8.55857 26.4004 8.16832 26.0595 7.88355C25.7195 7.59965 25.2346 7.40364 24.7886 7.49593C24.3594 7.5847 24.0724 7.98374 24.0477 8.41706C24.0229 8.86795 24.2164 9.31357 24.4795 9.66602C24.62 9.85323 24.7904 10.0229 24.9785 10.16C25.1172 10.2628 25.3035 10.3982 25.4872 10.3894C25.8538 10.4623 26.2715 10.3419 26.5779 10.1442C26.751 10.0308 26.8826 9.8629 26.9268 9.65635C26.978 9.42256 26.8941 9.18349 26.8067 8.96903Z" fill="#FFCBB4"/>
<path d="M158.273 39.7825C156.55 39.0847 155.767 38.8113 153.88 39.5241C151.593 40.3864 149.579 42.5679 147.949 44.7652C139.876 55.6553 134.988 76.6908 139.128 83.7714C139.588 84.56 140.126 85.1145 140.724 85.4592C140.73 85.4977 140.754 85.5285 140.795 85.5285C140.815 85.5292 140.835 85.5337 140.854 85.5348C142.316 86.2942 142.125 86.004 143.68 86.4786C148.498 87.9456 156.439 77.6058 160.774 62.1657C162.068 57.5608 162.681 53.4896 162.739 50.1303C162.785 47.5603 162.562 44.8751 161.58 42.7472C160.755 40.9612 159.831 40.4136 158.273 39.7825Z" fill="#AC9FC7"/>
<path d="M147.51 29.6354C150 30.4352 151.559 30.9476 151.854 31.0689C153.822 31.8687 158.183 35.3458 159.223 37.5977C160.465 40.2837 160.873 42.1321 160.817 45.3736C160.742 49.6145 160.493 54.7272 158.863 60.5396C155.059 74.0902 148.949 83.2435 143.6 87.7199C141.259 89.6782 136.011 90.7893 134.158 90.2238C133.858 90.1335 131.756 89.4664 128.4 88.401C116.538 84.6374 89.04 75.8892 70.4273 69.9733C59.6103 66.5323 51.7996 64.0449 51.7899 64.0466C51.7404 64.0439 51.7104 64.0071 51.698 63.957C47.5233 60.8068 44.8994 56.0008 44.3148 55.0032C43.8723 54.2456 43.5288 53.3939 43.263 52.4754C42.6394 52.195 42.2384 51.5376 42.0097 50.9197C41.7403 50.199 41.5593 49.3622 41.6026 48.5923C41.6132 48.3418 41.8075 48.1546 42.0521 48.1264C42.2729 48.1036 42.5458 48.2644 42.5758 48.5035C42.5908 48.6292 42.6076 48.7496 42.62 48.8727C42.6226 48.8929 42.6279 48.9772 42.6262 48.9808C42.6297 49.0142 42.6332 49.0484 42.6403 49.0827C42.6624 49.2875 42.6951 49.4914 42.7348 49.698C41.6468 39.3573 48.2987 22.8157 56.8133 11.335C58.8702 8.55848 68.9392 6.01836 71.964 6.62746C73.9008 7.01595 79.9787 8.76591 87.9855 11.1628C106.858 16.8143 136.424 26.0766 147.51 29.6354Z" fill="#F94737"/>
<path d="M59.2899 8.37476C57.566 7.676 56.7844 7.40354 54.8962 8.11547C52.6088 8.97859 50.596 11.1592 48.9648 13.3583C40.8918 24.2475 36.0044 45.2822 40.1438 52.3638C40.6039 53.1522 41.1418 53.7059 41.7388 54.0522C41.7467 54.09 41.7697 54.1207 41.8112 54.1216C41.8306 54.1216 41.8501 54.126 41.8704 54.1269C43.3329 54.8854 43.1404 54.5963 44.6956 55.07C49.5142 56.5378 57.4556 46.1971 61.791 30.7577C63.0831 26.153 63.6969 22.0818 63.7561 18.7225C63.8011 16.1525 63.5795 13.4673 62.5965 11.3394C61.7707 9.55429 60.8469 9.00583 59.2899 8.37476Z" fill="#AC9FC7"/>
<path d="M61.4661 17.9956C61.6683 6.55005 55.6698 4.31491 48.9648 13.3583C40.8918 24.2474 36.0044 45.2821 40.1438 52.3637C44.2434 59.3785 54.3848 48.2538 59.501 30.0317C60.794 25.427 61.4078 21.3557 61.4661 17.9956Z" fill="#CFC9DB"/>
<path d="M54.6414 10.7348C51.9593 12.1595 50.1046 14.9317 48.6783 17.5193C47.8835 18.9599 47.1637 20.4435 46.4289 21.9131C45.657 23.46 44.9116 25.0245 44.3084 26.6444C43.0552 30.0116 42.3902 33.5941 41.6828 37.1046C41.3454 38.7843 41.1237 40.492 40.9709 42.198C40.8226 43.846 40.6689 45.5477 40.7855 47.2018C40.8455 48.0579 41.023 48.8867 41.1944 49.7244C41.3295 50.3792 41.6324 50.9689 42.0978 51.4559C43.0225 52.4218 44.6211 52.8138 45.5978 51.6976C45.9794 51.2616 45.5775 50.5295 44.9884 50.8204C42.3531 52.123 41.7596 47.8382 41.7711 46.1524C41.7923 42.9856 42.2895 39.8196 42.9413 36.7293C43.6098 33.5599 44.2042 30.3509 45.3046 27.2948C46.3609 24.3592 47.8464 21.5483 49.3036 18.7946C50.0269 17.4279 50.8191 16.0901 51.7659 14.8649C52.7515 13.5887 53.9473 12.5436 55.1925 11.5276C55.6235 11.176 55.1281 10.4764 54.6414 10.7348Z" fill="#AC9FC7"/>
<path d="M56.9058 10.3937C56.6718 10.3339 56.4201 10.4438 56.3433 10.6828C56.2708 10.9087 56.3998 11.1768 56.6338 11.2436C56.7177 11.2673 56.8007 11.2946 56.882 11.328C56.8908 11.3297 56.9297 11.3473 56.9394 11.3508C56.9668 11.364 56.9933 11.3781 57.0198 11.393C57.1514 11.4642 57.2759 11.5486 57.3898 11.6444C57.3995 11.6541 57.4172 11.6699 57.4278 11.6804C57.4543 11.705 57.4816 11.7314 57.5064 11.7569C57.5629 11.8149 57.6177 11.8756 57.6698 11.9371C57.7166 11.9933 57.7625 12.0522 57.8066 12.112C57.8172 12.1261 57.8331 12.1489 57.8393 12.1577C57.8605 12.1893 57.8817 12.2201 57.902 12.2526C58.242 12.7879 58.4761 13.3803 58.7976 13.9261C58.908 14.1125 59.1243 14.2118 59.3336 14.1318C59.5173 14.0623 59.6851 13.8391 59.6118 13.6317C59.142 12.2974 58.4099 10.776 56.9058 10.3937Z" fill="#AC9FC7"/>
<path d="M56.3628 30.6767C55.2924 33.9982 53.9641 37.2266 52.5519 40.4171C51.2696 43.3123 49.8344 46.2172 47.3545 48.2862C46.9156 48.6519 47.5082 49.3005 47.9471 48.941C50.4756 46.8711 51.9779 43.983 53.2929 41.0605C54.7784 37.7601 56.1623 34.4113 57.2716 30.965C57.4588 30.3832 56.5509 30.094 56.3628 30.6767Z" fill="#AC9FC7"/>
<path d="M58.9196 17.5687C58.4992 19.1394 58.4577 20.8015 58.2757 22.4125C58.0894 24.0667 57.8165 25.705 57.4093 27.3214C57.2875 27.8048 57.979 28.0298 58.1539 27.557C58.7288 25.9986 59.015 24.3638 59.2446 22.7228C59.4751 21.0722 59.748 19.3872 59.7948 17.7217C59.8071 17.2321 59.0529 17.0695 58.9196 17.5687Z" fill="#AC9FC7"/>
<path d="M50.1428 25.3708C49.9449 25.5773 49.7374 25.7882 49.5634 26.015C49.4027 26.2216 49.2604 26.4448 49.1174 26.6637C48.9716 26.8852 48.8436 27.1119 48.7235 27.3466C48.7067 27.3791 48.6908 27.4108 48.6741 27.4433C48.6237 27.5215 48.5963 27.6068 48.5919 27.6999C48.5893 27.6885 48.5866 27.6771 48.584 27.6657C48.5707 27.6982 48.5557 27.7298 48.5424 27.7623C48.485 27.888 48.4312 28.0155 48.3764 28.1429C48.2943 28.3372 48.425 28.5762 48.6043 28.6571C48.7995 28.7459 49.0255 28.6887 49.1483 28.5077C49.445 28.07 49.7188 27.7201 50.0174 27.2473C50.1516 27.0319 50.2964 26.8236 50.4333 26.6109C50.572 26.3973 50.6912 26.1697 50.8272 25.9535C50.9456 25.7628 50.9138 25.5096 50.7389 25.3655C50.5764 25.2328 50.3008 25.2055 50.1428 25.3708Z" fill="#AC9FC7"/>
<path d="M45.9655 32.6499C45.145 33.6018 44.6522 34.6873 44.51 35.9363C44.3731 37.1308 44.5038 38.4281 44.7962 39.5927C44.9233 40.0989 45.6502 39.9231 45.5822 39.4177C45.432 38.3173 45.2254 37.2521 45.3278 36.134C45.4303 35.0301 45.8471 34.0053 46.5369 33.1369C46.801 32.8055 46.2454 32.3256 45.9655 32.6499Z" fill="#AC9FC7"/>
<path d="M53.5953 31.343C53.568 31.9187 53.2898 32.541 53.0434 33.1026C52.6309 34.0413 52.1178 34.9396 51.5782 35.8107C50.529 37.5052 49.3085 39.3686 47.6834 40.5762C47.4423 40.7555 47.1517 40.9463 46.8709 41.0122C46.6448 41.0658 46.568 41.0438 46.4108 40.8382C46.1352 40.4813 45.5029 40.9085 45.7528 41.2891C47.8124 44.4225 53.0919 35.1743 53.7234 33.8524C54.0758 33.1141 54.6021 32.1182 54.4246 31.2683C54.3266 30.8033 53.6192 30.871 53.5953 31.343Z" fill="#AC9FC7"/>
<path d="M48.1295 33.4629C48.1268 33.4629 48.1242 33.4638 48.1233 33.4647C48.1322 33.4727 48.1464 33.4789 48.1606 33.4807C48.1535 33.4763 48.1455 33.4709 48.1384 33.4656C48.1348 33.4647 48.1322 33.4638 48.1295 33.4629Z" fill="#AC9FC7"/>
<path d="M47.9637 32.6686C47.5044 32.7847 47.1874 33.2013 46.9781 33.5994C46.7237 34.0837 46.5497 34.6076 46.434 35.1411C46.3916 35.3371 46.4711 35.5428 46.676 35.6087C46.858 35.6658 47.0982 35.563 47.1458 35.367C47.1944 35.1675 47.2518 34.9697 47.3181 34.7746C47.3516 34.6753 47.3878 34.5777 47.4258 34.4793C47.4444 34.4335 47.4638 34.3878 47.4823 34.3413C47.4956 34.3114 47.5097 34.2815 47.523 34.2516C47.5256 34.2437 47.5344 34.2261 47.5415 34.2129C47.6272 34.0371 47.7234 33.8658 47.8418 33.7093C47.8647 33.6785 47.9389 33.5994 47.8718 33.6689C47.9019 33.6372 47.931 33.6047 47.9637 33.5748C47.9946 33.5467 48.029 33.523 48.0599 33.4949C47.9875 33.5581 48.0493 33.501 48.0944 33.479C48.0979 33.4773 48.1085 33.4711 48.1191 33.465C48.12 33.465 48.1191 33.465 48.1209 33.465C48.1209 33.465 48.1218 33.465 48.1226 33.465C48.1218 33.4641 48.1218 33.4641 48.1218 33.4632C48.1227 33.4632 48.1235 33.4623 48.1244 33.4615C48.1262 33.4623 48.127 33.4623 48.1288 33.4632C48.1297 33.4632 48.1306 33.4623 48.1315 33.4623C48.1332 33.4632 48.1359 33.465 48.1376 33.4658C48.1412 33.4676 48.1456 33.4694 48.1491 33.4702C48.1544 33.4711 48.1527 33.472 48.1562 33.4729C48.1588 33.4755 48.1615 33.4781 48.1642 33.4808C48.1624 33.4808 48.1624 33.4808 48.1597 33.4808C48.165 33.4843 48.1685 33.4861 48.1712 33.4869C48.18 33.4957 48.1889 33.5054 48.1977 33.5151C48.2118 33.5291 48.256 33.5915 48.2639 33.5986C48.2648 33.5994 48.2657 33.6021 48.2666 33.6021C48.2984 33.6531 48.3311 33.7049 48.3673 33.7524C48.3894 33.7805 48.4123 33.8086 48.4353 33.8359C48.4353 33.8367 48.4353 33.8367 48.4353 33.8385C48.49 33.9343 48.5395 34.0301 48.5837 34.1312C48.5907 34.1532 48.5987 34.1769 48.6057 34.1989C48.6243 34.2657 48.6419 34.3325 48.6561 34.401C48.6808 34.5135 48.6949 34.6278 48.7099 34.7421C48.7099 34.7728 48.7161 34.8089 48.7179 34.8361C48.7223 34.902 48.7241 34.9679 48.7276 35.0339C48.7435 35.3239 48.7488 35.6131 48.7515 35.9031C48.755 36.2617 48.7303 36.637 48.9131 36.9596C49.1666 37.4087 49.8289 37.356 50.002 36.8682C50.108 36.5711 50.0735 36.2653 50.0682 35.9559C50.0629 35.6658 50.0594 35.3749 50.0374 35.0857C49.9844 34.4142 49.8148 33.7401 49.4032 33.1943C49.0667 32.7486 48.5095 32.5324 47.9637 32.6686Z" fill="#AC9FC7"/>
<path d="M46.583 37.8225C46.4841 37.8797 46.3781 37.9737 46.3551 38.0906C46.3162 38.291 46.2818 38.4993 46.3012 38.7041C46.3198 38.9071 46.3498 39.126 46.4576 39.3044L46.5264 39.4028C46.5671 39.4521 46.6174 39.4872 46.6766 39.5083C46.7684 39.5514 46.8788 39.5734 46.9795 39.5461C47.0581 39.5259 47.1296 39.489 47.1923 39.4371C47.2418 39.3958 47.2771 39.3457 47.2983 39.2877C47.3319 39.2332 47.3478 39.1726 47.3478 39.1075C47.3469 39.0328 47.3487 38.9607 47.3337 38.8869C47.3284 38.8553 47.3204 38.8227 47.3142 38.7911C47.301 38.7208 47.2921 38.6496 47.2851 38.5793C47.2886 38.6215 47.293 38.6645 47.2966 38.7076C47.2895 38.6223 47.2789 38.5441 47.2665 38.4615C47.263 38.4422 47.2613 38.4246 47.2595 38.4053C47.2568 38.3534 47.2533 38.2998 47.2533 38.247C47.2542 38.1354 47.2171 38.0053 47.1349 37.9227C47.1049 37.8972 47.0749 37.8717 47.044 37.8454C46.9927 37.8085 46.9344 37.7882 46.8726 37.7821C46.7772 37.7663 46.6695 37.7724 46.583 37.8225Z" fill="#AC9FC7"/>
<path d="M51.6496 24.2205C51.4906 24.3532 51.4861 24.6116 51.6213 24.761C51.7705 24.9254 52.0002 24.9157 52.1653 24.7891C52.1918 24.7698 52.2192 24.7496 52.2457 24.7302C52.2492 24.7276 52.2527 24.7258 52.2545 24.7241C52.3013 24.6942 52.3499 24.6643 52.4002 24.638C52.4391 24.6186 52.4788 24.601 52.5177 24.5835C52.538 24.5791 52.5583 24.5711 52.5786 24.5668C52.5972 24.5624 52.614 24.5606 52.6272 24.5597C52.6493 24.5624 52.6696 24.5632 52.6899 24.5624C52.6978 24.5641 52.7049 24.5659 52.7111 24.5694C52.712 24.5694 52.7111 24.5694 52.712 24.5694C52.7146 24.5712 52.7155 24.572 52.7181 24.5747C52.7314 24.5834 52.7393 24.5905 52.7455 24.5966C52.7411 24.5905 52.7358 24.5852 52.7261 24.5738C52.7473 24.601 52.7774 24.6274 52.8012 24.6529C52.8083 24.6599 52.8074 24.659 52.8118 24.6626C52.8135 24.6652 52.8109 24.6634 52.8135 24.6678C52.8303 24.7056 52.8506 24.7417 52.8683 24.7795C52.8701 24.7821 52.871 24.7847 52.8718 24.7874C52.8754 24.7918 52.8798 24.7997 52.8824 24.8093C52.8842 24.8146 52.8851 24.819 52.8868 24.8234C52.8886 24.8304 52.8913 24.8392 52.8957 24.8454C52.8922 24.8401 52.8913 24.8383 52.8895 24.8331C52.901 24.8709 52.9133 24.9069 52.9239 24.9447C52.9487 25.0379 52.9681 25.1337 52.9858 25.2286C52.9955 25.2831 53.0025 25.3367 53.0105 25.3912C53.0122 25.4044 53.0193 25.4615 53.0229 25.4932C53.0255 25.5239 53.0308 25.589 53.0317 25.6048C53.0352 25.6637 53.037 25.7226 53.0388 25.7823C53.0476 26.0179 53.044 26.2543 53.0476 26.4916C53.0537 26.9557 53.0564 27.4198 53.0626 27.8847C53.0661 28.1335 53.0882 28.3752 53.1297 28.6204C53.158 28.7856 53.181 28.9825 53.2763 29.124C53.3938 29.2972 53.5527 29.4167 53.7762 29.393C53.959 29.3737 54.1789 29.2418 54.2178 29.0449C54.2858 28.6934 54.2981 28.3049 54.2893 27.948C54.2769 27.4136 54.2558 26.8845 54.1966 26.3528C54.1427 25.8773 54.0341 25.393 53.876 24.9421C53.7382 24.5509 53.5369 24.0886 53.1518 23.8794C52.6192 23.5903 52.0717 23.8671 51.6496 24.2205Z" fill="#AC9FC7"/>
<path d="M52.8716 24.7874C52.8655 24.7795 52.8664 24.7891 52.8891 24.8328C52.8882 24.8301 52.8874 24.8267 52.8865 24.8232C52.8821 24.8109 52.8769 24.7996 52.8716 24.7874Z" fill="#AC9FC7"/>
<path d="M52.7454 24.5959C52.7663 24.6196 52.7672 24.6159 52.7454 24.5959V24.5959Z" fill="#AC9FC7"/>
<path d="M54.6087 14.5607C53.4456 15.4212 52.6975 16.8925 52.1155 18.1766C51.4947 19.5478 51.0487 20.9901 50.5982 22.4237C50.4437 22.915 51.2041 23.1576 51.364 22.6662C51.802 21.3215 52.2409 19.9732 52.815 18.6785C53.4049 17.3496 54.1459 16.2105 55.1474 15.1557C55.5051 14.7778 55.0238 14.2539 54.6087 14.5607Z" fill="#AC9FC7"/>
<path d="M87.9854 11.1629C87.9995 11.2314 88.0092 11.3035 88.0198 11.3712C88.0675 11.6726 88.1081 11.9768 88.1417 12.2774C88.1576 12.4022 88.1673 12.5305 88.1832 12.6544C88.1832 12.6685 88.1841 12.6781 88.1859 12.6878C88.185 12.7063 88.1867 12.7291 88.1912 12.7581C88.2309 13.4173 88.2662 14.0739 88.2645 14.7278C88.2662 15.9223 88.177 17.1159 88.0207 18.2963C87.9871 18.5442 87.9492 18.7955 87.9068 19.0399C87.8927 19.1278 87.8414 19.4064 87.8397 19.424C87.799 19.6235 87.7584 19.823 87.7178 20.0217C87.535 20.8531 87.3213 21.6802 87.0696 22.495C86.6695 23.8011 86.0672 25.3489 85.5523 26.4203C84.2761 29.0721 82.6078 31.548 80.8291 33.8886C78.9701 36.3373 76.8487 38.5918 75.1053 41.1275C71.4667 46.4135 69.4327 52.7893 68.9682 59.1563C68.7182 62.5954 69.1448 65.9663 70.1896 69.2533C70.2656 69.4934 70.345 69.7361 70.4272 69.9734C89.0399 75.8893 116.538 84.6375 128.4 88.4011C128.344 88.2586 128.297 88.1155 128.247 87.9706C127.263 85.0673 126.653 82.0429 126.804 78.9693C127.119 72.6613 129.037 66.2581 132.727 61.075C134.601 58.447 136.873 56.1257 138.921 53.6401C140.807 51.3487 142.599 49.0125 144.012 46.395C146.787 41.2453 148.09 35.4584 147.51 29.6355C136.424 26.0766 106.858 16.8144 87.9854 11.1629Z" fill="#F12D27"/>
<path d="M118.886 33.5978C125.143 39.6774 125.112 49.3975 122.166 57.0452C117.674 68.7062 104.569 71.7646 94.6223 64.2164C85.0479 56.9502 84.685 43.927 93.4036 35.8083C99.8772 29.7806 111.913 26.8238 118.886 33.5978Z" fill="#FFCA52"/>
<path d="M69.9038 23.1262C69.5868 28.4464 68.1666 33.6066 66.251 38.5612C65.3034 41.0134 64.2454 43.4208 63.1644 45.8177C62.0913 48.1952 61.0174 50.5762 59.7456 52.8588C59.0373 54.1298 58.2725 55.3787 57.4256 56.5627C56.5733 57.7545 55.601 58.8347 54.6286 59.9272C54.1411 60.4757 54.792 61.1982 55.3908 60.7692C57.5254 59.239 59.1583 56.9046 60.4937 54.68C61.8864 52.3587 63.0451 49.9073 64.1773 47.4525C66.4488 42.5269 68.715 37.5504 70.0998 32.2908C70.8859 29.3042 71.3708 26.2666 71.1217 23.1745C71.0608 22.4186 69.9515 22.3246 69.9038 23.1262Z" fill="#FF5C5F"/>
<path d="M118.898 71.3127C118.913 71.3048 118.93 71.2968 118.945 71.289C118.959 71.282 119.002 71.251 119.043 71.2228C119.062 71.2079 119.079 71.192 119.097 71.1761C119.024 71.1865 118.932 71.2679 118.898 71.3127Z" fill="#FFE5BD"/>
<path d="M118.496 71.4814C118.502 71.4797 118.51 71.4787 118.517 71.4769C118.551 71.4684 118.624 71.4362 118.689 71.4141C118.707 71.4056 118.725 71.3966 118.743 71.3879C118.624 71.379 118.513 71.4497 118.496 71.4814Z" fill="#FFE5BD"/>
<path d="M119.293 71.005C119.338 70.9601 119.384 70.908 119.43 70.8584C119.438 70.8481 119.446 70.8374 119.454 70.826C119.284 70.9433 119.255 71.0174 119.293 71.005Z" fill="#FFE5BD"/>
<path d="M115.764 61.0873C116.012 61.1383 116.259 61.1892 116.505 61.2508C116.887 61.3483 117.265 61.4635 117.634 61.6006C117.705 61.627 117.854 61.6647 117.985 61.7131C117.959 61.7061 117.964 61.7175 118.044 61.7614C118.162 61.8282 118.283 61.8854 118.4 61.9522C118.703 62.1243 118.976 62.3276 119.255 62.5294C119.316 62.5937 119.383 62.6517 119.445 62.7142C119.605 62.8786 119.75 63.0534 119.893 63.2309C119.906 63.2495 119.912 63.2546 119.923 63.267C119.934 63.2889 119.941 63.304 119.96 63.3384C120.059 63.5166 120.16 63.6906 120.246 63.8761C120.284 63.9577 120.317 64.0439 120.355 64.1273C120.406 64.342 120.479 64.5504 120.525 64.7667C120.575 64.996 120.606 65.2271 120.639 65.4581C120.639 65.467 120.639 65.4722 120.639 65.4818C120.642 65.5673 120.648 65.6514 120.651 65.7369C120.67 66.3409 120.627 66.9455 120.559 67.5456C120.532 67.7726 120.498 67.9984 120.466 68.2243C120.465 68.2268 120.465 68.2285 120.464 68.2313C120.464 68.2385 120.462 68.2425 120.46 68.2504C120.434 68.3709 120.411 68.4921 120.382 68.612C120.282 69.046 120.155 69.4768 119.992 69.8923C119.963 69.9681 119.929 70.042 119.898 70.1165C119.829 70.237 119.768 70.3609 119.694 70.4787C119.62 70.5992 119.536 70.7125 119.454 70.8269C119.469 70.8162 119.481 70.8056 119.499 70.7952C119.475 70.8094 119.454 70.8364 119.43 70.8591C119.42 70.8742 119.411 70.8883 119.4 70.9034C119.353 70.969 119.314 70.9989 119.293 71.005C119.288 71.0106 119.284 71.0167 119.279 71.0212C119.221 71.0754 119.159 71.1255 119.096 71.1767C119.11 71.175 119.123 71.1722 119.133 71.175C119.122 71.1712 119.083 71.197 119.043 71.2231C119.025 71.2388 119.008 71.2539 118.99 71.2687C118.882 71.3587 118.869 71.3497 118.898 71.3127C118.846 71.3374 118.794 71.3627 118.743 71.3885C118.759 71.3903 118.777 71.3903 118.794 71.3947C118.773 71.3892 118.733 71.3998 118.688 71.4146C118.655 71.4304 118.621 71.4472 118.588 71.4641C118.506 71.5053 118.484 71.5008 118.496 71.4816C118.367 71.5131 118.237 71.5334 118.107 71.5588C117.823 71.5605 117.546 71.5396 117.267 71.5125C117.297 71.5228 117.326 71.5317 117.363 71.5441C117.309 71.5255 117.247 71.516 117.187 71.5053C117.164 71.5025 117.141 71.5018 117.118 71.5001C117.058 71.4929 117.013 71.4744 117.007 71.463C116.881 71.4332 116.758 71.4027 116.634 71.3656C116.295 71.2653 115.963 71.143 115.638 71.005C115.576 70.9796 115.514 70.9508 115.452 70.9233C115.325 70.8584 115.197 70.7959 115.072 70.7283C114.696 70.5261 114.329 70.3074 113.972 70.0753C113.307 69.6437 112.686 69.1593 112.069 68.6656C112.001 68.6048 111.931 68.544 111.863 68.4836C111.73 68.3648 111.6 68.2453 111.47 68.1258C111.134 67.811 110.807 67.4886 110.488 67.1562C109.938 66.5815 109.415 65.9803 108.928 65.3537C108.805 65.1961 108.684 65.0362 108.566 64.8755C108.518 64.8096 108.47 64.7426 108.422 64.6767C108.363 64.596 108.316 64.5689 108.31 64.583C108.135 64.3437 107.989 64.0117 107.863 63.797C107.407 63.0263 106.988 62.2318 106.589 61.4292C107.32 61.3061 108.054 61.1936 108.79 61.1022C109.031 61.0723 109.272 61.0451 109.514 61.0196C109.633 61.0064 109.754 60.9941 109.874 60.9827C110.372 60.9467 110.869 60.9062 111.367 60.8851C112.297 60.8456 113.23 60.8473 114.158 60.9097C114.606 60.9405 115.052 60.9853 115.498 61.0477C115.587 61.06 115.675 61.0741 115.764 61.0873ZM105.525 34.7913C103.712 35.0778 102.218 36.4155 101.704 38.1629C100.727 41.4861 102.573 44.4552 105.132 46.4099C104.408 46.7958 103.737 47.281 103.157 47.8602C100.96 50.0558 100.444 53.045 100.868 56.0193C101 56.9545 101.228 57.8765 101.514 58.7836C100.092 59.158 98.683 59.5843 97.2726 60.0299C95.8939 60.465 94.51 60.893 93.1049 61.2393C92.4708 61.394 91.8331 61.5347 91.1911 61.648C90.8467 61.7078 90.5005 61.7606 90.1551 61.8045C90.0174 61.823 89.8787 61.837 89.7409 61.852C89.7233 61.8502 89.3117 61.881 89.2622 61.8836C88.6502 61.9117 88.0346 61.9047 87.4244 61.8502C87.2592 61.8353 87.0958 61.8168 86.9324 61.7948C86.8724 61.7869 86.6145 61.7307 86.6101 61.7324C86.3928 61.6814 86.1773 61.627 85.9645 61.5575C85.719 61.4767 85.4841 61.3791 85.2447 61.2824C85.243 61.2815 85.2421 61.2815 85.2403 61.2806C85.2332 61.2763 85.228 61.2736 85.2191 61.2683C85.1237 61.2147 85.0257 61.1664 84.9312 61.1128C84.721 60.9941 84.5161 60.8675 84.3165 60.7322C84.2079 60.6584 84.101 60.5819 83.9968 60.5019C83.9474 60.465 83.7955 60.3279 83.7337 60.2734C83.444 59.9886 83.1737 59.6942 82.9229 59.3742C82.8937 59.3171 82.7233 59.0587 82.6827 58.9831C82.6235 58.8724 82.5688 58.7599 82.5175 58.6456C82.5016 58.6087 82.4866 58.5709 82.4716 58.534C82.4672 58.5208 82.4663 58.5155 82.461 58.4988C82.4009 58.2562 82.3435 58.0198 82.2994 57.7719C82.3003 57.7605 82.3011 57.75 82.302 57.735C82.3082 57.6067 82.302 57.4775 82.3108 57.3492C82.317 57.2542 82.3382 57.1532 82.3409 57.0574C82.3435 57.0512 82.3444 57.0477 82.3462 57.0407C82.4433 56.7286 82.5466 56.4272 82.6641 56.1213C82.6694 56.1072 82.6738 56.0976 82.6783 56.0853C82.7321 55.9842 82.7834 55.8831 82.8399 55.7838C82.9494 55.5922 83.0668 55.4058 83.1975 55.2274C83.2099 55.2098 83.232 55.1756 83.2558 55.1386C83.2629 55.1325 83.2656 55.1299 83.2744 55.1237C83.3124 55.0894 83.512 54.933 83.64 54.8187C83.5455 54.8706 83.4519 54.8785 83.6515 54.7721C83.6789 54.7581 83.7054 54.744 83.731 54.7282C83.7416 54.7168 83.7487 54.7062 83.7487 54.7C83.7487 54.7088 83.7425 54.7168 83.7398 54.7247C83.7716 54.7062 83.8034 54.6895 83.8361 54.6719C83.8255 54.6596 83.8573 54.6333 83.9624 54.6095C83.98 54.6051 83.9977 54.6025 84.0154 54.5981C84.0481 54.5849 84.0781 54.5709 84.0931 54.5542C84.0798 54.5691 84.0657 54.5796 84.0533 54.5902C84.1222 54.5761 84.1902 54.5612 84.2591 54.5471C84.2414 54.5436 84.2255 54.541 84.2061 54.5339C84.2255 54.541 84.2494 54.5436 84.2759 54.5436C84.3139 54.5366 84.3536 54.5287 84.3925 54.5199C84.4843 54.4997 84.517 54.5128 84.5064 54.5304C84.5153 54.5304 84.5249 54.5287 84.5329 54.5295C84.6822 54.5331 84.8296 54.5524 84.9771 54.5665C85.0354 54.5796 85.0928 54.5919 85.1502 54.606C85.507 54.6965 85.8568 54.8126 86.1977 54.9479C86.2657 54.976 86.4079 55.0156 86.5306 55.0622C86.5448 55.0806 86.5827 55.1079 86.6587 55.1474C86.7479 55.194 86.8379 55.2388 86.9271 55.2845C87.2928 55.4762 87.6505 55.681 88.0037 55.8954C88.72 56.327 89.423 56.7814 90.1225 57.2402C90.292 57.3518 90.4616 57.4634 90.632 57.5751C90.7159 57.6287 90.7972 57.6876 90.8828 57.7377L90.965 57.793C91.0356 57.8264 91.0939 57.8546 91.1469 57.8783C91.4649 57.9337 91.8623 58.236 92.1573 58.3802C92.3251 58.4628 92.8912 58.7282 92.3957 58.4979C92.5644 58.5753 92.7313 58.6579 92.8991 58.7361C93.0457 58.8038 93.1932 58.8715 93.3416 58.9348C93.7054 59.0877 94.079 59.238 94.4579 59.2064C94.8747 59.2459 95.3119 59.2406 95.7093 59.1167C96.5369 58.8583 96.7497 57.5882 95.7889 57.3193C95.7473 57.307 95.7049 57.2903 95.6625 57.2736C95.6899 57.2885 95.6732 57.2894 95.6122 57.2569C95.6016 57.2542 95.5892 57.2481 95.5778 57.2463C95.5928 57.249 95.599 57.2525 95.6104 57.2551C95.5901 57.2455 95.5716 57.2358 95.5415 57.2156C95.47 57.1672 95.4002 57.118 95.3305 57.0688C95.3154 57.0495 95.3066 57.0266 95.289 57.0081C95.2607 56.9765 94.3661 56.3393 94.8968 56.7216C94.7741 56.6337 94.6416 56.5581 94.5162 56.472C94.4049 56.3938 94.2945 56.3138 94.185 56.232C94.117 56.1819 94.0499 56.1283 93.981 56.0773C94.4235 56.4052 93.8547 55.9666 93.7107 55.8611C93.6472 55.804 93.5827 55.7495 93.5173 55.6924C93.3999 55.5887 93.2824 55.4841 93.1649 55.3795C92.7825 55.0367 92.3728 54.7387 91.9603 54.4337C90.5579 53.394 89.1395 52.4139 87.5454 51.6835C85.9468 50.9514 84.1814 50.6728 82.5096 51.3284C80.654 52.0562 79.3372 54.0725 78.87 55.9376C78.2527 58.403 79.112 60.9115 80.9349 62.6589C82.7648 64.413 85.0822 65.364 87.609 65.5223C92.9106 65.8546 97.8236 63.4122 102.87 62.1779C103.137 62.7396 103.413 63.2934 103.699 63.8348C104.575 65.4952 105.566 67.0728 106.782 68.51C108.988 71.1142 111.84 73.5601 115.109 74.7089C116.518 75.2041 118.147 75.4193 119.595 74.9561C121.421 74.3707 122.623 72.9988 123.368 71.2811C124.245 69.2612 124.474 66.8322 124.218 64.6626C123.976 62.6043 122.918 60.7928 121.303 59.5052C119.744 58.2615 117.754 57.721 115.814 57.4256C113.906 57.1356 111.955 57.1699 110.039 57.3325C108.386 57.474 106.748 57.6963 105.117 57.9873C105.039 57.7491 104.959 57.51 104.89 57.2683C104.714 56.6495 104.569 56.0211 104.47 55.3856C104.445 55.223 104.425 55.0595 104.404 54.8969C104.403 54.8855 104.401 54.8697 104.4 54.8521C104.381 54.4891 104.366 54.1296 104.379 53.7666C104.392 53.466 104.43 53.1725 104.463 52.8745C104.464 52.8701 104.465 52.8648 104.466 52.8613C104.503 52.7128 104.535 52.5634 104.578 52.4157C104.647 52.1757 104.734 51.9437 104.827 51.7134C104.853 51.6668 104.94 51.484 104.963 51.4445C105.041 51.31 105.126 51.1782 105.215 51.0516C105.275 50.9646 105.341 50.882 105.407 50.7985C105.444 50.7589 105.585 50.5981 105.611 50.5726C105.837 50.3467 106.082 50.1489 106.331 49.9503C106.357 49.9292 106.377 49.9134 106.394 49.8984C106.416 49.8879 106.441 49.8747 106.473 49.8562C106.568 49.8044 106.657 49.7464 106.751 49.6936C106.891 49.6154 107.034 49.5416 107.179 49.473C107.227 49.451 107.574 49.3104 107.599 49.2928C107.865 49.2049 108.136 49.132 108.411 49.0775C108.515 49.0564 108.621 49.0423 108.725 49.0221C108.77 49.0142 108.801 49.0081 108.825 49.0019C108.844 49.0019 108.861 49.001 108.886 49.001C109.204 48.9914 109.519 48.9896 109.836 49.0221C109.889 49.0274 110.132 49.0801 110.142 49.0784C110.239 49.103 110.336 49.1258 110.433 49.1548C111.354 49.4212 112.474 48.9386 112.737 47.97C113.006 46.9804 112.512 46.0311 111.547 45.6778C111.015 45.4827 110.489 45.2735 109.972 45.0423C109.919 45.0194 109.866 44.9931 109.814 44.9711C109.72 44.9245 109.625 44.8788 109.531 44.8322C109.231 44.6811 108.936 44.5229 108.646 44.3559C108.1 44.0412 107.571 43.6966 107.072 43.3108C107.011 43.2633 106.95 43.2141 106.891 43.1649C106.878 43.1535 106.752 43.0462 106.674 42.9724C106.452 42.765 106.241 42.5461 106.043 42.3158C105.946 42.2025 105.855 42.0838 105.762 41.9678C105.75 41.9528 105.747 41.9493 105.739 41.9405C105.728 41.9221 105.722 41.9089 105.705 41.8825C105.555 41.6311 105.421 41.3763 105.3 41.1091C105.289 41.0862 105.285 41.0765 105.277 41.0607C105.274 41.0475 105.273 41.0405 105.268 41.0212C105.232 40.8788 105.19 40.739 105.161 40.5949C105.141 40.4938 105.127 40.391 105.111 40.289C105.117 40.2073 105.105 40.1203 105.106 40.0394C105.108 39.8636 105.126 39.6905 105.14 39.5156C105.142 39.4901 105.142 39.4778 105.142 39.4602C105.147 39.4452 105.152 39.4329 105.16 39.4074C105.205 39.2633 105.276 39.1024 105.307 38.9557C105.343 38.902 105.38 38.8484 105.39 38.8326C105.405 38.8036 105.412 38.7895 105.421 38.7711C105.501 38.6981 105.582 38.6269 105.662 38.5549C105.679 38.5478 105.692 38.5443 105.716 38.5329C105.767 38.51 105.82 38.4846 105.868 38.4582C105.981 38.4309 106.094 38.394 106.209 38.3729C106.2 38.3747 106.276 38.3597 106.346 38.3483C106.614 38.3474 107.116 38.2833 107.356 38.4125C107.362 38.416 106.994 38.3079 107.197 38.3896C107.293 38.4292 107.422 38.4415 107.522 38.4687C107.674 38.5109 107.826 38.5593 107.976 38.612C108.303 38.7271 108.601 38.8467 108.93 38.9337C109.583 39.2343 110.444 38.9706 110.889 38.452C111.414 37.8429 111.473 36.8242 110.872 36.2248C109.543 34.9011 107.341 34.5047 105.525 34.7913Z" fill="#FFE5BD"/>
<path d="M117.007 71.4627C117.046 71.4724 117.084 71.4848 117.123 71.4938C117.143 71.4989 117.166 71.5017 117.188 71.5052C117.214 71.5079 117.241 71.5096 117.267 71.5125C117.067 71.4497 116.999 71.4479 117.007 71.4627Z" fill="#FFE5BD"/>
<path d="M95.6622 57.2734C95.6517 57.2682 95.6334 57.2621 95.6107 57.2551C95.6116 57.256 95.6116 57.256 95.6125 57.2569C95.6291 57.2621 95.6465 57.2673 95.6622 57.2734Z" fill="#FFE5BD"/>
<path d="M83.6404 54.8186C83.6845 54.7948 83.7252 54.7603 83.7402 54.7241C83.7375 54.7259 83.734 54.7268 83.7313 54.7276C83.7137 54.7506 83.6801 54.7833 83.6404 54.8186Z" fill="#FFE5BD"/>
<path d="M91.1476 57.8775C91.1467 57.8775 91.1449 57.8766 91.144 57.8766C91.4479 58.0206 91.4461 58.0197 91.1476 57.8775Z" fill="#FFE5BD"/>
<path d="M84.2595 54.547C84.3991 54.5814 84.4936 54.554 84.5068 54.5302C84.4397 54.5328 84.3496 54.5461 84.2763 54.5434C84.2701 54.5443 84.2648 54.5461 84.2595 54.547Z" fill="#FFE5BD"/>
<path d="M83.8706 54.6531C83.8592 54.6584 83.8477 54.6655 83.8362 54.6717C83.8521 54.6893 83.9528 54.6761 84.0534 54.5895C84.0402 54.5922 84.0279 54.5948 84.0155 54.5975C83.9625 54.6187 83.9024 54.6381 83.8706 54.6531Z" fill="#FFE5BD"/>
<path d="M114.835 28.9833C114.333 29.0369 113.722 29.399 113.619 29.9422C113.612 29.9791 113.582 30.0732 113.569 30.1338C113.436 30.336 113.285 30.9767 113.278 31.1226C113.262 31.5507 113.372 32.0148 113.418 32.4428C113.419 32.4542 113.42 32.4586 113.421 32.4674C113.424 32.521 113.428 32.5738 113.433 32.6274C113.448 32.7996 113.461 32.9719 113.474 33.1442C113.5 33.5204 113.521 33.8966 113.537 34.2736C113.603 35.7661 113.602 37.2611 113.601 38.7553C113.598 41.8307 113.58 44.9263 114.101 47.9683C114.236 48.7497 114.468 49.5021 114.725 50.2518C114.876 50.6939 115.036 51.1343 115.214 51.5649C115.338 51.8629 115.478 52.1151 115.723 52.334C115.746 52.3533 115.756 52.363 115.774 52.3788C115.829 52.4527 115.887 52.5247 115.905 52.5493C116.195 52.9695 116.739 53.3949 117.303 53.1989C117.403 53.1646 117.503 53.1286 117.601 53.0916C117.748 53.0266 118.228 51.5588 118.195 51.4313C118.193 51.4278 118.193 51.4234 118.192 51.4199C118.206 51.3417 118.217 51.2714 118.218 51.2555C118.225 51.0789 118.182 50.9005 118.14 50.7317C118.061 50.4091 117.956 50.0936 117.88 49.7701C117.722 49.0986 117.646 48.4192 117.553 47.7372C117.505 47.3873 117.45 47.0393 117.409 46.6886C117.392 46.5365 117.377 46.3836 117.36 46.2307C117.397 46.5717 117.343 46.0109 117.336 45.9125C117.282 45.1812 117.246 44.4482 117.222 43.716C117.123 40.7443 117.271 37.7709 117.189 34.7992C117.164 33.8913 117.11 32.9869 117.024 32.0833C116.989 31.7265 116.965 31.3617 116.902 31.0084C116.83 30.6085 116.682 30.2463 116.402 29.9431C116.364 29.9018 116.322 29.8552 116.279 29.8174C116.292 29.8271 116.298 29.8332 116.307 29.842C116.275 29.8086 116.237 29.7656 116.213 29.7251C115.918 29.2382 115.424 28.9218 114.835 28.9833Z" fill="#FFE5BD"/>
<path d="M116.307 29.8425C116.368 29.9062 116.406 29.9333 116.307 29.8425V29.8425Z" fill="#FFE5BD"/>
<path d="M35.0017 43.7966C36.4827 43.9724 38.1174 43.4573 38.695 41.9781C39.2647 40.5208 38.68 39.3588 37.7977 38.2347C36.7609 36.9136 35.6676 35.6365 34.5415 34.3902C32.3221 31.9345 29.9747 29.5991 27.659 27.2339C27.032 26.5949 26.2892 25.9428 25.3177 26.0746C23.9091 26.2653 22.7239 27.1337 22.3265 28.5066C22.0129 29.5903 22.2964 30.7048 22.8281 31.6708C23.4348 32.773 24.2067 33.8787 24.93 34.9228C26.5206 37.2213 28.4424 39.2929 30.6158 41.0561C30.7995 41.2046 30.9956 41.3698 31.204 41.5439C32.3098 42.472 33.7228 43.6454 35.0017 43.7966Z" fill="#FFCBB4"/>
<path d="M34.4677 37.2348C34.8625 37.226 35.2643 37.2875 35.6493 37.3965C36.604 37.6646 37.4696 38.1656 38.3174 38.6639C39.1856 39.1746 40.0634 39.6642 40.9607 40.1212C42.7341 41.0256 44.5534 41.8378 46.3383 42.7185C48.1029 43.5886 49.8983 44.5089 51.4686 45.6998C52.2131 46.265 52.8985 46.9286 53.3445 47.7574C53.7525 48.5168 53.9936 49.5232 53.5449 50.3186C53.4434 50.4979 53.0989 50.962 52.872 51.0174C52.7271 51.0525 52.4843 51.1747 52.3801 51.0086C52.2635 51.1571 52.1169 51.2784 51.9517 51.369C51.7892 51.4586 51.5799 51.5368 51.3918 51.5245C51.3502 51.5219 51.3158 51.5087 51.2814 51.4964C51.1939 51.6388 51.0739 51.761 50.9228 51.8489C50.6773 51.993 50.392 52.0642 50.1121 52.1134C50.0458 52.3261 49.9452 52.5239 49.7977 52.6926C49.5919 52.9264 49.2113 53.1822 48.903 52.9756C48.7608 52.8816 48.6999 52.712 48.7043 52.5467C48.7105 52.3261 48.8447 52.1741 48.9057 51.9728C48.9843 51.7117 48.7308 51.5412 48.5401 51.412C48.3157 51.2591 48.0799 51.1211 47.8397 50.9937C47.3946 50.7581 46.9309 50.5559 46.4681 50.3582C44.4889 49.5144 42.5495 48.5889 40.6322 47.6141C39.6784 47.129 38.7281 46.6359 37.7787 46.1437C36.8646 45.6682 35.9523 45.1848 35.0921 44.617C33.392 43.4928 31.963 41.8949 31.8774 39.7688C31.8394 38.7975 32.2598 37.7059 33.2419 37.3429C33.5589 37.226 34.0296 37.1759 34.4677 37.2348Z" fill="#FFCBB4"/>
<path d="M50.1178 51.9578C50.1054 51.9578 50.0922 51.9551 50.0807 51.9507C50.0277 51.9305 50.0021 51.8716 50.0224 51.8198C50.3262 51.041 49.9041 50.3379 49.4025 49.6936C49.368 49.6497 49.376 49.5864 49.421 49.5521C49.4652 49.5178 49.5296 49.5266 49.5632 49.5697C50.0763 50.2271 50.5541 51.0182 50.2123 51.8936C50.1973 51.9332 50.1584 51.9578 50.1178 51.9578Z" fill="#D97779"/>
<path d="M51.3147 51.4155C51.3041 51.4155 51.2926 51.4138 51.2811 51.4094C51.229 51.3918 51.1999 51.3338 51.2193 51.2811C51.4224 50.6983 51.3218 49.6629 50.8016 49.0073C50.7671 48.9633 50.7751 48.9 50.8192 48.8649C50.8634 48.8297 50.9261 48.8359 50.9623 48.8816C51.5311 49.6005 51.637 50.7001 51.411 51.3479C51.3968 51.39 51.3571 51.4155 51.3147 51.4155Z" fill="#D97779"/>
<path d="M52.4461 50.9565C52.4355 50.9565 52.424 50.9548 52.4134 50.9522C52.3605 50.9346 52.3313 50.8774 52.349 50.8238C52.5291 50.2824 52.5706 49.2101 51.9409 48.4788C51.9047 48.4358 51.91 48.3725 51.9524 48.3356C51.9948 48.2995 52.0593 48.3048 52.0964 48.347C52.7367 49.0914 52.7764 50.1857 52.5424 50.8871C52.5283 50.9302 52.4876 50.9565 52.4461 50.9565Z" fill="#D97779"/>
<path d="M24.6888 24.3053C24.0053 24.2402 23.3031 24.3035 22.6637 24.5391C21.9166 24.8142 21.2427 25.2914 20.7296 25.8988C20.4858 26.1871 20.2756 26.4508 20.2553 26.8208C20.2315 27.2717 20.2756 27.7068 20.3622 28.1453C20.5627 29.1684 20.991 30.1282 21.4847 31.0362C21.9377 31.8694 22.4473 32.671 23.0099 33.4339C23.3641 33.9138 23.7023 34.4086 24.1059 34.8507C24.4186 35.1927 24.7188 35.6541 25.254 35.2551C26.9524 33.9885 29.1002 32.6604 31.3461 31.0959C31.5643 30.943 31.9078 30.8437 31.8725 30.5888C31.8389 30.3383 31.5298 30.072 31.3806 29.8812C31.1589 29.5973 30.9363 29.3126 30.7147 29.0287C30.0744 28.2104 29.4341 27.3912 28.7364 26.6204C27.9875 25.7933 27.1838 25.033 26.1072 24.6314C25.663 24.467 25.1807 24.3527 24.6888 24.3053Z" fill="#52C8F0"/>
<path d="M150.653 53.2991C150.619 53.0081 150.54 52.4588 150.669 52.2004C151.123 51.2951 151.752 51.129 152.652 50.918C153.804 50.65 154.22 50.7141 155.91 50.0997C156.155 50.0101 156.739 49.7745 156.991 49.7033L153.538 52.2619L150.653 53.2991Z" fill="#FFCBB4"/>
<path d="M156.991 49.7033C158.95 49.1487 160.816 48.253 162.474 47.0814C165.804 44.7294 167.974 41.719 169.816 38.1523C171.088 35.6886 172.361 33.2241 173.503 30.6971C173.994 29.6099 174.38 28.317 175.497 27.7017C176.516 27.141 177.752 27.2368 178.775 27.736C179.808 28.2405 180.797 29.1326 181.166 30.2445C181.534 31.3537 181.217 32.5122 180.819 33.5669C180.321 34.8844 179.798 36.2046 179.219 37.4904C174.945 47.0076 166.51 53.9907 156.644 57.0916C156.622 57.0986 156.6 57.0978 156.58 57.0995C156.298 57.2173 156.014 57.3307 155.726 57.4335C154.857 57.7438 153.96 57.9855 153.052 58.149C152.324 58.2799 151.48 58.3151 150.92 57.7464C150.707 57.5293 150.529 57.205 150.62 56.8938C150.634 56.8455 150.655 56.8024 150.679 56.7629C150.446 56.5625 150.281 56.2487 150.334 55.9393C150.347 55.8637 150.373 55.7978 150.405 55.7363C150.051 55.5086 149.603 55.0859 149.779 54.6482C149.794 54.6095 149.819 54.577 149.842 54.5436C149.652 54.4442 149.488 54.2931 149.389 54.0654C149.138 53.488 149.993 53.1689 150.538 53.016C151.612 52.7145 153.696 51.5974 153.696 51.5974L156.991 49.7033Z" fill="#FFCBB4"/>
<path d="M150.736 53.0266C150.685 53.0266 150.64 52.9923 150.628 52.9422C150.614 52.8833 150.651 52.8236 150.709 52.8104C150.725 52.806 152.292 52.428 153.315 51.7662C153.368 51.7337 153.436 51.7486 153.467 51.7979C153.501 51.8488 153.487 51.9174 153.436 51.9499C152.38 52.6337 150.827 53.0073 150.761 53.0231C150.753 53.0257 150.744 53.0266 150.736 53.0266Z" fill="#D97779"/>
<path d="M150.013 54.6375C149.955 54.6375 149.905 54.5918 149.902 54.5329C149.9 54.4713 149.947 54.4212 150.008 54.4177C150.723 54.3843 151.955 54.1022 151.967 54.0987C152.03 54.0837 152.087 54.1224 152.1 54.1804C152.114 54.2402 152.077 54.2991 152.018 54.3131C151.966 54.3237 150.753 54.6032 150.018 54.6375C150.016 54.6375 150.015 54.6375 150.013 54.6375Z" fill="#D97779"/>
<path d="M151.168 55.8787C150.799 55.8787 150.569 55.8268 150.552 55.8242C150.493 55.8101 150.456 55.7512 150.47 55.6914C150.484 55.6326 150.546 55.6 150.602 55.6088C150.608 55.6106 151.336 55.7723 152.302 55.4972C152.36 55.4831 152.421 55.5148 152.438 55.5728C152.455 55.6317 152.421 55.6923 152.362 55.709C151.893 55.8418 151.481 55.8787 151.168 55.8787Z" fill="#D97779"/>
<path d="M151.952 57.1741C151.356 57.1741 150.882 56.9974 150.857 56.9895C150.801 56.9675 150.772 56.9042 150.793 56.848C150.815 56.7909 150.878 56.7627 150.935 56.7829C150.943 56.7865 151.643 57.0449 152.381 56.9192C152.444 56.9069 152.498 56.9491 152.508 57.008C152.519 57.0686 152.478 57.1249 152.419 57.1354C152.259 57.1627 152.101 57.1741 151.952 57.1741Z" fill="#D97779"/>
<path d="M177.988 21.5561C180.232 20.4293 183.363 21.1061 183.808 23.8483C184.003 25.0586 183.81 26.4271 183.584 27.6234C182.542 33.1519 179.697 38.4853 176.528 43.0847C174.197 46.4651 171.311 49.4772 168.004 51.9242C166.398 53.1143 164.689 54.169 162.896 55.0576C162.043 55.4813 161.157 55.8319 160.266 56.1677C159.809 56.34 159.598 56.5421 159.257 56.2327C158.248 55.3213 157.944 53.5801 157.47 52.3514C157.256 51.7967 156.615 49.6152 157.434 49.1881C157.843 48.9754 158.36 48.9534 158.788 48.775C160.063 48.2406 161.28 47.5664 162.406 46.771C165.902 44.3012 167.677 41.8709 169.612 38.1258C171.705 34.073 172.619 29.5948 174.447 25.4629C175.161 23.8483 176.443 22.3322 177.988 21.5561Z" fill="#5B3650"/>
<path d="M166.103 43.8284C166.081 43.8284 166.058 43.8213 166.039 43.8082C165.989 43.7721 165.978 43.7036 166.013 43.6543C169.627 38.6919 172.268 32.9137 173.65 26.944C173.663 26.886 173.72 26.8473 173.782 26.8614C173.842 26.8754 173.88 26.9343 173.865 26.9941C172.477 32.992 169.823 38.7973 166.192 43.7827C166.171 43.8134 166.138 43.8284 166.103 43.8284Z" fill="#24142C"/>
<path d="M175.903 43.9041C175.879 43.9041 175.857 43.897 175.837 43.883C175.788 43.8469 175.778 43.7766 175.814 43.7291C178.854 39.6597 181.205 35.1551 182.8 30.3421C182.818 30.2849 182.881 30.2507 182.938 30.2726C182.997 30.292 183.028 30.3535 183.009 30.4106C181.406 35.2465 179.045 39.7713 175.991 43.8592C175.97 43.8882 175.937 43.9041 175.903 43.9041Z" fill="#24142C"/>
</svg>
