<svg width="42" height="28" viewBox="0 0 42 28" fill="none" xmlns="http://www.w3.org/2000/svg">
<rect x="16" y="5" width="24" height="3" rx="1.5" fill="#FF9441"/>
<rect x="12" y="11" width="24" height="3" rx="1.5" fill="#FF9441"/>
<rect x="16" y="17" width="26" height="3" rx="1.5" fill="#FF9441"/>
<path d="M0.25106 1.43129C0.6765 0.556267 1.57895 0 2.57809 0H30.4251C31.4242 0 32.3267 0.556267 32.7521 1.43129C33.1776 2.30632 33.0486 3.3376 32.4169 4.08762L20.6271 18.0568V26.0008C20.6271 26.7571 20.1887 27.4508 19.4861 27.7883C18.7835 28.1259 17.952 28.0571 17.3267 27.6008L13.2012 24.6007C12.6791 24.2257 12.3761 23.632 12.3761 23.0007V18.0568L0.579809 4.08137C-0.0454593 3.3376 -0.180827 2.30007 0.25106 1.43129Z" fill="#3F3D56"/>
</svg>
