<svg width="74" height="139" viewBox="0 0 74 139" fill="none" xmlns="http://www.w3.org/2000/svg">
<path d="M0.714362 0.844174C1.13461 1.18596 1.50599 1.63399 1.98258 1.85376C10.7533 5.89833 17.9858 12.0242 23.9126 19.4379C46.3063 47.4522 58.031 79.3747 57.8971 115.403C57.8816 119.703 57.0227 124.001 56.5544 128.301C56.2275 128.345 55.9004 128.388 55.5737 128.432C55.1763 127.395 54.7554 126.367 54.3846 125.32C53.2922 122.241 52.2378 119.147 51.1277 116.074C50.8436 115.288 50.5551 114.416 50.0007 113.842C49.5808 113.407 48.6324 113.081 48.1061 113.26C47.5829 113.437 47.0012 114.289 46.969 114.873C46.9178 115.802 47.2196 116.781 47.5141 117.693C49.3753 123.452 51.2722 129.199 53.1686 134.947C53.3572 135.52 53.5655 136.098 53.8538 136.624C54.9543 138.637 56.1376 139.25 57.9786 138.09C62.8959 134.992 67.6834 131.685 72.4702 128.384C73.5858 127.615 73.9225 126.392 73.0067 125.211C72.113 124.059 70.8927 124.056 69.7592 124.798C66.7237 126.783 63.7332 128.839 60.5928 130.955C60.4141 130.474 60.161 130.149 60.2151 129.885C63.5947 113.243 61.8902 96.8307 57.9225 80.5508C53.0547 60.5751 44.9156 42.0371 32.9152 25.3014C27.0273 17.0903 20.2703 9.6402 11.5532 4.29995C8.89607 2.67171 5.90316 1.58184 3.0328 0.316564C2.44237 0.0569176 1.71176 0.116181 1.04596 0.0283066C0.935388 0.300167 0.824937 0.572313 0.714362 0.844174Z" fill="#FF9441"/>
</svg>
