<svg width="73" height="139" viewBox="0 0 73 139" fill="none" xmlns="http://www.w3.org/2000/svg">
<path d="M72.8839 0.844174C72.4637 1.18596 72.0923 1.63399 71.6157 1.85376C62.845 5.89833 55.6125 12.0242 49.6857 19.4379C27.292 47.4522 15.5673 79.3747 15.7011 115.403C15.7167 119.703 16.5756 124.001 17.0438 128.301C17.3708 128.345 17.6979 128.388 18.0246 128.432C18.422 127.395 18.8429 126.367 19.2137 125.32C20.306 122.241 21.3604 119.147 22.4705 116.074C22.7547 115.288 23.0432 114.416 23.5975 113.842C24.0174 113.407 24.9659 113.081 25.4921 113.26C26.0154 113.437 26.597 114.289 26.6293 114.873C26.6804 115.802 26.3787 116.781 26.0842 117.693C24.2229 123.452 22.326 129.199 20.4297 134.947C20.2411 135.52 20.0328 136.098 19.7444 136.624C18.644 138.637 17.4606 139.25 15.6197 138.09C10.7024 134.992 5.91484 131.685 1.12809 128.384C0.0124893 127.615 -0.324235 126.392 0.591594 125.211C1.48531 124.059 2.70554 124.056 3.83905 124.798C6.87452 126.783 9.86509 128.839 13.0055 130.955C13.1842 130.474 13.4373 130.149 13.3831 129.885C10.0036 113.243 11.7081 96.8307 15.6758 80.5508C20.5436 60.5751 28.6827 42.0371 40.6831 25.3014C46.571 17.0903 53.328 9.6402 62.045 4.29995C64.7022 2.67171 67.6951 1.58184 70.5655 0.316564C71.1559 0.0569176 71.8865 0.116181 72.5523 0.0283066C72.6629 0.300167 72.7733 0.572313 72.8839 0.844174Z" fill="#FF9441"/>
</svg>
