<svg width="160" height="41" viewBox="0 0 160 41" fill="none" xmlns="http://www.w3.org/2000/svg">
<path d="M0.675479 40.6796C0.503927 40.6796 0.343099 40.6155 0.192995 40.4873C0.0643325 40.3376 0 40.1773 0 40.0065C0 39.8783 0.0107221 39.7821 0.0321669 39.718L7.59109 19.1415C7.65543 18.8851 7.7948 18.6713 8.00925 18.5005C8.22366 18.3297 8.50244 18.2441 8.84555 18.2441H13.6061C13.9491 18.2441 14.2279 18.3297 14.4424 18.5005C14.6568 18.6713 14.7962 18.8851 14.8605 19.1415L22.3873 39.718L22.4516 40.0065C22.4516 40.1773 22.3765 40.3376 22.2264 40.4873C22.0978 40.6155 21.9369 40.6796 21.744 40.6796H17.7876C17.2729 40.6796 16.9298 40.4552 16.7583 40.0065L15.5038 36.7373H6.91562L5.69332 40.0065C5.52175 40.4552 5.16793 40.6796 4.63186 40.6796H0.675479ZM14.2172 32.122L11.2258 23.6607L8.23441 32.122H14.2172ZM27.6471 40.6796C27.2825 40.6796 26.9931 40.5834 26.7786 40.3911C26.5642 40.1773 26.4355 39.9209 26.3926 39.6219L22.8866 19.1415C22.8651 19.0774 22.8544 19.0027 22.8544 18.9172C22.8544 18.7463 22.9187 18.5966 23.0474 18.4684C23.1975 18.3188 23.3583 18.2441 23.5299 18.2441H27.5184C28.1189 18.2441 28.4512 18.479 28.5156 18.9492L30.6063 31.449L32.9222 24.0773C33.158 23.5004 33.5118 23.2119 33.9837 23.2119H36.2996C36.8358 23.2119 37.1896 23.5004 37.3611 24.0773L39.677 31.449L41.7678 18.9492C41.8321 18.479 42.1644 18.2441 42.7649 18.2441H46.7534C46.9464 18.2441 47.1073 18.3188 47.2359 18.4684C47.3861 18.5966 47.4611 18.7463 47.4611 18.9172L47.4289 19.1415L43.9229 39.6219C43.8801 39.9209 43.7405 40.1773 43.5047 40.3911C43.2902 40.5834 43.0116 40.6796 42.6684 40.6796H39.6127C39.2695 40.6796 39.0015 40.594 38.8085 40.4232C38.6155 40.2523 38.4763 40.06 38.3904 39.8462L35.1417 30.6798L31.8929 39.8462C31.6999 40.4017 31.3032 40.6796 30.7028 40.6796H27.6471ZM51.5799 40.6796C51.3657 40.6796 51.1727 40.6049 51.0009 40.4552C50.851 40.2844 50.7758 40.0921 50.7758 39.8783V19.0454C50.7758 18.8104 50.851 18.6181 51.0009 18.4684C51.1727 18.3188 51.3657 18.2441 51.5799 18.2441H66.6012C66.8373 18.2441 67.0303 18.3188 67.1802 18.4684C67.3304 18.6181 67.4054 18.8104 67.4054 19.0454V22.0581C67.4054 22.2719 67.3304 22.4642 67.1802 22.635C67.0303 22.7847 66.8373 22.8594 66.6012 22.8594H56.3404V27.1862H65.8936C66.1297 27.1862 66.3227 27.2718 66.4726 27.4426C66.6228 27.5923 66.6977 27.7846 66.6977 28.0195V30.808C66.6977 31.0217 66.6228 31.214 66.4726 31.3849C66.3227 31.5345 66.1297 31.6092 65.8936 31.6092H56.3404V36.0643H66.8586C67.0946 36.0643 67.2876 36.1389 67.4375 36.2886C67.5877 36.4383 67.6627 36.6306 67.6627 36.8655V39.8783C67.6627 40.0921 67.5877 40.2844 67.4375 40.4552C67.2876 40.6049 67.0946 40.6796 66.8586 40.6796H51.5799ZM79.7145 41.0001C77.6771 41.0001 75.9296 40.701 74.4715 40.1026C73.0131 39.5043 71.9089 38.7245 71.1584 37.7629C70.4293 36.78 70.0433 35.7117 70.0005 34.5579C70.0005 34.387 70.0648 34.2374 70.1935 34.1092C70.3434 33.9595 70.5151 33.8848 70.7081 33.8848H74.761C75.0183 33.8848 75.2219 33.9383 75.3721 34.0451C75.5436 34.1306 75.715 34.2694 75.8868 34.4617C76.1653 35.0172 76.6157 35.4768 77.2377 35.8399C77.8595 36.203 78.6852 36.3848 79.7145 36.3848C80.9368 36.3848 81.8696 36.1925 82.5129 35.8079C83.1562 35.4232 83.4779 34.8999 83.4779 34.2374C83.4779 33.7672 83.3061 33.3826 82.9632 33.0836C82.6416 32.7845 82.1269 32.5172 81.4193 32.2823C80.7116 32.0474 79.6608 31.78 78.267 31.481C75.6938 30.9467 73.7639 30.1669 72.4772 29.1413C71.2118 28.0942 70.5795 26.6093 70.5795 24.6863C70.5795 23.3828 70.9439 22.2184 71.6731 21.1928C72.402 20.1671 73.4422 19.3659 74.7932 18.789C76.1441 18.212 77.7202 17.9236 79.5215 17.9236C81.3871 17.9236 83.006 18.2441 84.3785 18.8851C85.7507 19.5261 86.7909 20.338 87.4986 21.321C88.2274 22.2825 88.6134 23.2334 88.6565 24.1735C88.6565 24.3658 88.5922 24.526 88.4635 24.6542C88.3349 24.7824 88.174 24.8465 87.9811 24.8465H83.7352C83.4779 24.8465 83.2633 24.8039 83.0919 24.7183C82.9417 24.6327 82.8024 24.494 82.6737 24.3017C82.5451 23.8103 82.1912 23.3937 81.6123 23.0517C81.0545 22.7097 80.3578 22.5389 79.5215 22.5389C78.5565 22.5389 77.8167 22.7097 77.3021 23.0517C76.7874 23.3937 76.5301 23.8956 76.5301 24.5581C76.5301 25.0068 76.6694 25.3808 76.9483 25.6798C77.2484 25.9789 77.7202 26.2568 78.3635 26.5132C79.0281 26.7481 79.9718 26.9939 81.1941 27.2503C83.1884 27.6135 84.7751 28.0731 85.9546 28.6285C87.1554 29.1628 88.0344 29.8679 88.5922 30.7439C89.1496 31.5986 89.4285 32.6775 89.4285 33.981C89.4285 35.4127 89.0103 36.6626 88.174 37.7309C87.359 38.778 86.2119 39.5898 84.7323 40.1667C83.2739 40.7222 81.6013 41.0001 79.7145 41.0001ZM101.847 41.0001C98.8234 41.0001 96.4432 40.2629 94.7062 38.7886C92.9693 37.3142 92.0474 35.1454 91.94 32.2823C91.9188 31.6627 91.9078 30.7438 91.9078 29.5259C91.9078 28.2865 91.9188 27.3571 91.94 26.7375C92.0474 23.9171 92.9802 21.7482 94.7384 20.2312C96.5184 18.6928 98.8878 17.9236 101.847 17.9236C104.806 17.9236 107.176 18.6928 108.956 20.2312C110.736 21.7482 111.668 23.9171 111.754 26.7375C111.797 27.9769 111.818 28.9064 111.818 29.5259C111.818 30.1243 111.797 31.0429 111.754 32.2823C111.647 35.1454 110.725 37.3142 108.988 38.7886C107.251 40.2629 104.871 41.0001 101.847 41.0001ZM101.847 36.3848C103.027 36.3848 103.959 36.0322 104.645 35.3271C105.353 34.622 105.728 33.5428 105.771 32.09C105.814 30.8506 105.836 29.9746 105.836 29.4618C105.836 28.9064 105.814 28.0301 105.771 26.8337C105.728 25.3808 105.353 24.3017 104.645 23.5966C103.938 22.8914 103.005 22.5389 101.847 22.5389C100.689 22.5389 99.7562 22.8914 99.0486 23.5966C98.3625 24.3017 97.9871 25.3808 97.9228 26.8337C97.9016 27.4321 97.8906 28.308 97.8906 29.4618C97.8906 30.5942 97.9016 31.4704 97.9228 32.09C97.9871 33.5428 98.3625 34.622 99.0486 35.3271C99.735 36.0322 100.668 36.3848 101.847 36.3848ZM116.351 40.6796C116.137 40.6796 115.944 40.6049 115.772 40.4552C115.622 40.2844 115.547 40.0921 115.547 39.8783V19.0454C115.547 18.8104 115.622 18.6181 115.772 18.4684C115.944 18.3188 116.137 18.2441 116.351 18.2441H119.825C120.34 18.2441 120.715 18.479 120.951 18.9492L126.612 29.0452L132.273 18.9492C132.509 18.479 132.884 18.2441 133.399 18.2441H136.841C137.076 18.2441 137.269 18.3188 137.42 18.4684C137.591 18.6181 137.677 18.8104 137.677 19.0454V39.8783C137.677 40.1132 137.591 40.3055 137.42 40.4552C137.269 40.6049 137.076 40.6796 136.841 40.6796H133.013C132.777 40.6796 132.573 40.6049 132.402 40.4552C132.252 40.3055 132.177 40.1132 132.177 39.8783V27.8593L128.574 34.5579C128.295 35.0492 127.92 35.295 127.448 35.295H125.776C125.497 35.295 125.272 35.2309 125.1 35.1027C124.928 34.9745 124.778 34.7928 124.65 34.5579L121.015 27.8593V39.8783C121.015 40.0921 120.94 40.2844 120.79 40.4552C120.64 40.6049 120.447 40.6796 120.211 40.6796H116.351ZM142.988 40.6796C142.774 40.6796 142.581 40.6049 142.409 40.4552C142.259 40.2844 142.184 40.0921 142.184 39.8783V19.0454C142.184 18.8104 142.259 18.6181 142.409 18.4684C142.581 18.3188 142.774 18.2441 142.988 18.2441H158.009C158.245 18.2441 158.438 18.3188 158.588 18.4684C158.739 18.6181 158.814 18.8104 158.814 19.0454V22.0581C158.814 22.2719 158.739 22.4642 158.588 22.635C158.438 22.7847 158.245 22.8594 158.009 22.8594H147.749V27.1862H157.302C157.538 27.1862 157.731 27.2718 157.881 27.4426C158.031 27.5923 158.106 27.7846 158.106 28.0195V30.808C158.106 31.0217 158.031 31.214 157.881 31.3849C157.731 31.5345 157.538 31.6092 157.302 31.6092H147.749V36.0643H158.267C158.503 36.0643 158.695 36.1389 158.846 36.2886C158.996 36.4383 159.071 36.6306 159.071 36.8655V39.8783C159.071 40.0921 158.996 40.2844 158.846 40.4552C158.695 40.6049 158.503 40.6796 158.267 40.6796H142.988Z" fill="#3F3D56"/>
<path d="M24.3742 11.4885C24.2669 11.4885 24.1706 11.4506 24.0851 11.3752C24.0099 11.2888 23.9727 11.1917 23.9727 11.0839V0.566332C23.9727 0.447564 24.0099 0.350481 24.0851 0.275078C24.1706 0.199675 24.2669 0.161809 24.3742 0.161809H31.7633C31.8809 0.161809 31.9773 0.199675 32.0524 0.275078C32.1273 0.350481 32.1649 0.447564 32.1649 0.566332V2.20061C32.1649 2.30837 32.1273 2.40545 32.0524 2.49186C31.9773 2.56726 31.8809 2.60513 31.7633 2.60513H26.7998V4.98372H31.442C31.5596 4.98372 31.656 5.02677 31.7312 5.11317C31.806 5.18857 31.8436 5.28566 31.8436 5.40443V7.02252C31.8436 7.13028 31.806 7.22737 31.7312 7.31378C31.656 7.38918 31.5596 7.42704 31.442 7.42704H26.7998V11.0839C26.7998 11.2027 26.7622 11.2998 26.6873 11.3752C26.6122 11.4506 26.5158 11.4885 26.3982 11.4885H24.3742ZM38.418 11.6503C36.908 11.6503 35.7194 11.2781 34.8519 10.5338C33.9845 9.78946 33.5238 8.69465 33.4705 7.24905C33.4596 6.93611 33.4544 6.47237 33.4544 5.85749C33.4544 5.23194 33.4596 4.76269 33.4705 4.44975C33.5238 3.02583 33.9897 1.93103 34.868 1.16503C35.7566 0.388344 36.9402 0 38.418 0C39.8958 0 41.079 0.388344 41.9679 1.16503C42.8566 1.93103 43.3224 3.02583 43.3654 4.44975C43.3867 5.07531 43.3976 5.54456 43.3976 5.85749C43.3976 6.15943 43.3867 6.6235 43.3654 7.24905C43.3118 8.69465 42.8514 9.78946 41.984 10.5338C41.1166 11.2781 39.9279 11.6503 38.418 11.6503ZM38.418 9.32021C39.0069 9.32021 39.4727 9.14222 39.8155 8.78624C40.1689 8.43026 40.3562 7.88561 40.3777 7.15197C40.3989 6.52641 40.4098 6.08403 40.4098 5.82513C40.4098 5.54455 40.3989 5.10249 40.3777 4.49829C40.3562 3.76465 40.1689 3.22 39.8155 2.86402C39.4621 2.50804 38.9963 2.33005 38.418 2.33005C37.8397 2.33005 37.3739 2.50804 37.0205 2.86402C36.6777 3.22 36.4904 3.76465 36.4583 4.49829C36.4473 4.80023 36.4422 5.24262 36.4422 5.82513C36.4422 6.39696 36.4473 6.83903 36.4583 7.15197C36.4904 7.88561 36.6777 8.43026 37.0205 8.78624C37.3629 9.14222 37.8288 9.32021 38.418 9.32021ZM49.8537 11.6503C48.3438 11.6503 47.1551 11.2781 46.2877 10.5338C45.4202 9.78946 44.9596 8.69465 44.9062 7.24905C44.8953 6.93611 44.8902 6.47237 44.8902 5.85749C44.8902 5.23194 44.8953 4.76269 44.9062 4.44975C44.9596 3.02583 45.4254 1.93103 46.3037 1.16503C47.1923 0.388344 48.3759 0 49.8537 0C51.3315 0 52.5147 0.388344 53.4037 1.16503C54.2923 1.93103 54.7581 3.02583 54.8012 4.44975C54.8224 5.07531 54.8333 5.54456 54.8333 5.85749C54.8333 6.15943 54.8224 6.6235 54.8012 7.24905C54.7475 8.69465 54.2871 9.78946 53.4197 10.5338C52.5523 11.2781 51.3636 11.6503 49.8537 11.6503ZM49.8537 9.32021C50.4426 9.32021 50.9084 9.14222 51.2512 8.78624C51.6046 8.43026 51.7919 7.88561 51.8134 7.15197C51.8346 6.52641 51.8455 6.08403 51.8455 5.82513C51.8455 5.54455 51.8346 5.10249 51.8134 4.49829C51.7919 3.76465 51.6046 3.22 51.2512 2.86402C50.8978 2.50804 50.432 2.33005 49.8537 2.33005C49.2754 2.33005 48.8096 2.50804 48.4562 2.86402C48.1134 3.22 47.9261 3.76465 47.894 4.49829C47.8831 4.80023 47.8779 5.24262 47.8779 5.82513C47.8779 6.39696 47.8831 6.83903 47.894 7.15197C47.9261 7.88561 48.1134 8.43026 48.4562 8.78624C48.7987 9.14222 49.2645 9.32021 49.8537 9.32021ZM57.0966 11.4885C56.9896 11.4885 56.8932 11.4506 56.8075 11.3752C56.7326 11.2888 56.695 11.1917 56.695 11.0839V0.566332C56.695 0.447564 56.7326 0.350481 56.8075 0.275078C56.8932 0.199675 56.9896 0.161809 57.0966 0.161809H61.273C62.8472 0.161809 64.068 0.539472 64.9354 1.29447C65.8029 2.04948 66.2581 3.1446 66.3008 4.5792C66.3117 4.89214 66.3169 5.30734 66.3169 5.82513C66.3169 6.34292 66.3117 6.75295 66.3008 7.05488C66.2475 8.55421 65.8029 9.67069 64.9676 10.4043C64.1432 11.127 62.9385 11.4885 61.3533 11.4885H57.0966ZM61.273 9.1584C61.9798 9.1584 62.4993 8.99109 62.8312 8.65679C63.1634 8.31149 63.34 7.76684 63.3612 7.02252C63.3828 6.70958 63.3934 6.30506 63.3934 5.80895C63.3934 5.31284 63.3828 4.9135 63.3612 4.61156C63.34 3.88892 63.1473 3.35495 62.783 3.00965C62.4296 2.66435 61.8995 2.49186 61.1927 2.49186H59.5864V9.1584H61.273Z" fill="#3F3D56"/>
</svg>
