<svg width="83" height="22" viewBox="0 0 83 22" fill="none" xmlns="http://www.w3.org/2000/svg">
<path d="M0.349202 21.0301C0.260515 21.0301 0.177372 20.997 0.0997724 20.9307C0.0332579 20.8533 0 20.7705 0 20.6822C0 20.6159 0.00554298 20.5662 0.0166293 20.5331L3.92436 9.89562C3.95762 9.76307 4.02967 9.65255 4.14053 9.56424C4.25138 9.47592 4.3955 9.43168 4.57288 9.43168H7.03391C7.21127 9.43168 7.3554 9.47592 7.46626 9.56424C7.5771 9.65255 7.64917 9.76307 7.68243 9.89562L11.5735 20.5331L11.6068 20.6822C11.6068 20.7705 11.568 20.8533 11.4904 20.9307C11.4239 20.997 11.3407 21.0301 11.241 21.0301H9.19563C8.92958 21.0301 8.7522 20.9141 8.66352 20.6822L8.015 18.9921H3.57516L2.94327 20.6822C2.85458 20.9141 2.67166 21.0301 2.39453 21.0301H0.349202ZM7.34986 16.6062L5.8034 12.2319L4.25693 16.6062H7.34986ZM14.2927 21.0301C14.1042 21.0301 13.9546 20.9804 13.8437 20.881C13.7329 20.7705 13.6663 20.6379 13.6442 20.4833L11.8317 9.89562C11.8206 9.86248 11.815 9.82388 11.815 9.77964C11.815 9.69132 11.8483 9.61394 11.9148 9.54767C11.9924 9.47029 12.0755 9.43168 12.1642 9.43168H14.2262C14.5366 9.43168 14.7084 9.55314 14.7417 9.79621L15.8225 16.2582L17.0198 12.4473C17.1417 12.149 17.3246 11.9999 17.5685 11.9999H18.7658C19.043 11.9999 19.2259 12.149 19.3145 12.4473L20.5118 16.2582L21.5927 9.79621C21.6259 9.55314 21.7977 9.43168 22.1081 9.43168H24.1701C24.2699 9.43168 24.353 9.47029 24.4195 9.54767C24.4972 9.61394 24.5359 9.69132 24.5359 9.77964L24.5193 9.89562L22.7068 20.4833C22.6847 20.6379 22.6125 20.7705 22.4906 20.881C22.3797 20.9804 22.2357 21.0301 22.0583 21.0301H20.4785C20.3011 21.0301 20.1626 20.9859 20.0628 20.8976C19.963 20.8093 19.891 20.7098 19.8466 20.5993L18.1672 15.8605L16.4877 20.5993C16.3879 20.8865 16.1828 21.0301 15.8724 21.0301H14.2927ZM26.6652 21.0301C26.5545 21.0301 26.4547 20.9915 26.3659 20.9141C26.2884 20.8258 26.2495 20.7264 26.2495 20.6159V9.84591C26.2495 9.72446 26.2884 9.62505 26.3659 9.54767C26.4547 9.47029 26.5545 9.43168 26.6652 9.43168H34.4308C34.5528 9.43168 34.6526 9.47029 34.7301 9.54767C34.8078 9.62505 34.8465 9.72446 34.8465 9.84591V11.4034C34.8465 11.5139 34.8078 11.6134 34.7301 11.7017C34.6526 11.779 34.5528 11.8176 34.4308 11.8176H29.1263V14.0545H34.065C34.187 14.0545 34.2868 14.0987 34.3643 14.187C34.4419 14.2644 34.4807 14.3638 34.4807 14.4853V15.9268C34.4807 16.0373 34.4419 16.1367 34.3643 16.2251C34.2868 16.3024 34.187 16.341 34.065 16.341H29.1263V18.6442H34.5638C34.6859 18.6442 34.7856 18.6828 34.8631 18.7601C34.9408 18.8375 34.9795 18.9369 34.9795 19.0584V20.6159C34.9795 20.7264 34.9408 20.8258 34.8631 20.9141C34.7856 20.9915 34.6859 21.0301 34.5638 21.0301H26.6652ZM41.2099 21.1958C40.1567 21.1958 39.2532 21.0412 38.4995 20.7319C37.7455 20.4225 37.1747 20.0194 36.7867 19.5223C36.4098 19.0142 36.2102 18.4619 36.1881 17.8654C36.1881 17.7771 36.2214 17.6997 36.2879 17.6334C36.3654 17.5561 36.4542 17.5175 36.5539 17.5175H38.6491C38.7822 17.5175 38.8874 17.5451 38.9651 17.6003C39.0537 17.6445 39.1423 17.7163 39.2311 17.8157C39.3751 18.1028 39.6079 18.3404 39.9295 18.5282C40.251 18.7159 40.6778 18.8099 41.2099 18.8099C41.8418 18.8099 42.3241 18.7104 42.6566 18.5116C42.9892 18.3128 43.1555 18.0422 43.1555 17.6997C43.1555 17.4566 43.0667 17.2578 42.8894 17.1032C42.7231 16.9486 42.4571 16.8104 42.0913 16.689C41.7254 16.5675 41.1822 16.4294 40.4617 16.2748C39.1314 15.9986 38.1336 15.5954 37.4685 15.0652C36.8143 14.5239 36.4874 13.7562 36.4874 12.7621C36.4874 12.0882 36.6758 11.4863 37.0528 10.956C37.4296 10.4258 37.9674 10.0116 38.6658 9.71336C39.3642 9.41511 40.179 9.26599 41.1102 9.26599C42.0746 9.26599 42.9115 9.43168 43.6211 9.76307C44.3305 10.0945 44.8682 10.5142 45.2341 11.0223C45.6109 11.5194 45.8104 12.011 45.8327 12.497C45.8327 12.5964 45.7994 12.6792 45.7329 12.7455C45.6664 12.8118 45.5833 12.8449 45.4835 12.8449H43.2885C43.1555 12.8449 43.0446 12.8229 42.9559 12.7787C42.8783 12.7344 42.8063 12.6627 42.7398 12.5633C42.6733 12.3093 42.4903 12.0939 42.191 11.9171C41.9027 11.7403 41.5425 11.652 41.1102 11.652C40.6113 11.652 40.2289 11.7403 39.9628 11.9171C39.6967 12.0939 39.5637 12.3533 39.5637 12.6958C39.5637 12.9278 39.6357 13.1211 39.7799 13.2757C39.935 13.4303 40.179 13.574 40.5115 13.7065C40.8551 13.828 41.343 13.9551 41.9749 14.0876C43.0058 14.2754 43.8261 14.513 44.4359 14.8001C45.0566 15.0763 45.5111 15.4408 45.7994 15.8937C46.0876 16.3356 46.2318 16.8933 46.2318 17.5672C46.2318 18.3073 46.0156 18.9535 45.5833 19.5058C45.1619 20.0471 44.5689 20.4668 43.804 20.765C43.0501 21.0522 42.1854 21.1958 41.2099 21.1958ZM52.6518 21.1958C51.0887 21.1958 49.8582 20.8147 48.9602 20.0525C48.0623 19.2904 47.5857 18.1691 47.5301 16.689C47.5192 16.3687 47.5135 15.8937 47.5135 15.264C47.5135 14.6233 47.5192 14.1428 47.5301 13.8225C47.5857 12.3644 48.0679 11.2432 48.9768 10.459C49.8971 9.66365 51.1219 9.26599 52.6518 9.26599C54.1816 9.26599 55.4066 9.66365 56.3267 10.459C57.2469 11.2432 57.7291 12.3644 57.7734 13.8225C57.7957 14.4633 57.8066 14.9438 57.8066 15.264C57.8066 15.5734 57.7957 16.0483 57.7734 16.689C57.718 18.1691 57.2413 19.2904 56.3433 20.0525C55.4454 20.8147 54.2149 21.1958 52.6518 21.1958ZM52.6518 18.8099C53.2615 18.8099 53.7438 18.6276 54.0985 18.2631C54.4643 17.8985 54.6583 17.3407 54.6805 16.5896C54.7027 15.9488 54.7137 15.496 54.7137 15.2309C54.7137 14.9438 54.7027 14.4908 54.6805 13.8722C54.6583 13.1211 54.4643 12.5633 54.0985 12.1987C53.7326 11.8342 53.2504 11.652 52.6518 11.652C52.0531 11.652 51.5709 11.8342 51.2051 12.1987C50.8504 12.5633 50.6563 13.1211 50.6231 13.8722C50.6121 14.1816 50.6064 14.6344 50.6064 15.2309C50.6064 15.8163 50.6121 16.2693 50.6231 16.5896C50.6563 17.3407 50.8504 17.8985 51.2051 18.2631C51.5599 18.6276 52.0422 18.8099 52.6518 18.8099ZM60.1499 21.0301C60.039 21.0301 59.9393 20.9915 59.8506 20.9141C59.773 20.8258 59.7342 20.7264 59.7342 20.6159V9.84591C59.7342 9.72446 59.773 9.62505 59.8506 9.54767C59.9393 9.47029 60.039 9.43168 60.1499 9.43168H61.9458C62.2119 9.43168 62.4058 9.55314 62.5278 9.79621L65.4545 15.0155L68.3811 9.79621C68.503 9.55314 68.697 9.43168 68.9631 9.43168H70.7424C70.8643 9.43168 70.964 9.47029 71.0417 9.54767C71.1303 9.62505 71.1747 9.72446 71.1747 9.84591V20.6159C71.1747 20.7373 71.1303 20.8368 71.0417 20.9141C70.964 20.9915 70.8643 21.0301 70.7424 21.0301H68.7636C68.6415 21.0301 68.5362 20.9915 68.4476 20.9141C68.37 20.8368 68.3312 20.7373 68.3312 20.6159V14.4024L66.4688 17.8654C66.3246 18.1194 66.1306 18.2465 65.8868 18.2465H65.0221C64.878 18.2465 64.7616 18.2134 64.6729 18.1471C64.5841 18.0808 64.5066 17.9869 64.4401 17.8654L62.5611 14.4024V20.6159C62.5611 20.7264 62.5222 20.8258 62.4447 20.9141C62.367 20.9915 62.2673 21.0301 62.1454 21.0301H60.1499ZM73.9204 21.0301C73.8095 21.0301 73.7097 20.9915 73.6211 20.9141C73.5435 20.8258 73.5047 20.7264 73.5047 20.6159V9.84591C73.5047 9.72446 73.5435 9.62505 73.6211 9.54767C73.7097 9.47029 73.8095 9.43168 73.9204 9.43168H81.686C81.8079 9.43168 81.9077 9.47029 81.9853 9.54767C82.063 9.62505 82.1017 9.72446 82.1017 9.84591V11.4034C82.1017 11.5139 82.063 11.6134 81.9853 11.7017C81.9077 11.779 81.8079 11.8176 81.686 11.8176H76.3815V14.0545H81.3202C81.4421 14.0545 81.5418 14.0987 81.6195 14.187C81.6971 14.2644 81.7359 14.3638 81.7359 14.4853V15.9268C81.7359 16.0373 81.6971 16.1367 81.6195 16.2251C81.5418 16.3024 81.4421 16.341 81.3202 16.341H76.3815V18.6442H81.819C81.9409 18.6442 82.0407 18.6828 82.1183 18.7601C82.196 18.8375 82.2347 18.9369 82.2347 19.0584V20.6159C82.2347 20.7264 82.196 20.8258 82.1183 20.9141C82.0407 20.9915 81.9409 21.0301 81.819 21.0301H73.9204Z" fill="white"/>
<path d="M12.6007 5.93918C12.5452 5.93918 12.4954 5.9196 12.4512 5.88062C12.4123 5.83595 12.3931 5.78576 12.3931 5.73005V0.292776C12.3931 0.231377 12.4123 0.181188 12.4512 0.142207C12.4954 0.103226 12.5452 0.0836504 12.6007 0.0836504H16.4206C16.4814 0.0836504 16.5312 0.103226 16.5701 0.142207C16.6088 0.181188 16.6282 0.231377 16.6282 0.292776V1.13765C16.6282 1.19336 16.6088 1.24355 16.5701 1.28822C16.5312 1.3272 16.4814 1.34677 16.4206 1.34677H13.8546V2.57643H16.2545C16.3153 2.57643 16.3651 2.59868 16.404 2.64335C16.4427 2.68233 16.4621 2.73252 16.4621 2.79392V3.63043C16.4621 3.68614 16.4427 3.73633 16.404 3.781C16.3651 3.81998 16.3153 3.83955 16.2545 3.83955H13.8546V5.73005C13.8546 5.79145 13.8352 5.84164 13.7965 5.88062C13.7576 5.9196 13.7078 5.93918 13.647 5.93918H12.6007ZM19.8609 6.02283C19.0803 6.02283 18.4658 5.83043 18.0173 5.44564C17.5689 5.06085 17.3307 4.49487 17.3032 3.74754C17.2975 3.58576 17.2949 3.34602 17.2949 3.02814C17.2949 2.70475 17.2975 2.46216 17.3032 2.30039C17.3307 1.56426 17.5716 0.998284 18.0256 0.602284C18.485 0.200762 19.0969 0 19.8609 0C20.6248 0 21.2365 0.200762 21.6961 0.602284C22.1555 0.998284 22.3963 1.56426 22.4185 2.30039C22.4295 2.62378 22.4352 2.86636 22.4352 3.02814C22.4352 3.18424 22.4295 3.42414 22.4185 3.74754C22.3908 4.49487 22.1528 5.06085 21.7044 5.44564C21.256 5.83043 20.6414 6.02283 19.8609 6.02283ZM19.8609 4.81826C20.1653 4.81826 20.4061 4.72624 20.5833 4.54221C20.766 4.35818 20.8628 4.07662 20.874 3.69735C20.8849 3.37395 20.8906 3.14525 20.8906 3.01141C20.8906 2.86636 20.8849 2.63783 20.874 2.32548C20.8628 1.94621 20.766 1.66464 20.5833 1.48061C20.4006 1.29658 20.1598 1.20456 19.8609 1.20456C19.5619 1.20456 19.3211 1.29658 19.1384 1.48061C18.9612 1.66464 18.8644 1.94621 18.8477 2.32548C18.8421 2.48157 18.8394 2.71027 18.8394 3.01141C18.8394 3.30703 18.8421 3.53557 18.8477 3.69735C18.8644 4.07662 18.9612 4.35818 19.1384 4.54221C19.3154 4.72624 19.5563 4.81826 19.8609 4.81826ZM25.7728 6.02283C24.9922 6.02283 24.3777 5.83043 23.9292 5.44564C23.4808 5.06085 23.2427 4.49487 23.2151 3.74754C23.2094 3.58576 23.2068 3.34602 23.2068 3.02814C23.2068 2.70475 23.2094 2.46216 23.2151 2.30039C23.2427 1.56426 23.4835 0.998284 23.9375 0.602284C24.3969 0.200762 25.0088 0 25.7728 0C26.5368 0 27.1484 0.200762 27.608 0.602284C28.0674 0.998284 28.3082 1.56426 28.3305 2.30039C28.3414 2.62378 28.3471 2.86636 28.3471 3.02814C28.3471 3.18424 28.3414 3.42414 28.3305 3.74754C28.3027 4.49487 28.0647 5.06085 27.6163 5.44564C27.1679 5.83043 26.5534 6.02283 25.7728 6.02283ZM25.7728 4.81826C26.0772 4.81826 26.318 4.72624 26.4952 4.54221C26.6779 4.35818 26.7748 4.07662 26.7859 3.69735C26.7968 3.37395 26.8025 3.14525 26.8025 3.01141C26.8025 2.86636 26.7968 2.63783 26.7859 2.32548C26.7748 1.94621 26.6779 1.66464 26.4952 1.48061C26.3125 1.29658 26.0717 1.20456 25.7728 1.20456C25.4738 1.20456 25.233 1.29658 25.0503 1.48061C24.8731 1.66464 24.7763 1.94621 24.7597 2.32548C24.754 2.48157 24.7514 2.71027 24.7514 3.01141C24.7514 3.30703 24.754 3.53557 24.7597 3.69735C24.7763 4.07662 24.8731 4.35818 25.0503 4.54221C25.2273 4.72624 25.4682 4.81826 25.7728 4.81826ZM29.5171 5.93918C29.4618 5.93918 29.412 5.9196 29.3677 5.88062C29.329 5.83595 29.3095 5.78576 29.3095 5.73005V0.292776C29.3095 0.231377 29.329 0.181188 29.3677 0.142207C29.412 0.103226 29.4618 0.0836504 29.5171 0.0836504H31.6762C32.49 0.0836504 33.1211 0.27889 33.5696 0.669203C34.018 1.05952 34.2533 1.62566 34.2754 2.3673C34.2811 2.52908 34.2837 2.74373 34.2837 3.01141C34.2837 3.27909 34.2811 3.49106 34.2754 3.64716C34.2479 4.42226 34.018 4.99945 33.5862 5.37872C33.16 5.7523 32.5372 5.93918 31.7177 5.93918H29.5171ZM31.6762 4.73461C32.0416 4.73461 32.3102 4.64812 32.4817 4.47529C32.6535 4.29678 32.7448 4.01522 32.7558 3.63043C32.7669 3.46865 32.7724 3.25952 32.7724 3.00305C32.7724 2.74658 32.7669 2.54013 32.7558 2.38404C32.7448 2.01045 32.6451 1.73441 32.4568 1.5559C32.2741 1.37739 32.0001 1.28822 31.6347 1.28822H30.8043V4.73461H31.6762Z" fill="white"/>
</svg>
