<svg width="52" height="28" viewBox="0 0 52 28" fill="none" xmlns="http://www.w3.org/2000/svg">
<path d="M51.824 10.6172C39.9003 11.4398 27.8365 13.6766 14.5955 11.5642C19.4693 8.19125 23.5343 5.37811 28.0948 2.22221C24.9377 -0.519835 22.1309 -0.517302 19.4913 1.10508C13.7147 4.65577 7.97403 8.33594 2.39556 12.3589C-1.06984 14.8572 -0.714483 18.1896 3.06622 20.255C5.11924 21.3759 7.3274 22.0462 9.47451 22.8866C13 24.2652 16.5254 25.6464 20.0669 26.9603C21.205 27.383 22.3912 27.6001 23.8906 28C23.8526 23.5188 21.185 23.2331 19.4543 21.9548C17.5885 20.5761 15.5465 19.5809 13.5815 18.4193C13.6436 17.9814 13.7056 17.5434 13.7677 17.1054C20.2731 17.1054 26.7895 17.3911 33.2818 17.0166C38.7222 16.703 44.1375 15.6481 49.5578 14.8509C51.0453 14.6325 52.5157 14.1679 51.824 10.6172Z" fill="#FF9441"/>
</svg>
