<svg width="21" height="21" viewBox="0 0 21 21" fill="none" xmlns="http://www.w3.org/2000/svg">
<g clip-path="url(#clip0_919_1313)">
<path d="M17.0625 8.53125C17.0625 10.4139 16.4514 12.1529 15.4219 13.5639L20.6145 18.7605C21.1271 19.2732 21.1271 20.1059 20.6145 20.6186C20.1018 21.1313 19.2691 21.1313 18.7564 20.6186L13.5639 15.4219C12.1529 16.4555 10.4139 17.0625 8.53125 17.0625C3.81855 17.0625 0 13.2439 0 8.53125C0 3.81855 3.81855 0 8.53125 0C13.2439 0 17.0625 3.81855 17.0625 8.53125ZM8.53125 14.4375C11.792 14.4375 14.4375 11.792 14.4375 8.53125C14.4375 5.27051 11.792 2.625 8.53125 2.625C5.27051 2.625 2.625 5.27051 2.625 8.53125C2.625 11.792 5.27051 14.4375 8.53125 14.4375Z" fill="white"/>
</g>
<defs>
<clipPath id="clip0_919_1313">
<rect width="21" height="21" fill="white"/>
</clipPath>
</defs>
</svg>
