<svg width="32" height="60" viewBox="0 0 32 60" fill="none" xmlns="http://www.w3.org/2000/svg">
<path d="M19.8661 0.203056C18.926 13.9612 16.3696 27.881 18.7837 43.159C22.6386 37.5354 25.8536 32.845 29.4603 27.583C32.5941 31.2258 32.5912 34.4643 30.7371 37.51C26.6791 44.1754 22.4732 50.7992 17.8756 57.2359C15.0204 61.2344 11.2119 60.8244 8.85144 56.462C7.57037 54.0932 6.80434 51.5453 5.8439 49.0679C4.26831 45 2.68984 40.9322 1.18825 36.8459C0.705125 35.5327 0.457008 34.164 0 32.4339C5.12139 32.4778 5.44784 35.5558 6.90881 37.5527C8.4844 39.7056 9.62182 42.0618 10.9493 44.329C11.4499 44.2574 11.9504 44.1858 12.4509 44.1142C12.4509 36.608 12.1245 29.0891 12.5525 21.5979C12.9108 15.3206 14.1165 9.07213 15.0276 2.81792C15.2771 1.10162 15.8081 -0.595032 19.8661 0.203056Z" fill="#FF9441"/>
</svg>
