<svg width="22" height="21" viewBox="0 0 22 21" fill="none" xmlns="http://www.w3.org/2000/svg">
<path d="M11.5232 1.06792L11.5244 1.07023L14.2033 6.49599L14.3778 6.84951L14.768 6.90617L20.7531 7.77535C20.7533 7.77538 20.7535 7.77541 20.7537 7.77544C20.9772 7.80869 21.1549 7.96107 21.2223 8.162C21.2875 8.35612 21.236 8.57626 21.0812 8.72684L21.0809 8.72712L16.7397 12.9554L16.4569 13.2308L16.5239 13.6199L17.5526 19.5931C17.5526 19.5934 17.5527 19.5936 17.5527 19.5939C17.5867 19.7962 17.5027 20.0095 17.318 20.1418C17.1413 20.2683 16.8992 20.2872 16.6936 20.1811C16.6931 20.1809 16.6927 20.1806 16.6922 20.1804L11.3501 17.3728L11.0012 17.1894L10.6522 17.3728L5.31014 20.1804C5.30967 20.1806 5.3092 20.1809 5.30872 20.1811C5.1072 20.2851 4.86246 20.2675 4.68027 20.1389C4.50204 20.0131 4.41513 19.7991 4.44965 19.5938C4.44968 19.5936 4.44972 19.5934 4.44975 19.5931L5.47437 13.6194L5.54106 13.2306L5.25846 12.9554L0.91726 8.72712L0.916969 8.72684C0.765818 8.57978 0.711616 8.35859 0.777722 8.15634C0.840555 7.9641 1.01679 7.80931 1.24445 7.77545C1.24467 7.77541 1.24489 7.77538 1.24511 7.77535L7.22611 6.90616L7.61622 6.84947L7.79074 6.49599L10.4683 1.07291C10.4685 1.07257 10.4686 1.07222 10.4688 1.07187C10.5663 0.877313 10.7676 0.75 10.997 0.75C11.2305 0.75 11.4315 0.880603 11.5232 1.06792Z" stroke="#FFD600" stroke-width="1.5"/>
</svg>
