<svg width="22" height="21" viewBox="0 0 22 21" fill="none" xmlns="http://www.w3.org/2000/svg">
<path d="M12.1969 0.738199C11.9761 0.287077 11.5094 0 10.997 0C10.4846 0 10.0221 0.287077 9.79713 0.738199L7.11825 6.16396L1.13555 7.03339C0.635607 7.10721 0.218985 7.4517 0.0648348 7.92333C-0.0893154 8.39496 0.0356711 8.9158 0.393966 9.26439L4.73517 13.4926L3.71028 19.4679C3.62695 19.9601 3.83526 20.4604 4.24772 20.7516C4.66018 21.0428 5.20595 21.0797 5.6559 20.8459L11.0012 18.0367L16.3464 20.8459C16.7964 21.0797 17.3422 21.0469 17.7546 20.7516C18.1671 20.4563 18.3754 19.9601 18.2921 19.4679L17.263 13.4926L21.6042 9.26439C21.9625 8.9158 22.0916 8.39496 21.9333 7.92333C21.775 7.4517 21.3626 7.10721 20.8626 7.03339L14.8758 6.16396L12.1969 0.738199Z" fill="#FFD600"/>
</svg>
